{
	"asset":{
		"generator":"Khronos glTF Blender I/O v5.2.39",
		"version":"2.0"
	},
	"scene":0,
	"scenes":[
		{
			"name":"Scene",
			"nodes":[
				19
			]
		},
		{
			"name":"Scene.001"
		}
	],
	"nodes":[
		{
			"mesh":0,
			"name":"main_collider_box",
			"translation":[
				-0.040943171828985214,
				0.49696192145347595,
				0
			]
		},
		{
			"mesh":1,
			"name":"Cylinder.001",
			"rotation":[
				2.6692537957728746e-08,
				2.6692537957728746e-08,
				0.7071067690849304,
				0.7071067690849304
			],
			"translation":[
				-0.0031108856201171875,
				0.012082353234291077,
				-1.3597105386065067e-10
			]
		},
		{
			"children":[
				1
			],
			"name":"button",
			"rotation":[
				1.5454309831852697e-08,
				1.5454309831852697e-08,
				-0.7071067690849304,
				0.7071067690849304
			],
			"translation":[
				0.15174506604671478,
				0.16490131616592407,
				0
			]
		},
		{
			"mesh":2,
			"name":"Cube.005",
			"rotation":[
				4.833992051089808e-08,
				4.833993116903912e-08,
				0.7071067094802856,
				0.7071068286895752
			],
			"scale":[
				0.9999997019767761,
				0.9999998807907104,
				1
			],
			"translation":[
				-0.0019844472408294678,
				0.13254904747009277,
				2.7133884028529565e-10
			]
		},
		{
			"children":[
				3
			],
			"name":"lid",
			"rotation":[
				2.055715064841479e-08,
				-6.519893247514119e-08,
				0.3007059097290039,
				0.9537169337272644
			],
			"scale":[
				1,
				1.0000001192092896,
				1
			],
			"translation":[
				-0.12540212273597717,
				0.32756519317626953,
				0
			]
		},
		{
			"mesh":3,
			"name":"Cube",
			"translation":[
				0.007147209718823433,
				0.14268451929092407,
				0
			]
		},
		{
			"mesh":4,
			"name":"Cube.002",
			"translation":[
				0.007147209718823433,
				0.14268451929092407,
				0
			]
		},
		{
			"mesh":5,
			"name":"Cube.004",
			"translation":[
				0.007147209718823433,
				0.32954996824264526,
				0
			]
		},
		{
			"mesh":6,
			"name":"frame",
			"translation":[
				0.15577679872512817,
				0.25925928354263306,
				0
			]
		},
		{
			"children":[
				2,
				4,
				5,
				6,
				7,
				8
			],
			"name":"box",
			"translation":[
				-0.03077678568661213,
				0.6677152514457703,
				0
			]
		},
		{
			"mesh":7,
			"name":"base",
			"scale":[
				0.8422189950942993,
				1,
				0.8422189950942993
			],
			"translation":[
				-0.03027934953570366,
				0.06107310950756073,
				0
			]
		},
		{
			"mesh":8,
			"name":"Cylinder.002",
			"scale":[
				0.8422189950942993,
				1,
				0.8422189950942993
			],
			"translation":[
				-0.18974027037620544,
				0.13180464506149292,
				-0.17007969319820404
			]
		},
		{
			"mesh":9,
			"name":"Cylinder.003",
			"scale":[
				0.8422189950942993,
				1,
				0.8422189950942993
			],
			"translation":[
				0.12918159365653992,
				0.13180464506149292,
				-0.17007969319820404
			]
		},
		{
			"mesh":10,
			"name":"Cylinder.004",
			"scale":[
				0.8422189950942993,
				1,
				0.8422189950942993
			],
			"translation":[
				-0.18974027037620544,
				0.13180464506149292,
				0.17007969319820404
			]
		},
		{
			"mesh":11,
			"name":"Cylinder.008",
			"scale":[
				0.8422189950942993,
				1,
				0.8422189950942993
			],
			"translation":[
				0.12918159365653992,
				0.13180464506149292,
				0.17007969319820404
			]
		},
		{
			"mesh":12,
			"name":"leg",
			"translation":[
				-0.03077678568661213,
				0.3912580609321594,
				-6.97332143317908e-05
			]
		},
		{
			"mesh":13,
			"name":"rope.001",
			"translation":[
				-0.030773978680372238,
				0.1771032214164734,
				-7.237833051476628e-05
			]
		},
		{
			"mesh":14,
			"name":"rope.002",
			"translation":[
				-0.03051505610346794,
				0.1383867710828781,
				0.0008301376947201788
			]
		},
		{
			"children":[
				9,
				10,
				11,
				12,
				13,
				14,
				15,
				16,
				17
			],
			"name":"root"
		},
		{
			"children":[
				0,
				18
			],
			"name":"Armature",
			"scale":[
				1,
				0.875,
				1
			]
		}
	],
	"animations":[
		{
			"channels":[
				{
					"sampler":0,
					"target":{
						"node":18,
						"path":"translation"
					}
				},
				{
					"sampler":1,
					"target":{
						"node":18,
						"path":"rotation"
					}
				},
				{
					"sampler":2,
					"target":{
						"node":18,
						"path":"scale"
					}
				},
				{
					"sampler":3,
					"target":{
						"node":9,
						"path":"translation"
					}
				},
				{
					"sampler":4,
					"target":{
						"node":9,
						"path":"rotation"
					}
				},
				{
					"sampler":5,
					"target":{
						"node":9,
						"path":"scale"
					}
				},
				{
					"sampler":6,
					"target":{
						"node":2,
						"path":"translation"
					}
				},
				{
					"sampler":7,
					"target":{
						"node":2,
						"path":"rotation"
					}
				},
				{
					"sampler":8,
					"target":{
						"node":2,
						"path":"scale"
					}
				},
				{
					"sampler":9,
					"target":{
						"node":4,
						"path":"translation"
					}
				},
				{
					"sampler":10,
					"target":{
						"node":4,
						"path":"rotation"
					}
				},
				{
					"sampler":11,
					"target":{
						"node":4,
						"path":"scale"
					}
				}
			],
			"name":"Activate",
			"samplers":[
				{
					"input":93,
					"interpolation":"STEP",
					"output":94
				},
				{
					"input":93,
					"interpolation":"STEP",
					"output":95
				},
				{
					"input":93,
					"interpolation":"STEP",
					"output":96
				},
				{
					"input":97,
					"interpolation":"LINEAR",
					"output":98
				},
				{
					"input":97,
					"interpolation":"LINEAR",
					"output":99
				},
				{
					"input":93,
					"interpolation":"STEP",
					"output":96
				},
				{
					"input":97,
					"interpolation":"LINEAR",
					"output":100
				},
				{
					"input":93,
					"interpolation":"STEP",
					"output":101
				},
				{
					"input":93,
					"interpolation":"STEP",
					"output":96
				},
				{
					"input":93,
					"interpolation":"STEP",
					"output":102
				},
				{
					"input":97,
					"interpolation":"LINEAR",
					"output":103
				},
				{
					"input":93,
					"interpolation":"STEP",
					"output":104
				}
			]
		},
		{
			"channels":[
				{
					"sampler":0,
					"target":{
						"node":18,
						"path":"translation"
					}
				},
				{
					"sampler":1,
					"target":{
						"node":18,
						"path":"rotation"
					}
				},
				{
					"sampler":2,
					"target":{
						"node":18,
						"path":"scale"
					}
				},
				{
					"sampler":3,
					"target":{
						"node":9,
						"path":"translation"
					}
				},
				{
					"sampler":4,
					"target":{
						"node":9,
						"path":"rotation"
					}
				},
				{
					"sampler":5,
					"target":{
						"node":9,
						"path":"scale"
					}
				},
				{
					"sampler":6,
					"target":{
						"node":2,
						"path":"translation"
					}
				},
				{
					"sampler":7,
					"target":{
						"node":2,
						"path":"rotation"
					}
				},
				{
					"sampler":8,
					"target":{
						"node":2,
						"path":"scale"
					}
				},
				{
					"sampler":9,
					"target":{
						"node":4,
						"path":"translation"
					}
				},
				{
					"sampler":10,
					"target":{
						"node":4,
						"path":"rotation"
					}
				},
				{
					"sampler":11,
					"target":{
						"node":4,
						"path":"scale"
					}
				}
			],
			"name":"ArmatureAction",
			"samplers":[
				{
					"input":93,
					"interpolation":"STEP",
					"output":94
				},
				{
					"input":93,
					"interpolation":"STEP",
					"output":95
				},
				{
					"input":93,
					"interpolation":"STEP",
					"output":96
				},
				{
					"input":93,
					"interpolation":"STEP",
					"output":105
				},
				{
					"input":93,
					"interpolation":"STEP",
					"output":95
				},
				{
					"input":93,
					"interpolation":"STEP",
					"output":96
				},
				{
					"input":93,
					"interpolation":"STEP",
					"output":106
				},
				{
					"input":93,
					"interpolation":"STEP",
					"output":101
				},
				{
					"input":93,
					"interpolation":"STEP",
					"output":96
				},
				{
					"input":93,
					"interpolation":"STEP",
					"output":102
				},
				{
					"input":93,
					"interpolation":"STEP",
					"output":107
				},
				{
					"input":93,
					"interpolation":"STEP",
					"output":104
				}
			]
		},
		{
			"channels":[
				{
					"sampler":0,
					"target":{
						"node":0,
						"path":"translation"
					}
				},
				{
					"sampler":1,
					"target":{
						"node":0,
						"path":"rotation"
					}
				},
				{
					"sampler":2,
					"target":{
						"node":0,
						"path":"scale"
					}
				}
			],
			"name":"main_collider_box",
			"samplers":[
				{
					"input":93,
					"interpolation":"STEP",
					"output":108
				},
				{
					"input":93,
					"interpolation":"STEP",
					"output":109
				},
				{
					"input":93,
					"interpolation":"STEP",
					"output":96
				}
			]
		},
		{
			"channels":[
				{
					"sampler":0,
					"target":{
						"node":1,
						"path":"translation"
					}
				},
				{
					"sampler":1,
					"target":{
						"node":1,
						"path":"rotation"
					}
				},
				{
					"sampler":2,
					"target":{
						"node":1,
						"path":"scale"
					}
				}
			],
			"name":"Cylinder.001",
			"samplers":[
				{
					"input":93,
					"interpolation":"STEP",
					"output":110
				},
				{
					"input":93,
					"interpolation":"STEP",
					"output":111
				},
				{
					"input":93,
					"interpolation":"STEP",
					"output":96
				}
			]
		},
		{
			"channels":[
				{
					"sampler":0,
					"target":{
						"node":3,
						"path":"translation"
					}
				},
				{
					"sampler":1,
					"target":{
						"node":3,
						"path":"rotation"
					}
				},
				{
					"sampler":2,
					"target":{
						"node":3,
						"path":"scale"
					}
				}
			],
			"name":"Cube.005",
			"samplers":[
				{
					"input":93,
					"interpolation":"STEP",
					"output":112
				},
				{
					"input":93,
					"interpolation":"STEP",
					"output":113
				},
				{
					"input":93,
					"interpolation":"STEP",
					"output":114
				}
			]
		},
		{
			"channels":[
				{
					"sampler":0,
					"target":{
						"node":5,
						"path":"translation"
					}
				},
				{
					"sampler":1,
					"target":{
						"node":5,
						"path":"rotation"
					}
				},
				{
					"sampler":2,
					"target":{
						"node":5,
						"path":"scale"
					}
				}
			],
			"name":"Cube",
			"samplers":[
				{
					"input":93,
					"interpolation":"STEP",
					"output":115
				},
				{
					"input":93,
					"interpolation":"STEP",
					"output":109
				},
				{
					"input":93,
					"interpolation":"STEP",
					"output":96
				}
			]
		},
		{
			"channels":[
				{
					"sampler":0,
					"target":{
						"node":6,
						"path":"translation"
					}
				},
				{
					"sampler":1,
					"target":{
						"node":6,
						"path":"rotation"
					}
				},
				{
					"sampler":2,
					"target":{
						"node":6,
						"path":"scale"
					}
				}
			],
			"name":"Cube.002",
			"samplers":[
				{
					"input":93,
					"interpolation":"STEP",
					"output":115
				},
				{
					"input":93,
					"interpolation":"STEP",
					"output":109
				},
				{
					"input":93,
					"interpolation":"STEP",
					"output":96
				}
			]
		},
		{
			"channels":[
				{
					"sampler":0,
					"target":{
						"node":7,
						"path":"translation"
					}
				},
				{
					"sampler":1,
					"target":{
						"node":7,
						"path":"rotation"
					}
				},
				{
					"sampler":2,
					"target":{
						"node":7,
						"path":"scale"
					}
				}
			],
			"name":"Cube.004",
			"samplers":[
				{
					"input":93,
					"interpolation":"STEP",
					"output":116
				},
				{
					"input":93,
					"interpolation":"STEP",
					"output":109
				},
				{
					"input":93,
					"interpolation":"STEP",
					"output":96
				}
			]
		},
		{
			"channels":[
				{
					"sampler":0,
					"target":{
						"node":8,
						"path":"translation"
					}
				},
				{
					"sampler":1,
					"target":{
						"node":8,
						"path":"rotation"
					}
				},
				{
					"sampler":2,
					"target":{
						"node":8,
						"path":"scale"
					}
				}
			],
			"name":"frame",
			"samplers":[
				{
					"input":93,
					"interpolation":"STEP",
					"output":117
				},
				{
					"input":93,
					"interpolation":"STEP",
					"output":109
				},
				{
					"input":93,
					"interpolation":"STEP",
					"output":96
				}
			]
		},
		{
			"channels":[
				{
					"sampler":0,
					"target":{
						"node":10,
						"path":"translation"
					}
				},
				{
					"sampler":1,
					"target":{
						"node":10,
						"path":"rotation"
					}
				},
				{
					"sampler":2,
					"target":{
						"node":10,
						"path":"scale"
					}
				}
			],
			"name":"base",
			"samplers":[
				{
					"input":93,
					"interpolation":"STEP",
					"output":118
				},
				{
					"input":93,
					"interpolation":"STEP",
					"output":109
				},
				{
					"input":93,
					"interpolation":"STEP",
					"output":119
				}
			]
		},
		{
			"channels":[
				{
					"sampler":0,
					"target":{
						"node":11,
						"path":"translation"
					}
				},
				{
					"sampler":1,
					"target":{
						"node":11,
						"path":"rotation"
					}
				},
				{
					"sampler":2,
					"target":{
						"node":11,
						"path":"scale"
					}
				}
			],
			"name":"Cylinder.002",
			"samplers":[
				{
					"input":93,
					"interpolation":"STEP",
					"output":120
				},
				{
					"input":93,
					"interpolation":"STEP",
					"output":109
				},
				{
					"input":93,
					"interpolation":"STEP",
					"output":119
				}
			]
		},
		{
			"channels":[
				{
					"sampler":0,
					"target":{
						"node":12,
						"path":"translation"
					}
				},
				{
					"sampler":1,
					"target":{
						"node":12,
						"path":"rotation"
					}
				},
				{
					"sampler":2,
					"target":{
						"node":12,
						"path":"scale"
					}
				}
			],
			"name":"Cylinder.003",
			"samplers":[
				{
					"input":93,
					"interpolation":"STEP",
					"output":121
				},
				{
					"input":93,
					"interpolation":"STEP",
					"output":109
				},
				{
					"input":93,
					"interpolation":"STEP",
					"output":119
				}
			]
		},
		{
			"channels":[
				{
					"sampler":0,
					"target":{
						"node":13,
						"path":"translation"
					}
				},
				{
					"sampler":1,
					"target":{
						"node":13,
						"path":"rotation"
					}
				},
				{
					"sampler":2,
					"target":{
						"node":13,
						"path":"scale"
					}
				}
			],
			"name":"Cylinder.004",
			"samplers":[
				{
					"input":93,
					"interpolation":"STEP",
					"output":122
				},
				{
					"input":93,
					"interpolation":"STEP",
					"output":109
				},
				{
					"input":93,
					"interpolation":"STEP",
					"output":119
				}
			]
		},
		{
			"channels":[
				{
					"sampler":0,
					"target":{
						"node":14,
						"path":"translation"
					}
				},
				{
					"sampler":1,
					"target":{
						"node":14,
						"path":"rotation"
					}
				},
				{
					"sampler":2,
					"target":{
						"node":14,
						"path":"scale"
					}
				}
			],
			"name":"Cylinder.008",
			"samplers":[
				{
					"input":93,
					"interpolation":"STEP",
					"output":123
				},
				{
					"input":93,
					"interpolation":"STEP",
					"output":109
				},
				{
					"input":93,
					"interpolation":"STEP",
					"output":119
				}
			]
		},
		{
			"channels":[
				{
					"sampler":0,
					"target":{
						"node":15,
						"path":"translation"
					}
				},
				{
					"sampler":1,
					"target":{
						"node":15,
						"path":"rotation"
					}
				},
				{
					"sampler":2,
					"target":{
						"node":15,
						"path":"scale"
					}
				}
			],
			"name":"leg",
			"samplers":[
				{
					"input":93,
					"interpolation":"STEP",
					"output":124
				},
				{
					"input":93,
					"interpolation":"STEP",
					"output":109
				},
				{
					"input":93,
					"interpolation":"STEP",
					"output":96
				}
			]
		},
		{
			"channels":[
				{
					"sampler":0,
					"target":{
						"node":16,
						"path":"translation"
					}
				},
				{
					"sampler":1,
					"target":{
						"node":16,
						"path":"rotation"
					}
				},
				{
					"sampler":2,
					"target":{
						"node":16,
						"path":"scale"
					}
				}
			],
			"name":"rope.001",
			"samplers":[
				{
					"input":93,
					"interpolation":"STEP",
					"output":125
				},
				{
					"input":93,
					"interpolation":"STEP",
					"output":109
				},
				{
					"input":93,
					"interpolation":"STEP",
					"output":96
				}
			]
		},
		{
			"channels":[
				{
					"sampler":0,
					"target":{
						"node":17,
						"path":"translation"
					}
				},
				{
					"sampler":1,
					"target":{
						"node":17,
						"path":"rotation"
					}
				},
				{
					"sampler":2,
					"target":{
						"node":17,
						"path":"scale"
					}
				}
			],
			"name":"rope.002",
			"samplers":[
				{
					"input":93,
					"interpolation":"STEP",
					"output":126
				},
				{
					"input":93,
					"interpolation":"STEP",
					"output":109
				},
				{
					"input":93,
					"interpolation":"STEP",
					"output":96
				}
			]
		}
	],
	"materials":[
		{
			"doubleSided":true,
			"name":"FireworksStand",
			"normalTexture":{
				"index":0
			},
			"pbrMetallicRoughness":{
				"baseColorTexture":{
					"index":1
				},
				"metallicRoughnessTexture":{
					"index":2
				}
			}
		}
	],
	"meshes":[
		{
			"name":"Cube.002",
			"primitives":[
				{
					"attributes":{
						"POSITION":0,
						"NORMAL":1,
						"TEXCOORD_0":2,
						"TANGENT":3
					},
					"indices":4
				}
			]
		},
		{
			"name":"Cylinder.001",
			"primitives":[
				{
					"attributes":{
						"POSITION":5,
						"NORMAL":6,
						"TEXCOORD_0":7,
						"COLOR_0":8,
						"COLOR_1":9
					},
					"indices":10,
					"material":0
				}
			]
		},
		{
			"name":"Cube.008",
			"primitives":[
				{
					"attributes":{
						"POSITION":11,
						"NORMAL":12,
						"TEXCOORD_0":13,
						"COLOR_0":14,
						"COLOR_1":15
					},
					"indices":16,
					"material":0
				}
			]
		},
		{
			"name":"Cube.001",
			"primitives":[
				{
					"attributes":{
						"POSITION":17,
						"NORMAL":18,
						"TEXCOORD_0":19,
						"TANGENT":20,
						"COLOR_0":21,
						"COLOR_1":22
					},
					"indices":23,
					"material":0
				}
			]
		},
		{
			"name":"Cube.003",
			"primitives":[
				{
					"attributes":{
						"POSITION":24,
						"NORMAL":25,
						"TEXCOORD_0":26,
						"COLOR_0":27,
						"COLOR_1":28
					},
					"indices":29,
					"material":0
				}
			]
		},
		{
			"name":"Cube.007",
			"primitives":[
				{
					"attributes":{
						"POSITION":30,
						"NORMAL":31,
						"TEXCOORD_0":32,
						"COLOR_0":33,
						"COLOR_1":34
					},
					"indices":35,
					"material":0
				}
			]
		},
		{
			"name":"Plane",
			"primitives":[
				{
					"attributes":{
						"POSITION":36,
						"NORMAL":37,
						"TEXCOORD_0":38,
						"COLOR_0":39,
						"COLOR_1":40
					},
					"indices":41,
					"material":0
				}
			]
		},
		{
			"name":"Cube",
			"primitives":[
				{
					"attributes":{
						"POSITION":42,
						"NORMAL":43,
						"TEXCOORD_0":44,
						"COLOR_0":45,
						"COLOR_1":46
					},
					"indices":47,
					"material":0
				}
			]
		},
		{
			"name":"Cylinder.002",
			"primitives":[
				{
					"attributes":{
						"POSITION":48,
						"NORMAL":49,
						"TEXCOORD_0":50,
						"COLOR_0":51,
						"COLOR_1":52
					},
					"indices":53,
					"material":0
				}
			]
		},
		{
			"name":"Cylinder.003",
			"primitives":[
				{
					"attributes":{
						"POSITION":54,
						"NORMAL":55,
						"TEXCOORD_0":56,
						"COLOR_0":57,
						"COLOR_1":58
					},
					"indices":59,
					"material":0
				}
			]
		},
		{
			"name":"Cylinder.004",
			"primitives":[
				{
					"attributes":{
						"POSITION":60,
						"NORMAL":61,
						"TEXCOORD_0":62,
						"COLOR_0":63,
						"COLOR_1":64
					},
					"indices":65,
					"material":0
				}
			]
		},
		{
			"name":"Cylinder.008",
			"primitives":[
				{
					"attributes":{
						"POSITION":66,
						"NORMAL":67,
						"TEXCOORD_0":68,
						"COLOR_0":69,
						"COLOR_1":70
					},
					"indices":71,
					"material":0
				}
			]
		},
		{
			"name":"Cube.005",
			"primitives":[
				{
					"attributes":{
						"POSITION":72,
						"NORMAL":73,
						"TEXCOORD_0":74,
						"TANGENT":75,
						"COLOR_0":76,
						"COLOR_1":77
					},
					"indices":78,
					"material":0
				}
			]
		},
		{
			"name":"Cube.001_Curve.001",
			"primitives":[
				{
					"attributes":{
						"POSITION":79,
						"NORMAL":80,
						"TEXCOORD_0":81,
						"TANGENT":82,
						"COLOR_0":83,
						"COLOR_1":84
					},
					"indices":85,
					"material":0
				}
			]
		},
		{
			"name":"Cube.001_Curve",
			"primitives":[
				{
					"attributes":{
						"POSITION":86,
						"NORMAL":87,
						"TEXCOORD_0":88,
						"TANGENT":89,
						"COLOR_0":90,
						"COLOR_1":91
					},
					"indices":92,
					"material":0
				}
			]
		}
	],
	"textures":[
		{
			"sampler":0,
			"source":0
		},
		{
			"sampler":0,
			"source":1
		},
		{
			"sampler":0,
			"source":2
		}
	],
	"images":[
		{
			"mimeType":"image/png",
			"name":"button-stand_FireworksStand_Normal",
			"uri":"tex/button-stand_FireworksStand_Normal.png"
		},
		{
			"mimeType":"image/png",
			"name":"button-stand_FireworksStand_BaseColor",
			"uri":"tex/button-stand_FireworksStand_BaseColor.png"
		},
		{
			"mimeType":"image/png",
			"name":"button-stand_FireworksStand_Metallic-button-stand_FireworksStand_Roughness",
			"uri":"tex/button-stand_FireworksStand_Metallic-button-stand_FireworksStand_Roughness.png"
		}
	],
	"accessors":[
		{
			"bufferView":0,
			"componentType":5126,
			"count":24,
			"max":[
				0.2216830849647522,
				0.49098286032676697,
				0.21520638465881348
			],
			"min":[
				-0.2216830551624298,
				-0.49098286032676697,
				-0.21520638465881348
			],
			"type":"VEC3"
		},
		{
			"bufferView":1,
			"componentType":5126,
			"count":24,
			"type":"VEC3"
		},
		{
			"bufferView":2,
			"componentType":5126,
			"count":24,
			"type":"VEC2"
		},
		{
			"bufferView":3,
			"componentType":5126,
			"count":24,
			"type":"VEC4"
		},
		{
			"bufferView":4,
			"componentType":5123,
			"count":36,
			"type":"SCALAR"
		},
		{
			"bufferView":5,
			"componentType":5126,
			"count":80,
			"max":[
				0.025199763476848602,
				0.03503243997693062,
				0.024516725912690163
			],
			"min":[
				0.007081896066665649,
				-0.019593264907598495,
				-0.024524500593543053
			],
			"type":"VEC3"
		},
		{
			"bufferView":6,
			"componentType":5126,
			"count":80,
			"type":"VEC3"
		},
		{
			"bufferView":7,
			"componentType":5126,
			"count":80,
			"type":"VEC2"
		},
		{
			"bufferView":8,
			"componentType":5121,
			"count":80,
			"normalized":true,
			"type":"VEC4"
		},
		{
			"bufferView":9,
			"componentType":5123,
			"count":80,
			"normalized":true,
			"type":"VEC4"
		},
		{
			"bufferView":10,
			"componentType":5123,
			"count":426,
			"type":"SCALAR"
		},
		{
			"bufferView":11,
			"componentType":5126,
			"count":625,
			"max":[
				0.12259836494922638,
				0.030362727120518684,
				0.11722937971353531
			],
			"min":[
				-0.14095106720924377,
				-0.021102920174598694,
				-0.117233507335186
			],
			"type":"VEC3"
		},
		{
			"bufferView":12,
			"componentType":5126,
			"count":625,
			"type":"VEC3"
		},
		{
			"bufferView":13,
			"componentType":5126,
			"count":625,
			"type":"VEC2"
		},
		{
			"bufferView":14,
			"componentType":5121,
			"count":625,
			"normalized":true,
			"type":"VEC4"
		},
		{
			"bufferView":15,
			"componentType":5123,
			"count":625,
			"normalized":true,
			"type":"VEC4"
		},
		{
			"bufferView":16,
			"componentType":5123,
			"count":1806,
			"type":"SCALAR"
		},
		{
			"bufferView":17,
			"componentType":5126,
			"count":1059,
			"max":[
				0.15465083718299866,
				0.15803462266921997,
				0.14827939867973328
			],
			"min":[
				-0.1550758183002472,
				-0.15194547176361084,
				-0.1482822149991989
			],
			"type":"VEC3"
		},
		{
			"bufferView":18,
			"componentType":5126,
			"count":1059,
			"type":"VEC3"
		},
		{
			"bufferView":19,
			"componentType":5126,
			"count":1059,
			"type":"VEC2"
		},
		{
			"bufferView":20,
			"componentType":5126,
			"count":1059,
			"type":"VEC4"
		},
		{
			"bufferView":21,
			"componentType":5121,
			"count":1059,
			"normalized":true,
			"type":"VEC4"
		},
		{
			"bufferView":22,
			"componentType":5123,
			"count":1059,
			"normalized":true,
			"type":"VEC4"
		},
		{
			"bufferView":23,
			"componentType":5123,
			"count":1656,
			"type":"SCALAR"
		},
		{
			"bufferView":24,
			"componentType":5126,
			"count":1415,
			"max":[
				0.16558147966861725,
				0.16777484118938446,
				0.16064736247062683
			],
			"min":[
				-0.16594113409519196,
				-0.16615387797355652,
				-0.16064973175525665
			],
			"type":"VEC3"
		},
		{
			"bufferView":25,
			"componentType":5126,
			"count":1415,
			"type":"VEC3"
		},
		{
			"bufferView":26,
			"componentType":5126,
			"count":1415,
			"type":"VEC2"
		},
		{
			"bufferView":27,
			"componentType":5121,
			"count":1415,
			"normalized":true,
			"type":"VEC4"
		},
		{
			"bufferView":28,
			"componentType":5123,
			"count":1415,
			"normalized":true,
			"type":"VEC4"
		},
		{
			"bufferView":29,
			"componentType":5123,
			"count":3984,
			"type":"SCALAR"
		},
		{
			"bufferView":30,
			"componentType":5126,
			"count":355,
			"max":[
				0.12767134606838226,
				0.017589222639799118,
				0.12767134606838226
			],
			"min":[
				-0.148666650056839,
				-0.2941938042640686,
				-0.12767134606838226
			],
			"type":"VEC3"
		},
		{
			"bufferView":31,
			"componentType":5126,
			"count":355,
			"type":"VEC3"
		},
		{
			"bufferView":32,
			"componentType":5126,
			"count":355,
			"type":"VEC2"
		},
		{
			"bufferView":33,
			"componentType":5121,
			"count":355,
			"normalized":true,
			"type":"VEC4"
		},
		{
			"bufferView":34,
			"componentType":5123,
			"count":355,
			"normalized":true,
			"type":"VEC4"
		},
		{
			"bufferView":35,
			"componentType":5123,
			"count":861,
			"type":"SCALAR"
		},
		{
			"bufferView":36,
			"componentType":5126,
			"count":490,
			"max":[
				0.025272024795413017,
				-0.01795574650168419,
				0.06165632978081703
			],
			"min":[
				0.001976834610104561,
				-0.15060573816299438,
				-0.061663053929805756
			],
			"type":"VEC3"
		},
		{
			"bufferView":37,
			"componentType":5126,
			"count":490,
			"type":"VEC3"
		},
		{
			"bufferView":38,
			"componentType":5126,
			"count":490,
			"type":"VEC2"
		},
		{
			"bufferView":39,
			"componentType":5121,
			"count":490,
			"normalized":true,
			"type":"VEC4"
		},
		{
			"bufferView":40,
			"componentType":5123,
			"count":490,
			"normalized":true,
			"type":"VEC4"
		},
		{
			"bufferView":41,
			"componentType":5123,
			"count":1608,
			"type":"SCALAR"
		},
		{
			"bufferView":42,
			"componentType":5126,
			"count":162,
			"max":[
				0.26251301169395447,
				0.06675359606742859,
				0.25
			],
			"min":[
				-0.25911572575569153,
				-0.06022542342543602,
				-0.25
			],
			"type":"VEC3"
		},
		{
			"bufferView":43,
			"componentType":5126,
			"count":162,
			"type":"VEC3"
		},
		{
			"bufferView":44,
			"componentType":5126,
			"count":162,
			"type":"VEC2"
		},
		{
			"bufferView":45,
			"componentType":5121,
			"count":162,
			"normalized":true,
			"type":"VEC4"
		},
		{
			"bufferView":46,
			"componentType":5123,
			"count":162,
			"normalized":true,
			"type":"VEC4"
		},
		{
			"bufferView":47,
			"componentType":5123,
			"count":468,
			"type":"SCALAR"
		},
		{
			"bufferView":48,
			"componentType":5126,
			"count":66,
			"max":[
				0.02184499241411686,
				0.01089040469378233,
				0.02184499241411686
			],
			"min":[
				-0.02184499241411686,
				-0.008756146766245365,
				-0.02184499241411686
			],
			"type":"VEC3"
		},
		{
			"bufferView":49,
			"componentType":5126,
			"count":66,
			"type":"VEC3"
		},
		{
			"bufferView":50,
			"componentType":5126,
			"count":66,
			"type":"VEC2"
		},
		{
			"bufferView":51,
			"componentType":5121,
			"count":66,
			"normalized":true,
			"type":"VEC4"
		},
		{
			"bufferView":52,
			"componentType":5123,
			"count":66,
			"normalized":true,
			"type":"VEC4"
		},
		{
			"bufferView":53,
			"componentType":5123,
			"count":234,
			"type":"SCALAR"
		},
		{
			"bufferView":54,
			"componentType":5126,
			"count":66,
			"max":[
				0.021844996139407158,
				0.010890413075685501,
				0.021844996139407158
			],
			"min":[
				-0.02184499427676201,
				-0.008756157010793686,
				-0.02184499427676201
			],
			"type":"VEC3"
		},
		{
			"bufferView":55,
			"componentType":5126,
			"count":66,
			"type":"VEC3"
		},
		{
			"bufferView":56,
			"componentType":5126,
			"count":66,
			"type":"VEC2"
		},
		{
			"bufferView":57,
			"componentType":5121,
			"count":66,
			"normalized":true,
			"type":"VEC4"
		},
		{
			"bufferView":58,
			"componentType":5123,
			"count":66,
			"normalized":true,
			"type":"VEC4"
		},
		{
			"bufferView":59,
			"componentType":5123,
			"count":234,
			"type":"SCALAR"
		},
		{
			"bufferView":60,
			"componentType":5126,
			"count":66,
			"max":[
				0.02184499241411686,
				0.010890411213040352,
				0.021844996139407158
			],
			"min":[
				-0.02184499241411686,
				-0.008756155148148537,
				-0.021844996139407158
			],
			"type":"VEC3"
		},
		{
			"bufferView":61,
			"componentType":5126,
			"count":66,
			"type":"VEC3"
		},
		{
			"bufferView":62,
			"componentType":5126,
			"count":66,
			"type":"VEC2"
		},
		{
			"bufferView":63,
			"componentType":5121,
			"count":66,
			"normalized":true,
			"type":"VEC4"
		},
		{
			"bufferView":64,
			"componentType":5123,
			"count":66,
			"normalized":true,
			"type":"VEC4"
		},
		{
			"bufferView":65,
			"componentType":5123,
			"count":234,
			"type":"SCALAR"
		},
		{
			"bufferView":66,
			"componentType":5126,
			"count":66,
			"max":[
				0.02184499241411686,
				0.01089040469378233,
				0.02184499241411686
			],
			"min":[
				-0.02184499241411686,
				-0.008756146766245365,
				-0.02184499241411686
			],
			"type":"VEC3"
		},
		{
			"bufferView":67,
			"componentType":5126,
			"count":66,
			"type":"VEC3"
		},
		{
			"bufferView":68,
			"componentType":5126,
			"count":66,
			"type":"VEC2"
		},
		{
			"bufferView":69,
			"componentType":5121,
			"count":66,
			"normalized":true,
			"type":"VEC4"
		},
		{
			"bufferView":70,
			"componentType":5123,
			"count":66,
			"normalized":true,
			"type":"VEC4"
		},
		{
			"bufferView":71,
			"componentType":5123,
			"count":234,
			"type":"SCALAR"
		},
		{
			"bufferView":72,
			"componentType":5126,
			"count":18,
			"max":[
				0.050119198858737946,
				0.29514145851135254,
				0.06772276014089584
			],
			"min":[
				-0.050119198858737946,
				-0.27051201462745667,
				-0.06772276014089584
			],
			"type":"VEC3"
		},
		{
			"bufferView":73,
			"componentType":5126,
			"count":18,
			"type":"VEC3"
		},
		{
			"bufferView":74,
			"componentType":5126,
			"count":18,
			"type":"VEC2"
		},
		{
			"bufferView":75,
			"componentType":5126,
			"count":18,
			"type":"VEC4"
		},
		{
			"bufferView":76,
			"componentType":5121,
			"count":18,
			"normalized":true,
			"type":"VEC4"
		},
		{
			"bufferView":77,
			"componentType":5123,
			"count":18,
			"normalized":true,
			"type":"VEC4"
		},
		{
			"bufferView":78,
			"componentType":5123,
			"count":48,
			"type":"SCALAR"
		},
		{
			"bufferView":79,
			"componentType":5126,
			"count":78,
			"max":[
				0.07556159794330597,
				0.026002254337072372,
				0.09349625557661057
			],
			"min":[
				-0.07404406368732452,
				-0.02333882264792919,
				-0.0913880467414856
			],
			"type":"VEC3"
		},
		{
			"bufferView":80,
			"componentType":5126,
			"count":78,
			"type":"VEC3"
		},
		{
			"bufferView":81,
			"componentType":5126,
			"count":78,
			"type":"VEC2"
		},
		{
			"bufferView":82,
			"componentType":5126,
			"count":78,
			"type":"VEC4"
		},
		{
			"bufferView":83,
			"componentType":5121,
			"count":78,
			"normalized":true,
			"type":"VEC4"
		},
		{
			"bufferView":84,
			"componentType":5123,
			"count":78,
			"normalized":true,
			"type":"VEC4"
		},
		{
			"bufferView":85,
			"componentType":5123,
			"count":360,
			"type":"SCALAR"
		},
		{
			"bufferView":86,
			"componentType":5126,
			"count":78,
			"max":[
				0.0771414116024971,
				0.018619194626808167,
				0.09411212801933289
			],
			"min":[
				-0.07721349596977234,
				-0.018620729446411133,
				-0.09231206029653549
			],
			"type":"VEC3"
		},
		{
			"bufferView":87,
			"componentType":5126,
			"count":78,
			"type":"VEC3"
		},
		{
			"bufferView":88,
			"componentType":5126,
			"count":78,
			"type":"VEC2"
		},
		{
			"bufferView":89,
			"componentType":5126,
			"count":78,
			"type":"VEC4"
		},
		{
			"bufferView":90,
			"componentType":5121,
			"count":78,
			"normalized":true,
			"type":"VEC4"
		},
		{
			"bufferView":91,
			"componentType":5123,
			"count":78,
			"normalized":true,
			"type":"VEC4"
		},
		{
			"bufferView":92,
			"componentType":5123,
			"count":360,
			"type":"SCALAR"
		},
		{
			"bufferView":93,
			"componentType":5126,
			"count":2,
			"max":[
				6
			],
			"min":[
				0.016666666666666666
			],
			"type":"SCALAR"
		},
		{
			"bufferView":94,
			"componentType":5126,
			"count":2,
			"type":"VEC3"
		},
		{
			"bufferView":95,
			"componentType":5126,
			"count":2,
			"type":"VEC4"
		},
		{
			"bufferView":96,
			"componentType":5126,
			"count":2,
			"type":"VEC3"
		},
		{
			"bufferView":97,
			"componentType":5126,
			"count":360,
			"max":[
				6
			],
			"min":[
				0.016666666666666666
			],
			"type":"SCALAR"
		},
		{
			"bufferView":98,
			"componentType":5126,
			"count":360,
			"type":"VEC3"
		},
		{
			"bufferView":99,
			"componentType":5126,
			"count":360,
			"type":"VEC4"
		},
		{
			"bufferView":100,
			"componentType":5126,
			"count":360,
			"type":"VEC3"
		},
		{
			"bufferView":101,
			"componentType":5126,
			"count":2,
			"type":"VEC4"
		},
		{
			"bufferView":102,
			"componentType":5126,
			"count":2,
			"type":"VEC3"
		},
		{
			"bufferView":103,
			"componentType":5126,
			"count":360,
			"type":"VEC4"
		},
		{
			"bufferView":104,
			"componentType":5126,
			"count":2,
			"type":"VEC3"
		},
		{
			"bufferView":105,
			"componentType":5126,
			"count":2,
			"type":"VEC3"
		},
		{
			"bufferView":106,
			"componentType":5126,
			"count":2,
			"type":"VEC3"
		},
		{
			"bufferView":107,
			"componentType":5126,
			"count":2,
			"type":"VEC4"
		},
		{
			"bufferView":108,
			"componentType":5126,
			"count":2,
			"type":"VEC3"
		},
		{
			"bufferView":109,
			"componentType":5126,
			"count":2,
			"type":"VEC4"
		},
		{
			"bufferView":110,
			"componentType":5126,
			"count":2,
			"type":"VEC3"
		},
		{
			"bufferView":111,
			"componentType":5126,
			"count":2,
			"type":"VEC4"
		},
		{
			"bufferView":112,
			"componentType":5126,
			"count":2,
			"type":"VEC3"
		},
		{
			"bufferView":113,
			"componentType":5126,
			"count":2,
			"type":"VEC4"
		},
		{
			"bufferView":114,
			"componentType":5126,
			"count":2,
			"type":"VEC3"
		},
		{
			"bufferView":115,
			"componentType":5126,
			"count":2,
			"type":"VEC3"
		},
		{
			"bufferView":116,
			"componentType":5126,
			"count":2,
			"type":"VEC3"
		},
		{
			"bufferView":117,
			"componentType":5126,
			"count":2,
			"type":"VEC3"
		},
		{
			"bufferView":118,
			"componentType":5126,
			"count":2,
			"type":"VEC3"
		},
		{
			"bufferView":119,
			"componentType":5126,
			"count":2,
			"type":"VEC3"
		},
		{
			"bufferView":120,
			"componentType":5126,
			"count":2,
			"type":"VEC3"
		},
		{
			"bufferView":121,
			"componentType":5126,
			"count":2,
			"type":"VEC3"
		},
		{
			"bufferView":122,
			"componentType":5126,
			"count":2,
			"type":"VEC3"
		},
		{
			"bufferView":123,
			"componentType":5126,
			"count":2,
			"type":"VEC3"
		},
		{
			"bufferView":124,
			"componentType":5126,
			"count":2,
			"type":"VEC3"
		},
		{
			"bufferView":125,
			"componentType":5126,
			"count":2,
			"type":"VEC3"
		},
		{
			"bufferView":126,
			"componentType":5126,
			"count":2,
			"type":"VEC3"
		}
	],
	"bufferViews":[
		{
			"buffer":0,
			"byteLength":288,
			"byteOffset":0,
			"target":34962
		},
		{
			"buffer":0,
			"byteLength":288,
			"byteOffset":288,
			"target":34962
		},
		{
			"buffer":0,
			"byteLength":192,
			"byteOffset":576,
			"target":34962
		},
		{
			"buffer":0,
			"byteLength":384,
			"byteOffset":768,
			"target":34962
		},
		{
			"buffer":0,
			"byteLength":72,
			"byteOffset":1152,
			"target":34963
		},
		{
			"buffer":0,
			"byteLength":960,
			"byteOffset":1224,
			"target":34962
		},
		{
			"buffer":0,
			"byteLength":960,
			"byteOffset":2184,
			"target":34962
		},
		{
			"buffer":0,
			"byteLength":640,
			"byteOffset":3144,
			"target":34962
		},
		{
			"buffer":0,
			"byteLength":320,
			"byteOffset":3784,
			"target":34962
		},
		{
			"buffer":0,
			"byteLength":640,
			"byteOffset":4104,
			"target":34962
		},
		{
			"buffer":0,
			"byteLength":852,
			"byteOffset":4744,
			"target":34963
		},
		{
			"buffer":0,
			"byteLength":7500,
			"byteOffset":5596,
			"target":34962
		},
		{
			"buffer":0,
			"byteLength":7500,
			"byteOffset":13096,
			"target":34962
		},
		{
			"buffer":0,
			"byteLength":5000,
			"byteOffset":20596,
			"target":34962
		},
		{
			"buffer":0,
			"byteLength":2500,
			"byteOffset":25596,
			"target":34962
		},
		{
			"buffer":0,
			"byteLength":5000,
			"byteOffset":28096,
			"target":34962
		},
		{
			"buffer":0,
			"byteLength":3612,
			"byteOffset":33096,
			"target":34963
		},
		{
			"buffer":0,
			"byteLength":12708,
			"byteOffset":36708,
			"target":34962
		},
		{
			"buffer":0,
			"byteLength":12708,
			"byteOffset":49416,
			"target":34962
		},
		{
			"buffer":0,
			"byteLength":8472,
			"byteOffset":62124,
			"target":34962
		},
		{
			"buffer":0,
			"byteLength":16944,
			"byteOffset":70596,
			"target":34962
		},
		{
			"buffer":0,
			"byteLength":4236,
			"byteOffset":87540,
			"target":34962
		},
		{
			"buffer":0,
			"byteLength":8472,
			"byteOffset":91776,
			"target":34962
		},
		{
			"buffer":0,
			"byteLength":3312,
			"byteOffset":100248,
			"target":34963
		},
		{
			"buffer":0,
			"byteLength":16980,
			"byteOffset":103560,
			"target":34962
		},
		{
			"buffer":0,
			"byteLength":16980,
			"byteOffset":120540,
			"target":34962
		},
		{
			"buffer":0,
			"byteLength":11320,
			"byteOffset":137520,
			"target":34962
		},
		{
			"buffer":0,
			"byteLength":5660,
			"byteOffset":148840,
			"target":34962
		},
		{
			"buffer":0,
			"byteLength":11320,
			"byteOffset":154500,
			"target":34962
		},
		{
			"buffer":0,
			"byteLength":7968,
			"byteOffset":165820,
			"target":34963
		},
		{
			"buffer":0,
			"byteLength":4260,
			"byteOffset":173788,
			"target":34962
		},
		{
			"buffer":0,
			"byteLength":4260,
			"byteOffset":178048,
			"target":34962
		},
		{
			"buffer":0,
			"byteLength":2840,
			"byteOffset":182308,
			"target":34962
		},
		{
			"buffer":0,
			"byteLength":1420,
			"byteOffset":185148,
			"target":34962
		},
		{
			"buffer":0,
			"byteLength":2840,
			"byteOffset":186568,
			"target":34962
		},
		{
			"buffer":0,
			"byteLength":1722,
			"byteOffset":189408,
			"target":34963
		},
		{
			"buffer":0,
			"byteLength":5880,
			"byteOffset":191132,
			"target":34962
		},
		{
			"buffer":0,
			"byteLength":5880,
			"byteOffset":197012,
			"target":34962
		},
		{
			"buffer":0,
			"byteLength":3920,
			"byteOffset":202892,
			"target":34962
		},
		{
			"buffer":0,
			"byteLength":1960,
			"byteOffset":206812,
			"target":34962
		},
		{
			"buffer":0,
			"byteLength":3920,
			"byteOffset":208772,
			"target":34962
		},
		{
			"buffer":0,
			"byteLength":3216,
			"byteOffset":212692,
			"target":34963
		},
		{
			"buffer":0,
			"byteLength":1944,
			"byteOffset":215908,
			"target":34962
		},
		{
			"buffer":0,
			"byteLength":1944,
			"byteOffset":217852,
			"target":34962
		},
		{
			"buffer":0,
			"byteLength":1296,
			"byteOffset":219796,
			"target":34962
		},
		{
			"buffer":0,
			"byteLength":648,
			"byteOffset":221092,
			"target":34962
		},
		{
			"buffer":0,
			"byteLength":1296,
			"byteOffset":221740,
			"target":34962
		},
		{
			"buffer":0,
			"byteLength":936,
			"byteOffset":223036,
			"target":34963
		},
		{
			"buffer":0,
			"byteLength":792,
			"byteOffset":223972,
			"target":34962
		},
		{
			"buffer":0,
			"byteLength":792,
			"byteOffset":224764,
			"target":34962
		},
		{
			"buffer":0,
			"byteLength":528,
			"byteOffset":225556,
			"target":34962
		},
		{
			"buffer":0,
			"byteLength":264,
			"byteOffset":226084,
			"target":34962
		},
		{
			"buffer":0,
			"byteLength":528,
			"byteOffset":226348,
			"target":34962
		},
		{
			"buffer":0,
			"byteLength":468,
			"byteOffset":226876,
			"target":34963
		},
		{
			"buffer":0,
			"byteLength":792,
			"byteOffset":227344,
			"target":34962
		},
		{
			"buffer":0,
			"byteLength":792,
			"byteOffset":228136,
			"target":34962
		},
		{
			"buffer":0,
			"byteLength":528,
			"byteOffset":228928,
			"target":34962
		},
		{
			"buffer":0,
			"byteLength":264,
			"byteOffset":229456,
			"target":34962
		},
		{
			"buffer":0,
			"byteLength":528,
			"byteOffset":229720,
			"target":34962
		},
		{
			"buffer":0,
			"byteLength":468,
			"byteOffset":230248,
			"target":34963
		},
		{
			"buffer":0,
			"byteLength":792,
			"byteOffset":230716,
			"target":34962
		},
		{
			"buffer":0,
			"byteLength":792,
			"byteOffset":231508,
			"target":34962
		},
		{
			"buffer":0,
			"byteLength":528,
			"byteOffset":232300,
			"target":34962
		},
		{
			"buffer":0,
			"byteLength":264,
			"byteOffset":232828,
			"target":34962
		},
		{
			"buffer":0,
			"byteLength":528,
			"byteOffset":233092,
			"target":34962
		},
		{
			"buffer":0,
			"byteLength":468,
			"byteOffset":233620,
			"target":34963
		},
		{
			"buffer":0,
			"byteLength":792,
			"byteOffset":234088,
			"target":34962
		},
		{
			"buffer":0,
			"byteLength":792,
			"byteOffset":234880,
			"target":34962
		},
		{
			"buffer":0,
			"byteLength":528,
			"byteOffset":235672,
			"target":34962
		},
		{
			"buffer":0,
			"byteLength":264,
			"byteOffset":236200,
			"target":34962
		},
		{
			"buffer":0,
			"byteLength":528,
			"byteOffset":236464,
			"target":34962
		},
		{
			"buffer":0,
			"byteLength":468,
			"byteOffset":236992,
			"target":34963
		},
		{
			"buffer":0,
			"byteLength":216,
			"byteOffset":237460,
			"target":34962
		},
		{
			"buffer":0,
			"byteLength":216,
			"byteOffset":237676,
			"target":34962
		},
		{
			"buffer":0,
			"byteLength":144,
			"byteOffset":237892,
			"target":34962
		},
		{
			"buffer":0,
			"byteLength":288,
			"byteOffset":238036,
			"target":34962
		},
		{
			"buffer":0,
			"byteLength":72,
			"byteOffset":238324,
			"target":34962
		},
		{
			"buffer":0,
			"byteLength":144,
			"byteOffset":238396,
			"target":34962
		},
		{
			"buffer":0,
			"byteLength":96,
			"byteOffset":238540,
			"target":34963
		},
		{
			"buffer":0,
			"byteLength":936,
			"byteOffset":238636,
			"target":34962
		},
		{
			"buffer":0,
			"byteLength":936,
			"byteOffset":239572,
			"target":34962
		},
		{
			"buffer":0,
			"byteLength":624,
			"byteOffset":240508,
			"target":34962
		},
		{
			"buffer":0,
			"byteLength":1248,
			"byteOffset":241132,
			"target":34962
		},
		{
			"buffer":0,
			"byteLength":312,
			"byteOffset":242380,
			"target":34962
		},
		{
			"buffer":0,
			"byteLength":624,
			"byteOffset":242692,
			"target":34962
		},
		{
			"buffer":0,
			"byteLength":720,
			"byteOffset":243316,
			"target":34963
		},
		{
			"buffer":0,
			"byteLength":936,
			"byteOffset":244036,
			"target":34962
		},
		{
			"buffer":0,
			"byteLength":936,
			"byteOffset":244972,
			"target":34962
		},
		{
			"buffer":0,
			"byteLength":624,
			"byteOffset":245908,
			"target":34962
		},
		{
			"buffer":0,
			"byteLength":1248,
			"byteOffset":246532,
			"target":34962
		},
		{
			"buffer":0,
			"byteLength":312,
			"byteOffset":247780,
			"target":34962
		},
		{
			"buffer":0,
			"byteLength":624,
			"byteOffset":248092,
			"target":34962
		},
		{
			"buffer":0,
			"byteLength":720,
			"byteOffset":248716,
			"target":34963
		},
		{
			"buffer":0,
			"byteLength":8,
			"byteOffset":249436
		},
		{
			"buffer":0,
			"byteLength":24,
			"byteOffset":249444
		},
		{
			"buffer":0,
			"byteLength":32,
			"byteOffset":249468
		},
		{
			"buffer":0,
			"byteLength":24,
			"byteOffset":249500
		},
		{
			"buffer":0,
			"byteLength":1440,
			"byteOffset":249524
		},
		{
			"buffer":0,
			"byteLength":4320,
			"byteOffset":250964
		},
		{
			"buffer":0,
			"byteLength":5760,
			"byteOffset":255284
		},
		{
			"buffer":0,
			"byteLength":4320,
			"byteOffset":261044
		},
		{
			"buffer":0,
			"byteLength":32,
			"byteOffset":265364
		},
		{
			"buffer":0,
			"byteLength":24,
			"byteOffset":265396
		},
		{
			"buffer":0,
			"byteLength":5760,
			"byteOffset":265420
		},
		{
			"buffer":0,
			"byteLength":24,
			"byteOffset":271180
		},
		{
			"buffer":0,
			"byteLength":24,
			"byteOffset":271204
		},
		{
			"buffer":0,
			"byteLength":24,
			"byteOffset":271228
		},
		{
			"buffer":0,
			"byteLength":32,
			"byteOffset":271252
		},
		{
			"buffer":0,
			"byteLength":24,
			"byteOffset":271284
		},
		{
			"buffer":0,
			"byteLength":32,
			"byteOffset":271308
		},
		{
			"buffer":0,
			"byteLength":24,
			"byteOffset":271340
		},
		{
			"buffer":0,
			"byteLength":32,
			"byteOffset":271364
		},
		{
			"buffer":0,
			"byteLength":24,
			"byteOffset":271396
		},
		{
			"buffer":0,
			"byteLength":32,
			"byteOffset":271420
		},
		{
			"buffer":0,
			"byteLength":24,
			"byteOffset":271452
		},
		{
			"buffer":0,
			"byteLength":24,
			"byteOffset":271476
		},
		{
			"buffer":0,
			"byteLength":24,
			"byteOffset":271500
		},
		{
			"buffer":0,
			"byteLength":24,
			"byteOffset":271524
		},
		{
			"buffer":0,
			"byteLength":24,
			"byteOffset":271548
		},
		{
			"buffer":0,
			"byteLength":24,
			"byteOffset":271572
		},
		{
			"buffer":0,
			"byteLength":24,
			"byteOffset":271596
		},
		{
			"buffer":0,
			"byteLength":24,
			"byteOffset":271620
		},
		{
			"buffer":0,
			"byteLength":24,
			"byteOffset":271644
		},
		{
			"buffer":0,
			"byteLength":24,
			"byteOffset":271668
		},
		{
			"buffer":0,
			"byteLength":24,
			"byteOffset":271692
		},
		{
			"buffer":0,
			"byteLength":24,
			"byteOffset":271716
		},
		{
			"buffer":0,
			"byteLength":24,
			"byteOffset":271740
		}
	],
	"samplers":[
		{
			"magFilter":9729,
			"minFilter":9987
		}
	],
	"buffers":[
		{
			"byteLength":271764,
			"uri":"button_stand_squash.bin"
		}
	]
}
