{
	"asset":{
		"generator":"Khronos glTF Blender I/O v4.5.51",
		"version":"2.0"
	},
	"scene":0,
	"scenes":[
		{
			"name":"Scene",
			"nodes":[
				0
			]
		}
	],
	"nodes":[
		{
			"mesh":0,
			"name":"Sphere"
		}
	],
	"meshes":[
		{
			"name":"Sphere",
			"primitives":[
				{
					"attributes":{
						"POSITION":0,
						"NORMAL":1,
						"TEXCOORD_0":2
					},
					"indices":3
				}
			]
		}
	],
	"accessors":[
		{
			"bufferView":0,
			"componentType":5126,
			"count":604,
			"max":[
				0.7499997615814209,
				0.9790927171707153,
				0.7499995231628418
			],
			"min":[
				-0.7499992847442627,
				-2.9400246143341064,
				-0.75
			],
			"type":"VEC3"
		},
		{
			"bufferView":1,
			"componentType":5126,
			"count":604,
			"type":"VEC3"
		},
		{
			"bufferView":2,
			"componentType":5126,
			"count":604,
			"type":"VEC2"
		},
		{
			"bufferView":3,
			"componentType":5123,
			"count":3072,
			"type":"SCALAR"
		}
	],
	"bufferViews":[
		{
			"buffer":0,
			"byteLength":7248,
			"byteOffset":0,
			"target":34962
		},
		{
			"buffer":0,
			"byteLength":7248,
			"byteOffset":7248,
			"target":34962
		},
		{
			"buffer":0,
			"byteLength":4832,
			"byteOffset":14496,
			"target":34962
		},
		{
			"buffer":0,
			"byteLength":6144,
			"byteOffset":19328,
			"target":34963
		}
	],
	"buffers":[
		{
			"byteLength":25472,
			"uri":"balloon.bin"
		}
	]
}
