{
	"asset":{
		"generator":"Khronos glTF Blender I/O v4.5.51",
		"version":"2.0"
	},
	"scene":0,
	"scenes":[
		{
			"name":"Scene",
			"nodes":[
				0,
				1,
				2,
				3
			]
		}
	],
	"nodes":[
		{
			"mesh":0,
			"name":"balloon.003"
		},
		{
			"mesh":1,
			"name":"package.003",
			"rotation":[
				0,
				0,
				0.09119479358196259,
				0.995833158493042
			],
			"translation":[
				0.02577729895710945,
				-3.1783528327941895,
				0
			]
		},
		{
			"mesh":2,
			"name":"Sphere.005"
		},
		{
			"mesh":3,
			"name":"Cube.003_Curve",
			"rotation":[
				0,
				0,
				0.09119479358196259,
				0.995833158493042
			],
			"translation":[
				0.02577729895710945,
				-3.1783528327941895,
				0
			]
		}
	],
	"materials":[
		{
			"doubleSided":true,
			"name":"Balloon",
			"pbrMetallicRoughness":{
				"baseColorFactor":[
					0.800000011920929,
					0.800000011920929,
					0.800000011920929,
					1
				],
				"metallicFactor":0,
				"roughnessFactor":0.5
			}
		},
		{
			"doubleSided":true,
			"name":"Package",
			"pbrMetallicRoughness":{
				"baseColorFactor":[
					0.800000011920929,
					0.800000011920929,
					0.800000011920929,
					1
				],
				"metallicFactor":0,
				"roughnessFactor":0.5
			}
		},
		{
			"doubleSided":true,
			"name":"Rope001",
			"normalTexture":{
				"index":0
			},
			"occlusionTexture":{
				"index":1
			},
			"pbrMetallicRoughness":{
				"baseColorTexture":{
					"index":2
				},
				"metallicFactor":0,
				"metallicRoughnessTexture":{
					"index":1
				}
			}
		}
	],
	"meshes":[
		{
			"name":"Sphere.004",
			"primitives":[
				{
					"attributes":{
						"POSITION":0,
						"NORMAL":1,
						"TEXCOORD_0":2
					},
					"indices":3,
					"material":0
				}
			]
		},
		{
			"name":"Cube.003",
			"primitives":[
				{
					"attributes":{
						"POSITION":4,
						"NORMAL":5,
						"TEXCOORD_0":6
					},
					"indices":7,
					"material":1
				}
			]
		},
		{
			"name":"Sphere.005",
			"primitives":[
				{
					"attributes":{
						"POSITION":8,
						"NORMAL":9,
						"TEXCOORD_0":10
					},
					"indices":11,
					"material":2
				}
			]
		},
		{
			"name":"Cube.003_Curve.001",
			"primitives":[
				{
					"attributes":{
						"POSITION":12,
						"NORMAL":13,
						"TEXCOORD_0":14
					},
					"indices":15,
					"material":2
				}
			]
		}
	],
	"textures":[
		{
			"sampler":0,
			"source":0
		},
		{
			"sampler":0,
			"source":1
		},
		{
			"sampler":0,
			"source":2
		}
	],
	"images":[
		{
			"mimeType":"image/jpeg",
			"name":"Rope_001_normal",
			"uri":"tex/Rope_001_normal.jpg"
		},
		{
			"mimeType":"image/png",
			"name":"Rope_001_ambientOcclusion-Rope_001_roughness",
			"uri":"tex/Rope_001_ambientOcclusion-Rope_001_roughness.png"
		},
		{
			"mimeType":"image/jpeg",
			"name":"Rope_001_basecolor",
			"uri":"tex/Rope_001_basecolor.jpg"
		}
	],
	"accessors":[
		{
			"bufferView":0,
			"componentType":5126,
			"count":559,
			"max":[
				0.7499997615814209,
				0.9790925979614258,
				0.7499995231628418
			],
			"min":[
				-0.7499992847442627,
				-1.0463732481002808,
				-0.75
			],
			"type":"VEC3"
		},
		{
			"bufferView":1,
			"componentType":5126,
			"count":559,
			"type":"VEC3"
		},
		{
			"bufferView":2,
			"componentType":5126,
			"count":559,
			"type":"VEC2"
		},
		{
			"bufferView":3,
			"componentType":5123,
			"count":2880,
			"type":"SCALAR"
		},
		{
			"bufferView":4,
			"componentType":5126,
			"count":42,
			"max":[
				0.3485192060470581,
				0.21057197451591492,
				0.3424541652202606
			],
			"min":[
				-0.3340776562690735,
				-0.46177732944488525,
				-0.34245413541793823
			],
			"type":"VEC3"
		},
		{
			"bufferView":5,
			"componentType":5126,
			"count":42,
			"type":"VEC3"
		},
		{
			"bufferView":6,
			"componentType":5126,
			"count":42,
			"type":"VEC2"
		},
		{
			"bufferView":7,
			"componentType":5123,
			"count":240,
			"type":"SCALAR"
		},
		{
			"bufferView":8,
			"componentType":5126,
			"count":45,
			"max":[
				0.0808454230427742,
				-0.9181039333343506,
				0.031000016257166862
			],
			"min":[
				-0.07691437751054764,
				-2.9385581016540527,
				-0.031000006943941116
			],
			"type":"VEC3"
		},
		{
			"bufferView":9,
			"componentType":5126,
			"count":45,
			"type":"VEC3"
		},
		{
			"bufferView":10,
			"componentType":5126,
			"count":45,
			"type":"VEC2"
		},
		{
			"bufferView":11,
			"componentType":5123,
			"count":192,
			"type":"SCALAR"
		},
		{
			"bufferView":12,
			"componentType":5126,
			"count":185,
			"max":[
				0.5123317241668701,
				0.2938285768032074,
				0.506266713142395
			],
			"min":[
				-0.4978901743888855,
				-0.5447143912315369,
				-0.5062666535377502
			],
			"type":"VEC3"
		},
		{
			"bufferView":13,
			"componentType":5126,
			"count":185,
			"type":"VEC3"
		},
		{
			"bufferView":14,
			"componentType":5126,
			"count":185,
			"type":"VEC2"
		},
		{
			"bufferView":15,
			"componentType":5123,
			"count":864,
			"type":"SCALAR"
		}
	],
	"bufferViews":[
		{
			"buffer":0,
			"byteLength":6708,
			"byteOffset":0,
			"target":34962
		},
		{
			"buffer":0,
			"byteLength":6708,
			"byteOffset":6708,
			"target":34962
		},
		{
			"buffer":0,
			"byteLength":4472,
			"byteOffset":13416,
			"target":34962
		},
		{
			"buffer":0,
			"byteLength":5760,
			"byteOffset":17888,
			"target":34963
		},
		{
			"buffer":0,
			"byteLength":504,
			"byteOffset":23648,
			"target":34962
		},
		{
			"buffer":0,
			"byteLength":504,
			"byteOffset":24152,
			"target":34962
		},
		{
			"buffer":0,
			"byteLength":336,
			"byteOffset":24656,
			"target":34962
		},
		{
			"buffer":0,
			"byteLength":480,
			"byteOffset":24992,
			"target":34963
		},
		{
			"buffer":0,
			"byteLength":540,
			"byteOffset":25472,
			"target":34962
		},
		{
			"buffer":0,
			"byteLength":540,
			"byteOffset":26012,
			"target":34962
		},
		{
			"buffer":0,
			"byteLength":360,
			"byteOffset":26552,
			"target":34962
		},
		{
			"buffer":0,
			"byteLength":384,
			"byteOffset":26912,
			"target":34963
		},
		{
			"buffer":0,
			"byteLength":2220,
			"byteOffset":27296,
			"target":34962
		},
		{
			"buffer":0,
			"byteLength":2220,
			"byteOffset":29516,
			"target":34962
		},
		{
			"buffer":0,
			"byteLength":1480,
			"byteOffset":31736,
			"target":34962
		},
		{
			"buffer":0,
			"byteLength":1728,
			"byteOffset":33216,
			"target":34963
		}
	],
	"samplers":[
		{
			"magFilter":9729,
			"minFilter":9987
		}
	],
	"buffers":[
		{
			"byteLength":34944,
			"uri":"balloon_03.bin"
		}
	]
}
