{
	"asset":{
		"generator":"Khronos glTF Blender I/O v4.5.51",
		"version":"2.0"
	},
	"scene":0,
	"scenes":[
		{
			"name":"Scene",
			"nodes":[
				0,
				1,
				2
			]
		}
	],
	"nodes":[
		{
			"mesh":0,
			"name":"balloon.001"
		},
		{
			"mesh":1,
			"name":"package.001",
			"rotation":[
				0,
				0,
				0.09119486808776855,
				0.995833158493042
			],
			"translation":[
				0.02577729895710945,
				-3.1783528327941895,
				0
			]
		},
		{
			"mesh":2,
			"name":"rope",
			"rotation":[
				0,
				-0.7071065902709961,
				0,
				0.7071069478988647
			]
		}
	],
	"materials":[
		{
			"doubleSided":true,
			"emissiveTexture":{
				"index":0
			},
			"name":"Balloon",
			"normalTexture":{
				"index":1
			},
			"pbrMetallicRoughness":{
				"baseColorTexture":{
					"index":2
				},
				"metallicRoughnessTexture":{
					"index":3
				}
			}
		}
	],
	"meshes":[
		{
			"name":"Sphere",
			"primitives":[
				{
					"attributes":{
						"POSITION":0,
						"NORMAL":1,
						"TEXCOORD_0":2,
						"COLOR_0":3,
						"COLOR_1":4
					},
					"indices":5,
					"material":0
				}
			]
		},
		{
			"name":"Cube",
			"primitives":[
				{
					"attributes":{
						"POSITION":6,
						"NORMAL":7,
						"TEXCOORD_0":8,
						"COLOR_0":9,
						"COLOR_1":10
					},
					"indices":11,
					"material":0
				}
			]
		},
		{
			"name":"balloon.001_Curve.004",
			"primitives":[
				{
					"attributes":{
						"POSITION":12,
						"NORMAL":13,
						"TEXCOORD_0":14,
						"COLOR_0":15,
						"COLOR_1":16
					},
					"indices":17,
					"material":0
				}
			]
		}
	],
	"textures":[
		{
			"sampler":0,
			"source":0
		},
		{
			"sampler":0,
			"source":1
		},
		{
			"sampler":0,
			"source":2
		},
		{
			"sampler":0,
			"source":3
		}
	],
	"images":[
		{
			"mimeType":"image/png",
			"name":"balloon_01_Balloon_Emissive",
			"uri":"tex/balloon_01_Balloon_Emissive.png"
		},
		{
			"mimeType":"image/png",
			"name":"balloon_01_Balloon_Normal",
			"uri":"tex/balloon_01_Balloon_Normal.png"
		},
		{
			"mimeType":"image/png",
			"name":"balloon_01_Balloon_BaseColor",
			"uri":"tex/balloon_01_Balloon_BaseColor.png"
		},
		{
			"mimeType":"image/png",
			"name":"balloon_01_Balloon_Metallic-balloon_01_Balloon_Roughness",
			"uri":"tex/balloon_01_Balloon_Metallic-balloon_01_Balloon_Roughness.png"
		}
	],
	"accessors":[
		{
			"bufferView":0,
			"componentType":5126,
			"count":528,
			"max":[
				0.7355888485908508,
				0.9790925979614258,
				0.7355887293815613
			],
			"min":[
				-0.7355886101722717,
				-1.1101889610290527,
				-0.7355889081954956
			],
			"type":"VEC3"
		},
		{
			"bufferView":1,
			"componentType":5126,
			"count":528,
			"type":"VEC3"
		},
		{
			"bufferView":2,
			"componentType":5126,
			"count":528,
			"type":"VEC2"
		},
		{
			"bufferView":3,
			"componentType":5121,
			"count":528,
			"normalized":true,
			"type":"VEC4"
		},
		{
			"bufferView":4,
			"componentType":5123,
			"count":528,
			"normalized":true,
			"type":"VEC4"
		},
		{
			"bufferView":5,
			"componentType":5123,
			"count":2112,
			"type":"SCALAR"
		},
		{
			"bufferView":6,
			"componentType":5126,
			"count":33,
			"max":[
				0.5089519023895264,
				0.22684280574321747,
				0.22684280574321747
			],
			"min":[
				-0.5089519023895264,
				-0.22684280574321747,
				-0.22684280574321747
			],
			"type":"VEC3"
		},
		{
			"bufferView":7,
			"componentType":5126,
			"count":33,
			"type":"VEC3"
		},
		{
			"bufferView":8,
			"componentType":5126,
			"count":33,
			"type":"VEC2"
		},
		{
			"bufferView":9,
			"componentType":5121,
			"count":33,
			"normalized":true,
			"type":"VEC4"
		},
		{
			"bufferView":10,
			"componentType":5123,
			"count":33,
			"normalized":true,
			"type":"VEC4"
		},
		{
			"bufferView":11,
			"componentType":5123,
			"count":132,
			"type":"SCALAR"
		},
		{
			"bufferView":12,
			"componentType":5126,
			"count":1326,
			"max":[
				0.7765524983406067,
				0.9507349729537964,
				0.7765524983406067
			],
			"min":[
				-0.7765524983406067,
				-3.5571837425231934,
				-0.7765524983406067
			],
			"type":"VEC3"
		},
		{
			"bufferView":13,
			"componentType":5126,
			"count":1326,
			"type":"VEC3"
		},
		{
			"bufferView":14,
			"componentType":5126,
			"count":1326,
			"type":"VEC2"
		},
		{
			"bufferView":15,
			"componentType":5121,
			"count":1326,
			"normalized":true,
			"type":"VEC4"
		},
		{
			"bufferView":16,
			"componentType":5123,
			"count":1326,
			"normalized":true,
			"type":"VEC4"
		},
		{
			"bufferView":17,
			"componentType":5123,
			"count":6336,
			"type":"SCALAR"
		}
	],
	"bufferViews":[
		{
			"buffer":0,
			"byteLength":6336,
			"byteOffset":0,
			"target":34962
		},
		{
			"buffer":0,
			"byteLength":6336,
			"byteOffset":6336,
			"target":34962
		},
		{
			"buffer":0,
			"byteLength":4224,
			"byteOffset":12672,
			"target":34962
		},
		{
			"buffer":0,
			"byteLength":2112,
			"byteOffset":16896,
			"target":34962
		},
		{
			"buffer":0,
			"byteLength":4224,
			"byteOffset":19008,
			"target":34962
		},
		{
			"buffer":0,
			"byteLength":4224,
			"byteOffset":23232,
			"target":34963
		},
		{
			"buffer":0,
			"byteLength":396,
			"byteOffset":27456,
			"target":34962
		},
		{
			"buffer":0,
			"byteLength":396,
			"byteOffset":27852,
			"target":34962
		},
		{
			"buffer":0,
			"byteLength":264,
			"byteOffset":28248,
			"target":34962
		},
		{
			"buffer":0,
			"byteLength":132,
			"byteOffset":28512,
			"target":34962
		},
		{
			"buffer":0,
			"byteLength":264,
			"byteOffset":28644,
			"target":34962
		},
		{
			"buffer":0,
			"byteLength":264,
			"byteOffset":28908,
			"target":34963
		},
		{
			"buffer":0,
			"byteLength":15912,
			"byteOffset":29172,
			"target":34962
		},
		{
			"buffer":0,
			"byteLength":15912,
			"byteOffset":45084,
			"target":34962
		},
		{
			"buffer":0,
			"byteLength":10608,
			"byteOffset":60996,
			"target":34962
		},
		{
			"buffer":0,
			"byteLength":5304,
			"byteOffset":71604,
			"target":34962
		},
		{
			"buffer":0,
			"byteLength":10608,
			"byteOffset":76908,
			"target":34962
		},
		{
			"buffer":0,
			"byteLength":12672,
			"byteOffset":87516,
			"target":34963
		}
	],
	"samplers":[
		{
			"magFilter":9729,
			"minFilter":9987
		}
	],
	"buffers":[
		{
			"byteLength":100188,
			"uri":"balloon_new.bin"
		}
	]
}
