{
	"asset":{
		"generator":"Khronos glTF Blender I/O v4.5.51",
		"version":"2.0"
	},
	"scene":0,
	"scenes":[
		{
			"name":"Scene",
			"nodes":[
				0,
				1,
				2
			]
		}
	],
	"nodes":[
		{
			"mesh":0,
			"name":"balloon.001"
		},
		{
			"mesh":1,
			"name":"package.001",
			"rotation":[
				0,
				0,
				0.09119486808776855,
				0.995833158493042
			],
			"translation":[
				0.02577729895710945,
				-3.1783528327941895,
				0
			]
		},
		{
			"mesh":2,
			"name":"rope.001"
		}
	],
	"materials":[
		{
			"doubleSided":true,
			"name":"Balloon",
			"pbrMetallicRoughness":{
				"baseColorTexture":{
					"index":0
				},
				"metallicFactor":0,
				"metallicRoughnessTexture":{
					"index":1
				}
			}
		},
		{
			"doubleSided":true,
			"name":"Package",
			"pbrMetallicRoughness":{
				"baseColorTexture":{
					"index":2
				},
				"metallicFactor":0,
				"roughnessFactor":0.5
			}
		},
		{
			"doubleSided":true,
			"name":"Rope001",
			"normalTexture":{
				"index":3
			},
			"occlusionTexture":{
				"index":4
			},
			"pbrMetallicRoughness":{
				"baseColorTexture":{
					"index":5
				},
				"metallicFactor":0,
				"metallicRoughnessTexture":{
					"index":4
				}
			}
		}
	],
	"meshes":[
		{
			"name":"Sphere",
			"primitives":[
				{
					"attributes":{
						"POSITION":0,
						"NORMAL":1,
						"TEXCOORD_0":2
					},
					"indices":3,
					"material":0
				}
			]
		},
		{
			"name":"Cube",
			"primitives":[
				{
					"attributes":{
						"POSITION":4,
						"NORMAL":5,
						"TEXCOORD_0":6
					},
					"indices":7,
					"material":1
				}
			]
		},
		{
			"name":"Sphere.001",
			"primitives":[
				{
					"attributes":{
						"POSITION":8,
						"NORMAL":9,
						"TEXCOORD_0":10
					},
					"indices":11,
					"material":2
				}
			]
		}
	],
	"textures":[
		{
			"sampler":0,
			"source":0
		},
		{
			"sampler":0,
			"source":1
		},
		{
			"sampler":0,
			"source":0
		},
		{
			"sampler":0,
			"source":2
		},
		{
			"sampler":0,
			"source":3
		},
		{
			"sampler":0,
			"source":4
		}
	],
	"images":[
		{
			"mimeType":"image/png",
			"name":"gradient",
			"uri":"tex/gradient.png"
		},
		{
			"mimeType":"image/png",
			"name":"gradient",
			"uri":"tex/gradient-1.png"
		},
		{
			"mimeType":"image/jpeg",
			"name":"Rope_001_normal",
			"uri":"tex/Rope_001_normal.jpg"
		},
		{
			"mimeType":"image/png",
			"name":"Rope_001_ambientOcclusion-Rope_001_roughness",
			"uri":"tex/Rope_001_ambientOcclusion-Rope_001_roughness.png"
		},
		{
			"mimeType":"image/jpeg",
			"name":"Rope_001_basecolor",
			"uri":"tex/Rope_001_basecolor.jpg"
		}
	],
	"accessors":[
		{
			"bufferView":0,
			"componentType":5126,
			"count":482,
			"max":[
				0.7499997615814209,
				0.9790925979614258,
				0.7499995231628418
			],
			"min":[
				-0.7499992847442627,
				-1.0463732481002808,
				-0.75
			],
			"type":"VEC3"
		},
		{
			"bufferView":1,
			"componentType":5126,
			"count":482,
			"type":"VEC3"
		},
		{
			"bufferView":2,
			"componentType":5126,
			"count":482,
			"type":"VEC2"
		},
		{
			"bufferView":3,
			"componentType":5123,
			"count":2880,
			"type":"SCALAR"
		},
		{
			"bufferView":4,
			"componentType":5126,
			"count":42,
			"max":[
				0.5089519023895264,
				0.22684280574321747,
				0.22684280574321747
			],
			"min":[
				-0.5089519023895264,
				-0.22684280574321747,
				-0.22684280574321747
			],
			"type":"VEC3"
		},
		{
			"bufferView":5,
			"componentType":5126,
			"count":42,
			"type":"VEC3"
		},
		{
			"bufferView":6,
			"componentType":5126,
			"count":42,
			"type":"VEC2"
		},
		{
			"bufferView":7,
			"componentType":5123,
			"count":240,
			"type":"SCALAR"
		},
		{
			"bufferView":8,
			"componentType":5126,
			"count":304,
			"max":[
				0.653144359588623,
				-0.9181039333343506,
				0.3394056558609009
			],
			"min":[
				-0.6015897989273071,
				-3.5571837425231934,
				-0.3394056558609009
			],
			"type":"VEC3"
		},
		{
			"bufferView":9,
			"componentType":5126,
			"count":304,
			"type":"VEC3"
		},
		{
			"bufferView":10,
			"componentType":5126,
			"count":304,
			"type":"VEC2"
		},
		{
			"bufferView":11,
			"componentType":5123,
			"count":1488,
			"type":"SCALAR"
		}
	],
	"bufferViews":[
		{
			"buffer":0,
			"byteLength":5784,
			"byteOffset":0,
			"target":34962
		},
		{
			"buffer":0,
			"byteLength":5784,
			"byteOffset":5784,
			"target":34962
		},
		{
			"buffer":0,
			"byteLength":3856,
			"byteOffset":11568,
			"target":34962
		},
		{
			"buffer":0,
			"byteLength":5760,
			"byteOffset":15424,
			"target":34963
		},
		{
			"buffer":0,
			"byteLength":504,
			"byteOffset":21184,
			"target":34962
		},
		{
			"buffer":0,
			"byteLength":504,
			"byteOffset":21688,
			"target":34962
		},
		{
			"buffer":0,
			"byteLength":336,
			"byteOffset":22192,
			"target":34962
		},
		{
			"buffer":0,
			"byteLength":480,
			"byteOffset":22528,
			"target":34963
		},
		{
			"buffer":0,
			"byteLength":3648,
			"byteOffset":23008,
			"target":34962
		},
		{
			"buffer":0,
			"byteLength":3648,
			"byteOffset":26656,
			"target":34962
		},
		{
			"buffer":0,
			"byteLength":2432,
			"byteOffset":30304,
			"target":34962
		},
		{
			"buffer":0,
			"byteLength":2976,
			"byteOffset":32736,
			"target":34963
		}
	],
	"samplers":[
		{
			"magFilter":9729,
			"minFilter":9987
		}
	],
	"buffers":[
		{
			"byteLength":35712,
			"uri":"balloon_01.bin"
		}
	]
}
