{
	"asset":{
		"generator":"Khronos glTF Blender I/O v5.2.39",
		"version":"2.0"
	},
	"scene":0,
	"scenes":[
		{
			"name":"Scene",
			"nodes":[
				0,
				1,
				2
			]
		}
	],
	"nodes":[
		{
			"mesh":0,
			"name":"balloon.001"
		},
		{
			"mesh":1,
			"name":"package.001",
			"rotation":[
				0,
				0,
				0.09119486808776855,
				0.995833158493042
			],
			"translation":[
				0.02577729895710945,
				-3.1783528327941895,
				0
			]
		},
		{
			"mesh":2,
			"name":"rope",
			"rotation":[
				0,
				-0.7071065902709961,
				0,
				0.7071069478988647
			]
		}
	],
	"materials":[
		{
			"doubleSided":true,
			"name":"Balloon",
			"normalTexture":{
				"index":0
			},
			"pbrMetallicRoughness":{
				"baseColorTexture":{
					"index":1
				},
				"metallicFactor":0,
				"metallicRoughnessTexture":{
					"index":2
				}
			}
		}
	],
	"meshes":[
		{
			"name":"Sphere",
			"primitives":[
				{
					"attributes":{
						"POSITION":0,
						"NORMAL":1,
						"TEXCOORD_0":2,
						"COLOR_0":3,
						"COLOR_1":4
					},
					"indices":5,
					"material":0
				}
			]
		},
		{
			"name":"Cube",
			"primitives":[
				{
					"attributes":{
						"POSITION":6,
						"NORMAL":7,
						"TEXCOORD_0":8,
						"COLOR_0":9,
						"COLOR_1":10
					},
					"indices":11,
					"material":0
				}
			]
		},
		{
			"name":"balloon.001_Curve.004",
			"primitives":[
				{
					"attributes":{
						"POSITION":12,
						"NORMAL":13,
						"TEXCOORD_0":14,
						"COLOR_0":15,
						"COLOR_1":16
					},
					"indices":17,
					"material":0
				}
			]
		}
	],
	"textures":[
		{
			"sampler":0,
			"source":0
		},
		{
			"sampler":0,
			"source":1
		},
		{
			"sampler":0,
			"source":2
		}
	],
	"images":[
		{
			"mimeType":"image/png",
			"name":"balloon_01_Balloon_Normal",
			"uri":"tex/balloon_01_Balloon_Normal.png"
		},
		{
			"mimeType":"image/png",
			"name":"balloon_01_Balloon_BaseColor",
			"uri":"tex/balloon_01_Balloon_BaseColor.png"
		},
		{
			"mimeType":"image/png",
			"name":"balloon_01_Balloon_Roughness",
			"uri":"tex/balloon_01_Balloon_Roughness.png"
		}
	],
	"accessors":[
		{
			"bufferView":0,
			"componentType":5126,
			"count":429,
			"max":[
				0.7355888485908508,
				0.9790925979614258,
				0.7355887293815613
			],
			"min":[
				-0.7355886101722717,
				-1.1101889610290527,
				-0.7355889081954956
			],
			"type":"VEC3"
		},
		{
			"bufferView":1,
			"componentType":5126,
			"count":429,
			"type":"VEC3"
		},
		{
			"bufferView":2,
			"componentType":5126,
			"count":429,
			"type":"VEC2"
		},
		{
			"bufferView":3,
			"componentType":5121,
			"count":429,
			"normalized":true,
			"type":"VEC4"
		},
		{
			"bufferView":4,
			"componentType":5123,
			"count":429,
			"normalized":true,
			"type":"VEC4"
		},
		{
			"bufferView":5,
			"componentType":5123,
			"count":1584,
			"type":"SCALAR"
		},
		{
			"bufferView":6,
			"componentType":5126,
			"count":33,
			"max":[
				0.5089519023895264,
				0.22684280574321747,
				0.22684280574321747
			],
			"min":[
				-0.5089519023895264,
				-0.22684280574321747,
				-0.22684280574321747
			],
			"type":"VEC3"
		},
		{
			"bufferView":7,
			"componentType":5126,
			"count":33,
			"type":"VEC3"
		},
		{
			"bufferView":8,
			"componentType":5126,
			"count":33,
			"type":"VEC2"
		},
		{
			"bufferView":9,
			"componentType":5121,
			"count":33,
			"normalized":true,
			"type":"VEC4"
		},
		{
			"bufferView":10,
			"componentType":5123,
			"count":33,
			"normalized":true,
			"type":"VEC4"
		},
		{
			"bufferView":11,
			"componentType":5123,
			"count":132,
			"type":"SCALAR"
		},
		{
			"bufferView":12,
			"componentType":5126,
			"count":1042,
			"max":[
				0.7765524983406067,
				0.9507349729537964,
				0.7765524983406067
			],
			"min":[
				-0.7765524983406067,
				-3.5571837425231934,
				-0.7765524983406067
			],
			"type":"VEC3"
		},
		{
			"bufferView":13,
			"componentType":5126,
			"count":1042,
			"type":"VEC3"
		},
		{
			"bufferView":14,
			"componentType":5126,
			"count":1042,
			"type":"VEC2"
		},
		{
			"bufferView":15,
			"componentType":5121,
			"count":1042,
			"normalized":true,
			"type":"VEC4"
		},
		{
			"bufferView":16,
			"componentType":5123,
			"count":1042,
			"normalized":true,
			"type":"VEC4"
		},
		{
			"bufferView":17,
			"componentType":5123,
			"count":4860,
			"type":"SCALAR"
		}
	],
	"bufferViews":[
		{
			"buffer":0,
			"byteLength":5148,
			"byteOffset":0,
			"target":34962
		},
		{
			"buffer":0,
			"byteLength":5148,
			"byteOffset":5148,
			"target":34962
		},
		{
			"buffer":0,
			"byteLength":3432,
			"byteOffset":10296,
			"target":34962
		},
		{
			"buffer":0,
			"byteLength":1716,
			"byteOffset":13728,
			"target":34962
		},
		{
			"buffer":0,
			"byteLength":3432,
			"byteOffset":15444,
			"target":34962
		},
		{
			"buffer":0,
			"byteLength":3168,
			"byteOffset":18876,
			"target":34963
		},
		{
			"buffer":0,
			"byteLength":396,
			"byteOffset":22044,
			"target":34962
		},
		{
			"buffer":0,
			"byteLength":396,
			"byteOffset":22440,
			"target":34962
		},
		{
			"buffer":0,
			"byteLength":264,
			"byteOffset":22836,
			"target":34962
		},
		{
			"buffer":0,
			"byteLength":132,
			"byteOffset":23100,
			"target":34962
		},
		{
			"buffer":0,
			"byteLength":264,
			"byteOffset":23232,
			"target":34962
		},
		{
			"buffer":0,
			"byteLength":264,
			"byteOffset":23496,
			"target":34963
		},
		{
			"buffer":0,
			"byteLength":12504,
			"byteOffset":23760,
			"target":34962
		},
		{
			"buffer":0,
			"byteLength":12504,
			"byteOffset":36264,
			"target":34962
		},
		{
			"buffer":0,
			"byteLength":8336,
			"byteOffset":48768,
			"target":34962
		},
		{
			"buffer":0,
			"byteLength":4168,
			"byteOffset":57104,
			"target":34962
		},
		{
			"buffer":0,
			"byteLength":8336,
			"byteOffset":61272,
			"target":34962
		},
		{
			"buffer":0,
			"byteLength":9720,
			"byteOffset":69608,
			"target":34963
		}
	],
	"samplers":[
		{
			"magFilter":9729,
			"minFilter":9987
		}
	],
	"buffers":[
		{
			"byteLength":79328,
			"uri":"balloon_desktop.bin"
		}
	]
}
