{
	"asset":{
		"generator":"Khronos glTF Blender I/O v4.5.51",
		"version":"2.0"
	},
	"scene":0,
	"scenes":[
		{
			"name":"Scene",
			"nodes":[
				27
			]
		}
	],
	"nodes":[
		{
			"mesh":0,
			"name":"base",
			"translation":[
				0.0005662143230438232,
				0.06107310950756073,
				0
			]
		},
		{
			"mesh":1,
			"name":"binoculars_collider_box",
			"translation":[
				0,
				0.7923812866210938,
				0
			]
		},
		{
			"mesh":2,
			"name":"block.mid",
			"translation":[
				0,
				0.8598937392234802,
				0
			]
		},
		{
			"mesh":3,
			"name":"block.top",
			"translation":[
				0,
				1.3285294771194458,
				0
			]
		},
		{
			"mesh":4,
			"name":"bolt_001",
			"rotation":[
				0,
				0,
				-0.7071068286895752,
				0.7071068286895752
			],
			"translation":[
				0.16535340249538422,
				0.9261696338653564,
				-0.049324970692396164
			]
		},
		{
			"mesh":5,
			"name":"bolt_001.001",
			"rotation":[
				0.7071068286895752,
				-0.7071068286895752,
				0,
				2.837897454810445e-07
			],
			"translation":[
				-0.29477497935295105,
				1.141742467880249,
				-0.24346260726451874
			]
		},
		{
			"mesh":6,
			"name":"bolt_001.002",
			"rotation":[
				0.7071068286895752,
				-0.7071068286895752,
				0,
				2.837897454810445e-07
			],
			"translation":[
				-0.29477497935295105,
				1.0996683835983276,
				-0.25187379121780396
			]
		},
		{
			"mesh":7,
			"name":"bolt_001.003",
			"rotation":[
				0.7071068286895752,
				-0.7071068286895752,
				0,
				2.837897454810445e-07
			],
			"translation":[
				-0.29477497935295105,
				1.1395740509033203,
				0.24129337072372437
			]
		},
		{
			"mesh":8,
			"name":"bolt_001.004",
			"rotation":[
				0.7071068286895752,
				-0.7071068286895752,
				0,
				2.837897454810445e-07
			],
			"translation":[
				-0.29477497935295105,
				1.0879875421524048,
				0.24529893696308136
			]
		},
		{
			"mesh":9,
			"name":"bolt_002",
			"rotation":[
				0,
				0,
				-0.7071068286895752,
				0.7071068286895752
			],
			"translation":[
				0.16863620281219482,
				0.922642171382904,
				0.04875728115439415
			]
		},
		{
			"mesh":10,
			"name":"bolt_003",
			"rotation":[
				0,
				0,
				-0.7071068286895752,
				0.7071068286895752
			],
			"translation":[
				0.16728152334690094,
				0.7966135740280151,
				0.05145544186234474
			]
		},
		{
			"mesh":11,
			"name":"bolt_004",
			"rotation":[
				0,
				0,
				-0.7071068286895752,
				0.7071068286895752
			],
			"translation":[
				0.16728152334690094,
				0.7998900413513184,
				-0.04560825601220131
			]
		},
		{
			"mesh":12,
			"name":"Cube",
			"translation":[
				-0.28442972898483276,
				1.1155731678009033,
				0
			]
		},
		{
			"mesh":13,
			"name":"Cylinder",
			"rotation":[
				0,
				0,
				-0.7071068286895752,
				0.7071068286895752
			],
			"translation":[
				0.16657601296901703,
				0.8609668612480164,
				0
			]
		},
		{
			"mesh":14,
			"name":"Cylinder.005",
			"translation":[
				0.19999998807907104,
				0.12867587804794312,
				-0.19999998807907104
			]
		},
		{
			"mesh":15,
			"name":"Cylinder.006",
			"translation":[
				-0.20225128531455994,
				0.1315728724002838,
				-0.19999998807907104
			]
		},
		{
			"mesh":16,
			"name":"Cylinder.007",
			"translation":[
				-0.19790758192539215,
				0.12867587804794312,
				0.2019423544406891
			]
		},
		{
			"mesh":17,
			"name":"Cylinder.008",
			"translation":[
				0.1899005025625229,
				0.13180464506149292,
				0.2019423544406891
			]
		},
		{
			"mesh":18,
			"name":"eyes.front",
			"rotation":[
				0.5,
				-0.5,
				0.5,
				0.5
			],
			"translation":[
				-0.2737286686897278,
				1.3533583879470825,
				0.19226287305355072
			]
		},
		{
			"mesh":19,
			"name":"eyes.front.001",
			"rotation":[
				0.5,
				0.5,
				-0.5,
				0.5
			],
			"translation":[
				0.2737286686897278,
				1.1394633054733276,
				0.0875755324959755
			]
		},
		{
			"mesh":20,
			"name":"frame",
			"translation":[
				0.15852537751197815,
				0.9392195343971252,
				0
			]
		},
		{
			"mesh":21,
			"name":"leg",
			"scale":[
				1.193237066268921,
				1,
				1.193237066268921
			],
			"translation":[
				-2.056004450423643e-05,
				0.39125800132751465,
				-6.97332143317908e-05
			]
		},
		{
			"mesh":22,
			"name":"lever.lower",
			"rotation":[
				0.7071068286895752,
				0,
				0,
				0.7071068286895752
			],
			"translation":[
				-0.03989526629447937,
				0.7877296209335327,
				0.3544009327888489
			]
		},
		{
			"mesh":23,
			"name":"lever.lower.001",
			"rotation":[
				0.7071068286895752,
				0,
				0,
				0.7071068286895752
			],
			"translation":[
				-0.03989526629447937,
				0.7877296209335327,
				-0.3544009327888489
			]
		},
		{
			"mesh":24,
			"name":"lever.upper",
			"rotation":[
				0.7071068286895752,
				0,
				0,
				0.7071068286895752
			],
			"translation":[
				-0.03989526629447937,
				1.220943808555603,
				0.5712745189666748
			]
		},
		{
			"mesh":25,
			"name":"rope.001",
			"rotation":[
				-0.008343744091689587,
				2.1953619580017403e-05,
				0.002631046809256077,
				0.9999617338180542
			],
			"scale":[
				1.1932322978973389,
				1.0000648498535156,
				1.1931875944137573
			],
			"translation":[
				-1.6518381016794592e-05,
				0.177103191614151,
				-7.35415960662067e-05
			]
		},
		{
			"mesh":26,
			"name":"rope.002",
			"scale":[
				1.193237066268921,
				1,
				1.193237066268921
			],
			"translation":[
				0.00035627259057946503,
				0.13838675618171692,
				0.0012258808128535748
			]
		},
		{
			"children":[
				0,
				1,
				2,
				3,
				4,
				5,
				6,
				7,
				8,
				9,
				10,
				11,
				12,
				13,
				14,
				15,
				16,
				17,
				18,
				19,
				20,
				21,
				22,
				23,
				24,
				25,
				26
			],
			"name":"origin"
		}
	],
	"materials":[
		{
			"doubleSided":true,
			"emissiveTexture":{
				"index":0
			},
			"name":"Binoculars",
			"normalTexture":{
				"index":1
			},
			"pbrMetallicRoughness":{
				"baseColorTexture":{
					"index":2
				},
				"metallicRoughnessTexture":{
					"index":3
				}
			}
		}
	],
	"meshes":[
		{
			"name":"Cube",
			"primitives":[
				{
					"attributes":{
						"POSITION":0,
						"NORMAL":1,
						"TEXCOORD_0":2,
						"COLOR_0":3,
						"COLOR_1":4
					},
					"indices":5,
					"material":0
				}
			]
		},
		{
			"name":"Cube.001",
			"primitives":[
				{
					"attributes":{
						"POSITION":6,
						"NORMAL":7,
						"TEXCOORD_0":8
					},
					"indices":9
				}
			]
		},
		{
			"name":"Cube.004",
			"primitives":[
				{
					"attributes":{
						"POSITION":10,
						"NORMAL":11,
						"TEXCOORD_0":12,
						"COLOR_0":13,
						"COLOR_1":14
					},
					"indices":15,
					"material":0
				}
			]
		},
		{
			"name":"Cube.003",
			"primitives":[
				{
					"attributes":{
						"POSITION":16,
						"NORMAL":17,
						"TEXCOORD_0":18,
						"COLOR_0":19,
						"COLOR_1":20
					},
					"indices":21,
					"material":0
				}
			]
		},
		{
			"name":"Cylinder.017",
			"primitives":[
				{
					"attributes":{
						"POSITION":22,
						"NORMAL":23,
						"TEXCOORD_0":24,
						"COLOR_0":25,
						"COLOR_1":26
					},
					"indices":27,
					"material":0
				}
			]
		},
		{
			"name":"Cylinder.020",
			"primitives":[
				{
					"attributes":{
						"POSITION":28,
						"NORMAL":29,
						"TEXCOORD_0":30,
						"COLOR_0":31,
						"COLOR_1":32
					},
					"indices":33,
					"material":0
				}
			]
		},
		{
			"name":"Cylinder.021",
			"primitives":[
				{
					"attributes":{
						"POSITION":34,
						"NORMAL":35,
						"TEXCOORD_0":36,
						"COLOR_0":37,
						"COLOR_1":38
					},
					"indices":39,
					"material":0
				}
			]
		},
		{
			"name":"Cylinder.022",
			"primitives":[
				{
					"attributes":{
						"POSITION":40,
						"NORMAL":41,
						"TEXCOORD_0":42,
						"COLOR_0":43,
						"COLOR_1":44
					},
					"indices":45,
					"material":0
				}
			]
		},
		{
			"name":"Cylinder.003",
			"primitives":[
				{
					"attributes":{
						"POSITION":46,
						"NORMAL":47,
						"TEXCOORD_0":48,
						"COLOR_0":49,
						"COLOR_1":50
					},
					"indices":51,
					"material":0
				}
			]
		},
		{
			"name":"Cylinder.016",
			"primitives":[
				{
					"attributes":{
						"POSITION":52,
						"NORMAL":53,
						"TEXCOORD_0":54,
						"COLOR_0":55,
						"COLOR_1":56
					},
					"indices":57,
					"material":0
				}
			]
		},
		{
			"name":"Cylinder.018",
			"primitives":[
				{
					"attributes":{
						"POSITION":58,
						"NORMAL":59,
						"TEXCOORD_0":60,
						"COLOR_0":61,
						"COLOR_1":62
					},
					"indices":33,
					"material":0
				}
			]
		},
		{
			"name":"Cylinder.019",
			"primitives":[
				{
					"attributes":{
						"POSITION":63,
						"NORMAL":64,
						"TEXCOORD_0":65,
						"COLOR_0":66,
						"COLOR_1":67
					},
					"indices":51,
					"material":0
				}
			]
		},
		{
			"name":"Cube.006",
			"primitives":[
				{
					"attributes":{
						"POSITION":68,
						"NORMAL":69,
						"TEXCOORD_0":70,
						"COLOR_0":71,
						"COLOR_1":72
					},
					"indices":73,
					"material":0
				}
			]
		},
		{
			"name":"Cylinder.023",
			"primitives":[
				{
					"attributes":{
						"POSITION":74,
						"NORMAL":75,
						"TEXCOORD_0":76,
						"COLOR_0":77,
						"COLOR_1":78
					},
					"indices":79,
					"material":0
				}
			]
		},
		{
			"name":"Cylinder.005",
			"primitives":[
				{
					"attributes":{
						"POSITION":80,
						"NORMAL":81,
						"TEXCOORD_0":82,
						"COLOR_0":83,
						"COLOR_1":84
					},
					"indices":85,
					"material":0
				}
			]
		},
		{
			"name":"Cylinder.006",
			"primitives":[
				{
					"attributes":{
						"POSITION":86,
						"NORMAL":87,
						"TEXCOORD_0":88,
						"COLOR_0":89,
						"COLOR_1":90
					},
					"indices":33,
					"material":0
				}
			]
		},
		{
			"name":"Cylinder.007",
			"primitives":[
				{
					"attributes":{
						"POSITION":91,
						"NORMAL":92,
						"TEXCOORD_0":93,
						"COLOR_0":94,
						"COLOR_1":95
					},
					"indices":39,
					"material":0
				}
			]
		},
		{
			"name":"Cylinder.008",
			"primitives":[
				{
					"attributes":{
						"POSITION":96,
						"NORMAL":97,
						"TEXCOORD_0":98,
						"COLOR_0":99,
						"COLOR_1":100
					},
					"indices":101,
					"material":0
				}
			]
		},
		{
			"name":"Cylinder.010",
			"primitives":[
				{
					"attributes":{
						"POSITION":102,
						"NORMAL":103,
						"TEXCOORD_0":104,
						"COLOR_0":105,
						"COLOR_1":106
					},
					"indices":107,
					"material":0
				}
			]
		},
		{
			"name":"Cylinder.011",
			"primitives":[
				{
					"attributes":{
						"POSITION":108,
						"NORMAL":109,
						"TEXCOORD_0":110,
						"COLOR_0":111,
						"COLOR_1":112
					},
					"indices":113,
					"material":0
				}
			]
		},
		{
			"name":"Plane",
			"primitives":[
				{
					"attributes":{
						"POSITION":114,
						"NORMAL":115,
						"TEXCOORD_0":116,
						"COLOR_0":117,
						"COLOR_1":118
					},
					"indices":119,
					"material":0
				}
			]
		},
		{
			"name":"Cube.005",
			"primitives":[
				{
					"attributes":{
						"POSITION":120,
						"NORMAL":121,
						"TEXCOORD_0":122,
						"COLOR_0":123,
						"COLOR_1":124
					},
					"indices":125,
					"material":0
				}
			]
		},
		{
			"name":"Cylinder",
			"primitives":[
				{
					"attributes":{
						"POSITION":126,
						"NORMAL":127,
						"TEXCOORD_0":128,
						"COLOR_0":129,
						"COLOR_1":130
					},
					"indices":131,
					"material":0
				}
			]
		},
		{
			"name":"Cylinder.001",
			"primitives":[
				{
					"attributes":{
						"POSITION":132,
						"NORMAL":133,
						"TEXCOORD_0":134,
						"COLOR_0":135,
						"COLOR_1":136
					},
					"indices":137,
					"material":0
				}
			]
		},
		{
			"name":"Cylinder.009",
			"primitives":[
				{
					"attributes":{
						"POSITION":138,
						"NORMAL":139,
						"TEXCOORD_0":140,
						"COLOR_0":141,
						"COLOR_1":142
					},
					"indices":143,
					"material":0
				}
			]
		},
		{
			"name":"Cube.001_Curve.001",
			"primitives":[
				{
					"attributes":{
						"POSITION":144,
						"NORMAL":145,
						"TEXCOORD_0":146,
						"COLOR_0":147,
						"COLOR_1":148
					},
					"indices":149,
					"material":0
				}
			]
		},
		{
			"name":"Cube.001_Curve",
			"primitives":[
				{
					"attributes":{
						"POSITION":150,
						"NORMAL":151,
						"TEXCOORD_0":152,
						"COLOR_0":153,
						"COLOR_1":154
					},
					"indices":155,
					"material":0
				}
			]
		}
	],
	"textures":[
		{
			"sampler":0,
			"source":0
		},
		{
			"sampler":0,
			"source":1
		},
		{
			"sampler":0,
			"source":2
		},
		{
			"sampler":0,
			"source":3
		}
	],
	"images":[
		{
			"mimeType":"image/png",
			"name":"binoculars_Binoculars_Emissive",
			"uri":"tex/binoculars_Binoculars_Emissive.png"
		},
		{
			"mimeType":"image/png",
			"name":"binoculars_Binoculars_Normal",
			"uri":"tex/binoculars_Binoculars_Normal.png"
		},
		{
			"mimeType":"image/png",
			"name":"binoculars_Binoculars_BaseColor",
			"uri":"tex/binoculars_Binoculars_BaseColor.png"
		},
		{
			"mimeType":"image/png",
			"name":"binoculars_Binoculars_Metallic-binoculars_Binoculars_Roughness",
			"uri":"tex/binoculars_Binoculars_Metallic-binoculars_Binoculars_Roughness.png"
		}
	],
	"accessors":[
		{
			"bufferView":0,
			"componentType":5126,
			"count":153,
			"max":[
				0.26251301169395447,
				0.06675359606742859,
				0.25
			],
			"min":[
				-0.25911572575569153,
				-0.06022542342543602,
				-0.25
			],
			"type":"VEC3"
		},
		{
			"bufferView":1,
			"componentType":5126,
			"count":153,
			"type":"VEC3"
		},
		{
			"bufferView":2,
			"componentType":5126,
			"count":153,
			"type":"VEC2"
		},
		{
			"bufferView":3,
			"componentType":5121,
			"count":153,
			"normalized":true,
			"type":"VEC4"
		},
		{
			"bufferView":4,
			"componentType":5123,
			"count":153,
			"normalized":true,
			"type":"VEC4"
		},
		{
			"bufferView":5,
			"componentType":5123,
			"count":468,
			"type":"SCALAR"
		},
		{
			"bufferView":6,
			"componentType":5126,
			"count":24,
			"max":[
				0.33917349576950073,
				0.7915335297584534,
				0.4436495900154114
			],
			"min":[
				-0.33917349576950073,
				-0.7915335297584534,
				-0.4436495900154114
			],
			"type":"VEC3"
		},
		{
			"bufferView":7,
			"componentType":5126,
			"count":24,
			"type":"VEC3"
		},
		{
			"bufferView":8,
			"componentType":5126,
			"count":24,
			"type":"VEC2"
		},
		{
			"bufferView":9,
			"componentType":5123,
			"count":36,
			"type":"SCALAR"
		},
		{
			"bufferView":10,
			"componentType":5126,
			"count":442,
			"max":[
				0.15995582938194275,
				0.20056915283203125,
				0.21529462933540344
			],
			"min":[
				-0.15933188796043396,
				-0.20056915283203125,
				-0.21529464423656464
			],
			"type":"VEC3"
		},
		{
			"bufferView":11,
			"componentType":5126,
			"count":442,
			"type":"VEC3"
		},
		{
			"bufferView":12,
			"componentType":5126,
			"count":442,
			"type":"VEC2"
		},
		{
			"bufferView":13,
			"componentType":5121,
			"count":442,
			"normalized":true,
			"type":"VEC4"
		},
		{
			"bufferView":14,
			"componentType":5123,
			"count":442,
			"normalized":true,
			"type":"VEC4"
		},
		{
			"bufferView":15,
			"componentType":5123,
			"count":1428,
			"type":"SCALAR"
		},
		{
			"bufferView":16,
			"componentType":5126,
			"count":676,
			"max":[
				0.27372869849205017,
				0.2412552833557129,
				0.43796592950820923
			],
			"min":[
				-0.27372869849205017,
				-0.2749999761581421,
				-0.43796592950820923
			],
			"type":"VEC3"
		},
		{
			"bufferView":17,
			"componentType":5126,
			"count":676,
			"type":"VEC3"
		},
		{
			"bufferView":18,
			"componentType":5126,
			"count":676,
			"type":"VEC2"
		},
		{
			"bufferView":19,
			"componentType":5121,
			"count":676,
			"normalized":true,
			"type":"VEC4"
		},
		{
			"bufferView":20,
			"componentType":5123,
			"count":676,
			"normalized":true,
			"type":"VEC4"
		},
		{
			"bufferView":21,
			"componentType":5123,
			"count":2136,
			"type":"SCALAR"
		},
		{
			"bufferView":22,
			"componentType":5126,
			"count":66,
			"max":[
				0.007908751256763935,
				0.00954115204513073,
				0.007908751256763935
			],
			"min":[
				-0.007908751256763935,
				-0.00875614583492279,
				-0.007908751256763935
			],
			"type":"VEC3"
		},
		{
			"bufferView":23,
			"componentType":5126,
			"count":66,
			"type":"VEC3"
		},
		{
			"bufferView":24,
			"componentType":5126,
			"count":66,
			"type":"VEC2"
		},
		{
			"bufferView":25,
			"componentType":5121,
			"count":66,
			"normalized":true,
			"type":"VEC4"
		},
		{
			"bufferView":26,
			"componentType":5123,
			"count":66,
			"normalized":true,
			"type":"VEC4"
		},
		{
			"bufferView":27,
			"componentType":5123,
			"count":234,
			"type":"SCALAR"
		},
		{
			"bufferView":28,
			"componentType":5126,
			"count":66,
			"max":[
				0.007908751256763935,
				0.00954115204513073,
				0.007908751256763935
			],
			"min":[
				-0.007908751256763935,
				-0.00875614583492279,
				-0.007908751256763935
			],
			"type":"VEC3"
		},
		{
			"bufferView":29,
			"componentType":5126,
			"count":66,
			"type":"VEC3"
		},
		{
			"bufferView":30,
			"componentType":5126,
			"count":66,
			"type":"VEC2"
		},
		{
			"bufferView":31,
			"componentType":5121,
			"count":66,
			"normalized":true,
			"type":"VEC4"
		},
		{
			"bufferView":32,
			"componentType":5123,
			"count":66,
			"normalized":true,
			"type":"VEC4"
		},
		{
			"bufferView":33,
			"componentType":5123,
			"count":234,
			"type":"SCALAR"
		},
		{
			"bufferView":34,
			"componentType":5126,
			"count":66,
			"max":[
				0.007908751256763935,
				0.00954115204513073,
				0.007908751256763935
			],
			"min":[
				-0.007908751256763935,
				-0.00875614583492279,
				-0.007908751256763935
			],
			"type":"VEC3"
		},
		{
			"bufferView":35,
			"componentType":5126,
			"count":66,
			"type":"VEC3"
		},
		{
			"bufferView":36,
			"componentType":5126,
			"count":66,
			"type":"VEC2"
		},
		{
			"bufferView":37,
			"componentType":5121,
			"count":66,
			"normalized":true,
			"type":"VEC4"
		},
		{
			"bufferView":38,
			"componentType":5123,
			"count":66,
			"normalized":true,
			"type":"VEC4"
		},
		{
			"bufferView":39,
			"componentType":5123,
			"count":234,
			"type":"SCALAR"
		},
		{
			"bufferView":40,
			"componentType":5126,
			"count":66,
			"max":[
				0.007908751256763935,
				0.00954115204513073,
				0.007908751256763935
			],
			"min":[
				-0.007908751256763935,
				-0.00875614583492279,
				-0.007908751256763935
			],
			"type":"VEC3"
		},
		{
			"bufferView":41,
			"componentType":5126,
			"count":66,
			"type":"VEC3"
		},
		{
			"bufferView":42,
			"componentType":5126,
			"count":66,
			"type":"VEC2"
		},
		{
			"bufferView":43,
			"componentType":5121,
			"count":66,
			"normalized":true,
			"type":"VEC4"
		},
		{
			"bufferView":44,
			"componentType":5123,
			"count":66,
			"normalized":true,
			"type":"VEC4"
		},
		{
			"bufferView":45,
			"componentType":5123,
			"count":234,
			"type":"SCALAR"
		},
		{
			"bufferView":46,
			"componentType":5126,
			"count":66,
			"max":[
				0.007908751256763935,
				0.00954115204513073,
				0.007908751256763935
			],
			"min":[
				-0.007908751256763935,
				-0.00875614583492279,
				-0.007908751256763935
			],
			"type":"VEC3"
		},
		{
			"bufferView":47,
			"componentType":5126,
			"count":66,
			"type":"VEC3"
		},
		{
			"bufferView":48,
			"componentType":5126,
			"count":66,
			"type":"VEC2"
		},
		{
			"bufferView":49,
			"componentType":5121,
			"count":66,
			"normalized":true,
			"type":"VEC4"
		},
		{
			"bufferView":50,
			"componentType":5123,
			"count":66,
			"normalized":true,
			"type":"VEC4"
		},
		{
			"bufferView":51,
			"componentType":5123,
			"count":234,
			"type":"SCALAR"
		},
		{
			"bufferView":52,
			"componentType":5126,
			"count":66,
			"max":[
				0.007908751256763935,
				0.00954115204513073,
				0.007908751256763935
			],
			"min":[
				-0.007908751256763935,
				-0.00875614583492279,
				-0.007908751256763935
			],
			"type":"VEC3"
		},
		{
			"bufferView":53,
			"componentType":5126,
			"count":66,
			"type":"VEC3"
		},
		{
			"bufferView":54,
			"componentType":5126,
			"count":66,
			"type":"VEC2"
		},
		{
			"bufferView":55,
			"componentType":5121,
			"count":66,
			"normalized":true,
			"type":"VEC4"
		},
		{
			"bufferView":56,
			"componentType":5123,
			"count":66,
			"normalized":true,
			"type":"VEC4"
		},
		{
			"bufferView":57,
			"componentType":5123,
			"count":234,
			"type":"SCALAR"
		},
		{
			"bufferView":58,
			"componentType":5126,
			"count":66,
			"max":[
				0.007908751256763935,
				0.00954115204513073,
				0.007908751256763935
			],
			"min":[
				-0.007908751256763935,
				-0.00875614583492279,
				-0.007908751256763935
			],
			"type":"VEC3"
		},
		{
			"bufferView":59,
			"componentType":5126,
			"count":66,
			"type":"VEC3"
		},
		{
			"bufferView":60,
			"componentType":5126,
			"count":66,
			"type":"VEC2"
		},
		{
			"bufferView":61,
			"componentType":5121,
			"count":66,
			"normalized":true,
			"type":"VEC4"
		},
		{
			"bufferView":62,
			"componentType":5123,
			"count":66,
			"normalized":true,
			"type":"VEC4"
		},
		{
			"bufferView":63,
			"componentType":5126,
			"count":66,
			"max":[
				0.007908751256763935,
				0.00954115204513073,
				0.007908751256763935
			],
			"min":[
				-0.007908751256763935,
				-0.00875614583492279,
				-0.007908751256763935
			],
			"type":"VEC3"
		},
		{
			"bufferView":64,
			"componentType":5126,
			"count":66,
			"type":"VEC3"
		},
		{
			"bufferView":65,
			"componentType":5126,
			"count":66,
			"type":"VEC2"
		},
		{
			"bufferView":66,
			"componentType":5121,
			"count":66,
			"normalized":true,
			"type":"VEC4"
		},
		{
			"bufferView":67,
			"componentType":5123,
			"count":66,
			"normalized":true,
			"type":"VEC4"
		},
		{
			"bufferView":68,
			"componentType":5126,
			"count":40,
			"max":[
				0.010345276445150375,
				0.0401521772146225,
				0.27091243863105774
			],
			"min":[
				-0.010345276445150375,
				-0.0401521772146225,
				-0.27091243863105774
			],
			"type":"VEC3"
		},
		{
			"bufferView":69,
			"componentType":5126,
			"count":40,
			"type":"VEC3"
		},
		{
			"bufferView":70,
			"componentType":5126,
			"count":40,
			"type":"VEC2"
		},
		{
			"bufferView":71,
			"componentType":5121,
			"count":40,
			"normalized":true,
			"type":"VEC4"
		},
		{
			"bufferView":72,
			"componentType":5123,
			"count":40,
			"normalized":true,
			"type":"VEC4"
		},
		{
			"bufferView":73,
			"componentType":5123,
			"count":66,
			"type":"SCALAR"
		},
		{
			"bufferView":74,
			"componentType":5126,
			"count":112,
			"max":[
				0.028607232496142387,
				0.004285312257707119,
				0.028607232496142387
			],
			"min":[
				-0.028607232496142387,
				-0.004285312257707119,
				-0.028607232496142387
			],
			"type":"VEC3"
		},
		{
			"bufferView":75,
			"componentType":5126,
			"count":112,
			"type":"VEC3"
		},
		{
			"bufferView":76,
			"componentType":5126,
			"count":112,
			"type":"VEC2"
		},
		{
			"bufferView":77,
			"componentType":5121,
			"count":112,
			"normalized":true,
			"type":"VEC4"
		},
		{
			"bufferView":78,
			"componentType":5123,
			"count":112,
			"normalized":true,
			"type":"VEC4"
		},
		{
			"bufferView":79,
			"componentType":5123,
			"count":330,
			"type":"SCALAR"
		},
		{
			"bufferView":80,
			"componentType":5126,
			"count":66,
			"max":[
				0.02184499241411686,
				0.01089040469378233,
				0.02184499241411686
			],
			"min":[
				-0.02184499241411686,
				-0.008756146766245365,
				-0.02184499241411686
			],
			"type":"VEC3"
		},
		{
			"bufferView":81,
			"componentType":5126,
			"count":66,
			"type":"VEC3"
		},
		{
			"bufferView":82,
			"componentType":5126,
			"count":66,
			"type":"VEC2"
		},
		{
			"bufferView":83,
			"componentType":5121,
			"count":66,
			"normalized":true,
			"type":"VEC4"
		},
		{
			"bufferView":84,
			"componentType":5123,
			"count":66,
			"normalized":true,
			"type":"VEC4"
		},
		{
			"bufferView":85,
			"componentType":5123,
			"count":234,
			"type":"SCALAR"
		},
		{
			"bufferView":86,
			"componentType":5126,
			"count":66,
			"max":[
				0.02184499241411686,
				0.01089040469378233,
				0.02184499241411686
			],
			"min":[
				-0.02184499241411686,
				-0.008756146766245365,
				-0.02184499241411686
			],
			"type":"VEC3"
		},
		{
			"bufferView":87,
			"componentType":5126,
			"count":66,
			"type":"VEC3"
		},
		{
			"bufferView":88,
			"componentType":5126,
			"count":66,
			"type":"VEC2"
		},
		{
			"bufferView":89,
			"componentType":5121,
			"count":66,
			"normalized":true,
			"type":"VEC4"
		},
		{
			"bufferView":90,
			"componentType":5123,
			"count":66,
			"normalized":true,
			"type":"VEC4"
		},
		{
			"bufferView":91,
			"componentType":5126,
			"count":66,
			"max":[
				0.02184499241411686,
				0.01089040469378233,
				0.02184499241411686
			],
			"min":[
				-0.02184499241411686,
				-0.008756146766245365,
				-0.02184499241411686
			],
			"type":"VEC3"
		},
		{
			"bufferView":92,
			"componentType":5126,
			"count":66,
			"type":"VEC3"
		},
		{
			"bufferView":93,
			"componentType":5126,
			"count":66,
			"type":"VEC2"
		},
		{
			"bufferView":94,
			"componentType":5121,
			"count":66,
			"normalized":true,
			"type":"VEC4"
		},
		{
			"bufferView":95,
			"componentType":5123,
			"count":66,
			"normalized":true,
			"type":"VEC4"
		},
		{
			"bufferView":96,
			"componentType":5126,
			"count":66,
			"max":[
				0.02184499241411686,
				0.01089040469378233,
				0.02184499241411686
			],
			"min":[
				-0.02184499241411686,
				-0.008756146766245365,
				-0.02184499241411686
			],
			"type":"VEC3"
		},
		{
			"bufferView":97,
			"componentType":5126,
			"count":66,
			"type":"VEC3"
		},
		{
			"bufferView":98,
			"componentType":5126,
			"count":66,
			"type":"VEC2"
		},
		{
			"bufferView":99,
			"componentType":5121,
			"count":66,
			"normalized":true,
			"type":"VEC4"
		},
		{
			"bufferView":100,
			"componentType":5123,
			"count":66,
			"normalized":true,
			"type":"VEC4"
		},
		{
			"bufferView":101,
			"componentType":5123,
			"count":234,
			"type":"SCALAR"
		},
		{
			"bufferView":102,
			"componentType":5126,
			"count":370,
			"max":[
				0.17636390030384064,
				0.1140453889966011,
				0.17636370658874512
			],
			"min":[
				-0.5608896613121033,
				1.5052682655891658e-08,
				-0.17636403441429138
			],
			"type":"VEC3"
		},
		{
			"bufferView":103,
			"componentType":5126,
			"count":370,
			"type":"VEC3"
		},
		{
			"bufferView":104,
			"componentType":5126,
			"count":370,
			"type":"VEC2"
		},
		{
			"bufferView":105,
			"componentType":5121,
			"count":370,
			"normalized":true,
			"type":"VEC4"
		},
		{
			"bufferView":106,
			"componentType":5123,
			"count":370,
			"normalized":true,
			"type":"VEC4"
		},
		{
			"bufferView":107,
			"componentType":5123,
			"count":1428,
			"type":"SCALAR"
		},
		{
			"bufferView":108,
			"componentType":5126,
			"count":370,
			"max":[
				0.25997400283813477,
				0.1140453889966011,
				0.01903926208615303
			],
			"min":[
				-0.08482294529676437,
				5.218917920046806e-08,
				-0.15060672163963318
			],
			"type":"VEC3"
		},
		{
			"bufferView":109,
			"componentType":5126,
			"count":370,
			"type":"VEC3"
		},
		{
			"bufferView":110,
			"componentType":5126,
			"count":370,
			"type":"VEC2"
		},
		{
			"bufferView":111,
			"componentType":5121,
			"count":370,
			"normalized":true,
			"type":"VEC4"
		},
		{
			"bufferView":112,
			"componentType":5123,
			"count":370,
			"normalized":true,
			"type":"VEC4"
		},
		{
			"bufferView":113,
			"componentType":5123,
			"count":1428,
			"type":"SCALAR"
		},
		{
			"bufferView":114,
			"componentType":5126,
			"count":54,
			"max":[
				0.011164538562297821,
				-0.001116001047194004,
				0.06261851638555527
			],
			"min":[
				0,
				-0.15538935363292694,
				-0.06261851638555527
			],
			"type":"VEC3"
		},
		{
			"bufferView":115,
			"componentType":5126,
			"count":54,
			"type":"VEC3"
		},
		{
			"bufferView":116,
			"componentType":5126,
			"count":54,
			"type":"VEC2"
		},
		{
			"bufferView":117,
			"componentType":5121,
			"count":54,
			"normalized":true,
			"type":"VEC4"
		},
		{
			"bufferView":118,
			"componentType":5123,
			"count":54,
			"normalized":true,
			"type":"VEC4"
		},
		{
			"bufferView":119,
			"componentType":5123,
			"count":126,
			"type":"SCALAR"
		},
		{
			"bufferView":120,
			"componentType":5126,
			"count":18,
			"max":[
				0.06176341697573662,
				0.27051201462745667,
				0.08345682173967361
			],
			"min":[
				-0.06176341697573662,
				-0.27051201462745667,
				-0.08345682173967361
			],
			"type":"VEC3"
		},
		{
			"bufferView":121,
			"componentType":5126,
			"count":18,
			"type":"VEC3"
		},
		{
			"bufferView":122,
			"componentType":5126,
			"count":18,
			"type":"VEC2"
		},
		{
			"bufferView":123,
			"componentType":5121,
			"count":18,
			"normalized":true,
			"type":"VEC4"
		},
		{
			"bufferView":124,
			"componentType":5123,
			"count":18,
			"normalized":true,
			"type":"VEC4"
		},
		{
			"bufferView":125,
			"componentType":5123,
			"count":48,
			"type":"SCALAR"
		},
		{
			"bufferView":126,
			"componentType":5126,
			"count":135,
			"max":[
				0.04108095169067383,
				0.026264801621437073,
				0.04108095169067383
			],
			"min":[
				-0.04108095169067383,
				-0.13991917669773102,
				-0.04108095169067383
			],
			"type":"VEC3"
		},
		{
			"bufferView":127,
			"componentType":5126,
			"count":135,
			"type":"VEC3"
		},
		{
			"bufferView":128,
			"componentType":5126,
			"count":135,
			"type":"VEC2"
		},
		{
			"bufferView":129,
			"componentType":5121,
			"count":135,
			"normalized":true,
			"type":"VEC4"
		},
		{
			"bufferView":130,
			"componentType":5123,
			"count":135,
			"normalized":true,
			"type":"VEC4"
		},
		{
			"bufferView":131,
			"componentType":5123,
			"count":522,
			"type":"SCALAR"
		},
		{
			"bufferView":132,
			"componentType":5126,
			"count":135,
			"max":[
				0.04108095169067383,
				0.13991917669773102,
				0.04108095169067383
			],
			"min":[
				-0.04108095169067383,
				-0.026264801621437073,
				-0.04108095169067383
			],
			"type":"VEC3"
		},
		{
			"bufferView":133,
			"componentType":5126,
			"count":135,
			"type":"VEC3"
		},
		{
			"bufferView":134,
			"componentType":5126,
			"count":135,
			"type":"VEC2"
		},
		{
			"bufferView":135,
			"componentType":5121,
			"count":135,
			"normalized":true,
			"type":"VEC4"
		},
		{
			"bufferView":136,
			"componentType":5123,
			"count":135,
			"normalized":true,
			"type":"VEC4"
		},
		{
			"bufferView":137,
			"componentType":5123,
			"count":522,
			"type":"SCALAR"
		},
		{
			"bufferView":138,
			"componentType":5126,
			"count":358,
			"max":[
				0.18019045889377594,
				0.062236934900283813,
				0.12395797669887543
			],
			"min":[
				-0.18019045889377594,
				-0.1399192214012146,
				-0.24637554585933685
			],
			"type":"VEC3"
		},
		{
			"bufferView":139,
			"componentType":5126,
			"count":358,
			"type":"VEC3"
		},
		{
			"bufferView":140,
			"componentType":5126,
			"count":358,
			"type":"VEC2"
		},
		{
			"bufferView":141,
			"componentType":5121,
			"count":358,
			"normalized":true,
			"type":"VEC4"
		},
		{
			"bufferView":142,
			"componentType":5123,
			"count":358,
			"normalized":true,
			"type":"VEC4"
		},
		{
			"bufferView":143,
			"componentType":5123,
			"count":1128,
			"type":"SCALAR"
		},
		{
			"bufferView":144,
			"componentType":5126,
			"count":78,
			"max":[
				0.09116385132074356,
				0.01962321251630783,
				0.11279284954071045
			],
			"min":[
				-0.08935227990150452,
				-0.019623277708888054,
				-0.11029612272977829
			],
			"type":"VEC3"
		},
		{
			"bufferView":145,
			"componentType":5126,
			"count":78,
			"type":"VEC3"
		},
		{
			"bufferView":146,
			"componentType":5126,
			"count":78,
			"type":"VEC2"
		},
		{
			"bufferView":147,
			"componentType":5121,
			"count":78,
			"normalized":true,
			"type":"VEC4"
		},
		{
			"bufferView":148,
			"componentType":5123,
			"count":78,
			"normalized":true,
			"type":"VEC4"
		},
		{
			"bufferView":149,
			"componentType":5123,
			"count":360,
			"type":"SCALAR"
		},
		{
			"bufferView":150,
			"componentType":5126,
			"count":78,
			"max":[
				0.09307997673749924,
				0.018619194626808167,
				0.11355709284543991
			],
			"min":[
				-0.09316695481538773,
				-0.018620729446411133,
				-0.11138510704040527
			],
			"type":"VEC3"
		},
		{
			"bufferView":151,
			"componentType":5126,
			"count":78,
			"type":"VEC3"
		},
		{
			"bufferView":152,
			"componentType":5126,
			"count":78,
			"type":"VEC2"
		},
		{
			"bufferView":153,
			"componentType":5121,
			"count":78,
			"normalized":true,
			"type":"VEC4"
		},
		{
			"bufferView":154,
			"componentType":5123,
			"count":78,
			"normalized":true,
			"type":"VEC4"
		},
		{
			"bufferView":155,
			"componentType":5123,
			"count":360,
			"type":"SCALAR"
		}
	],
	"bufferViews":[
		{
			"buffer":0,
			"byteLength":1836,
			"byteOffset":0,
			"target":34962
		},
		{
			"buffer":0,
			"byteLength":1836,
			"byteOffset":1836,
			"target":34962
		},
		{
			"buffer":0,
			"byteLength":1224,
			"byteOffset":3672,
			"target":34962
		},
		{
			"buffer":0,
			"byteLength":612,
			"byteOffset":4896,
			"target":34962
		},
		{
			"buffer":0,
			"byteLength":1224,
			"byteOffset":5508,
			"target":34962
		},
		{
			"buffer":0,
			"byteLength":936,
			"byteOffset":6732,
			"target":34963
		},
		{
			"buffer":0,
			"byteLength":288,
			"byteOffset":7668,
			"target":34962
		},
		{
			"buffer":0,
			"byteLength":288,
			"byteOffset":7956,
			"target":34962
		},
		{
			"buffer":0,
			"byteLength":192,
			"byteOffset":8244,
			"target":34962
		},
		{
			"buffer":0,
			"byteLength":72,
			"byteOffset":8436,
			"target":34963
		},
		{
			"buffer":0,
			"byteLength":5304,
			"byteOffset":8508,
			"target":34962
		},
		{
			"buffer":0,
			"byteLength":5304,
			"byteOffset":13812,
			"target":34962
		},
		{
			"buffer":0,
			"byteLength":3536,
			"byteOffset":19116,
			"target":34962
		},
		{
			"buffer":0,
			"byteLength":1768,
			"byteOffset":22652,
			"target":34962
		},
		{
			"buffer":0,
			"byteLength":3536,
			"byteOffset":24420,
			"target":34962
		},
		{
			"buffer":0,
			"byteLength":2856,
			"byteOffset":27956,
			"target":34963
		},
		{
			"buffer":0,
			"byteLength":8112,
			"byteOffset":30812,
			"target":34962
		},
		{
			"buffer":0,
			"byteLength":8112,
			"byteOffset":38924,
			"target":34962
		},
		{
			"buffer":0,
			"byteLength":5408,
			"byteOffset":47036,
			"target":34962
		},
		{
			"buffer":0,
			"byteLength":2704,
			"byteOffset":52444,
			"target":34962
		},
		{
			"buffer":0,
			"byteLength":5408,
			"byteOffset":55148,
			"target":34962
		},
		{
			"buffer":0,
			"byteLength":4272,
			"byteOffset":60556,
			"target":34963
		},
		{
			"buffer":0,
			"byteLength":792,
			"byteOffset":64828,
			"target":34962
		},
		{
			"buffer":0,
			"byteLength":792,
			"byteOffset":65620,
			"target":34962
		},
		{
			"buffer":0,
			"byteLength":528,
			"byteOffset":66412,
			"target":34962
		},
		{
			"buffer":0,
			"byteLength":264,
			"byteOffset":66940,
			"target":34962
		},
		{
			"buffer":0,
			"byteLength":528,
			"byteOffset":67204,
			"target":34962
		},
		{
			"buffer":0,
			"byteLength":468,
			"byteOffset":67732,
			"target":34963
		},
		{
			"buffer":0,
			"byteLength":792,
			"byteOffset":68200,
			"target":34962
		},
		{
			"buffer":0,
			"byteLength":792,
			"byteOffset":68992,
			"target":34962
		},
		{
			"buffer":0,
			"byteLength":528,
			"byteOffset":69784,
			"target":34962
		},
		{
			"buffer":0,
			"byteLength":264,
			"byteOffset":70312,
			"target":34962
		},
		{
			"buffer":0,
			"byteLength":528,
			"byteOffset":70576,
			"target":34962
		},
		{
			"buffer":0,
			"byteLength":468,
			"byteOffset":71104,
			"target":34963
		},
		{
			"buffer":0,
			"byteLength":792,
			"byteOffset":71572,
			"target":34962
		},
		{
			"buffer":0,
			"byteLength":792,
			"byteOffset":72364,
			"target":34962
		},
		{
			"buffer":0,
			"byteLength":528,
			"byteOffset":73156,
			"target":34962
		},
		{
			"buffer":0,
			"byteLength":264,
			"byteOffset":73684,
			"target":34962
		},
		{
			"buffer":0,
			"byteLength":528,
			"byteOffset":73948,
			"target":34962
		},
		{
			"buffer":0,
			"byteLength":468,
			"byteOffset":74476,
			"target":34963
		},
		{
			"buffer":0,
			"byteLength":792,
			"byteOffset":74944,
			"target":34962
		},
		{
			"buffer":0,
			"byteLength":792,
			"byteOffset":75736,
			"target":34962
		},
		{
			"buffer":0,
			"byteLength":528,
			"byteOffset":76528,
			"target":34962
		},
		{
			"buffer":0,
			"byteLength":264,
			"byteOffset":77056,
			"target":34962
		},
		{
			"buffer":0,
			"byteLength":528,
			"byteOffset":77320,
			"target":34962
		},
		{
			"buffer":0,
			"byteLength":468,
			"byteOffset":77848,
			"target":34963
		},
		{
			"buffer":0,
			"byteLength":792,
			"byteOffset":78316,
			"target":34962
		},
		{
			"buffer":0,
			"byteLength":792,
			"byteOffset":79108,
			"target":34962
		},
		{
			"buffer":0,
			"byteLength":528,
			"byteOffset":79900,
			"target":34962
		},
		{
			"buffer":0,
			"byteLength":264,
			"byteOffset":80428,
			"target":34962
		},
		{
			"buffer":0,
			"byteLength":528,
			"byteOffset":80692,
			"target":34962
		},
		{
			"buffer":0,
			"byteLength":468,
			"byteOffset":81220,
			"target":34963
		},
		{
			"buffer":0,
			"byteLength":792,
			"byteOffset":81688,
			"target":34962
		},
		{
			"buffer":0,
			"byteLength":792,
			"byteOffset":82480,
			"target":34962
		},
		{
			"buffer":0,
			"byteLength":528,
			"byteOffset":83272,
			"target":34962
		},
		{
			"buffer":0,
			"byteLength":264,
			"byteOffset":83800,
			"target":34962
		},
		{
			"buffer":0,
			"byteLength":528,
			"byteOffset":84064,
			"target":34962
		},
		{
			"buffer":0,
			"byteLength":468,
			"byteOffset":84592,
			"target":34963
		},
		{
			"buffer":0,
			"byteLength":792,
			"byteOffset":85060,
			"target":34962
		},
		{
			"buffer":0,
			"byteLength":792,
			"byteOffset":85852,
			"target":34962
		},
		{
			"buffer":0,
			"byteLength":528,
			"byteOffset":86644,
			"target":34962
		},
		{
			"buffer":0,
			"byteLength":264,
			"byteOffset":87172,
			"target":34962
		},
		{
			"buffer":0,
			"byteLength":528,
			"byteOffset":87436,
			"target":34962
		},
		{
			"buffer":0,
			"byteLength":792,
			"byteOffset":87964,
			"target":34962
		},
		{
			"buffer":0,
			"byteLength":792,
			"byteOffset":88756,
			"target":34962
		},
		{
			"buffer":0,
			"byteLength":528,
			"byteOffset":89548,
			"target":34962
		},
		{
			"buffer":0,
			"byteLength":264,
			"byteOffset":90076,
			"target":34962
		},
		{
			"buffer":0,
			"byteLength":528,
			"byteOffset":90340,
			"target":34962
		},
		{
			"buffer":0,
			"byteLength":480,
			"byteOffset":90868,
			"target":34962
		},
		{
			"buffer":0,
			"byteLength":480,
			"byteOffset":91348,
			"target":34962
		},
		{
			"buffer":0,
			"byteLength":320,
			"byteOffset":91828,
			"target":34962
		},
		{
			"buffer":0,
			"byteLength":160,
			"byteOffset":92148,
			"target":34962
		},
		{
			"buffer":0,
			"byteLength":320,
			"byteOffset":92308,
			"target":34962
		},
		{
			"buffer":0,
			"byteLength":132,
			"byteOffset":92628,
			"target":34963
		},
		{
			"buffer":0,
			"byteLength":1344,
			"byteOffset":92760,
			"target":34962
		},
		{
			"buffer":0,
			"byteLength":1344,
			"byteOffset":94104,
			"target":34962
		},
		{
			"buffer":0,
			"byteLength":896,
			"byteOffset":95448,
			"target":34962
		},
		{
			"buffer":0,
			"byteLength":448,
			"byteOffset":96344,
			"target":34962
		},
		{
			"buffer":0,
			"byteLength":896,
			"byteOffset":96792,
			"target":34962
		},
		{
			"buffer":0,
			"byteLength":660,
			"byteOffset":97688,
			"target":34963
		},
		{
			"buffer":0,
			"byteLength":792,
			"byteOffset":98348,
			"target":34962
		},
		{
			"buffer":0,
			"byteLength":792,
			"byteOffset":99140,
			"target":34962
		},
		{
			"buffer":0,
			"byteLength":528,
			"byteOffset":99932,
			"target":34962
		},
		{
			"buffer":0,
			"byteLength":264,
			"byteOffset":100460,
			"target":34962
		},
		{
			"buffer":0,
			"byteLength":528,
			"byteOffset":100724,
			"target":34962
		},
		{
			"buffer":0,
			"byteLength":468,
			"byteOffset":101252,
			"target":34963
		},
		{
			"buffer":0,
			"byteLength":792,
			"byteOffset":101720,
			"target":34962
		},
		{
			"buffer":0,
			"byteLength":792,
			"byteOffset":102512,
			"target":34962
		},
		{
			"buffer":0,
			"byteLength":528,
			"byteOffset":103304,
			"target":34962
		},
		{
			"buffer":0,
			"byteLength":264,
			"byteOffset":103832,
			"target":34962
		},
		{
			"buffer":0,
			"byteLength":528,
			"byteOffset":104096,
			"target":34962
		},
		{
			"buffer":0,
			"byteLength":792,
			"byteOffset":104624,
			"target":34962
		},
		{
			"buffer":0,
			"byteLength":792,
			"byteOffset":105416,
			"target":34962
		},
		{
			"buffer":0,
			"byteLength":528,
			"byteOffset":106208,
			"target":34962
		},
		{
			"buffer":0,
			"byteLength":264,
			"byteOffset":106736,
			"target":34962
		},
		{
			"buffer":0,
			"byteLength":528,
			"byteOffset":107000,
			"target":34962
		},
		{
			"buffer":0,
			"byteLength":792,
			"byteOffset":107528,
			"target":34962
		},
		{
			"buffer":0,
			"byteLength":792,
			"byteOffset":108320,
			"target":34962
		},
		{
			"buffer":0,
			"byteLength":528,
			"byteOffset":109112,
			"target":34962
		},
		{
			"buffer":0,
			"byteLength":264,
			"byteOffset":109640,
			"target":34962
		},
		{
			"buffer":0,
			"byteLength":528,
			"byteOffset":109904,
			"target":34962
		},
		{
			"buffer":0,
			"byteLength":468,
			"byteOffset":110432,
			"target":34963
		},
		{
			"buffer":0,
			"byteLength":4440,
			"byteOffset":110900,
			"target":34962
		},
		{
			"buffer":0,
			"byteLength":4440,
			"byteOffset":115340,
			"target":34962
		},
		{
			"buffer":0,
			"byteLength":2960,
			"byteOffset":119780,
			"target":34962
		},
		{
			"buffer":0,
			"byteLength":1480,
			"byteOffset":122740,
			"target":34962
		},
		{
			"buffer":0,
			"byteLength":2960,
			"byteOffset":124220,
			"target":34962
		},
		{
			"buffer":0,
			"byteLength":2856,
			"byteOffset":127180,
			"target":34963
		},
		{
			"buffer":0,
			"byteLength":4440,
			"byteOffset":130036,
			"target":34962
		},
		{
			"buffer":0,
			"byteLength":4440,
			"byteOffset":134476,
			"target":34962
		},
		{
			"buffer":0,
			"byteLength":2960,
			"byteOffset":138916,
			"target":34962
		},
		{
			"buffer":0,
			"byteLength":1480,
			"byteOffset":141876,
			"target":34962
		},
		{
			"buffer":0,
			"byteLength":2960,
			"byteOffset":143356,
			"target":34962
		},
		{
			"buffer":0,
			"byteLength":2856,
			"byteOffset":146316,
			"target":34963
		},
		{
			"buffer":0,
			"byteLength":648,
			"byteOffset":149172,
			"target":34962
		},
		{
			"buffer":0,
			"byteLength":648,
			"byteOffset":149820,
			"target":34962
		},
		{
			"buffer":0,
			"byteLength":432,
			"byteOffset":150468,
			"target":34962
		},
		{
			"buffer":0,
			"byteLength":216,
			"byteOffset":150900,
			"target":34962
		},
		{
			"buffer":0,
			"byteLength":432,
			"byteOffset":151116,
			"target":34962
		},
		{
			"buffer":0,
			"byteLength":252,
			"byteOffset":151548,
			"target":34963
		},
		{
			"buffer":0,
			"byteLength":216,
			"byteOffset":151800,
			"target":34962
		},
		{
			"buffer":0,
			"byteLength":216,
			"byteOffset":152016,
			"target":34962
		},
		{
			"buffer":0,
			"byteLength":144,
			"byteOffset":152232,
			"target":34962
		},
		{
			"buffer":0,
			"byteLength":72,
			"byteOffset":152376,
			"target":34962
		},
		{
			"buffer":0,
			"byteLength":144,
			"byteOffset":152448,
			"target":34962
		},
		{
			"buffer":0,
			"byteLength":96,
			"byteOffset":152592,
			"target":34963
		},
		{
			"buffer":0,
			"byteLength":1620,
			"byteOffset":152688,
			"target":34962
		},
		{
			"buffer":0,
			"byteLength":1620,
			"byteOffset":154308,
			"target":34962
		},
		{
			"buffer":0,
			"byteLength":1080,
			"byteOffset":155928,
			"target":34962
		},
		{
			"buffer":0,
			"byteLength":540,
			"byteOffset":157008,
			"target":34962
		},
		{
			"buffer":0,
			"byteLength":1080,
			"byteOffset":157548,
			"target":34962
		},
		{
			"buffer":0,
			"byteLength":1044,
			"byteOffset":158628,
			"target":34963
		},
		{
			"buffer":0,
			"byteLength":1620,
			"byteOffset":159672,
			"target":34962
		},
		{
			"buffer":0,
			"byteLength":1620,
			"byteOffset":161292,
			"target":34962
		},
		{
			"buffer":0,
			"byteLength":1080,
			"byteOffset":162912,
			"target":34962
		},
		{
			"buffer":0,
			"byteLength":540,
			"byteOffset":163992,
			"target":34962
		},
		{
			"buffer":0,
			"byteLength":1080,
			"byteOffset":164532,
			"target":34962
		},
		{
			"buffer":0,
			"byteLength":1044,
			"byteOffset":165612,
			"target":34963
		},
		{
			"buffer":0,
			"byteLength":4296,
			"byteOffset":166656,
			"target":34962
		},
		{
			"buffer":0,
			"byteLength":4296,
			"byteOffset":170952,
			"target":34962
		},
		{
			"buffer":0,
			"byteLength":2864,
			"byteOffset":175248,
			"target":34962
		},
		{
			"buffer":0,
			"byteLength":1432,
			"byteOffset":178112,
			"target":34962
		},
		{
			"buffer":0,
			"byteLength":2864,
			"byteOffset":179544,
			"target":34962
		},
		{
			"buffer":0,
			"byteLength":2256,
			"byteOffset":182408,
			"target":34963
		},
		{
			"buffer":0,
			"byteLength":936,
			"byteOffset":184664,
			"target":34962
		},
		{
			"buffer":0,
			"byteLength":936,
			"byteOffset":185600,
			"target":34962
		},
		{
			"buffer":0,
			"byteLength":624,
			"byteOffset":186536,
			"target":34962
		},
		{
			"buffer":0,
			"byteLength":312,
			"byteOffset":187160,
			"target":34962
		},
		{
			"buffer":0,
			"byteLength":624,
			"byteOffset":187472,
			"target":34962
		},
		{
			"buffer":0,
			"byteLength":720,
			"byteOffset":188096,
			"target":34963
		},
		{
			"buffer":0,
			"byteLength":936,
			"byteOffset":188816,
			"target":34962
		},
		{
			"buffer":0,
			"byteLength":936,
			"byteOffset":189752,
			"target":34962
		},
		{
			"buffer":0,
			"byteLength":624,
			"byteOffset":190688,
			"target":34962
		},
		{
			"buffer":0,
			"byteLength":312,
			"byteOffset":191312,
			"target":34962
		},
		{
			"buffer":0,
			"byteLength":624,
			"byteOffset":191624,
			"target":34962
		},
		{
			"buffer":0,
			"byteLength":720,
			"byteOffset":192248,
			"target":34963
		}
	],
	"samplers":[
		{
			"magFilter":9729,
			"minFilter":9987
		}
	],
	"buffers":[
		{
			"byteLength":192968,
			"uri":"binoculars.bin"
		}
	]
}
