{
	"asset":{
		"generator":"Khronos glTF Blender I/O v5.2.39",
		"version":"2.0"
	},
	"scene":0,
	"scenes":[
		{
			"name":"_bird_firework",
			"nodes":[
				1
			]
		}
	],
	"nodes":[
		{
			"mesh":0,
			"name":"Cone",
			"scale":[
				0.06472523510456085,
				0.08571433275938034,
				0.05605356767773628
			],
			"translation":[
				0.002144122263416648,
				0.5289396047592163,
				-0.0009609106928110123
			]
		},
		{
			"children":[
				0
			],
			"mesh":1,
			"name":"Pigeon_E.001",
			"scale":[
				1.1548852920532227,
				1.1548852920532227,
				1.1548852920532227
			]
		}
	],
	"materials":[
		{
			"doubleSided":true,
			"emissiveFactor":[
				0.02500000037252903,
				0.02500000037252903,
				0.02500000037252903
			],
			"emissiveTexture":{
				"index":0
			},
			"name":"PigeonBaked",
			"pbrMetallicRoughness":{
				"baseColorTexture":{
					"index":1
				},
				"metallicFactor":0
			}
		}
	],
	"meshes":[
		{
			"name":"Cone",
			"primitives":[
				{
					"attributes":{
						"POSITION":0,
						"NORMAL":1,
						"TEXCOORD_0":2
					},
					"indices":3,
					"material":0
				}
			]
		},
		{
			"extras":{
				"targetNames":[
					"Basis"
				]
			},
			"name":"Pigeon_E.001",
			"primitives":[
				{
					"attributes":{
						"POSITION":4,
						"NORMAL":5,
						"TEXCOORD_0":6
					},
					"indices":7,
					"material":0,
					"targets":[
						{
							"POSITION":8,
							"NORMAL":9
						}
					]
				}
			],
			"weights":[
				0
			]
		}
	],
	"textures":[
		{
			"sampler":0,
			"source":0
		},
		{
			"sampler":0,
			"source":0
		}
	],
	"images":[
		{
			"mimeType":"image/png",
			"name":"pigeonBaked",
			"uri":"tex/pigeonBaked.png"
		}
	],
	"accessors":[
		{
			"bufferView":0,
			"componentType":5126,
			"count":225,
			"max":[
				0.9954482316970825,
				1,
				0.9954482316970825
			],
			"min":[
				-0.9954482316970825,
				-1,
				-0.9954482316970825
			],
			"type":"VEC3"
		},
		{
			"bufferView":1,
			"componentType":5126,
			"count":225,
			"type":"VEC3"
		},
		{
			"bufferView":2,
			"componentType":5126,
			"count":225,
			"type":"VEC2"
		},
		{
			"bufferView":3,
			"componentType":5123,
			"count":672,
			"type":"SCALAR"
		},
		{
			"bufferView":4,
			"componentType":5126,
			"count":526,
			"max":[
				0.12121120095252991,
				0.46499010920524597,
				0.12070785462856293
			],
			"min":[
				-0.13690006732940674,
				-0.05546434596180916,
				-0.10542213171720505
			],
			"type":"VEC3"
		},
		{
			"bufferView":5,
			"componentType":5126,
			"count":526,
			"type":"VEC3"
		},
		{
			"bufferView":6,
			"componentType":5126,
			"count":526,
			"type":"VEC2"
		},
		{
			"bufferView":7,
			"componentType":5123,
			"count":2478,
			"type":"SCALAR"
		},
		{
			"bufferView":8,
			"componentType":5126,
			"count":526,
			"max":[
				0.12621934711933136,
				0.1546013206243515,
				0.09945698082447052
			],
			"min":[
				-0.12982256710529327,
				-0.049202486872673035,
				-0.03595905005931854
			],
			"type":"VEC3"
		},
		{
			"bufferView":9,
			"componentType":5126,
			"count":526,
			"type":"VEC3"
		}
	],
	"bufferViews":[
		{
			"buffer":0,
			"byteLength":2700,
			"byteOffset":0,
			"target":34962
		},
		{
			"buffer":0,
			"byteLength":2700,
			"byteOffset":2700,
			"target":34962
		},
		{
			"buffer":0,
			"byteLength":1800,
			"byteOffset":5400,
			"target":34962
		},
		{
			"buffer":0,
			"byteLength":1344,
			"byteOffset":7200,
			"target":34963
		},
		{
			"buffer":0,
			"byteLength":6312,
			"byteOffset":8544,
			"target":34962
		},
		{
			"buffer":0,
			"byteLength":6312,
			"byteOffset":14856,
			"target":34962
		},
		{
			"buffer":0,
			"byteLength":4208,
			"byteOffset":21168,
			"target":34962
		},
		{
			"buffer":0,
			"byteLength":4956,
			"byteOffset":25376,
			"target":34963
		},
		{
			"buffer":0,
			"byteLength":6312,
			"byteOffset":30332,
			"target":34962
		},
		{
			"buffer":0,
			"byteLength":6312,
			"byteOffset":36644,
			"target":34962
		}
	],
	"samplers":[
		{
			"magFilter":9729,
			"minFilter":9987
		}
	],
	"buffers":[
		{
			"byteLength":42956,
			"uri":"birdFirework.bin"
		}
	]
}
