{
	"asset":{
		"generator":"Khronos glTF Blender I/O v5.2.39",
		"version":"2.0"
	},
	"scene":0,
	"scenes":[
		{
			"name":"Scene",
			"nodes":[
				0,
				1,
				2,
				3
			]
		}
	],
	"nodes":[
		{
			"mesh":0,
			"name":"Cylinder.001"
		},
		{
			"mesh":1,
			"name":"Cylinder.008"
		},
		{
			"mesh":2,
			"name":"Cylinder.884"
		},
		{
			"mesh":3,
			"name":"ropes.001"
		}
	],
	"materials":[
		{
			"alphaMode":"BLEND",
			"emissiveFactor":[
				0.24072220921516418,
				0.3589211404323578,
				0.40057510137557983
			],
			"name":"BoostRingArrow",
			"pbrMetallicRoughness":{
				"baseColorFactor":[
					0.22514408826828003,
					0.564719557762146,
					0.8009780645370483,
					1
				],
				"baseColorTexture":{
					"index":0
				},
				"metallicFactor":0,
				"roughnessFactor":0.5
			}
		},
		{
			"name":"BoostRing",
			"normalTexture":{
				"index":1
			},
			"pbrMetallicRoughness":{
				"baseColorTexture":{
					"index":2
				},
				"metallicFactor":0,
				"metallicRoughnessTexture":{
					"index":3
				}
			}
		}
	],
	"meshes":[
		{
			"name":"Cylinder.002",
			"primitives":[
				{
					"attributes":{
						"POSITION":0,
						"NORMAL":1,
						"TEXCOORD_0":2,
						"COLOR_0":3,
						"COLOR_1":4
					},
					"indices":5,
					"material":0
				}
			]
		},
		{
			"name":"Cylinder.006",
			"primitives":[
				{
					"attributes":{
						"POSITION":6,
						"NORMAL":7,
						"TEXCOORD_0":8,
						"COLOR_0":9,
						"COLOR_1":10
					},
					"indices":11,
					"material":1
				}
			]
		},
		{
			"name":"Cylinder.001",
			"primitives":[
				{
					"attributes":{
						"POSITION":12,
						"NORMAL":13,
						"TEXCOORD_0":14,
						"COLOR_0":15,
						"COLOR_1":16
					},
					"indices":17,
					"material":1
				}
			]
		},
		{
			"name":"Cylinder.006_Curve.002",
			"primitives":[
				{
					"attributes":{
						"POSITION":18,
						"NORMAL":19,
						"TEXCOORD_0":20,
						"COLOR_0":21,
						"COLOR_1":22
					},
					"indices":23,
					"material":1
				}
			]
		}
	],
	"textures":[
		{
			"sampler":0,
			"source":0
		},
		{
			"sampler":0,
			"source":1
		},
		{
			"sampler":0,
			"source":2
		},
		{
			"sampler":0,
			"source":3
		}
	],
	"images":[
		{
			"mimeType":"image/png",
			"name":"mask-arrow",
			"uri":"tex/mask-arrow.png"
		},
		{
			"mimeType":"image/png",
			"name":"boostRing_AtlasGradient_Mat_Emissive_Normal",
			"uri":"tex/boostRing_AtlasGradient_Mat_Emissive_Normal.png"
		},
		{
			"mimeType":"image/png",
			"name":"boostRing_AtlasGradient_Mat_Emissive_BaseColor",
			"uri":"tex/boostRing_AtlasGradient_Mat_Emissive_BaseColor.png"
		},
		{
			"mimeType":"image/png",
			"name":"boostRing_AtlasGradient_Mat_Emissive_Roughness",
			"uri":"tex/boostRing_AtlasGradient_Mat_Emissive_Roughness.png"
		}
	],
	"accessors":[
		{
			"bufferView":0,
			"componentType":5126,
			"count":24,
			"max":[
				0.9509543180465698,
				0.5288577079772949,
				0.025000086054205894
			],
			"min":[
				-0.9509543180465698,
				-0.5869654417037964,
				-0.02500000037252903
			],
			"type":"VEC3"
		},
		{
			"bufferView":1,
			"componentType":5126,
			"count":24,
			"type":"VEC3"
		},
		{
			"bufferView":2,
			"componentType":5126,
			"count":24,
			"type":"VEC2"
		},
		{
			"bufferView":3,
			"componentType":5121,
			"count":24,
			"normalized":true,
			"type":"VEC4"
		},
		{
			"bufferView":4,
			"componentType":5123,
			"count":24,
			"normalized":true,
			"type":"VEC4"
		},
		{
			"bufferView":5,
			"componentType":5123,
			"count":48,
			"type":"SCALAR"
		},
		{
			"bufferView":6,
			"componentType":5126,
			"count":208,
			"max":[
				2.055621385574341,
				2.055621385574341,
				0.4691273272037506
			],
			"min":[
				-2.055621385574341,
				-2.055621385574341,
				-0.47039517760276794
			],
			"type":"VEC3"
		},
		{
			"bufferView":7,
			"componentType":5126,
			"count":208,
			"type":"VEC3"
		},
		{
			"bufferView":8,
			"componentType":5126,
			"count":208,
			"type":"VEC2"
		},
		{
			"bufferView":9,
			"componentType":5121,
			"count":208,
			"normalized":true,
			"type":"VEC4"
		},
		{
			"bufferView":10,
			"componentType":5123,
			"count":208,
			"normalized":true,
			"type":"VEC4"
		},
		{
			"bufferView":11,
			"componentType":5123,
			"count":720,
			"type":"SCALAR"
		},
		{
			"bufferView":12,
			"componentType":5126,
			"count":252,
			"max":[
				1.962416648864746,
				1.9624149799346924,
				0.3999999165534973
			],
			"min":[
				-1.9624156951904297,
				-1.962416172027588,
				-0.3999999165534973
			],
			"type":"VEC3"
		},
		{
			"bufferView":13,
			"componentType":5126,
			"count":252,
			"type":"VEC3"
		},
		{
			"bufferView":14,
			"componentType":5126,
			"count":252,
			"type":"VEC2"
		},
		{
			"bufferView":15,
			"componentType":5121,
			"count":252,
			"normalized":true,
			"type":"VEC4"
		},
		{
			"bufferView":16,
			"componentType":5123,
			"count":252,
			"normalized":true,
			"type":"VEC4"
		},
		{
			"bufferView":17,
			"componentType":5123,
			"count":1152,
			"type":"SCALAR"
		},
		{
			"bufferView":18,
			"componentType":5126,
			"count":732,
			"max":[
				1.9982500076293945,
				1.9982500076293945,
				0.4879191219806671
			],
			"min":[
				-1.9998879432678223,
				-1.9982502460479736,
				-0.4881087839603424
			],
			"type":"VEC3"
		},
		{
			"bufferView":19,
			"componentType":5126,
			"count":732,
			"type":"VEC3"
		},
		{
			"bufferView":20,
			"componentType":5126,
			"count":732,
			"type":"VEC2"
		},
		{
			"bufferView":21,
			"componentType":5121,
			"count":732,
			"normalized":true,
			"type":"VEC4"
		},
		{
			"bufferView":22,
			"componentType":5123,
			"count":732,
			"normalized":true,
			"type":"VEC4"
		},
		{
			"bufferView":23,
			"componentType":5123,
			"count":3234,
			"type":"SCALAR"
		}
	],
	"bufferViews":[
		{
			"buffer":0,
			"byteLength":288,
			"byteOffset":0,
			"target":34962
		},
		{
			"buffer":0,
			"byteLength":288,
			"byteOffset":288,
			"target":34962
		},
		{
			"buffer":0,
			"byteLength":192,
			"byteOffset":576,
			"target":34962
		},
		{
			"buffer":0,
			"byteLength":96,
			"byteOffset":768,
			"target":34962
		},
		{
			"buffer":0,
			"byteLength":192,
			"byteOffset":864,
			"target":34962
		},
		{
			"buffer":0,
			"byteLength":96,
			"byteOffset":1056,
			"target":34963
		},
		{
			"buffer":0,
			"byteLength":2496,
			"byteOffset":1152,
			"target":34962
		},
		{
			"buffer":0,
			"byteLength":2496,
			"byteOffset":3648,
			"target":34962
		},
		{
			"buffer":0,
			"byteLength":1664,
			"byteOffset":6144,
			"target":34962
		},
		{
			"buffer":0,
			"byteLength":832,
			"byteOffset":7808,
			"target":34962
		},
		{
			"buffer":0,
			"byteLength":1664,
			"byteOffset":8640,
			"target":34962
		},
		{
			"buffer":0,
			"byteLength":1440,
			"byteOffset":10304,
			"target":34963
		},
		{
			"buffer":0,
			"byteLength":3024,
			"byteOffset":11744,
			"target":34962
		},
		{
			"buffer":0,
			"byteLength":3024,
			"byteOffset":14768,
			"target":34962
		},
		{
			"buffer":0,
			"byteLength":2016,
			"byteOffset":17792,
			"target":34962
		},
		{
			"buffer":0,
			"byteLength":1008,
			"byteOffset":19808,
			"target":34962
		},
		{
			"buffer":0,
			"byteLength":2016,
			"byteOffset":20816,
			"target":34962
		},
		{
			"buffer":0,
			"byteLength":2304,
			"byteOffset":22832,
			"target":34963
		},
		{
			"buffer":0,
			"byteLength":8784,
			"byteOffset":25136,
			"target":34962
		},
		{
			"buffer":0,
			"byteLength":8784,
			"byteOffset":33920,
			"target":34962
		},
		{
			"buffer":0,
			"byteLength":5856,
			"byteOffset":42704,
			"target":34962
		},
		{
			"buffer":0,
			"byteLength":2928,
			"byteOffset":48560,
			"target":34962
		},
		{
			"buffer":0,
			"byteLength":5856,
			"byteOffset":51488,
			"target":34962
		},
		{
			"buffer":0,
			"byteLength":6468,
			"byteOffset":57344,
			"target":34963
		}
	],
	"samplers":[
		{
			"magFilter":9729,
			"minFilter":9987
		}
	],
	"buffers":[
		{
			"byteLength":63812,
			"uri":"boostRing_desktop.bin"
		}
	]
}
