{
	"asset":{
		"generator":"Khronos glTF Blender I/O v5.2.39",
		"version":"2.0"
	},
	"scene":0,
	"scenes":[
		{
			"name":"Scene",
			"nodes":[
				0,
				1,
				2,
				3
			]
		}
	],
	"nodes":[
		{
			"mesh":0,
			"name":"Cylinder.003"
		},
		{
			"mesh":1,
			"name":"Cylinder.006"
		},
		{
			"mesh":2,
			"name":"Cylinder.007"
		},
		{
			"mesh":3,
			"name":"ropes.002"
		}
	],
	"materials":[
		{
			"name":"BoostRing",
			"normalTexture":{
				"index":0
			},
			"pbrMetallicRoughness":{
				"baseColorTexture":{
					"index":1
				},
				"metallicFactor":0,
				"metallicRoughnessTexture":{
					"index":2
				}
			}
		},
		{
			"alphaMode":"BLEND",
			"emissiveFactor":[
				0.24072220921516418,
				0.3589211404323578,
				0.40057510137557983
			],
			"name":"BoostRingArrow",
			"pbrMetallicRoughness":{
				"baseColorFactor":[
					0.22514408826828003,
					0.564719557762146,
					0.8009780645370483,
					1
				],
				"baseColorTexture":{
					"index":3
				},
				"metallicFactor":0,
				"roughnessFactor":0.5
			}
		}
	],
	"meshes":[
		{
			"name":"Cylinder.007",
			"primitives":[
				{
					"attributes":{
						"POSITION":0,
						"NORMAL":1,
						"TEXCOORD_0":2,
						"COLOR_0":3,
						"COLOR_1":4
					},
					"indices":5,
					"material":0
				}
			]
		},
		{
			"name":"Cylinder.008",
			"primitives":[
				{
					"attributes":{
						"POSITION":6,
						"NORMAL":7,
						"TEXCOORD_0":8,
						"COLOR_0":9,
						"COLOR_1":10
					},
					"indices":11,
					"material":1
				}
			]
		},
		{
			"name":"Cylinder.009",
			"primitives":[
				{
					"attributes":{
						"POSITION":12,
						"NORMAL":13,
						"TEXCOORD_0":14,
						"COLOR_0":15,
						"COLOR_1":16
					},
					"indices":17,
					"material":0
				}
			]
		},
		{
			"name":"Cylinder.006_Curve.001",
			"primitives":[
				{
					"attributes":{
						"POSITION":18,
						"NORMAL":19,
						"TEXCOORD_0":20,
						"COLOR_0":21,
						"COLOR_1":22
					},
					"indices":23,
					"material":0
				}
			]
		}
	],
	"textures":[
		{
			"sampler":0,
			"source":0
		},
		{
			"sampler":0,
			"source":1
		},
		{
			"sampler":0,
			"source":2
		},
		{
			"sampler":0,
			"source":3
		}
	],
	"images":[
		{
			"mimeType":"image/png",
			"name":"boostRing_AtlasGradient_Mat_Emissive_Normal",
			"uri":"tex/boostRing_AtlasGradient_Mat_Emissive_Normal.png"
		},
		{
			"mimeType":"image/png",
			"name":"boostRing_AtlasGradient_Mat_Emissive_BaseColor",
			"uri":"tex/boostRing_AtlasGradient_Mat_Emissive_BaseColor.png"
		},
		{
			"mimeType":"image/png",
			"name":"boostRing_AtlasGradient_Mat_Emissive_Roughness",
			"uri":"tex/boostRing_AtlasGradient_Mat_Emissive_Roughness.png"
		},
		{
			"mimeType":"image/png",
			"name":"mask-arrow",
			"uri":"tex/mask-arrow.png"
		}
	],
	"accessors":[
		{
			"bufferView":0,
			"componentType":5126,
			"count":180,
			"max":[
				1.962416648864746,
				1.9624149799346924,
				0.3999999165534973
			],
			"min":[
				-1.9624156951904297,
				-1.962416172027588,
				-0.3999999165534973
			],
			"type":"VEC3"
		},
		{
			"bufferView":1,
			"componentType":5126,
			"count":180,
			"type":"VEC3"
		},
		{
			"bufferView":2,
			"componentType":5126,
			"count":180,
			"type":"VEC2"
		},
		{
			"bufferView":3,
			"componentType":5121,
			"count":180,
			"normalized":true,
			"type":"VEC4"
		},
		{
			"bufferView":4,
			"componentType":5123,
			"count":180,
			"normalized":true,
			"type":"VEC4"
		},
		{
			"bufferView":5,
			"componentType":5123,
			"count":768,
			"type":"SCALAR"
		},
		{
			"bufferView":6,
			"componentType":5126,
			"count":24,
			"max":[
				0.9509543180465698,
				0.5288577079772949,
				0.025000086054205894
			],
			"min":[
				-0.9509543180465698,
				-0.5869654417037964,
				-0.02500000037252903
			],
			"type":"VEC3"
		},
		{
			"bufferView":7,
			"componentType":5126,
			"count":24,
			"type":"VEC3"
		},
		{
			"bufferView":8,
			"componentType":5126,
			"count":24,
			"type":"VEC2"
		},
		{
			"bufferView":9,
			"componentType":5121,
			"count":24,
			"normalized":true,
			"type":"VEC4"
		},
		{
			"bufferView":10,
			"componentType":5123,
			"count":24,
			"normalized":true,
			"type":"VEC4"
		},
		{
			"bufferView":11,
			"componentType":5123,
			"count":48,
			"type":"SCALAR"
		},
		{
			"bufferView":12,
			"componentType":5126,
			"count":172,
			"max":[
				2.055293560028076,
				2.055293560028076,
				0.4691272974014282
			],
			"min":[
				-2.055293560028076,
				-2.055293560028076,
				-0.47039517760276794
			],
			"type":"VEC3"
		},
		{
			"bufferView":13,
			"componentType":5126,
			"count":172,
			"type":"VEC3"
		},
		{
			"bufferView":14,
			"componentType":5126,
			"count":172,
			"type":"VEC2"
		},
		{
			"bufferView":15,
			"componentType":5121,
			"count":172,
			"normalized":true,
			"type":"VEC4"
		},
		{
			"bufferView":16,
			"componentType":5123,
			"count":172,
			"normalized":true,
			"type":"VEC4"
		},
		{
			"bufferView":17,
			"componentType":5123,
			"count":528,
			"type":"SCALAR"
		},
		{
			"bufferView":18,
			"componentType":5126,
			"count":480,
			"max":[
				1.9965208768844604,
				1.9965208768844604,
				0.4404250681400299
			],
			"min":[
				-1.996520757675171,
				-1.99652099609375,
				-0.4404377043247223
			],
			"type":"VEC3"
		},
		{
			"bufferView":19,
			"componentType":5126,
			"count":480,
			"type":"VEC3"
		},
		{
			"bufferView":20,
			"componentType":5126,
			"count":480,
			"type":"VEC2"
		},
		{
			"bufferView":21,
			"componentType":5121,
			"count":480,
			"normalized":true,
			"type":"VEC4"
		},
		{
			"bufferView":22,
			"componentType":5123,
			"count":480,
			"normalized":true,
			"type":"VEC4"
		},
		{
			"bufferView":23,
			"componentType":5123,
			"count":1656,
			"type":"SCALAR"
		}
	],
	"bufferViews":[
		{
			"buffer":0,
			"byteLength":2160,
			"byteOffset":0,
			"target":34962
		},
		{
			"buffer":0,
			"byteLength":2160,
			"byteOffset":2160,
			"target":34962
		},
		{
			"buffer":0,
			"byteLength":1440,
			"byteOffset":4320,
			"target":34962
		},
		{
			"buffer":0,
			"byteLength":720,
			"byteOffset":5760,
			"target":34962
		},
		{
			"buffer":0,
			"byteLength":1440,
			"byteOffset":6480,
			"target":34962
		},
		{
			"buffer":0,
			"byteLength":1536,
			"byteOffset":7920,
			"target":34963
		},
		{
			"buffer":0,
			"byteLength":288,
			"byteOffset":9456,
			"target":34962
		},
		{
			"buffer":0,
			"byteLength":288,
			"byteOffset":9744,
			"target":34962
		},
		{
			"buffer":0,
			"byteLength":192,
			"byteOffset":10032,
			"target":34962
		},
		{
			"buffer":0,
			"byteLength":96,
			"byteOffset":10224,
			"target":34962
		},
		{
			"buffer":0,
			"byteLength":192,
			"byteOffset":10320,
			"target":34962
		},
		{
			"buffer":0,
			"byteLength":96,
			"byteOffset":10512,
			"target":34963
		},
		{
			"buffer":0,
			"byteLength":2064,
			"byteOffset":10608,
			"target":34962
		},
		{
			"buffer":0,
			"byteLength":2064,
			"byteOffset":12672,
			"target":34962
		},
		{
			"buffer":0,
			"byteLength":1376,
			"byteOffset":14736,
			"target":34962
		},
		{
			"buffer":0,
			"byteLength":688,
			"byteOffset":16112,
			"target":34962
		},
		{
			"buffer":0,
			"byteLength":1376,
			"byteOffset":16800,
			"target":34962
		},
		{
			"buffer":0,
			"byteLength":1056,
			"byteOffset":18176,
			"target":34963
		},
		{
			"buffer":0,
			"byteLength":5760,
			"byteOffset":19232,
			"target":34962
		},
		{
			"buffer":0,
			"byteLength":5760,
			"byteOffset":24992,
			"target":34962
		},
		{
			"buffer":0,
			"byteLength":3840,
			"byteOffset":30752,
			"target":34962
		},
		{
			"buffer":0,
			"byteLength":1920,
			"byteOffset":34592,
			"target":34962
		},
		{
			"buffer":0,
			"byteLength":3840,
			"byteOffset":36512,
			"target":34962
		},
		{
			"buffer":0,
			"byteLength":3312,
			"byteOffset":40352,
			"target":34963
		}
	],
	"samplers":[
		{
			"magFilter":9729,
			"minFilter":9987
		}
	],
	"buffers":[
		{
			"byteLength":43664,
			"uri":"boostRing_mobile.bin"
		}
	]
}
