{
	"asset":{
		"generator":"Khronos glTF Blender I/O v4.5.51",
		"version":"2.0"
	},
	"scene":0,
	"scenes":[
		{
			"name":"Scene",
			"nodes":[
				0,
				1,
				2,
				3
			]
		}
	],
	"nodes":[
		{
			"mesh":0,
			"name":"Cylinder.007",
			"rotation":[
				0.7071068286895752,
				0,
				0,
				0.7071067690849304
			],
			"scale":[
				1.702707052230835,
				1.702707052230835,
				1.702707052230835
			],
			"translation":[
				279.5841064453125,
				40.42824172973633,
				-256.3664245605469
			]
		},
		{
			"mesh":1,
			"name":"Cylinder.006",
			"rotation":[
				0.7071068286895752,
				0,
				0,
				0.7071068286895752
			],
			"translation":[
				279.7889099121094,
				38.6878662109375,
				-256.22705078125
			]
		},
		{
			"mesh":2,
			"name":"Cylinder.008",
			"rotation":[
				0.7071068286895752,
				0,
				0,
				0.7071067690849304
			],
			"scale":[
				1.702707052230835,
				1.702707052230835,
				1.702707052230835
			],
			"translation":[
				279.5841064453125,
				40.42824172973633,
				-256.3664245605469
			]
		},
		{
			"mesh":3,
			"name":"ropes",
			"rotation":[
				0.7071068286895752,
				0,
				0,
				0.7071067690849304
			],
			"scale":[
				1.702707052230835,
				1.702707052230835,
				1.702707052230835
			],
			"translation":[
				279.5841064453125,
				40.42824172973633,
				-256.3664245605469
			]
		}
	],
	"animations":[
		{
			"channels":[
				{
					"sampler":0,
					"target":{
						"node":0,
						"path":"translation"
					}
				},
				{
					"sampler":1,
					"target":{
						"node":0,
						"path":"rotation"
					}
				},
				{
					"sampler":2,
					"target":{
						"node":0,
						"path":"scale"
					}
				}
			],
			"name":"Cylinder.007",
			"samplers":[
				{
					"input":24,
					"interpolation":"STEP",
					"output":25
				},
				{
					"input":24,
					"interpolation":"STEP",
					"output":26
				},
				{
					"input":24,
					"interpolation":"STEP",
					"output":27
				}
			]
		},
		{
			"channels":[
				{
					"sampler":0,
					"target":{
						"node":1,
						"path":"translation"
					}
				},
				{
					"sampler":1,
					"target":{
						"node":1,
						"path":"rotation"
					}
				},
				{
					"sampler":2,
					"target":{
						"node":1,
						"path":"scale"
					}
				}
			],
			"name":"Cylinder.006",
			"samplers":[
				{
					"input":24,
					"interpolation":"STEP",
					"output":28
				},
				{
					"input":24,
					"interpolation":"STEP",
					"output":26
				},
				{
					"input":24,
					"interpolation":"STEP",
					"output":29
				}
			]
		},
		{
			"channels":[
				{
					"sampler":0,
					"target":{
						"node":2,
						"path":"translation"
					}
				},
				{
					"sampler":1,
					"target":{
						"node":2,
						"path":"rotation"
					}
				},
				{
					"sampler":2,
					"target":{
						"node":2,
						"path":"scale"
					}
				}
			],
			"name":"Cylinder.008",
			"samplers":[
				{
					"input":24,
					"interpolation":"STEP",
					"output":25
				},
				{
					"input":24,
					"interpolation":"STEP",
					"output":26
				},
				{
					"input":24,
					"interpolation":"STEP",
					"output":27
				}
			]
		},
		{
			"channels":[
				{
					"sampler":0,
					"target":{
						"node":3,
						"path":"translation"
					}
				},
				{
					"sampler":1,
					"target":{
						"node":3,
						"path":"rotation"
					}
				},
				{
					"sampler":2,
					"target":{
						"node":3,
						"path":"scale"
					}
				}
			],
			"name":"ropes",
			"samplers":[
				{
					"input":24,
					"interpolation":"STEP",
					"output":25
				},
				{
					"input":24,
					"interpolation":"STEP",
					"output":26
				},
				{
					"input":24,
					"interpolation":"STEP",
					"output":27
				}
			]
		}
	],
	"materials":[
		{
			"emissiveFactor":[
				0.5,
				0.5,
				0.5
			],
			"emissiveTexture":{
				"index":0
			},
			"name":"BoostRing",
			"normalTexture":{
				"index":1
			},
			"pbrMetallicRoughness":{
				"baseColorTexture":{
					"index":2
				},
				"metallicRoughnessTexture":{
					"index":3
				}
			}
		},
		{
			"alphaMode":"BLEND",
			"emissiveFactor":[
				0.24072220921516418,
				0.3589211404323578,
				0.40057510137557983
			],
			"name":"BoostRingArrow",
			"pbrMetallicRoughness":{
				"baseColorFactor":[
					0.22514408826828003,
					0.564719557762146,
					0.8009780645370483,
					1
				],
				"baseColorTexture":{
					"index":4
				},
				"metallicFactor":0,
				"roughnessFactor":0.5
			}
		}
	],
	"meshes":[
		{
			"name":"Cylinder.036",
			"primitives":[
				{
					"attributes":{
						"POSITION":0,
						"NORMAL":1,
						"TEXCOORD_0":2,
						"COLOR_0":3,
						"COLOR_1":4
					},
					"indices":5,
					"material":0
				}
			]
		},
		{
			"name":"Cylinder.035",
			"primitives":[
				{
					"attributes":{
						"POSITION":6,
						"NORMAL":7,
						"TEXCOORD_0":8,
						"COLOR_0":9,
						"COLOR_1":10
					},
					"indices":11,
					"material":1
				}
			]
		},
		{
			"name":"Cylinder.034",
			"primitives":[
				{
					"attributes":{
						"POSITION":12,
						"NORMAL":13,
						"TEXCOORD_0":14,
						"COLOR_0":15,
						"COLOR_1":16
					},
					"indices":17,
					"material":0
				}
			]
		},
		{
			"name":"Cylinder.006_Curve.001",
			"primitives":[
				{
					"attributes":{
						"POSITION":18,
						"NORMAL":19,
						"TEXCOORD_0":20,
						"COLOR_0":21,
						"COLOR_1":22
					},
					"indices":23,
					"material":0
				}
			]
		}
	],
	"textures":[
		{
			"sampler":0,
			"source":0
		},
		{
			"sampler":0,
			"source":1
		},
		{
			"sampler":0,
			"source":2
		},
		{
			"sampler":0,
			"source":3
		},
		{
			"sampler":0,
			"source":4
		}
	],
	"images":[
		{
			"mimeType":"image/png",
			"name":"boostRing_AtlasGradient_Mat_Emissive_Emissive",
			"uri":"tex/boostRing_AtlasGradient_Mat_Emissive_Emissive.png"
		},
		{
			"mimeType":"image/png",
			"name":"boostRing_AtlasGradient_Mat_Emissive_Normal",
			"uri":"tex/boostRing_AtlasGradient_Mat_Emissive_Normal.png"
		},
		{
			"mimeType":"image/png",
			"name":"boostRing_AtlasGradient_Mat_Emissive_BaseColor",
			"uri":"tex/boostRing_AtlasGradient_Mat_Emissive_BaseColor.png"
		},
		{
			"mimeType":"image/png",
			"name":"boostRing_AtlasGradient_Mat_Emissive_Metallic-boostRing_AtlasGradient_Mat_Emissive_Roughness",
			"uri":"tex/boostRing_AtlasGradient_Mat_Emissive_Metallic-boostRing_AtlasGradient_Mat_Emissive_Roughness.png"
		},
		{
			"mimeType":"image/png",
			"name":"mask-arrow",
			"uri":"tex/mask-arrow.png"
		}
	],
	"accessors":[
		{
			"bufferView":0,
			"componentType":5126,
			"count":324,
			"max":[
				1.9999946355819702,
				1.999995231628418,
				0.3999999165534973
			],
			"min":[
				-1.9999935626983643,
				-1.999994158744812,
				-0.3999999165534973
			],
			"type":"VEC3"
		},
		{
			"bufferView":1,
			"componentType":5126,
			"count":324,
			"type":"VEC3"
		},
		{
			"bufferView":2,
			"componentType":5126,
			"count":324,
			"type":"VEC2"
		},
		{
			"bufferView":3,
			"componentType":5121,
			"count":324,
			"normalized":true,
			"type":"VEC4"
		},
		{
			"bufferView":4,
			"componentType":5123,
			"count":324,
			"normalized":true,
			"type":"VEC4"
		},
		{
			"bufferView":5,
			"componentType":5123,
			"count":1536,
			"type":"SCALAR"
		},
		{
			"bufferView":6,
			"componentType":5126,
			"count":24,
			"max":[
				0.9509543180465698,
				0.5288577079772949,
				0.025000086054205894
			],
			"min":[
				-0.9509543180465698,
				-0.5869654417037964,
				-0.02500000037252903
			],
			"type":"VEC3"
		},
		{
			"bufferView":7,
			"componentType":5126,
			"count":24,
			"type":"VEC3"
		},
		{
			"bufferView":8,
			"componentType":5126,
			"count":24,
			"type":"VEC2"
		},
		{
			"bufferView":9,
			"componentType":5121,
			"count":24,
			"normalized":true,
			"type":"VEC4"
		},
		{
			"bufferView":10,
			"componentType":5123,
			"count":24,
			"normalized":true,
			"type":"VEC4"
		},
		{
			"bufferView":11,
			"componentType":5123,
			"count":48,
			"type":"SCALAR"
		},
		{
			"bufferView":12,
			"componentType":5126,
			"count":320,
			"max":[
				2.055621385574341,
				2.055621385574341,
				0.4691273272037506
			],
			"min":[
				-2.055621385574341,
				-2.055621385574341,
				-0.47039517760276794
			],
			"type":"VEC3"
		},
		{
			"bufferView":13,
			"componentType":5126,
			"count":320,
			"type":"VEC3"
		},
		{
			"bufferView":14,
			"componentType":5126,
			"count":320,
			"type":"VEC2"
		},
		{
			"bufferView":15,
			"componentType":5121,
			"count":320,
			"normalized":true,
			"type":"VEC4"
		},
		{
			"bufferView":16,
			"componentType":5123,
			"count":320,
			"normalized":true,
			"type":"VEC4"
		},
		{
			"bufferView":17,
			"componentType":5123,
			"count":960,
			"type":"SCALAR"
		},
		{
			"bufferView":18,
			"componentType":5126,
			"count":1512,
			"max":[
				2.012125253677368,
				2.012125253677368,
				0.4879710078239441
			],
			"min":[
				-2.012125253677368,
				-2.0121254920959473,
				-0.48810896277427673
			],
			"type":"VEC3"
		},
		{
			"bufferView":19,
			"componentType":5126,
			"count":1512,
			"type":"VEC3"
		},
		{
			"bufferView":20,
			"componentType":5126,
			"count":1512,
			"type":"VEC2"
		},
		{
			"bufferView":21,
			"componentType":5121,
			"count":1512,
			"normalized":true,
			"type":"VEC4"
		},
		{
			"bufferView":22,
			"componentType":5123,
			"count":1512,
			"normalized":true,
			"type":"VEC4"
		},
		{
			"bufferView":23,
			"componentType":5123,
			"count":7200,
			"type":"SCALAR"
		},
		{
			"bufferView":24,
			"componentType":5126,
			"count":2,
			"max":[
				40
			],
			"min":[
				0.016666666666666666
			],
			"type":"SCALAR"
		},
		{
			"bufferView":25,
			"componentType":5126,
			"count":2,
			"type":"VEC3"
		},
		{
			"bufferView":26,
			"componentType":5126,
			"count":2,
			"type":"VEC4"
		},
		{
			"bufferView":27,
			"componentType":5126,
			"count":2,
			"type":"VEC3"
		},
		{
			"bufferView":28,
			"componentType":5126,
			"count":2,
			"type":"VEC3"
		},
		{
			"bufferView":29,
			"componentType":5126,
			"count":2,
			"type":"VEC3"
		}
	],
	"bufferViews":[
		{
			"buffer":0,
			"byteLength":3888,
			"byteOffset":0,
			"target":34962
		},
		{
			"buffer":0,
			"byteLength":3888,
			"byteOffset":3888,
			"target":34962
		},
		{
			"buffer":0,
			"byteLength":2592,
			"byteOffset":7776,
			"target":34962
		},
		{
			"buffer":0,
			"byteLength":1296,
			"byteOffset":10368,
			"target":34962
		},
		{
			"buffer":0,
			"byteLength":2592,
			"byteOffset":11664,
			"target":34962
		},
		{
			"buffer":0,
			"byteLength":3072,
			"byteOffset":14256,
			"target":34963
		},
		{
			"buffer":0,
			"byteLength":288,
			"byteOffset":17328,
			"target":34962
		},
		{
			"buffer":0,
			"byteLength":288,
			"byteOffset":17616,
			"target":34962
		},
		{
			"buffer":0,
			"byteLength":192,
			"byteOffset":17904,
			"target":34962
		},
		{
			"buffer":0,
			"byteLength":96,
			"byteOffset":18096,
			"target":34962
		},
		{
			"buffer":0,
			"byteLength":192,
			"byteOffset":18192,
			"target":34962
		},
		{
			"buffer":0,
			"byteLength":96,
			"byteOffset":18384,
			"target":34963
		},
		{
			"buffer":0,
			"byteLength":3840,
			"byteOffset":18480,
			"target":34962
		},
		{
			"buffer":0,
			"byteLength":3840,
			"byteOffset":22320,
			"target":34962
		},
		{
			"buffer":0,
			"byteLength":2560,
			"byteOffset":26160,
			"target":34962
		},
		{
			"buffer":0,
			"byteLength":1280,
			"byteOffset":28720,
			"target":34962
		},
		{
			"buffer":0,
			"byteLength":2560,
			"byteOffset":30000,
			"target":34962
		},
		{
			"buffer":0,
			"byteLength":1920,
			"byteOffset":32560,
			"target":34963
		},
		{
			"buffer":0,
			"byteLength":18144,
			"byteOffset":34480,
			"target":34962
		},
		{
			"buffer":0,
			"byteLength":18144,
			"byteOffset":52624,
			"target":34962
		},
		{
			"buffer":0,
			"byteLength":12096,
			"byteOffset":70768,
			"target":34962
		},
		{
			"buffer":0,
			"byteLength":6048,
			"byteOffset":82864,
			"target":34962
		},
		{
			"buffer":0,
			"byteLength":12096,
			"byteOffset":88912,
			"target":34962
		},
		{
			"buffer":0,
			"byteLength":14400,
			"byteOffset":101008,
			"target":34963
		},
		{
			"buffer":0,
			"byteLength":8,
			"byteOffset":115408
		},
		{
			"buffer":0,
			"byteLength":24,
			"byteOffset":115416
		},
		{
			"buffer":0,
			"byteLength":32,
			"byteOffset":115440
		},
		{
			"buffer":0,
			"byteLength":24,
			"byteOffset":115472
		},
		{
			"buffer":0,
			"byteLength":24,
			"byteOffset":115496
		},
		{
			"buffer":0,
			"byteLength":24,
			"byteOffset":115520
		}
	],
	"samplers":[
		{
			"magFilter":9729,
			"minFilter":9987
		}
	],
	"buffers":[
		{
			"byteLength":115544,
			"uri":"boostRing.001.bin"
		}
	]
}
