{
	"asset":{
		"generator":"Khronos glTF Blender I/O v4.5.51",
		"version":"2.0"
	},
	"scene":0,
	"scenes":[
		{
			"name":"Scene",
			"nodes":[
				4
			]
		}
	],
	"nodes":[
		{
			"mesh":0,
			"name":"clouds",
			"rotation":[
				0.018988339230418205,
				0.7068517208099365,
				-0.7068518400192261,
				0.01898837834596634
			],
			"scale":[
				4.895304203033447,
				5.8169779777526855,
				4.895304203033447
			],
			"translation":[
				0,
				-7.62939453125e-06,
				3.0517578125e-05
			]
		},
		{
			"children":[
				0
			],
			"name":"Bone.002",
			"translation":[
				256.0000305175781,
				1.0000019073486328,
				-256
			]
		},
		{
			"children":[
				1
			],
			"name":"Bone"
		},
		{
			"name":"Bone.001",
			"translation":[
				256.0000305175781,
				1.0000019073486328,
				-256
			]
		},
		{
			"children":[
				2,
				3
			],
			"name":"Armature"
		}
	],
	"animations":[
		{
			"channels":[
				{
					"sampler":0,
					"target":{
						"node":2,
						"path":"translation"
					}
				},
				{
					"sampler":1,
					"target":{
						"node":2,
						"path":"rotation"
					}
				},
				{
					"sampler":2,
					"target":{
						"node":2,
						"path":"scale"
					}
				},
				{
					"sampler":3,
					"target":{
						"node":1,
						"path":"translation"
					}
				},
				{
					"sampler":4,
					"target":{
						"node":1,
						"path":"rotation"
					}
				},
				{
					"sampler":5,
					"target":{
						"node":1,
						"path":"scale"
					}
				},
				{
					"sampler":6,
					"target":{
						"node":3,
						"path":"translation"
					}
				},
				{
					"sampler":7,
					"target":{
						"node":3,
						"path":"rotation"
					}
				},
				{
					"sampler":8,
					"target":{
						"node":3,
						"path":"scale"
					}
				}
			],
			"name":"ArmatureAction",
			"samplers":[
				{
					"input":4,
					"interpolation":"STEP",
					"output":5
				},
				{
					"input":4,
					"interpolation":"STEP",
					"output":6
				},
				{
					"input":4,
					"interpolation":"STEP",
					"output":7
				},
				{
					"input":4,
					"interpolation":"STEP",
					"output":8
				},
				{
					"input":9,
					"interpolation":"LINEAR",
					"output":10
				},
				{
					"input":4,
					"interpolation":"STEP",
					"output":7
				},
				{
					"input":4,
					"interpolation":"STEP",
					"output":8
				},
				{
					"input":4,
					"interpolation":"STEP",
					"output":6
				},
				{
					"input":4,
					"interpolation":"STEP",
					"output":7
				}
			]
		},
		{
			"channels":[
				{
					"sampler":0,
					"target":{
						"node":0,
						"path":"translation"
					}
				},
				{
					"sampler":1,
					"target":{
						"node":0,
						"path":"rotation"
					}
				},
				{
					"sampler":2,
					"target":{
						"node":0,
						"path":"scale"
					}
				}
			],
			"name":"clouds",
			"samplers":[
				{
					"input":9,
					"interpolation":"LINEAR",
					"output":11
				},
				{
					"input":4,
					"interpolation":"STEP",
					"output":12
				},
				{
					"input":4,
					"interpolation":"STEP",
					"output":13
				}
			]
		}
	],
	"meshes":[
		{
			"name":"Sphere.398",
			"primitives":[
				{
					"attributes":{
						"POSITION":0,
						"NORMAL":1,
						"TEXCOORD_0":2
					},
					"indices":3
				}
			]
		}
	],
	"accessors":[
		{
			"bufferView":0,
			"componentType":5126,
			"count":12972,
			"max":[
				16.818723678588867,
				14.10257625579834,
				-4.427102565765381
			],
			"min":[
				-16.643144607543945,
				-14.396163940429688,
				-6.723259925842285
			],
			"type":"VEC3"
		},
		{
			"bufferView":1,
			"componentType":5126,
			"count":12972,
			"type":"VEC3"
		},
		{
			"bufferView":2,
			"componentType":5126,
			"count":12972,
			"type":"VEC2"
		},
		{
			"bufferView":3,
			"componentType":5123,
			"count":36864,
			"type":"SCALAR"
		},
		{
			"bufferView":4,
			"componentType":5126,
			"count":2,
			"max":[
				40
			],
			"min":[
				0.016666666666666666
			],
			"type":"SCALAR"
		},
		{
			"bufferView":5,
			"componentType":5126,
			"count":2,
			"type":"VEC3"
		},
		{
			"bufferView":6,
			"componentType":5126,
			"count":2,
			"type":"VEC4"
		},
		{
			"bufferView":7,
			"componentType":5126,
			"count":2,
			"type":"VEC3"
		},
		{
			"bufferView":8,
			"componentType":5126,
			"count":2,
			"type":"VEC3"
		},
		{
			"bufferView":9,
			"componentType":5126,
			"count":2400,
			"max":[
				40
			],
			"min":[
				0.016666666666666666
			],
			"type":"SCALAR"
		},
		{
			"bufferView":10,
			"componentType":5126,
			"count":2400,
			"type":"VEC4"
		},
		{
			"bufferView":11,
			"componentType":5126,
			"count":2400,
			"type":"VEC3"
		},
		{
			"bufferView":12,
			"componentType":5126,
			"count":2,
			"type":"VEC4"
		},
		{
			"bufferView":13,
			"componentType":5126,
			"count":2,
			"type":"VEC3"
		}
	],
	"bufferViews":[
		{
			"buffer":0,
			"byteLength":155664,
			"byteOffset":0,
			"target":34962
		},
		{
			"buffer":0,
			"byteLength":155664,
			"byteOffset":155664,
			"target":34962
		},
		{
			"buffer":0,
			"byteLength":103776,
			"byteOffset":311328,
			"target":34962
		},
		{
			"buffer":0,
			"byteLength":73728,
			"byteOffset":415104,
			"target":34963
		},
		{
			"buffer":0,
			"byteLength":8,
			"byteOffset":488832
		},
		{
			"buffer":0,
			"byteLength":24,
			"byteOffset":488840
		},
		{
			"buffer":0,
			"byteLength":32,
			"byteOffset":488864
		},
		{
			"buffer":0,
			"byteLength":24,
			"byteOffset":488896
		},
		{
			"buffer":0,
			"byteLength":24,
			"byteOffset":488920
		},
		{
			"buffer":0,
			"byteLength":9600,
			"byteOffset":488944
		},
		{
			"buffer":0,
			"byteLength":38400,
			"byteOffset":498544
		},
		{
			"buffer":0,
			"byteLength":28800,
			"byteOffset":536944
		},
		{
			"buffer":0,
			"byteLength":32,
			"byteOffset":565744
		},
		{
			"buffer":0,
			"byteLength":24,
			"byteOffset":565776
		}
	],
	"buffers":[
		{
			"byteLength":565800,
			"uri":"clouds.bin"
		}
	]
}
