{
	"asset":{
		"generator":"Khronos glTF Blender I/O v4.5.51",
		"version":"2.0"
	},
	"scene":0,
	"scenes":[
		{
			"name":"Scene",
			"nodes":[
				0,
				1
			]
		}
	],
	"nodes":[
		{
			"mesh":0,
			"name":"cliffs_collider",
			"scale":[
				1,
				1.011507511138916,
				1
			],
			"translation":[
				256,
				0,
				-256
			]
		},
		{
			"mesh":1,
			"name":"outer_wall._collider",
			"translation":[
				256,
				100,
				-256
			]
		}
	],
	"animations":[
		{
			"channels":[
				{
					"sampler":0,
					"target":{
						"node":0,
						"path":"translation"
					}
				},
				{
					"sampler":1,
					"target":{
						"node":0,
						"path":"rotation"
					}
				},
				{
					"sampler":2,
					"target":{
						"node":0,
						"path":"scale"
					}
				}
			],
			"name":"cliffs_collider",
			"samplers":[
				{
					"input":8,
					"interpolation":"STEP",
					"output":9
				},
				{
					"input":8,
					"interpolation":"STEP",
					"output":10
				},
				{
					"input":8,
					"interpolation":"STEP",
					"output":11
				}
			]
		},
		{
			"channels":[
				{
					"sampler":0,
					"target":{
						"node":1,
						"path":"translation"
					}
				},
				{
					"sampler":1,
					"target":{
						"node":1,
						"path":"rotation"
					}
				},
				{
					"sampler":2,
					"target":{
						"node":1,
						"path":"scale"
					}
				}
			],
			"name":"outer_wall._collider",
			"samplers":[
				{
					"input":8,
					"interpolation":"STEP",
					"output":12
				},
				{
					"input":8,
					"interpolation":"STEP",
					"output":10
				},
				{
					"input":8,
					"interpolation":"STEP",
					"output":13
				}
			]
		}
	],
	"meshes":[
		{
			"name":"Cylinder.10361",
			"primitives":[
				{
					"attributes":{
						"POSITION":0,
						"NORMAL":1,
						"TEXCOORD_0":2
					},
					"indices":3
				}
			]
		},
		{
			"name":"Cylinder.10772",
			"primitives":[
				{
					"attributes":{
						"POSITION":4,
						"NORMAL":5,
						"TEXCOORD_0":6
					},
					"indices":7
				}
			]
		}
	],
	"accessors":[
		{
			"bufferView":0,
			"componentType":5126,
			"count":7861,
			"max":[
				143.5139617919922,
				196.07827758789062,
				143.51394653320312
			],
			"min":[
				-143.513916015625,
				-3.8013272285461426,
				-143.51397705078125
			],
			"type":"VEC3"
		},
		{
			"bufferView":1,
			"componentType":5126,
			"count":7861,
			"type":"VEC3"
		},
		{
			"bufferView":2,
			"componentType":5126,
			"count":7861,
			"type":"VEC2"
		},
		{
			"bufferView":3,
			"componentType":5123,
			"count":16074,
			"type":"SCALAR"
		},
		{
			"bufferView":4,
			"componentType":5126,
			"count":792,
			"max":[
				138,
				100,
				138
			],
			"min":[
				-138,
				-100,
				-138
			],
			"type":"VEC3"
		},
		{
			"bufferView":5,
			"componentType":5126,
			"count":792,
			"type":"VEC3"
		},
		{
			"bufferView":6,
			"componentType":5126,
			"count":792,
			"type":"VEC2"
		},
		{
			"bufferView":7,
			"componentType":5123,
			"count":1572,
			"type":"SCALAR"
		},
		{
			"bufferView":8,
			"componentType":5126,
			"count":2,
			"max":[
				40
			],
			"min":[
				0.016666666666666666
			],
			"type":"SCALAR"
		},
		{
			"bufferView":9,
			"componentType":5126,
			"count":2,
			"type":"VEC3"
		},
		{
			"bufferView":10,
			"componentType":5126,
			"count":2,
			"type":"VEC4"
		},
		{
			"bufferView":11,
			"componentType":5126,
			"count":2,
			"type":"VEC3"
		},
		{
			"bufferView":12,
			"componentType":5126,
			"count":2,
			"type":"VEC3"
		},
		{
			"bufferView":13,
			"componentType":5126,
			"count":2,
			"type":"VEC3"
		}
	],
	"bufferViews":[
		{
			"buffer":0,
			"byteLength":94332,
			"byteOffset":0,
			"target":34962
		},
		{
			"buffer":0,
			"byteLength":94332,
			"byteOffset":94332,
			"target":34962
		},
		{
			"buffer":0,
			"byteLength":62888,
			"byteOffset":188664,
			"target":34962
		},
		{
			"buffer":0,
			"byteLength":32148,
			"byteOffset":251552,
			"target":34963
		},
		{
			"buffer":0,
			"byteLength":9504,
			"byteOffset":283700,
			"target":34962
		},
		{
			"buffer":0,
			"byteLength":9504,
			"byteOffset":293204,
			"target":34962
		},
		{
			"buffer":0,
			"byteLength":6336,
			"byteOffset":302708,
			"target":34962
		},
		{
			"buffer":0,
			"byteLength":3144,
			"byteOffset":309044,
			"target":34963
		},
		{
			"buffer":0,
			"byteLength":8,
			"byteOffset":312188
		},
		{
			"buffer":0,
			"byteLength":24,
			"byteOffset":312196
		},
		{
			"buffer":0,
			"byteLength":32,
			"byteOffset":312220
		},
		{
			"buffer":0,
			"byteLength":24,
			"byteOffset":312252
		},
		{
			"buffer":0,
			"byteLength":24,
			"byteOffset":312276
		},
		{
			"buffer":0,
			"byteLength":24,
			"byteOffset":312300
		}
	],
	"buffers":[
		{
			"byteLength":312324,
			"uri":"colliders.bin"
		}
	]
}
