{
	"asset":{
		"generator":"Khronos glTF Blender I/O v5.2.39",
		"version":"2.0"
	},
	"scene":0,
	"scenes":[
		{
			"name":"_button_stand_squash",
			"nodes":[
				20
			]
		}
	],
	"nodes":[
		{
			"mesh":0,
			"name":"main_collider_box",
			"translation":[
				-0.040943171828985214,
				0.49696192145347595,
				0
			]
		},
		{
			"mesh":1,
			"name":"Cylinder.001",
			"rotation":[
				2.6692537957728746e-08,
				2.6692537957728746e-08,
				0.7071067690849304,
				0.7071067690849304
			],
			"translation":[
				-0.0031108856201171875,
				0.012082353234291077,
				-1.3597105386065067e-10
			]
		},
		{
			"children":[
				1
			],
			"name":"button",
			"rotation":[
				1.5454309831852697e-08,
				1.5454309831852697e-08,
				-0.7071067690849304,
				0.7071067690849304
			],
			"translation":[
				0.15174506604671478,
				0.16490131616592407,
				0
			]
		},
		{
			"mesh":2,
			"name":"Cube.005",
			"rotation":[
				4.833992051089808e-08,
				4.833993116903912e-08,
				0.7071067094802856,
				0.7071068286895752
			],
			"scale":[
				0.9999997019767761,
				0.9999998807907104,
				1
			],
			"translation":[
				-0.0019844472408294678,
				0.13254904747009277,
				2.7133884028529565e-10
			]
		},
		{
			"children":[
				3
			],
			"name":"lid",
			"rotation":[
				2.055715064841479e-08,
				-6.519893247514119e-08,
				0.3007059097290039,
				0.9537169337272644
			],
			"scale":[
				1,
				1.0000001192092896,
				1
			],
			"translation":[
				-0.12540212273597717,
				0.32756519317626953,
				0
			]
		},
		{
			"mesh":3,
			"name":"Cube",
			"translation":[
				0.007147209718823433,
				0.14268451929092407,
				0
			]
		},
		{
			"mesh":4,
			"name":"Cube.002",
			"translation":[
				0.007147209718823433,
				0.14268451929092407,
				0
			]
		},
		{
			"mesh":5,
			"name":"Cube.004",
			"translation":[
				0.007147209718823433,
				0.32954996824264526,
				0
			]
		},
		{
			"mesh":6,
			"name":"frame",
			"translation":[
				0.15577679872512817,
				0.25925928354263306,
				0
			]
		},
		{
			"children":[
				2,
				4,
				5,
				6,
				7,
				8
			],
			"name":"box",
			"translation":[
				-0.03077678568661213,
				0.6677152514457703,
				0
			]
		},
		{
			"mesh":7,
			"name":"leg",
			"scale":[
				1,
				1.1428571939468384,
				1
			],
			"translation":[
				-0.000777142122387886,
				0.2764536440372467,
				-6.97332143317908e-05
			]
		},
		{
			"children":[
				10
			],
			"name":"root.001",
			"translation":[
				-0.0299996268004179,
				0.12191248685121536,
				0
			]
		},
		{
			"mesh":8,
			"name":"base",
			"scale":[
				0.8422189950942993,
				1,
				0.8422189950942993
			],
			"translation":[
				-0.03027934953570366,
				0.06107310950756073,
				0
			]
		},
		{
			"mesh":9,
			"name":"Cylinder.002",
			"scale":[
				0.8422189950942993,
				1,
				0.8422189950942993
			],
			"translation":[
				-0.18974027037620544,
				0.13180464506149292,
				-0.17007969319820404
			]
		},
		{
			"mesh":10,
			"name":"Cylinder.003",
			"scale":[
				0.8422189950942993,
				1,
				0.8422189950942993
			],
			"translation":[
				0.12918159365653992,
				0.13180464506149292,
				-0.17007969319820404
			]
		},
		{
			"mesh":11,
			"name":"Cylinder.004",
			"scale":[
				0.8422189950942993,
				1,
				0.8422189950942993
			],
			"translation":[
				-0.18974027037620544,
				0.13180464506149292,
				0.17007969319820404
			]
		},
		{
			"mesh":12,
			"name":"Cylinder.008",
			"scale":[
				0.8422189950942993,
				1,
				0.8422189950942993
			],
			"translation":[
				0.12918159365653992,
				0.13180464506149292,
				0.17007969319820404
			]
		},
		{
			"mesh":13,
			"name":"rope.001",
			"translation":[
				-0.030773978680372238,
				0.1771032214164734,
				-7.237833051476628e-05
			]
		},
		{
			"mesh":14,
			"name":"rope.002",
			"translation":[
				-0.03051505610346794,
				0.1383867710828781,
				0.0008301376947201788
			]
		},
		{
			"children":[
				9,
				11,
				12,
				13,
				14,
				15,
				16,
				17,
				18
			],
			"name":"root"
		},
		{
			"children":[
				0,
				19
			],
			"name":"Armature",
			"scale":[
				1,
				0.875,
				1
			]
		}
	],
	"animations":[
		{
			"channels":[
				{
					"sampler":0,
					"target":{
						"node":19,
						"path":"translation"
					}
				},
				{
					"sampler":1,
					"target":{
						"node":19,
						"path":"rotation"
					}
				},
				{
					"sampler":2,
					"target":{
						"node":19,
						"path":"scale"
					}
				},
				{
					"sampler":3,
					"target":{
						"node":9,
						"path":"translation"
					}
				},
				{
					"sampler":4,
					"target":{
						"node":9,
						"path":"rotation"
					}
				},
				{
					"sampler":5,
					"target":{
						"node":9,
						"path":"scale"
					}
				},
				{
					"sampler":6,
					"target":{
						"node":2,
						"path":"translation"
					}
				},
				{
					"sampler":7,
					"target":{
						"node":2,
						"path":"rotation"
					}
				},
				{
					"sampler":8,
					"target":{
						"node":2,
						"path":"scale"
					}
				},
				{
					"sampler":9,
					"target":{
						"node":4,
						"path":"translation"
					}
				},
				{
					"sampler":10,
					"target":{
						"node":4,
						"path":"rotation"
					}
				},
				{
					"sampler":11,
					"target":{
						"node":4,
						"path":"scale"
					}
				},
				{
					"sampler":12,
					"target":{
						"node":11,
						"path":"translation"
					}
				},
				{
					"sampler":13,
					"target":{
						"node":11,
						"path":"rotation"
					}
				},
				{
					"sampler":14,
					"target":{
						"node":11,
						"path":"scale"
					}
				},
				{
					"sampler":15,
					"target":{
						"node":5,
						"path":"weights"
					}
				},
				{
					"sampler":16,
					"target":{
						"node":6,
						"path":"weights"
					}
				},
				{
					"sampler":17,
					"target":{
						"node":8,
						"path":"weights"
					}
				},
				{
					"sampler":18,
					"target":{
						"node":1,
						"path":"weights"
					}
				},
				{
					"sampler":19,
					"target":{
						"node":3,
						"path":"weights"
					}
				}
			],
			"name":"Action",
			"samplers":[
				{
					"input":100,
					"interpolation":"STEP",
					"output":101
				},
				{
					"input":100,
					"interpolation":"STEP",
					"output":102
				},
				{
					"input":100,
					"interpolation":"STEP",
					"output":103
				},
				{
					"input":104,
					"interpolation":"LINEAR",
					"output":105
				},
				{
					"input":104,
					"interpolation":"LINEAR",
					"output":106
				},
				{
					"input":100,
					"interpolation":"STEP",
					"output":103
				},
				{
					"input":104,
					"interpolation":"LINEAR",
					"output":107
				},
				{
					"input":100,
					"interpolation":"STEP",
					"output":108
				},
				{
					"input":100,
					"interpolation":"STEP",
					"output":103
				},
				{
					"input":100,
					"interpolation":"STEP",
					"output":109
				},
				{
					"input":104,
					"interpolation":"LINEAR",
					"output":110
				},
				{
					"input":100,
					"interpolation":"STEP",
					"output":111
				},
				{
					"input":100,
					"interpolation":"STEP",
					"output":112
				},
				{
					"input":100,
					"interpolation":"STEP",
					"output":102
				},
				{
					"input":104,
					"interpolation":"LINEAR",
					"output":113
				},
				{
					"input":104,
					"interpolation":"LINEAR",
					"output":114
				},
				{
					"input":104,
					"interpolation":"LINEAR",
					"output":114
				},
				{
					"input":104,
					"interpolation":"LINEAR",
					"output":114
				},
				{
					"input":104,
					"interpolation":"LINEAR",
					"output":114
				},
				{
					"input":104,
					"interpolation":"LINEAR",
					"output":115
				}
			]
		},
		{
			"channels":[
				{
					"sampler":0,
					"target":{
						"node":19,
						"path":"translation"
					}
				},
				{
					"sampler":1,
					"target":{
						"node":19,
						"path":"rotation"
					}
				},
				{
					"sampler":2,
					"target":{
						"node":19,
						"path":"scale"
					}
				},
				{
					"sampler":3,
					"target":{
						"node":9,
						"path":"translation"
					}
				},
				{
					"sampler":4,
					"target":{
						"node":9,
						"path":"rotation"
					}
				},
				{
					"sampler":5,
					"target":{
						"node":9,
						"path":"scale"
					}
				},
				{
					"sampler":6,
					"target":{
						"node":2,
						"path":"translation"
					}
				},
				{
					"sampler":7,
					"target":{
						"node":2,
						"path":"rotation"
					}
				},
				{
					"sampler":8,
					"target":{
						"node":2,
						"path":"scale"
					}
				},
				{
					"sampler":9,
					"target":{
						"node":4,
						"path":"translation"
					}
				},
				{
					"sampler":10,
					"target":{
						"node":4,
						"path":"rotation"
					}
				},
				{
					"sampler":11,
					"target":{
						"node":4,
						"path":"scale"
					}
				},
				{
					"sampler":12,
					"target":{
						"node":11,
						"path":"translation"
					}
				},
				{
					"sampler":13,
					"target":{
						"node":11,
						"path":"rotation"
					}
				},
				{
					"sampler":14,
					"target":{
						"node":11,
						"path":"scale"
					}
				},
				{
					"sampler":15,
					"target":{
						"node":5,
						"path":"weights"
					}
				},
				{
					"sampler":16,
					"target":{
						"node":6,
						"path":"weights"
					}
				},
				{
					"sampler":17,
					"target":{
						"node":8,
						"path":"weights"
					}
				},
				{
					"sampler":18,
					"target":{
						"node":1,
						"path":"weights"
					}
				},
				{
					"sampler":19,
					"target":{
						"node":3,
						"path":"weights"
					}
				}
			],
			"name":"Idle",
			"samplers":[
				{
					"input":100,
					"interpolation":"STEP",
					"output":101
				},
				{
					"input":100,
					"interpolation":"STEP",
					"output":102
				},
				{
					"input":100,
					"interpolation":"STEP",
					"output":103
				},
				{
					"input":100,
					"interpolation":"STEP",
					"output":116
				},
				{
					"input":100,
					"interpolation":"STEP",
					"output":102
				},
				{
					"input":100,
					"interpolation":"STEP",
					"output":103
				},
				{
					"input":100,
					"interpolation":"STEP",
					"output":117
				},
				{
					"input":100,
					"interpolation":"STEP",
					"output":108
				},
				{
					"input":100,
					"interpolation":"STEP",
					"output":103
				},
				{
					"input":100,
					"interpolation":"STEP",
					"output":109
				},
				{
					"input":100,
					"interpolation":"STEP",
					"output":118
				},
				{
					"input":100,
					"interpolation":"STEP",
					"output":111
				},
				{
					"input":100,
					"interpolation":"STEP",
					"output":112
				},
				{
					"input":100,
					"interpolation":"STEP",
					"output":102
				},
				{
					"input":100,
					"interpolation":"STEP",
					"output":103
				},
				{
					"input":104,
					"interpolation":"LINEAR",
					"output":114
				},
				{
					"input":104,
					"interpolation":"LINEAR",
					"output":114
				},
				{
					"input":104,
					"interpolation":"LINEAR",
					"output":114
				},
				{
					"input":104,
					"interpolation":"LINEAR",
					"output":114
				},
				{
					"input":104,
					"interpolation":"LINEAR",
					"output":115
				}
			]
		}
	],
	"materials":[
		{
			"doubleSided":true,
			"name":"FireworksStand",
			"normalTexture":{
				"index":0
			},
			"pbrMetallicRoughness":{
				"baseColorTexture":{
					"index":1
				},
				"metallicRoughnessTexture":{
					"index":2
				}
			}
		}
	],
	"meshes":[
		{
			"name":"Cube.002",
			"primitives":[
				{
					"attributes":{
						"POSITION":0,
						"NORMAL":1,
						"TEXCOORD_0":2
					},
					"indices":3
				}
			]
		},
		{
			"extras":{
				"targetNames":[
					"Thin",
					"Fat"
				]
			},
			"name":"Cylinder.001",
			"primitives":[
				{
					"attributes":{
						"POSITION":4,
						"NORMAL":5,
						"TEXCOORD_0":6,
						"COLOR_0":7,
						"COLOR_1":8
					},
					"indices":9,
					"material":0,
					"targets":[
						{
							"POSITION":10,
							"NORMAL":11
						},
						{
							"POSITION":12,
							"NORMAL":13
						}
					]
				}
			],
			"weights":[
				0.5147018432617188,
				0.41470181941986084
			]
		},
		{
			"name":"Cube.008",
			"primitives":[
				{
					"attributes":{
						"POSITION":14,
						"NORMAL":15,
						"TEXCOORD_0":16,
						"COLOR_0":17,
						"COLOR_1":18
					},
					"indices":19,
					"material":0
				}
			]
		},
		{
			"extras":{
				"targetNames":[
					"Thin",
					"Fat"
				]
			},
			"name":"Cube.001",
			"primitives":[
				{
					"attributes":{
						"POSITION":20,
						"NORMAL":21,
						"TEXCOORD_0":22,
						"COLOR_0":23,
						"COLOR_1":24
					},
					"indices":25,
					"material":0,
					"targets":[
						{
							"POSITION":26,
							"NORMAL":27
						},
						{
							"POSITION":28,
							"NORMAL":29
						}
					]
				}
			],
			"weights":[
				0.5147018432617188,
				0.41470181941986084
			]
		},
		{
			"name":"Cube.003",
			"primitives":[
				{
					"attributes":{
						"POSITION":30,
						"NORMAL":31,
						"TEXCOORD_0":32,
						"COLOR_0":33,
						"COLOR_1":34
					},
					"indices":35,
					"material":0
				}
			]
		},
		{
			"name":"Cube.007",
			"primitives":[
				{
					"attributes":{
						"POSITION":36,
						"NORMAL":37,
						"TEXCOORD_0":38,
						"COLOR_0":39,
						"COLOR_1":40
					},
					"indices":41,
					"material":0
				}
			]
		},
		{
			"extras":{
				"targetNames":[
					"Thin",
					"Fat"
				]
			},
			"name":"Plane",
			"primitives":[
				{
					"attributes":{
						"POSITION":42,
						"NORMAL":43,
						"TEXCOORD_0":44,
						"COLOR_0":45,
						"COLOR_1":46
					},
					"indices":47,
					"material":0,
					"targets":[
						{
							"POSITION":48,
							"NORMAL":49
						},
						{
							"POSITION":50,
							"NORMAL":51
						}
					]
				}
			],
			"weights":[
				0.5147018432617188,
				0.41470181941986084
			]
		},
		{
			"name":"Cube.005",
			"primitives":[
				{
					"attributes":{
						"POSITION":52,
						"NORMAL":53,
						"TEXCOORD_0":54,
						"COLOR_0":55,
						"COLOR_1":56
					},
					"indices":57,
					"material":0
				}
			]
		},
		{
			"name":"Cube",
			"primitives":[
				{
					"attributes":{
						"POSITION":58,
						"NORMAL":59,
						"TEXCOORD_0":60,
						"COLOR_0":61,
						"COLOR_1":62
					},
					"indices":63,
					"material":0
				}
			]
		},
		{
			"name":"Cylinder.002",
			"primitives":[
				{
					"attributes":{
						"POSITION":64,
						"NORMAL":65,
						"TEXCOORD_0":66,
						"COLOR_0":67,
						"COLOR_1":68
					},
					"indices":69,
					"material":0
				}
			]
		},
		{
			"name":"Cylinder.003",
			"primitives":[
				{
					"attributes":{
						"POSITION":70,
						"NORMAL":71,
						"TEXCOORD_0":72,
						"COLOR_0":73,
						"COLOR_1":74
					},
					"indices":75,
					"material":0
				}
			]
		},
		{
			"name":"Cylinder.004",
			"primitives":[
				{
					"attributes":{
						"POSITION":76,
						"NORMAL":77,
						"TEXCOORD_0":78,
						"COLOR_0":79,
						"COLOR_1":80
					},
					"indices":81,
					"material":0
				}
			]
		},
		{
			"name":"Cylinder.008",
			"primitives":[
				{
					"attributes":{
						"POSITION":82,
						"NORMAL":83,
						"TEXCOORD_0":84,
						"COLOR_0":85,
						"COLOR_1":86
					},
					"indices":87,
					"material":0
				}
			]
		},
		{
			"name":"Cube.001_Curve.001",
			"primitives":[
				{
					"attributes":{
						"POSITION":88,
						"NORMAL":89,
						"TEXCOORD_0":90,
						"COLOR_0":91,
						"COLOR_1":92
					},
					"indices":93,
					"material":0
				}
			]
		},
		{
			"name":"Cube.001_Curve",
			"primitives":[
				{
					"attributes":{
						"POSITION":94,
						"NORMAL":95,
						"TEXCOORD_0":96,
						"COLOR_0":97,
						"COLOR_1":98
					},
					"indices":99,
					"material":0
				}
			]
		}
	],
	"textures":[
		{
			"sampler":0,
			"source":0
		},
		{
			"sampler":0,
			"source":1
		},
		{
			"sampler":0,
			"source":2
		}
	],
	"images":[
		{
			"mimeType":"image/png",
			"name":"button-stand_FireworksStand_Normal",
			"uri":"tex/button-stand_FireworksStand_Normal.png"
		},
		{
			"mimeType":"image/png",
			"name":"button-stand_FireworksStand_BaseColor",
			"uri":"tex/button-stand_FireworksStand_BaseColor.png"
		},
		{
			"mimeType":"image/png",
			"name":"button-stand_FireworksStand_Metallic-button-stand_FireworksStand_Roughness",
			"uri":"tex/button-stand_FireworksStand_Metallic-button-stand_FireworksStand_Roughness.png"
		}
	],
	"accessors":[
		{
			"bufferView":0,
			"componentType":5126,
			"count":24,
			"max":[
				0.2216830849647522,
				0.49098286032676697,
				0.21520638465881348
			],
			"min":[
				-0.2216830551624298,
				-0.49098286032676697,
				-0.21520638465881348
			],
			"type":"VEC3"
		},
		{
			"bufferView":1,
			"componentType":5126,
			"count":24,
			"type":"VEC3"
		},
		{
			"bufferView":2,
			"componentType":5126,
			"count":24,
			"type":"VEC2"
		},
		{
			"bufferView":3,
			"componentType":5123,
			"count":36,
			"type":"SCALAR"
		},
		{
			"bufferView":4,
			"componentType":5126,
			"count":80,
			"max":[
				0.017805717885494232,
				0.024814222007989883,
				0.024814222007989883
			],
			"min":[
				0.0007853102870285511,
				-0.024814222007989883,
				-0.024814222007989883
			],
			"type":"VEC3"
		},
		{
			"bufferView":5,
			"componentType":5126,
			"count":80,
			"type":"VEC3"
		},
		{
			"bufferView":6,
			"componentType":5126,
			"count":80,
			"type":"VEC2"
		},
		{
			"bufferView":7,
			"componentType":5121,
			"count":80,
			"normalized":true,
			"type":"VEC4"
		},
		{
			"bufferView":8,
			"componentType":5123,
			"count":80,
			"normalized":true,
			"type":"VEC4"
		},
		{
			"bufferView":9,
			"componentType":5123,
			"count":426,
			"type":"SCALAR"
		},
		{
			"bufferView":10,
			"componentType":5126,
			"count":80,
			"max":[
				-0.053072717040777206,
				0.00293012335896492,
				0.009803824126720428
			],
			"min":[
				-0.06449651718139648,
				0.0005494430661201477,
				-0.009803825989365578
			],
			"type":"VEC3"
		},
		{
			"bufferView":11,
			"componentType":5126,
			"count":80,
			"type":"VEC3"
		},
		{
			"bufferView":12,
			"componentType":5126,
			"count":80,
			"max":[
				0.09787881374359131,
				0.02378203719854355,
				0.011450517922639847
			],
			"min":[
				0.08106208592653275,
				0.009123507887125015,
				-0.011469267308712006
			],
			"type":"VEC3"
		},
		{
			"bufferView":13,
			"componentType":5126,
			"count":80,
			"type":"VEC3"
		},
		{
			"bufferView":14,
			"componentType":5126,
			"count":625,
			"max":[
				0.12259836494922638,
				0.030362727120518684,
				0.11722937971353531
			],
			"min":[
				-0.14095106720924377,
				-0.021102920174598694,
				-0.117233507335186
			],
			"type":"VEC3"
		},
		{
			"bufferView":15,
			"componentType":5126,
			"count":625,
			"type":"VEC3"
		},
		{
			"bufferView":16,
			"componentType":5126,
			"count":625,
			"type":"VEC2"
		},
		{
			"bufferView":17,
			"componentType":5121,
			"count":625,
			"normalized":true,
			"type":"VEC4"
		},
		{
			"bufferView":18,
			"componentType":5123,
			"count":625,
			"normalized":true,
			"type":"VEC4"
		},
		{
			"bufferView":19,
			"componentType":5123,
			"count":1806,
			"type":"SCALAR"
		},
		{
			"bufferView":20,
			"componentType":5126,
			"count":1104,
			"max":[
				0.1486295908689499,
				0.1486295908689499,
				0.1486295908689499
			],
			"min":[
				-0.1486295908689499,
				-0.1486295908689499,
				-0.1486295908689499
			],
			"type":"VEC3"
		},
		{
			"bufferView":21,
			"componentType":5126,
			"count":1104,
			"type":"VEC3"
		},
		{
			"bufferView":22,
			"componentType":5126,
			"count":1104,
			"type":"VEC2"
		},
		{
			"bufferView":23,
			"componentType":5121,
			"count":1104,
			"normalized":true,
			"type":"VEC4"
		},
		{
			"bufferView":24,
			"componentType":5123,
			"count":1104,
			"normalized":true,
			"type":"VEC4"
		},
		{
			"bufferView":25,
			"componentType":5123,
			"count":1656,
			"type":"SCALAR"
		},
		{
			"bufferView":26,
			"componentType":5126,
			"count":1104,
			"max":[
				0.058525413274765015,
				0.03097374737262726,
				0.056918829679489136
			],
			"min":[
				-0.05852540582418442,
				-0.0033178627490997314,
				-0.05691884458065033
			],
			"type":"VEC3"
		},
		{
			"bufferView":27,
			"componentType":5126,
			"count":1104,
			"type":"VEC3"
		},
		{
			"bufferView":28,
			"componentType":5126,
			"count":1104,
			"max":[
				0.08694899082183838,
				0.029398150742053986,
				0.06840501725673676
			],
			"min":[
				-0.08790253102779388,
				-0.01361323893070221,
				-0.06841059029102325
			],
			"type":"VEC3"
		},
		{
			"bufferView":29,
			"componentType":5126,
			"count":1104,
			"type":"VEC3"
		},
		{
			"bufferView":30,
			"componentType":5126,
			"count":1415,
			"max":[
				0.16558147966861725,
				0.16777484118938446,
				0.16064736247062683
			],
			"min":[
				-0.16594113409519196,
				-0.16615387797355652,
				-0.16064973175525665
			],
			"type":"VEC3"
		},
		{
			"bufferView":31,
			"componentType":5126,
			"count":1415,
			"type":"VEC3"
		},
		{
			"bufferView":32,
			"componentType":5126,
			"count":1415,
			"type":"VEC2"
		},
		{
			"bufferView":33,
			"componentType":5121,
			"count":1415,
			"normalized":true,
			"type":"VEC4"
		},
		{
			"bufferView":34,
			"componentType":5123,
			"count":1415,
			"normalized":true,
			"type":"VEC4"
		},
		{
			"bufferView":35,
			"componentType":5123,
			"count":3984,
			"type":"SCALAR"
		},
		{
			"bufferView":36,
			"componentType":5126,
			"count":355,
			"max":[
				0.12767134606838226,
				0.017589222639799118,
				0.12767134606838226
			],
			"min":[
				-0.148666650056839,
				-0.2941938042640686,
				-0.12767134606838226
			],
			"type":"VEC3"
		},
		{
			"bufferView":37,
			"componentType":5126,
			"count":355,
			"type":"VEC3"
		},
		{
			"bufferView":38,
			"componentType":5126,
			"count":355,
			"type":"VEC2"
		},
		{
			"bufferView":39,
			"componentType":5121,
			"count":355,
			"normalized":true,
			"type":"VEC4"
		},
		{
			"bufferView":40,
			"componentType":5123,
			"count":355,
			"normalized":true,
			"type":"VEC4"
		},
		{
			"bufferView":41,
			"componentType":5123,
			"count":861,
			"type":"SCALAR"
		},
		{
			"bufferView":42,
			"componentType":5126,
			"count":490,
			"max":[
				0.019651979207992554,
				-0.03214206174015999,
				0.06261851638555527
			],
			"min":[
				-0.001928136684000492,
				-0.15538935363292694,
				-0.06261851638555527
			],
			"type":"VEC3"
		},
		{
			"bufferView":43,
			"componentType":5126,
			"count":490,
			"type":"VEC3"
		},
		{
			"bufferView":44,
			"componentType":5126,
			"count":490,
			"type":"VEC2"
		},
		{
			"bufferView":45,
			"componentType":5121,
			"count":490,
			"normalized":true,
			"type":"VEC4"
		},
		{
			"bufferView":46,
			"componentType":5123,
			"count":490,
			"normalized":true,
			"type":"VEC4"
		},
		{
			"bufferView":47,
			"componentType":5123,
			"count":1608,
			"type":"SCALAR"
		},
		{
			"bufferView":48,
			"componentType":5126,
			"count":490,
			"max":[
				-0.038282912224531174,
				0.012854918837547302,
				0.025739096105098724
			],
			"min":[
				-0.0629330575466156,
				0.006346311420202255,
				-0.02573910355567932
			],
			"type":"VEC3"
		},
		{
			"bufferView":49,
			"componentType":5126,
			"count":490,
			"type":"VEC3"
		},
		{
			"bufferView":50,
			"componentType":5126,
			"count":490,
			"max":[
				0.09276338666677475,
				0.026343241333961487,
				0.02920321375131607
			],
			"min":[
				0.056695446372032166,
				-0.00289328396320343,
				-0.029219508171081543
			],
			"type":"VEC3"
		},
		{
			"bufferView":51,
			"componentType":5126,
			"count":490,
			"type":"VEC3"
		},
		{
			"bufferView":52,
			"componentType":5126,
			"count":92,
			"max":[
				0.050119198858737946,
				0.2508702576160431,
				0.06772276014089584
			],
			"min":[
				-0.050119198858737946,
				-0.22993521392345428,
				-0.06772276014089584
			],
			"type":"VEC3"
		},
		{
			"bufferView":53,
			"componentType":5126,
			"count":92,
			"type":"VEC3"
		},
		{
			"bufferView":54,
			"componentType":5126,
			"count":92,
			"type":"VEC2"
		},
		{
			"bufferView":55,
			"componentType":5121,
			"count":92,
			"normalized":true,
			"type":"VEC4"
		},
		{
			"bufferView":56,
			"componentType":5123,
			"count":92,
			"normalized":true,
			"type":"VEC4"
		},
		{
			"bufferView":57,
			"componentType":5123,
			"count":240,
			"type":"SCALAR"
		},
		{
			"bufferView":58,
			"componentType":5126,
			"count":162,
			"max":[
				0.26251301169395447,
				0.06675359606742859,
				0.25
			],
			"min":[
				-0.25911572575569153,
				-0.06022542342543602,
				-0.25
			],
			"type":"VEC3"
		},
		{
			"bufferView":59,
			"componentType":5126,
			"count":162,
			"type":"VEC3"
		},
		{
			"bufferView":60,
			"componentType":5126,
			"count":162,
			"type":"VEC2"
		},
		{
			"bufferView":61,
			"componentType":5121,
			"count":162,
			"normalized":true,
			"type":"VEC4"
		},
		{
			"bufferView":62,
			"componentType":5123,
			"count":162,
			"normalized":true,
			"type":"VEC4"
		},
		{
			"bufferView":63,
			"componentType":5123,
			"count":468,
			"type":"SCALAR"
		},
		{
			"bufferView":64,
			"componentType":5126,
			"count":66,
			"max":[
				0.02184499241411686,
				0.01089040469378233,
				0.02184499241411686
			],
			"min":[
				-0.02184499241411686,
				-0.008756146766245365,
				-0.02184499241411686
			],
			"type":"VEC3"
		},
		{
			"bufferView":65,
			"componentType":5126,
			"count":66,
			"type":"VEC3"
		},
		{
			"bufferView":66,
			"componentType":5126,
			"count":66,
			"type":"VEC2"
		},
		{
			"bufferView":67,
			"componentType":5121,
			"count":66,
			"normalized":true,
			"type":"VEC4"
		},
		{
			"bufferView":68,
			"componentType":5123,
			"count":66,
			"normalized":true,
			"type":"VEC4"
		},
		{
			"bufferView":69,
			"componentType":5123,
			"count":234,
			"type":"SCALAR"
		},
		{
			"bufferView":70,
			"componentType":5126,
			"count":66,
			"max":[
				0.021844996139407158,
				0.010890413075685501,
				0.021844996139407158
			],
			"min":[
				-0.02184499427676201,
				-0.008756157010793686,
				-0.02184499427676201
			],
			"type":"VEC3"
		},
		{
			"bufferView":71,
			"componentType":5126,
			"count":66,
			"type":"VEC3"
		},
		{
			"bufferView":72,
			"componentType":5126,
			"count":66,
			"type":"VEC2"
		},
		{
			"bufferView":73,
			"componentType":5121,
			"count":66,
			"normalized":true,
			"type":"VEC4"
		},
		{
			"bufferView":74,
			"componentType":5123,
			"count":66,
			"normalized":true,
			"type":"VEC4"
		},
		{
			"bufferView":75,
			"componentType":5123,
			"count":234,
			"type":"SCALAR"
		},
		{
			"bufferView":76,
			"componentType":5126,
			"count":66,
			"max":[
				0.02184499241411686,
				0.010890411213040352,
				0.021844996139407158
			],
			"min":[
				-0.02184499241411686,
				-0.008756155148148537,
				-0.021844996139407158
			],
			"type":"VEC3"
		},
		{
			"bufferView":77,
			"componentType":5126,
			"count":66,
			"type":"VEC3"
		},
		{
			"bufferView":78,
			"componentType":5126,
			"count":66,
			"type":"VEC2"
		},
		{
			"bufferView":79,
			"componentType":5121,
			"count":66,
			"normalized":true,
			"type":"VEC4"
		},
		{
			"bufferView":80,
			"componentType":5123,
			"count":66,
			"normalized":true,
			"type":"VEC4"
		},
		{
			"bufferView":81,
			"componentType":5123,
			"count":234,
			"type":"SCALAR"
		},
		{
			"bufferView":82,
			"componentType":5126,
			"count":66,
			"max":[
				0.02184499241411686,
				0.01089040469378233,
				0.02184499241411686
			],
			"min":[
				-0.02184499241411686,
				-0.008756146766245365,
				-0.02184499241411686
			],
			"type":"VEC3"
		},
		{
			"bufferView":83,
			"componentType":5126,
			"count":66,
			"type":"VEC3"
		},
		{
			"bufferView":84,
			"componentType":5126,
			"count":66,
			"type":"VEC2"
		},
		{
			"bufferView":85,
			"componentType":5121,
			"count":66,
			"normalized":true,
			"type":"VEC4"
		},
		{
			"bufferView":86,
			"componentType":5123,
			"count":66,
			"normalized":true,
			"type":"VEC4"
		},
		{
			"bufferView":87,
			"componentType":5123,
			"count":234,
			"type":"SCALAR"
		},
		{
			"bufferView":88,
			"componentType":5126,
			"count":78,
			"max":[
				0.07556159794330597,
				0.026002254337072372,
				0.09349625557661057
			],
			"min":[
				-0.07404406368732452,
				-0.02333882264792919,
				-0.0913880467414856
			],
			"type":"VEC3"
		},
		{
			"bufferView":89,
			"componentType":5126,
			"count":78,
			"type":"VEC3"
		},
		{
			"bufferView":90,
			"componentType":5126,
			"count":78,
			"type":"VEC2"
		},
		{
			"bufferView":91,
			"componentType":5121,
			"count":78,
			"normalized":true,
			"type":"VEC4"
		},
		{
			"bufferView":92,
			"componentType":5123,
			"count":78,
			"normalized":true,
			"type":"VEC4"
		},
		{
			"bufferView":93,
			"componentType":5123,
			"count":360,
			"type":"SCALAR"
		},
		{
			"bufferView":94,
			"componentType":5126,
			"count":78,
			"max":[
				0.0771414116024971,
				0.018619194626808167,
				0.09411212801933289
			],
			"min":[
				-0.07721349596977234,
				-0.018620729446411133,
				-0.09231206029653549
			],
			"type":"VEC3"
		},
		{
			"bufferView":95,
			"componentType":5126,
			"count":78,
			"type":"VEC3"
		},
		{
			"bufferView":96,
			"componentType":5126,
			"count":78,
			"type":"VEC2"
		},
		{
			"bufferView":97,
			"componentType":5121,
			"count":78,
			"normalized":true,
			"type":"VEC4"
		},
		{
			"bufferView":98,
			"componentType":5123,
			"count":78,
			"normalized":true,
			"type":"VEC4"
		},
		{
			"bufferView":99,
			"componentType":5123,
			"count":360,
			"type":"SCALAR"
		},
		{
			"bufferView":100,
			"componentType":5126,
			"count":2,
			"max":[
				5.983333333333333
			],
			"min":[
				0
			],
			"type":"SCALAR"
		},
		{
			"bufferView":101,
			"componentType":5126,
			"count":2,
			"type":"VEC3"
		},
		{
			"bufferView":102,
			"componentType":5126,
			"count":2,
			"type":"VEC4"
		},
		{
			"bufferView":103,
			"componentType":5126,
			"count":2,
			"type":"VEC3"
		},
		{
			"bufferView":104,
			"componentType":5126,
			"count":360,
			"max":[
				5.983333333333333
			],
			"min":[
				0
			],
			"type":"SCALAR"
		},
		{
			"bufferView":105,
			"componentType":5126,
			"count":360,
			"type":"VEC3"
		},
		{
			"bufferView":106,
			"componentType":5126,
			"count":360,
			"type":"VEC4"
		},
		{
			"bufferView":107,
			"componentType":5126,
			"count":360,
			"type":"VEC3"
		},
		{
			"bufferView":108,
			"componentType":5126,
			"count":2,
			"type":"VEC4"
		},
		{
			"bufferView":109,
			"componentType":5126,
			"count":2,
			"type":"VEC3"
		},
		{
			"bufferView":110,
			"componentType":5126,
			"count":360,
			"type":"VEC4"
		},
		{
			"bufferView":111,
			"componentType":5126,
			"count":2,
			"type":"VEC3"
		},
		{
			"bufferView":112,
			"componentType":5126,
			"count":2,
			"type":"VEC3"
		},
		{
			"bufferView":113,
			"componentType":5126,
			"count":360,
			"type":"VEC3"
		},
		{
			"bufferView":114,
			"componentType":5126,
			"count":720,
			"type":"SCALAR"
		},
		{
			"bufferView":115,
			"componentType":5126,
			"count":360,
			"type":"SCALAR"
		},
		{
			"bufferView":116,
			"componentType":5126,
			"count":2,
			"type":"VEC3"
		},
		{
			"bufferView":117,
			"componentType":5126,
			"count":2,
			"type":"VEC3"
		},
		{
			"bufferView":118,
			"componentType":5126,
			"count":2,
			"type":"VEC4"
		}
	],
	"bufferViews":[
		{
			"buffer":0,
			"byteLength":288,
			"byteOffset":0,
			"target":34962
		},
		{
			"buffer":0,
			"byteLength":288,
			"byteOffset":288,
			"target":34962
		},
		{
			"buffer":0,
			"byteLength":192,
			"byteOffset":576,
			"target":34962
		},
		{
			"buffer":0,
			"byteLength":72,
			"byteOffset":768,
			"target":34963
		},
		{
			"buffer":0,
			"byteLength":960,
			"byteOffset":840,
			"target":34962
		},
		{
			"buffer":0,
			"byteLength":960,
			"byteOffset":1800,
			"target":34962
		},
		{
			"buffer":0,
			"byteLength":640,
			"byteOffset":2760,
			"target":34962
		},
		{
			"buffer":0,
			"byteLength":320,
			"byteOffset":3400,
			"target":34962
		},
		{
			"buffer":0,
			"byteLength":640,
			"byteOffset":3720,
			"target":34962
		},
		{
			"buffer":0,
			"byteLength":852,
			"byteOffset":4360,
			"target":34963
		},
		{
			"buffer":0,
			"byteLength":960,
			"byteOffset":5212,
			"target":34962
		},
		{
			"buffer":0,
			"byteLength":960,
			"byteOffset":6172,
			"target":34962
		},
		{
			"buffer":0,
			"byteLength":960,
			"byteOffset":7132,
			"target":34962
		},
		{
			"buffer":0,
			"byteLength":960,
			"byteOffset":8092,
			"target":34962
		},
		{
			"buffer":0,
			"byteLength":7500,
			"byteOffset":9052,
			"target":34962
		},
		{
			"buffer":0,
			"byteLength":7500,
			"byteOffset":16552,
			"target":34962
		},
		{
			"buffer":0,
			"byteLength":5000,
			"byteOffset":24052,
			"target":34962
		},
		{
			"buffer":0,
			"byteLength":2500,
			"byteOffset":29052,
			"target":34962
		},
		{
			"buffer":0,
			"byteLength":5000,
			"byteOffset":31552,
			"target":34962
		},
		{
			"buffer":0,
			"byteLength":3612,
			"byteOffset":36552,
			"target":34963
		},
		{
			"buffer":0,
			"byteLength":13248,
			"byteOffset":40164,
			"target":34962
		},
		{
			"buffer":0,
			"byteLength":13248,
			"byteOffset":53412,
			"target":34962
		},
		{
			"buffer":0,
			"byteLength":8832,
			"byteOffset":66660,
			"target":34962
		},
		{
			"buffer":0,
			"byteLength":4416,
			"byteOffset":75492,
			"target":34962
		},
		{
			"buffer":0,
			"byteLength":8832,
			"byteOffset":79908,
			"target":34962
		},
		{
			"buffer":0,
			"byteLength":3312,
			"byteOffset":88740,
			"target":34963
		},
		{
			"buffer":0,
			"byteLength":13248,
			"byteOffset":92052,
			"target":34962
		},
		{
			"buffer":0,
			"byteLength":13248,
			"byteOffset":105300,
			"target":34962
		},
		{
			"buffer":0,
			"byteLength":13248,
			"byteOffset":118548,
			"target":34962
		},
		{
			"buffer":0,
			"byteLength":13248,
			"byteOffset":131796,
			"target":34962
		},
		{
			"buffer":0,
			"byteLength":16980,
			"byteOffset":145044,
			"target":34962
		},
		{
			"buffer":0,
			"byteLength":16980,
			"byteOffset":162024,
			"target":34962
		},
		{
			"buffer":0,
			"byteLength":11320,
			"byteOffset":179004,
			"target":34962
		},
		{
			"buffer":0,
			"byteLength":5660,
			"byteOffset":190324,
			"target":34962
		},
		{
			"buffer":0,
			"byteLength":11320,
			"byteOffset":195984,
			"target":34962
		},
		{
			"buffer":0,
			"byteLength":7968,
			"byteOffset":207304,
			"target":34963
		},
		{
			"buffer":0,
			"byteLength":4260,
			"byteOffset":215272,
			"target":34962
		},
		{
			"buffer":0,
			"byteLength":4260,
			"byteOffset":219532,
			"target":34962
		},
		{
			"buffer":0,
			"byteLength":2840,
			"byteOffset":223792,
			"target":34962
		},
		{
			"buffer":0,
			"byteLength":1420,
			"byteOffset":226632,
			"target":34962
		},
		{
			"buffer":0,
			"byteLength":2840,
			"byteOffset":228052,
			"target":34962
		},
		{
			"buffer":0,
			"byteLength":1722,
			"byteOffset":230892,
			"target":34963
		},
		{
			"buffer":0,
			"byteLength":5880,
			"byteOffset":232616,
			"target":34962
		},
		{
			"buffer":0,
			"byteLength":5880,
			"byteOffset":238496,
			"target":34962
		},
		{
			"buffer":0,
			"byteLength":3920,
			"byteOffset":244376,
			"target":34962
		},
		{
			"buffer":0,
			"byteLength":1960,
			"byteOffset":248296,
			"target":34962
		},
		{
			"buffer":0,
			"byteLength":3920,
			"byteOffset":250256,
			"target":34962
		},
		{
			"buffer":0,
			"byteLength":3216,
			"byteOffset":254176,
			"target":34963
		},
		{
			"buffer":0,
			"byteLength":5880,
			"byteOffset":257392,
			"target":34962
		},
		{
			"buffer":0,
			"byteLength":5880,
			"byteOffset":263272,
			"target":34962
		},
		{
			"buffer":0,
			"byteLength":5880,
			"byteOffset":269152,
			"target":34962
		},
		{
			"buffer":0,
			"byteLength":5880,
			"byteOffset":275032,
			"target":34962
		},
		{
			"buffer":0,
			"byteLength":1104,
			"byteOffset":280912,
			"target":34962
		},
		{
			"buffer":0,
			"byteLength":1104,
			"byteOffset":282016,
			"target":34962
		},
		{
			"buffer":0,
			"byteLength":736,
			"byteOffset":283120,
			"target":34962
		},
		{
			"buffer":0,
			"byteLength":368,
			"byteOffset":283856,
			"target":34962
		},
		{
			"buffer":0,
			"byteLength":736,
			"byteOffset":284224,
			"target":34962
		},
		{
			"buffer":0,
			"byteLength":480,
			"byteOffset":284960,
			"target":34963
		},
		{
			"buffer":0,
			"byteLength":1944,
			"byteOffset":285440,
			"target":34962
		},
		{
			"buffer":0,
			"byteLength":1944,
			"byteOffset":287384,
			"target":34962
		},
		{
			"buffer":0,
			"byteLength":1296,
			"byteOffset":289328,
			"target":34962
		},
		{
			"buffer":0,
			"byteLength":648,
			"byteOffset":290624,
			"target":34962
		},
		{
			"buffer":0,
			"byteLength":1296,
			"byteOffset":291272,
			"target":34962
		},
		{
			"buffer":0,
			"byteLength":936,
			"byteOffset":292568,
			"target":34963
		},
		{
			"buffer":0,
			"byteLength":792,
			"byteOffset":293504,
			"target":34962
		},
		{
			"buffer":0,
			"byteLength":792,
			"byteOffset":294296,
			"target":34962
		},
		{
			"buffer":0,
			"byteLength":528,
			"byteOffset":295088,
			"target":34962
		},
		{
			"buffer":0,
			"byteLength":264,
			"byteOffset":295616,
			"target":34962
		},
		{
			"buffer":0,
			"byteLength":528,
			"byteOffset":295880,
			"target":34962
		},
		{
			"buffer":0,
			"byteLength":468,
			"byteOffset":296408,
			"target":34963
		},
		{
			"buffer":0,
			"byteLength":792,
			"byteOffset":296876,
			"target":34962
		},
		{
			"buffer":0,
			"byteLength":792,
			"byteOffset":297668,
			"target":34962
		},
		{
			"buffer":0,
			"byteLength":528,
			"byteOffset":298460,
			"target":34962
		},
		{
			"buffer":0,
			"byteLength":264,
			"byteOffset":298988,
			"target":34962
		},
		{
			"buffer":0,
			"byteLength":528,
			"byteOffset":299252,
			"target":34962
		},
		{
			"buffer":0,
			"byteLength":468,
			"byteOffset":299780,
			"target":34963
		},
		{
			"buffer":0,
			"byteLength":792,
			"byteOffset":300248,
			"target":34962
		},
		{
			"buffer":0,
			"byteLength":792,
			"byteOffset":301040,
			"target":34962
		},
		{
			"buffer":0,
			"byteLength":528,
			"byteOffset":301832,
			"target":34962
		},
		{
			"buffer":0,
			"byteLength":264,
			"byteOffset":302360,
			"target":34962
		},
		{
			"buffer":0,
			"byteLength":528,
			"byteOffset":302624,
			"target":34962
		},
		{
			"buffer":0,
			"byteLength":468,
			"byteOffset":303152,
			"target":34963
		},
		{
			"buffer":0,
			"byteLength":792,
			"byteOffset":303620,
			"target":34962
		},
		{
			"buffer":0,
			"byteLength":792,
			"byteOffset":304412,
			"target":34962
		},
		{
			"buffer":0,
			"byteLength":528,
			"byteOffset":305204,
			"target":34962
		},
		{
			"buffer":0,
			"byteLength":264,
			"byteOffset":305732,
			"target":34962
		},
		{
			"buffer":0,
			"byteLength":528,
			"byteOffset":305996,
			"target":34962
		},
		{
			"buffer":0,
			"byteLength":468,
			"byteOffset":306524,
			"target":34963
		},
		{
			"buffer":0,
			"byteLength":936,
			"byteOffset":306992,
			"target":34962
		},
		{
			"buffer":0,
			"byteLength":936,
			"byteOffset":307928,
			"target":34962
		},
		{
			"buffer":0,
			"byteLength":624,
			"byteOffset":308864,
			"target":34962
		},
		{
			"buffer":0,
			"byteLength":312,
			"byteOffset":309488,
			"target":34962
		},
		{
			"buffer":0,
			"byteLength":624,
			"byteOffset":309800,
			"target":34962
		},
		{
			"buffer":0,
			"byteLength":720,
			"byteOffset":310424,
			"target":34963
		},
		{
			"buffer":0,
			"byteLength":936,
			"byteOffset":311144,
			"target":34962
		},
		{
			"buffer":0,
			"byteLength":936,
			"byteOffset":312080,
			"target":34962
		},
		{
			"buffer":0,
			"byteLength":624,
			"byteOffset":313016,
			"target":34962
		},
		{
			"buffer":0,
			"byteLength":312,
			"byteOffset":313640,
			"target":34962
		},
		{
			"buffer":0,
			"byteLength":624,
			"byteOffset":313952,
			"target":34962
		},
		{
			"buffer":0,
			"byteLength":720,
			"byteOffset":314576,
			"target":34963
		},
		{
			"buffer":0,
			"byteLength":8,
			"byteOffset":315296
		},
		{
			"buffer":0,
			"byteLength":24,
			"byteOffset":315304
		},
		{
			"buffer":0,
			"byteLength":32,
			"byteOffset":315328
		},
		{
			"buffer":0,
			"byteLength":24,
			"byteOffset":315360
		},
		{
			"buffer":0,
			"byteLength":1440,
			"byteOffset":315384
		},
		{
			"buffer":0,
			"byteLength":4320,
			"byteOffset":316824
		},
		{
			"buffer":0,
			"byteLength":5760,
			"byteOffset":321144
		},
		{
			"buffer":0,
			"byteLength":4320,
			"byteOffset":326904
		},
		{
			"buffer":0,
			"byteLength":32,
			"byteOffset":331224
		},
		{
			"buffer":0,
			"byteLength":24,
			"byteOffset":331256
		},
		{
			"buffer":0,
			"byteLength":5760,
			"byteOffset":331280
		},
		{
			"buffer":0,
			"byteLength":24,
			"byteOffset":337040
		},
		{
			"buffer":0,
			"byteLength":24,
			"byteOffset":337064
		},
		{
			"buffer":0,
			"byteLength":4320,
			"byteOffset":337088
		},
		{
			"buffer":0,
			"byteLength":2880,
			"byteOffset":341408
		},
		{
			"buffer":0,
			"byteLength":1440,
			"byteOffset":344288
		},
		{
			"buffer":0,
			"byteLength":24,
			"byteOffset":345728
		},
		{
			"buffer":0,
			"byteLength":24,
			"byteOffset":345752
		},
		{
			"buffer":0,
			"byteLength":32,
			"byteOffset":345776
		}
	],
	"samplers":[
		{
			"magFilter":9729,
			"minFilter":9987
		}
	],
	"buffers":[
		{
			"byteLength":345808,
			"uri":"firework-button-new.bin"
		}
	]
}
