{
	"asset":{
		"generator":"Khronos glTF Blender I/O v5.2.39",
		"version":"2.0"
	},
	"scene":0,
	"scenes":[
		{
			"name":"_firework-button",
			"nodes":[
				18,
				19
			]
		}
	],
	"nodes":[
		{
			"mesh":0,
			"name":"Cylinder.001",
			"rotation":[
				2.6692537957728746e-08,
				2.6692537957728746e-08,
				0.7071067690849304,
				0.7071067690849304
			],
			"translation":[
				-0.0031108856201171875,
				0.012082353234291077,
				-1.3597105386065067e-10
			]
		},
		{
			"children":[
				0
			],
			"name":"button",
			"rotation":[
				1.5454309831852697e-08,
				1.5454309831852697e-08,
				-0.7071067690849304,
				0.7071067690849304
			],
			"translation":[
				0.15174506604671478,
				0.16490131616592407,
				0
			]
		},
		{
			"mesh":1,
			"name":"Cube.005",
			"rotation":[
				4.833992051089808e-08,
				4.833993116903912e-08,
				0.7071067094802856,
				0.7071068286895752
			],
			"scale":[
				0.9999997019767761,
				0.9999998807907104,
				1
			],
			"translation":[
				-0.0019844472408294678,
				0.13254904747009277,
				2.7133884028529565e-10
			]
		},
		{
			"children":[
				2
			],
			"name":"lid",
			"rotation":[
				2.055715064841479e-08,
				-6.519893247514119e-08,
				0.3007059097290039,
				0.9537169337272644
			],
			"scale":[
				1,
				1.0000001192092896,
				1
			],
			"translation":[
				-0.12540212273597717,
				0.32756519317626953,
				0
			]
		},
		{
			"mesh":2,
			"name":"Cube",
			"translation":[
				0.007147209718823433,
				0.14268451929092407,
				0
			]
		},
		{
			"mesh":3,
			"name":"Cube.004",
			"translation":[
				0.007147209718823433,
				0.32954996824264526,
				0
			]
		},
		{
			"mesh":4,
			"name":"frame",
			"translation":[
				0.15577679872512817,
				0.25925928354263306,
				0
			]
		},
		{
			"children":[
				1,
				3,
				4,
				5,
				6
			],
			"name":"box",
			"translation":[
				-0.03077678568661213,
				0.6677152514457703,
				0
			]
		},
		{
			"mesh":5,
			"name":"leg",
			"scale":[
				1,
				1.1428571939468384,
				1
			],
			"translation":[
				-0.000777142122387886,
				0.2764536440372467,
				-6.97332143317908e-05
			]
		},
		{
			"children":[
				8
			],
			"name":"root.001",
			"translation":[
				-0.0299996268004179,
				0.12191248685121536,
				0
			]
		},
		{
			"mesh":6,
			"name":"base",
			"scale":[
				0.8422189950942993,
				1,
				0.8422189950942993
			],
			"translation":[
				-0.03027934953570366,
				0.06107310950756073,
				0
			]
		},
		{
			"mesh":7,
			"name":"Cylinder.002",
			"scale":[
				0.8422189950942993,
				1,
				0.8422189950942993
			],
			"translation":[
				-0.18974027037620544,
				0.13180464506149292,
				-0.17007969319820404
			]
		},
		{
			"mesh":8,
			"name":"Cylinder.003",
			"scale":[
				0.8422189950942993,
				1,
				0.8422189950942993
			],
			"translation":[
				0.12918159365653992,
				0.13180464506149292,
				-0.17007969319820404
			]
		},
		{
			"mesh":9,
			"name":"Cylinder.004",
			"scale":[
				0.8422189950942993,
				1,
				0.8422189950942993
			],
			"translation":[
				-0.18974027037620544,
				0.13180464506149292,
				0.17007969319820404
			]
		},
		{
			"mesh":10,
			"name":"Cylinder.008",
			"scale":[
				0.8422189950942993,
				1,
				0.8422189950942993
			],
			"translation":[
				0.12918159365653992,
				0.13180464506149292,
				0.17007969319820404
			]
		},
		{
			"mesh":11,
			"name":"rope.001",
			"translation":[
				-0.030773978680372238,
				0.1771032214164734,
				-7.237833051476628e-05
			]
		},
		{
			"mesh":12,
			"name":"rope.002",
			"translation":[
				-0.03051505610346794,
				0.1383867710828781,
				0.0008301376947201788
			]
		},
		{
			"children":[
				7,
				9,
				10,
				11,
				12,
				13,
				14,
				15,
				16
			],
			"name":"root"
		},
		{
			"children":[
				17
			],
			"name":"Armature",
			"scale":[
				1,
				0.875,
				1
			]
		},
		{
			"mesh":13,
			"name":"main_collider_box",
			"scale":[
				1,
				0.875,
				1
			],
			"translation":[
				-0.040943171828985214,
				0.43484166264533997,
				0
			]
		}
	],
	"animations":[
		{
			"channels":[
				{
					"sampler":0,
					"target":{
						"node":17,
						"path":"translation"
					}
				},
				{
					"sampler":1,
					"target":{
						"node":17,
						"path":"rotation"
					}
				},
				{
					"sampler":2,
					"target":{
						"node":17,
						"path":"scale"
					}
				},
				{
					"sampler":3,
					"target":{
						"node":7,
						"path":"translation"
					}
				},
				{
					"sampler":4,
					"target":{
						"node":7,
						"path":"rotation"
					}
				},
				{
					"sampler":5,
					"target":{
						"node":7,
						"path":"scale"
					}
				},
				{
					"sampler":6,
					"target":{
						"node":1,
						"path":"translation"
					}
				},
				{
					"sampler":7,
					"target":{
						"node":1,
						"path":"rotation"
					}
				},
				{
					"sampler":8,
					"target":{
						"node":1,
						"path":"scale"
					}
				},
				{
					"sampler":9,
					"target":{
						"node":3,
						"path":"translation"
					}
				},
				{
					"sampler":10,
					"target":{
						"node":3,
						"path":"rotation"
					}
				},
				{
					"sampler":11,
					"target":{
						"node":3,
						"path":"scale"
					}
				},
				{
					"sampler":12,
					"target":{
						"node":9,
						"path":"translation"
					}
				},
				{
					"sampler":13,
					"target":{
						"node":9,
						"path":"rotation"
					}
				},
				{
					"sampler":14,
					"target":{
						"node":9,
						"path":"scale"
					}
				},
				{
					"sampler":15,
					"target":{
						"node":4,
						"path":"weights"
					}
				},
				{
					"sampler":16,
					"target":{
						"node":6,
						"path":"weights"
					}
				},
				{
					"sampler":17,
					"target":{
						"node":0,
						"path":"weights"
					}
				},
				{
					"sampler":18,
					"target":{
						"node":2,
						"path":"weights"
					}
				}
			],
			"name":"Action",
			"samplers":[
				{
					"input":94,
					"interpolation":"STEP",
					"output":95
				},
				{
					"input":94,
					"interpolation":"STEP",
					"output":96
				},
				{
					"input":94,
					"interpolation":"STEP",
					"output":97
				},
				{
					"input":98,
					"interpolation":"LINEAR",
					"output":99
				},
				{
					"input":98,
					"interpolation":"LINEAR",
					"output":100
				},
				{
					"input":94,
					"interpolation":"STEP",
					"output":97
				},
				{
					"input":98,
					"interpolation":"LINEAR",
					"output":101
				},
				{
					"input":94,
					"interpolation":"STEP",
					"output":102
				},
				{
					"input":94,
					"interpolation":"STEP",
					"output":97
				},
				{
					"input":94,
					"interpolation":"STEP",
					"output":103
				},
				{
					"input":98,
					"interpolation":"LINEAR",
					"output":104
				},
				{
					"input":94,
					"interpolation":"STEP",
					"output":105
				},
				{
					"input":94,
					"interpolation":"STEP",
					"output":106
				},
				{
					"input":94,
					"interpolation":"STEP",
					"output":96
				},
				{
					"input":98,
					"interpolation":"LINEAR",
					"output":107
				},
				{
					"input":98,
					"interpolation":"LINEAR",
					"output":108
				},
				{
					"input":98,
					"interpolation":"LINEAR",
					"output":108
				},
				{
					"input":98,
					"interpolation":"LINEAR",
					"output":108
				},
				{
					"input":98,
					"interpolation":"LINEAR",
					"output":109
				}
			]
		},
		{
			"channels":[
				{
					"sampler":0,
					"target":{
						"node":17,
						"path":"translation"
					}
				},
				{
					"sampler":1,
					"target":{
						"node":17,
						"path":"rotation"
					}
				},
				{
					"sampler":2,
					"target":{
						"node":17,
						"path":"scale"
					}
				},
				{
					"sampler":3,
					"target":{
						"node":7,
						"path":"translation"
					}
				},
				{
					"sampler":4,
					"target":{
						"node":7,
						"path":"rotation"
					}
				},
				{
					"sampler":5,
					"target":{
						"node":7,
						"path":"scale"
					}
				},
				{
					"sampler":6,
					"target":{
						"node":1,
						"path":"translation"
					}
				},
				{
					"sampler":7,
					"target":{
						"node":1,
						"path":"rotation"
					}
				},
				{
					"sampler":8,
					"target":{
						"node":1,
						"path":"scale"
					}
				},
				{
					"sampler":9,
					"target":{
						"node":3,
						"path":"translation"
					}
				},
				{
					"sampler":10,
					"target":{
						"node":3,
						"path":"rotation"
					}
				},
				{
					"sampler":11,
					"target":{
						"node":3,
						"path":"scale"
					}
				},
				{
					"sampler":12,
					"target":{
						"node":9,
						"path":"translation"
					}
				},
				{
					"sampler":13,
					"target":{
						"node":9,
						"path":"rotation"
					}
				},
				{
					"sampler":14,
					"target":{
						"node":9,
						"path":"scale"
					}
				},
				{
					"sampler":15,
					"target":{
						"node":4,
						"path":"weights"
					}
				},
				{
					"sampler":16,
					"target":{
						"node":6,
						"path":"weights"
					}
				},
				{
					"sampler":17,
					"target":{
						"node":0,
						"path":"weights"
					}
				},
				{
					"sampler":18,
					"target":{
						"node":2,
						"path":"weights"
					}
				}
			],
			"name":"Idle",
			"samplers":[
				{
					"input":94,
					"interpolation":"STEP",
					"output":95
				},
				{
					"input":94,
					"interpolation":"STEP",
					"output":96
				},
				{
					"input":94,
					"interpolation":"STEP",
					"output":97
				},
				{
					"input":94,
					"interpolation":"STEP",
					"output":110
				},
				{
					"input":94,
					"interpolation":"STEP",
					"output":96
				},
				{
					"input":94,
					"interpolation":"STEP",
					"output":97
				},
				{
					"input":94,
					"interpolation":"STEP",
					"output":111
				},
				{
					"input":94,
					"interpolation":"STEP",
					"output":102
				},
				{
					"input":94,
					"interpolation":"STEP",
					"output":97
				},
				{
					"input":94,
					"interpolation":"STEP",
					"output":103
				},
				{
					"input":94,
					"interpolation":"STEP",
					"output":112
				},
				{
					"input":94,
					"interpolation":"STEP",
					"output":105
				},
				{
					"input":94,
					"interpolation":"STEP",
					"output":106
				},
				{
					"input":94,
					"interpolation":"STEP",
					"output":96
				},
				{
					"input":94,
					"interpolation":"STEP",
					"output":97
				},
				{
					"input":98,
					"interpolation":"LINEAR",
					"output":108
				},
				{
					"input":98,
					"interpolation":"LINEAR",
					"output":108
				},
				{
					"input":98,
					"interpolation":"LINEAR",
					"output":108
				},
				{
					"input":98,
					"interpolation":"LINEAR",
					"output":109
				}
			]
		}
	],
	"materials":[
		{
			"doubleSided":true,
			"name":"FireworksStand",
			"normalTexture":{
				"index":0
			},
			"pbrMetallicRoughness":{
				"baseColorTexture":{
					"index":1
				},
				"metallicRoughnessTexture":{
					"index":2
				}
			}
		}
	],
	"meshes":[
		{
			"extras":{
				"targetNames":[
					"Thin",
					"Fat"
				]
			},
			"name":"Cylinder.001",
			"primitives":[
				{
					"attributes":{
						"POSITION":0,
						"NORMAL":1,
						"TEXCOORD_0":2,
						"COLOR_0":3,
						"COLOR_1":4
					},
					"indices":5,
					"material":0,
					"targets":[
						{
							"POSITION":6,
							"NORMAL":7
						},
						{
							"POSITION":8,
							"NORMAL":9
						}
					]
				}
			],
			"weights":[
				0.5147018432617188,
				0.41470181941986084
			]
		},
		{
			"name":"Cube.008",
			"primitives":[
				{
					"attributes":{
						"POSITION":10,
						"NORMAL":11,
						"TEXCOORD_0":12,
						"COLOR_0":13,
						"COLOR_1":14
					},
					"indices":15,
					"material":0
				}
			]
		},
		{
			"extras":{
				"targetNames":[
					"Thin",
					"Fat"
				]
			},
			"name":"Cube.001",
			"primitives":[
				{
					"attributes":{
						"POSITION":16,
						"NORMAL":17,
						"TEXCOORD_0":18,
						"COLOR_0":19,
						"COLOR_1":20
					},
					"indices":21,
					"material":0,
					"targets":[
						{
							"POSITION":22,
							"NORMAL":23
						},
						{
							"POSITION":24,
							"NORMAL":25
						}
					]
				}
			],
			"weights":[
				0.5147018432617188,
				0.41470181941986084
			]
		},
		{
			"name":"Cube.007",
			"primitives":[
				{
					"attributes":{
						"POSITION":26,
						"NORMAL":27,
						"TEXCOORD_0":28,
						"COLOR_0":29,
						"COLOR_1":30
					},
					"indices":31,
					"material":0
				}
			]
		},
		{
			"extras":{
				"targetNames":[
					"Thin",
					"Fat"
				]
			},
			"name":"Plane",
			"primitives":[
				{
					"attributes":{
						"POSITION":32,
						"NORMAL":33,
						"TEXCOORD_0":34,
						"COLOR_0":35,
						"COLOR_1":36
					},
					"indices":37,
					"material":0,
					"targets":[
						{
							"POSITION":38,
							"NORMAL":39
						},
						{
							"POSITION":40,
							"NORMAL":41
						}
					]
				}
			],
			"weights":[
				0.5147018432617188,
				0.41470181941986084
			]
		},
		{
			"name":"Cube.005",
			"primitives":[
				{
					"attributes":{
						"POSITION":42,
						"NORMAL":43,
						"TEXCOORD_0":44,
						"COLOR_0":45,
						"COLOR_1":46
					},
					"indices":47,
					"material":0
				}
			]
		},
		{
			"name":"Cube",
			"primitives":[
				{
					"attributes":{
						"POSITION":48,
						"NORMAL":49,
						"TEXCOORD_0":50,
						"COLOR_0":51,
						"COLOR_1":52
					},
					"indices":53,
					"material":0
				}
			]
		},
		{
			"name":"Cylinder.002",
			"primitives":[
				{
					"attributes":{
						"POSITION":54,
						"NORMAL":55,
						"TEXCOORD_0":56,
						"COLOR_0":57,
						"COLOR_1":58
					},
					"indices":59,
					"material":0
				}
			]
		},
		{
			"name":"Cylinder.003",
			"primitives":[
				{
					"attributes":{
						"POSITION":60,
						"NORMAL":61,
						"TEXCOORD_0":62,
						"COLOR_0":63,
						"COLOR_1":64
					},
					"indices":65,
					"material":0
				}
			]
		},
		{
			"name":"Cylinder.004",
			"primitives":[
				{
					"attributes":{
						"POSITION":66,
						"NORMAL":67,
						"TEXCOORD_0":68,
						"COLOR_0":69,
						"COLOR_1":70
					},
					"indices":71,
					"material":0
				}
			]
		},
		{
			"name":"Cylinder.008",
			"primitives":[
				{
					"attributes":{
						"POSITION":72,
						"NORMAL":73,
						"TEXCOORD_0":74,
						"COLOR_0":75,
						"COLOR_1":76
					},
					"indices":77,
					"material":0
				}
			]
		},
		{
			"name":"Cube.001_Curve.001",
			"primitives":[
				{
					"attributes":{
						"POSITION":78,
						"NORMAL":79,
						"TEXCOORD_0":80,
						"COLOR_0":81,
						"COLOR_1":82
					},
					"indices":83,
					"material":0
				}
			]
		},
		{
			"name":"Cube.001_Curve",
			"primitives":[
				{
					"attributes":{
						"POSITION":84,
						"NORMAL":85,
						"TEXCOORD_0":86,
						"COLOR_0":87,
						"COLOR_1":88
					},
					"indices":89,
					"material":0
				}
			]
		},
		{
			"name":"Cube.002",
			"primitives":[
				{
					"attributes":{
						"POSITION":90,
						"NORMAL":91,
						"TEXCOORD_0":92
					},
					"indices":93
				}
			]
		}
	],
	"textures":[
		{
			"sampler":0,
			"source":0
		},
		{
			"sampler":0,
			"source":1
		},
		{
			"sampler":0,
			"source":2
		}
	],
	"images":[
		{
			"mimeType":"image/png",
			"name":"button-stand_FireworksStand_Normal",
			"uri":"tex/button-stand_FireworksStand_Normal.png"
		},
		{
			"mimeType":"image/png",
			"name":"button-stand_FireworksStand_BaseColor",
			"uri":"tex/button-stand_FireworksStand_BaseColor.png"
		},
		{
			"mimeType":"image/png",
			"name":"button-stand_FireworksStand_Metallic-button-stand_FireworksStand_Roughness",
			"uri":"tex/button-stand_FireworksStand_Metallic-button-stand_FireworksStand_Roughness.png"
		}
	],
	"accessors":[
		{
			"bufferView":0,
			"componentType":5126,
			"count":80,
			"max":[
				0.017805717885494232,
				0.024814222007989883,
				0.024814222007989883
			],
			"min":[
				0.0007853102870285511,
				-0.024814222007989883,
				-0.024814222007989883
			],
			"type":"VEC3"
		},
		{
			"bufferView":1,
			"componentType":5126,
			"count":80,
			"type":"VEC3"
		},
		{
			"bufferView":2,
			"componentType":5126,
			"count":80,
			"type":"VEC2"
		},
		{
			"bufferView":3,
			"componentType":5121,
			"count":80,
			"normalized":true,
			"type":"VEC4"
		},
		{
			"bufferView":4,
			"componentType":5123,
			"count":80,
			"normalized":true,
			"type":"VEC4"
		},
		{
			"bufferView":5,
			"componentType":5123,
			"count":426,
			"type":"SCALAR"
		},
		{
			"bufferView":6,
			"componentType":5126,
			"count":80,
			"max":[
				-0.053072717040777206,
				0.00293012335896492,
				0.009803824126720428
			],
			"min":[
				-0.06449651718139648,
				0.0005494430661201477,
				-0.009803825989365578
			],
			"type":"VEC3"
		},
		{
			"bufferView":7,
			"componentType":5126,
			"count":80,
			"type":"VEC3"
		},
		{
			"bufferView":8,
			"componentType":5126,
			"count":80,
			"max":[
				0.09787881374359131,
				0.02378203719854355,
				0.011450517922639847
			],
			"min":[
				0.08106208592653275,
				0.009123507887125015,
				-0.011469267308712006
			],
			"type":"VEC3"
		},
		{
			"bufferView":9,
			"componentType":5126,
			"count":80,
			"type":"VEC3"
		},
		{
			"bufferView":10,
			"componentType":5126,
			"count":625,
			"max":[
				0.12259836494922638,
				0.030362727120518684,
				0.11722937971353531
			],
			"min":[
				-0.14095106720924377,
				-0.021102920174598694,
				-0.117233507335186
			],
			"type":"VEC3"
		},
		{
			"bufferView":11,
			"componentType":5126,
			"count":625,
			"type":"VEC3"
		},
		{
			"bufferView":12,
			"componentType":5126,
			"count":625,
			"type":"VEC2"
		},
		{
			"bufferView":13,
			"componentType":5121,
			"count":625,
			"normalized":true,
			"type":"VEC4"
		},
		{
			"bufferView":14,
			"componentType":5123,
			"count":625,
			"normalized":true,
			"type":"VEC4"
		},
		{
			"bufferView":15,
			"componentType":5123,
			"count":1806,
			"type":"SCALAR"
		},
		{
			"bufferView":16,
			"componentType":5126,
			"count":1848,
			"max":[
				0.16199511289596558,
				0.16199511289596558,
				0.16199511289596558
			],
			"min":[
				-0.16199509799480438,
				-0.16199511289596558,
				-0.16199511289596558
			],
			"type":"VEC3"
		},
		{
			"bufferView":17,
			"componentType":5126,
			"count":1848,
			"type":"VEC3"
		},
		{
			"bufferView":18,
			"componentType":5126,
			"count":1848,
			"type":"VEC2"
		},
		{
			"bufferView":19,
			"componentType":5121,
			"count":1848,
			"normalized":true,
			"type":"VEC4"
		},
		{
			"bufferView":20,
			"componentType":5123,
			"count":1848,
			"normalized":true,
			"type":"VEC4"
		},
		{
			"bufferView":21,
			"componentType":5123,
			"count":3120,
			"type":"SCALAR"
		},
		{
			"bufferView":22,
			"componentType":5126,
			"count":1848,
			"max":[
				0.058525413274765015,
				0.03097374737262726,
				0.056918829679489136
			],
			"min":[
				-0.05852540582418442,
				-0.006667047739028931,
				-0.05691884458065033
			],
			"type":"VEC3"
		},
		{
			"bufferView":23,
			"componentType":5126,
			"count":1848,
			"type":"VEC3"
		},
		{
			"bufferView":24,
			"componentType":5126,
			"count":1848,
			"max":[
				0.08694899082183838,
				0.029398150742053986,
				0.06840501725673676
			],
			"min":[
				-0.08790253102779388,
				-0.01361323893070221,
				-0.06841059029102325
			],
			"type":"VEC3"
		},
		{
			"bufferView":25,
			"componentType":5126,
			"count":1848,
			"type":"VEC3"
		},
		{
			"bufferView":26,
			"componentType":5126,
			"count":355,
			"max":[
				0.12767134606838226,
				0.017589222639799118,
				0.12767134606838226
			],
			"min":[
				-0.148666650056839,
				-0.2941938042640686,
				-0.12767134606838226
			],
			"type":"VEC3"
		},
		{
			"bufferView":27,
			"componentType":5126,
			"count":355,
			"type":"VEC3"
		},
		{
			"bufferView":28,
			"componentType":5126,
			"count":355,
			"type":"VEC2"
		},
		{
			"bufferView":29,
			"componentType":5121,
			"count":355,
			"normalized":true,
			"type":"VEC4"
		},
		{
			"bufferView":30,
			"componentType":5123,
			"count":355,
			"normalized":true,
			"type":"VEC4"
		},
		{
			"bufferView":31,
			"componentType":5123,
			"count":861,
			"type":"SCALAR"
		},
		{
			"bufferView":32,
			"componentType":5126,
			"count":490,
			"max":[
				0.019651979207992554,
				-0.03214206174015999,
				0.06261851638555527
			],
			"min":[
				-0.001928136684000492,
				-0.15538935363292694,
				-0.06261851638555527
			],
			"type":"VEC3"
		},
		{
			"bufferView":33,
			"componentType":5126,
			"count":490,
			"type":"VEC3"
		},
		{
			"bufferView":34,
			"componentType":5126,
			"count":490,
			"type":"VEC2"
		},
		{
			"bufferView":35,
			"componentType":5121,
			"count":490,
			"normalized":true,
			"type":"VEC4"
		},
		{
			"bufferView":36,
			"componentType":5123,
			"count":490,
			"normalized":true,
			"type":"VEC4"
		},
		{
			"bufferView":37,
			"componentType":5123,
			"count":1608,
			"type":"SCALAR"
		},
		{
			"bufferView":38,
			"componentType":5126,
			"count":490,
			"max":[
				-0.038282912224531174,
				0.012854918837547302,
				0.025739096105098724
			],
			"min":[
				-0.0629330575466156,
				0.006346311420202255,
				-0.02573910355567932
			],
			"type":"VEC3"
		},
		{
			"bufferView":39,
			"componentType":5126,
			"count":490,
			"type":"VEC3"
		},
		{
			"bufferView":40,
			"componentType":5126,
			"count":490,
			"max":[
				0.09276338666677475,
				0.026343241333961487,
				0.02920321375131607
			],
			"min":[
				0.056695446372032166,
				-0.00289328396320343,
				-0.029219508171081543
			],
			"type":"VEC3"
		},
		{
			"bufferView":41,
			"componentType":5126,
			"count":490,
			"type":"VEC3"
		},
		{
			"bufferView":42,
			"componentType":5126,
			"count":92,
			"max":[
				0.050119198858737946,
				0.2508702576160431,
				0.06772276014089584
			],
			"min":[
				-0.050119198858737946,
				-0.22993521392345428,
				-0.06772276014089584
			],
			"type":"VEC3"
		},
		{
			"bufferView":43,
			"componentType":5126,
			"count":92,
			"type":"VEC3"
		},
		{
			"bufferView":44,
			"componentType":5126,
			"count":92,
			"type":"VEC2"
		},
		{
			"bufferView":45,
			"componentType":5121,
			"count":92,
			"normalized":true,
			"type":"VEC4"
		},
		{
			"bufferView":46,
			"componentType":5123,
			"count":92,
			"normalized":true,
			"type":"VEC4"
		},
		{
			"bufferView":47,
			"componentType":5123,
			"count":240,
			"type":"SCALAR"
		},
		{
			"bufferView":48,
			"componentType":5126,
			"count":162,
			"max":[
				0.26251301169395447,
				0.06675359606742859,
				0.25
			],
			"min":[
				-0.25911572575569153,
				-0.06022542342543602,
				-0.25
			],
			"type":"VEC3"
		},
		{
			"bufferView":49,
			"componentType":5126,
			"count":162,
			"type":"VEC3"
		},
		{
			"bufferView":50,
			"componentType":5126,
			"count":162,
			"type":"VEC2"
		},
		{
			"bufferView":51,
			"componentType":5121,
			"count":162,
			"normalized":true,
			"type":"VEC4"
		},
		{
			"bufferView":52,
			"componentType":5123,
			"count":162,
			"normalized":true,
			"type":"VEC4"
		},
		{
			"bufferView":53,
			"componentType":5123,
			"count":468,
			"type":"SCALAR"
		},
		{
			"bufferView":54,
			"componentType":5126,
			"count":66,
			"max":[
				0.02184499241411686,
				0.01089040469378233,
				0.02184499241411686
			],
			"min":[
				-0.02184499241411686,
				-0.008756146766245365,
				-0.02184499241411686
			],
			"type":"VEC3"
		},
		{
			"bufferView":55,
			"componentType":5126,
			"count":66,
			"type":"VEC3"
		},
		{
			"bufferView":56,
			"componentType":5126,
			"count":66,
			"type":"VEC2"
		},
		{
			"bufferView":57,
			"componentType":5121,
			"count":66,
			"normalized":true,
			"type":"VEC4"
		},
		{
			"bufferView":58,
			"componentType":5123,
			"count":66,
			"normalized":true,
			"type":"VEC4"
		},
		{
			"bufferView":59,
			"componentType":5123,
			"count":234,
			"type":"SCALAR"
		},
		{
			"bufferView":60,
			"componentType":5126,
			"count":66,
			"max":[
				0.021844996139407158,
				0.010890413075685501,
				0.021844996139407158
			],
			"min":[
				-0.02184499427676201,
				-0.008756157010793686,
				-0.02184499427676201
			],
			"type":"VEC3"
		},
		{
			"bufferView":61,
			"componentType":5126,
			"count":66,
			"type":"VEC3"
		},
		{
			"bufferView":62,
			"componentType":5126,
			"count":66,
			"type":"VEC2"
		},
		{
			"bufferView":63,
			"componentType":5121,
			"count":66,
			"normalized":true,
			"type":"VEC4"
		},
		{
			"bufferView":64,
			"componentType":5123,
			"count":66,
			"normalized":true,
			"type":"VEC4"
		},
		{
			"bufferView":65,
			"componentType":5123,
			"count":234,
			"type":"SCALAR"
		},
		{
			"bufferView":66,
			"componentType":5126,
			"count":66,
			"max":[
				0.02184499241411686,
				0.010890411213040352,
				0.021844996139407158
			],
			"min":[
				-0.02184499241411686,
				-0.008756155148148537,
				-0.021844996139407158
			],
			"type":"VEC3"
		},
		{
			"bufferView":67,
			"componentType":5126,
			"count":66,
			"type":"VEC3"
		},
		{
			"bufferView":68,
			"componentType":5126,
			"count":66,
			"type":"VEC2"
		},
		{
			"bufferView":69,
			"componentType":5121,
			"count":66,
			"normalized":true,
			"type":"VEC4"
		},
		{
			"bufferView":70,
			"componentType":5123,
			"count":66,
			"normalized":true,
			"type":"VEC4"
		},
		{
			"bufferView":71,
			"componentType":5123,
			"count":234,
			"type":"SCALAR"
		},
		{
			"bufferView":72,
			"componentType":5126,
			"count":66,
			"max":[
				0.02184499241411686,
				0.01089040469378233,
				0.02184499241411686
			],
			"min":[
				-0.02184499241411686,
				-0.008756146766245365,
				-0.02184499241411686
			],
			"type":"VEC3"
		},
		{
			"bufferView":73,
			"componentType":5126,
			"count":66,
			"type":"VEC3"
		},
		{
			"bufferView":74,
			"componentType":5126,
			"count":66,
			"type":"VEC2"
		},
		{
			"bufferView":75,
			"componentType":5121,
			"count":66,
			"normalized":true,
			"type":"VEC4"
		},
		{
			"bufferView":76,
			"componentType":5123,
			"count":66,
			"normalized":true,
			"type":"VEC4"
		},
		{
			"bufferView":77,
			"componentType":5123,
			"count":234,
			"type":"SCALAR"
		},
		{
			"bufferView":78,
			"componentType":5126,
			"count":78,
			"max":[
				0.07556159794330597,
				0.026002254337072372,
				0.09349625557661057
			],
			"min":[
				-0.07404406368732452,
				-0.02333882264792919,
				-0.0913880467414856
			],
			"type":"VEC3"
		},
		{
			"bufferView":79,
			"componentType":5126,
			"count":78,
			"type":"VEC3"
		},
		{
			"bufferView":80,
			"componentType":5126,
			"count":78,
			"type":"VEC2"
		},
		{
			"bufferView":81,
			"componentType":5121,
			"count":78,
			"normalized":true,
			"type":"VEC4"
		},
		{
			"bufferView":82,
			"componentType":5123,
			"count":78,
			"normalized":true,
			"type":"VEC4"
		},
		{
			"bufferView":83,
			"componentType":5123,
			"count":360,
			"type":"SCALAR"
		},
		{
			"bufferView":84,
			"componentType":5126,
			"count":78,
			"max":[
				0.0771414116024971,
				0.018619194626808167,
				0.09411212801933289
			],
			"min":[
				-0.07721349596977234,
				-0.018620729446411133,
				-0.09231206029653549
			],
			"type":"VEC3"
		},
		{
			"bufferView":85,
			"componentType":5126,
			"count":78,
			"type":"VEC3"
		},
		{
			"bufferView":86,
			"componentType":5126,
			"count":78,
			"type":"VEC2"
		},
		{
			"bufferView":87,
			"componentType":5121,
			"count":78,
			"normalized":true,
			"type":"VEC4"
		},
		{
			"bufferView":88,
			"componentType":5123,
			"count":78,
			"normalized":true,
			"type":"VEC4"
		},
		{
			"bufferView":89,
			"componentType":5123,
			"count":360,
			"type":"SCALAR"
		},
		{
			"bufferView":90,
			"componentType":5126,
			"count":24,
			"max":[
				0.2216830849647522,
				0.49098286032676697,
				0.21520638465881348
			],
			"min":[
				-0.2216830551624298,
				-0.49098286032676697,
				-0.21520638465881348
			],
			"type":"VEC3"
		},
		{
			"bufferView":91,
			"componentType":5126,
			"count":24,
			"type":"VEC3"
		},
		{
			"bufferView":92,
			"componentType":5126,
			"count":24,
			"type":"VEC2"
		},
		{
			"bufferView":93,
			"componentType":5123,
			"count":36,
			"type":"SCALAR"
		},
		{
			"bufferView":94,
			"componentType":5126,
			"count":2,
			"max":[
				5.983333333333333
			],
			"min":[
				0
			],
			"type":"SCALAR"
		},
		{
			"bufferView":95,
			"componentType":5126,
			"count":2,
			"type":"VEC3"
		},
		{
			"bufferView":96,
			"componentType":5126,
			"count":2,
			"type":"VEC4"
		},
		{
			"bufferView":97,
			"componentType":5126,
			"count":2,
			"type":"VEC3"
		},
		{
			"bufferView":98,
			"componentType":5126,
			"count":360,
			"max":[
				5.983333333333333
			],
			"min":[
				0
			],
			"type":"SCALAR"
		},
		{
			"bufferView":99,
			"componentType":5126,
			"count":360,
			"type":"VEC3"
		},
		{
			"bufferView":100,
			"componentType":5126,
			"count":360,
			"type":"VEC4"
		},
		{
			"bufferView":101,
			"componentType":5126,
			"count":360,
			"type":"VEC3"
		},
		{
			"bufferView":102,
			"componentType":5126,
			"count":2,
			"type":"VEC4"
		},
		{
			"bufferView":103,
			"componentType":5126,
			"count":2,
			"type":"VEC3"
		},
		{
			"bufferView":104,
			"componentType":5126,
			"count":360,
			"type":"VEC4"
		},
		{
			"bufferView":105,
			"componentType":5126,
			"count":2,
			"type":"VEC3"
		},
		{
			"bufferView":106,
			"componentType":5126,
			"count":2,
			"type":"VEC3"
		},
		{
			"bufferView":107,
			"componentType":5126,
			"count":360,
			"type":"VEC3"
		},
		{
			"bufferView":108,
			"componentType":5126,
			"count":720,
			"type":"SCALAR"
		},
		{
			"bufferView":109,
			"componentType":5126,
			"count":360,
			"type":"SCALAR"
		},
		{
			"bufferView":110,
			"componentType":5126,
			"count":2,
			"type":"VEC3"
		},
		{
			"bufferView":111,
			"componentType":5126,
			"count":2,
			"type":"VEC3"
		},
		{
			"bufferView":112,
			"componentType":5126,
			"count":2,
			"type":"VEC4"
		}
	],
	"bufferViews":[
		{
			"buffer":0,
			"byteLength":960,
			"byteOffset":0,
			"target":34962
		},
		{
			"buffer":0,
			"byteLength":960,
			"byteOffset":960,
			"target":34962
		},
		{
			"buffer":0,
			"byteLength":640,
			"byteOffset":1920,
			"target":34962
		},
		{
			"buffer":0,
			"byteLength":320,
			"byteOffset":2560,
			"target":34962
		},
		{
			"buffer":0,
			"byteLength":640,
			"byteOffset":2880,
			"target":34962
		},
		{
			"buffer":0,
			"byteLength":852,
			"byteOffset":3520,
			"target":34963
		},
		{
			"buffer":0,
			"byteLength":960,
			"byteOffset":4372,
			"target":34962
		},
		{
			"buffer":0,
			"byteLength":960,
			"byteOffset":5332,
			"target":34962
		},
		{
			"buffer":0,
			"byteLength":960,
			"byteOffset":6292,
			"target":34962
		},
		{
			"buffer":0,
			"byteLength":960,
			"byteOffset":7252,
			"target":34962
		},
		{
			"buffer":0,
			"byteLength":7500,
			"byteOffset":8212,
			"target":34962
		},
		{
			"buffer":0,
			"byteLength":7500,
			"byteOffset":15712,
			"target":34962
		},
		{
			"buffer":0,
			"byteLength":5000,
			"byteOffset":23212,
			"target":34962
		},
		{
			"buffer":0,
			"byteLength":2500,
			"byteOffset":28212,
			"target":34962
		},
		{
			"buffer":0,
			"byteLength":5000,
			"byteOffset":30712,
			"target":34962
		},
		{
			"buffer":0,
			"byteLength":3612,
			"byteOffset":35712,
			"target":34963
		},
		{
			"buffer":0,
			"byteLength":22176,
			"byteOffset":39324,
			"target":34962
		},
		{
			"buffer":0,
			"byteLength":22176,
			"byteOffset":61500,
			"target":34962
		},
		{
			"buffer":0,
			"byteLength":14784,
			"byteOffset":83676,
			"target":34962
		},
		{
			"buffer":0,
			"byteLength":7392,
			"byteOffset":98460,
			"target":34962
		},
		{
			"buffer":0,
			"byteLength":14784,
			"byteOffset":105852,
			"target":34962
		},
		{
			"buffer":0,
			"byteLength":6240,
			"byteOffset":120636,
			"target":34963
		},
		{
			"buffer":0,
			"byteLength":22176,
			"byteOffset":126876,
			"target":34962
		},
		{
			"buffer":0,
			"byteLength":22176,
			"byteOffset":149052,
			"target":34962
		},
		{
			"buffer":0,
			"byteLength":22176,
			"byteOffset":171228,
			"target":34962
		},
		{
			"buffer":0,
			"byteLength":22176,
			"byteOffset":193404,
			"target":34962
		},
		{
			"buffer":0,
			"byteLength":4260,
			"byteOffset":215580,
			"target":34962
		},
		{
			"buffer":0,
			"byteLength":4260,
			"byteOffset":219840,
			"target":34962
		},
		{
			"buffer":0,
			"byteLength":2840,
			"byteOffset":224100,
			"target":34962
		},
		{
			"buffer":0,
			"byteLength":1420,
			"byteOffset":226940,
			"target":34962
		},
		{
			"buffer":0,
			"byteLength":2840,
			"byteOffset":228360,
			"target":34962
		},
		{
			"buffer":0,
			"byteLength":1722,
			"byteOffset":231200,
			"target":34963
		},
		{
			"buffer":0,
			"byteLength":5880,
			"byteOffset":232924,
			"target":34962
		},
		{
			"buffer":0,
			"byteLength":5880,
			"byteOffset":238804,
			"target":34962
		},
		{
			"buffer":0,
			"byteLength":3920,
			"byteOffset":244684,
			"target":34962
		},
		{
			"buffer":0,
			"byteLength":1960,
			"byteOffset":248604,
			"target":34962
		},
		{
			"buffer":0,
			"byteLength":3920,
			"byteOffset":250564,
			"target":34962
		},
		{
			"buffer":0,
			"byteLength":3216,
			"byteOffset":254484,
			"target":34963
		},
		{
			"buffer":0,
			"byteLength":5880,
			"byteOffset":257700,
			"target":34962
		},
		{
			"buffer":0,
			"byteLength":5880,
			"byteOffset":263580,
			"target":34962
		},
		{
			"buffer":0,
			"byteLength":5880,
			"byteOffset":269460,
			"target":34962
		},
		{
			"buffer":0,
			"byteLength":5880,
			"byteOffset":275340,
			"target":34962
		},
		{
			"buffer":0,
			"byteLength":1104,
			"byteOffset":281220,
			"target":34962
		},
		{
			"buffer":0,
			"byteLength":1104,
			"byteOffset":282324,
			"target":34962
		},
		{
			"buffer":0,
			"byteLength":736,
			"byteOffset":283428,
			"target":34962
		},
		{
			"buffer":0,
			"byteLength":368,
			"byteOffset":284164,
			"target":34962
		},
		{
			"buffer":0,
			"byteLength":736,
			"byteOffset":284532,
			"target":34962
		},
		{
			"buffer":0,
			"byteLength":480,
			"byteOffset":285268,
			"target":34963
		},
		{
			"buffer":0,
			"byteLength":1944,
			"byteOffset":285748,
			"target":34962
		},
		{
			"buffer":0,
			"byteLength":1944,
			"byteOffset":287692,
			"target":34962
		},
		{
			"buffer":0,
			"byteLength":1296,
			"byteOffset":289636,
			"target":34962
		},
		{
			"buffer":0,
			"byteLength":648,
			"byteOffset":290932,
			"target":34962
		},
		{
			"buffer":0,
			"byteLength":1296,
			"byteOffset":291580,
			"target":34962
		},
		{
			"buffer":0,
			"byteLength":936,
			"byteOffset":292876,
			"target":34963
		},
		{
			"buffer":0,
			"byteLength":792,
			"byteOffset":293812,
			"target":34962
		},
		{
			"buffer":0,
			"byteLength":792,
			"byteOffset":294604,
			"target":34962
		},
		{
			"buffer":0,
			"byteLength":528,
			"byteOffset":295396,
			"target":34962
		},
		{
			"buffer":0,
			"byteLength":264,
			"byteOffset":295924,
			"target":34962
		},
		{
			"buffer":0,
			"byteLength":528,
			"byteOffset":296188,
			"target":34962
		},
		{
			"buffer":0,
			"byteLength":468,
			"byteOffset":296716,
			"target":34963
		},
		{
			"buffer":0,
			"byteLength":792,
			"byteOffset":297184,
			"target":34962
		},
		{
			"buffer":0,
			"byteLength":792,
			"byteOffset":297976,
			"target":34962
		},
		{
			"buffer":0,
			"byteLength":528,
			"byteOffset":298768,
			"target":34962
		},
		{
			"buffer":0,
			"byteLength":264,
			"byteOffset":299296,
			"target":34962
		},
		{
			"buffer":0,
			"byteLength":528,
			"byteOffset":299560,
			"target":34962
		},
		{
			"buffer":0,
			"byteLength":468,
			"byteOffset":300088,
			"target":34963
		},
		{
			"buffer":0,
			"byteLength":792,
			"byteOffset":300556,
			"target":34962
		},
		{
			"buffer":0,
			"byteLength":792,
			"byteOffset":301348,
			"target":34962
		},
		{
			"buffer":0,
			"byteLength":528,
			"byteOffset":302140,
			"target":34962
		},
		{
			"buffer":0,
			"byteLength":264,
			"byteOffset":302668,
			"target":34962
		},
		{
			"buffer":0,
			"byteLength":528,
			"byteOffset":302932,
			"target":34962
		},
		{
			"buffer":0,
			"byteLength":468,
			"byteOffset":303460,
			"target":34963
		},
		{
			"buffer":0,
			"byteLength":792,
			"byteOffset":303928,
			"target":34962
		},
		{
			"buffer":0,
			"byteLength":792,
			"byteOffset":304720,
			"target":34962
		},
		{
			"buffer":0,
			"byteLength":528,
			"byteOffset":305512,
			"target":34962
		},
		{
			"buffer":0,
			"byteLength":264,
			"byteOffset":306040,
			"target":34962
		},
		{
			"buffer":0,
			"byteLength":528,
			"byteOffset":306304,
			"target":34962
		},
		{
			"buffer":0,
			"byteLength":468,
			"byteOffset":306832,
			"target":34963
		},
		{
			"buffer":0,
			"byteLength":936,
			"byteOffset":307300,
			"target":34962
		},
		{
			"buffer":0,
			"byteLength":936,
			"byteOffset":308236,
			"target":34962
		},
		{
			"buffer":0,
			"byteLength":624,
			"byteOffset":309172,
			"target":34962
		},
		{
			"buffer":0,
			"byteLength":312,
			"byteOffset":309796,
			"target":34962
		},
		{
			"buffer":0,
			"byteLength":624,
			"byteOffset":310108,
			"target":34962
		},
		{
			"buffer":0,
			"byteLength":720,
			"byteOffset":310732,
			"target":34963
		},
		{
			"buffer":0,
			"byteLength":936,
			"byteOffset":311452,
			"target":34962
		},
		{
			"buffer":0,
			"byteLength":936,
			"byteOffset":312388,
			"target":34962
		},
		{
			"buffer":0,
			"byteLength":624,
			"byteOffset":313324,
			"target":34962
		},
		{
			"buffer":0,
			"byteLength":312,
			"byteOffset":313948,
			"target":34962
		},
		{
			"buffer":0,
			"byteLength":624,
			"byteOffset":314260,
			"target":34962
		},
		{
			"buffer":0,
			"byteLength":720,
			"byteOffset":314884,
			"target":34963
		},
		{
			"buffer":0,
			"byteLength":288,
			"byteOffset":315604,
			"target":34962
		},
		{
			"buffer":0,
			"byteLength":288,
			"byteOffset":315892,
			"target":34962
		},
		{
			"buffer":0,
			"byteLength":192,
			"byteOffset":316180,
			"target":34962
		},
		{
			"buffer":0,
			"byteLength":72,
			"byteOffset":316372,
			"target":34963
		},
		{
			"buffer":0,
			"byteLength":8,
			"byteOffset":316444
		},
		{
			"buffer":0,
			"byteLength":24,
			"byteOffset":316452
		},
		{
			"buffer":0,
			"byteLength":32,
			"byteOffset":316476
		},
		{
			"buffer":0,
			"byteLength":24,
			"byteOffset":316508
		},
		{
			"buffer":0,
			"byteLength":1440,
			"byteOffset":316532
		},
		{
			"buffer":0,
			"byteLength":4320,
			"byteOffset":317972
		},
		{
			"buffer":0,
			"byteLength":5760,
			"byteOffset":322292
		},
		{
			"buffer":0,
			"byteLength":4320,
			"byteOffset":328052
		},
		{
			"buffer":0,
			"byteLength":32,
			"byteOffset":332372
		},
		{
			"buffer":0,
			"byteLength":24,
			"byteOffset":332404
		},
		{
			"buffer":0,
			"byteLength":5760,
			"byteOffset":332428
		},
		{
			"buffer":0,
			"byteLength":24,
			"byteOffset":338188
		},
		{
			"buffer":0,
			"byteLength":24,
			"byteOffset":338212
		},
		{
			"buffer":0,
			"byteLength":4320,
			"byteOffset":338236
		},
		{
			"buffer":0,
			"byteLength":2880,
			"byteOffset":342556
		},
		{
			"buffer":0,
			"byteLength":1440,
			"byteOffset":345436
		},
		{
			"buffer":0,
			"byteLength":24,
			"byteOffset":346876
		},
		{
			"buffer":0,
			"byteLength":24,
			"byteOffset":346900
		},
		{
			"buffer":0,
			"byteLength":32,
			"byteOffset":346924
		}
	],
	"samplers":[
		{
			"magFilter":9729,
			"minFilter":9987
		}
	],
	"buffers":[
		{
			"byteLength":346956,
			"uri":"firework-button.bin"
		}
	]
}
