{
	"asset":{
		"generator":"Khronos glTF Blender I/O v5.2.39",
		"version":"2.0"
	},
	"scene":0,
	"scenes":[
		{
			"name":"Scene",
			"nodes":[
				0,
				1
			]
		}
	],
	"nodes":[
		{
			"mesh":0,
			"name":"barrel"
		},
		{
			"mesh":1,
			"name":"rotor.hub"
		}
	],
	"materials":[
		{
			"name":"Barrel",
			"normalTexture":{
				"index":0
			},
			"pbrMetallicRoughness":{
				"baseColorTexture":{
					"index":1
				},
				"metallicRoughnessTexture":{
					"index":2
				}
			}
		}
	],
	"meshes":[
		{
			"name":"Cylinder.006",
			"primitives":[
				{
					"attributes":{
						"POSITION":0,
						"NORMAL":1,
						"TEXCOORD_0":2,
						"COLOR_0":3,
						"COLOR_1":4
					},
					"indices":5,
					"material":0
				}
			]
		},
		{
			"name":"Cylinder.009",
			"primitives":[
				{
					"attributes":{
						"POSITION":6,
						"NORMAL":7,
						"TEXCOORD_0":8,
						"COLOR_0":9,
						"COLOR_1":10
					},
					"indices":11,
					"material":0
				}
			]
		}
	],
	"textures":[
		{
			"sampler":0,
			"source":0
		},
		{
			"sampler":0,
			"source":1
		},
		{
			"sampler":0,
			"source":2
		}
	],
	"images":[
		{
			"mimeType":"image/png",
			"name":"fuel_v2_Barrel_Normal",
			"uri":"tex/fuel_v2_Barrel_Normal.png"
		},
		{
			"mimeType":"image/png",
			"name":"fuel_v2_Barrel_BaseColor",
			"uri":"tex/fuel_v2_Barrel_BaseColor.png"
		},
		{
			"mimeType":"image/png",
			"name":"fuel_v2_Barrel_Metallic-fuel_v2_Barrel_Roughness",
			"uri":"tex/fuel_v2_Barrel_Metallic-fuel_v2_Barrel_Roughness.png"
		}
	],
	"accessors":[
		{
			"bufferView":0,
			"componentType":5126,
			"count":967,
			"max":[
				0.4697571098804474,
				0.37146028876304626,
				0.4697571098804474
			],
			"min":[
				-0.4697571098804474,
				-0.6472935676574707,
				-0.4697571098804474
			],
			"type":"VEC3"
		},
		{
			"bufferView":1,
			"componentType":5126,
			"count":967,
			"type":"VEC3"
		},
		{
			"bufferView":2,
			"componentType":5126,
			"count":967,
			"type":"VEC2"
		},
		{
			"bufferView":3,
			"componentType":5121,
			"count":967,
			"normalized":true,
			"type":"VEC4"
		},
		{
			"bufferView":4,
			"componentType":5123,
			"count":967,
			"normalized":true,
			"type":"VEC4"
		},
		{
			"bufferView":5,
			"componentType":5123,
			"count":2496,
			"type":"SCALAR"
		},
		{
			"bufferView":6,
			"componentType":5126,
			"count":119,
			"max":[
				0.08659473806619644,
				0.5701729655265808,
				0.08668452501296997
			],
			"min":[
				-0.08674456924200058,
				0.37270015478134155,
				-0.08665478229522705
			],
			"type":"VEC3"
		},
		{
			"bufferView":7,
			"componentType":5126,
			"count":119,
			"type":"VEC3"
		},
		{
			"bufferView":8,
			"componentType":5126,
			"count":119,
			"type":"VEC2"
		},
		{
			"bufferView":9,
			"componentType":5121,
			"count":119,
			"normalized":true,
			"type":"VEC4"
		},
		{
			"bufferView":10,
			"componentType":5123,
			"count":119,
			"normalized":true,
			"type":"VEC4"
		},
		{
			"bufferView":11,
			"componentType":5123,
			"count":426,
			"type":"SCALAR"
		}
	],
	"bufferViews":[
		{
			"buffer":0,
			"byteLength":11604,
			"byteOffset":0,
			"target":34962
		},
		{
			"buffer":0,
			"byteLength":11604,
			"byteOffset":11604,
			"target":34962
		},
		{
			"buffer":0,
			"byteLength":7736,
			"byteOffset":23208,
			"target":34962
		},
		{
			"buffer":0,
			"byteLength":3868,
			"byteOffset":30944,
			"target":34962
		},
		{
			"buffer":0,
			"byteLength":7736,
			"byteOffset":34812,
			"target":34962
		},
		{
			"buffer":0,
			"byteLength":4992,
			"byteOffset":42548,
			"target":34963
		},
		{
			"buffer":0,
			"byteLength":1428,
			"byteOffset":47540,
			"target":34962
		},
		{
			"buffer":0,
			"byteLength":1428,
			"byteOffset":48968,
			"target":34962
		},
		{
			"buffer":0,
			"byteLength":952,
			"byteOffset":50396,
			"target":34962
		},
		{
			"buffer":0,
			"byteLength":476,
			"byteOffset":51348,
			"target":34962
		},
		{
			"buffer":0,
			"byteLength":952,
			"byteOffset":51824,
			"target":34962
		},
		{
			"buffer":0,
			"byteLength":852,
			"byteOffset":52776,
			"target":34963
		}
	],
	"samplers":[
		{
			"magFilter":9729,
			"minFilter":9987
		}
	],
	"buffers":[
		{
			"byteLength":53628,
			"uri":"fuel_desktop.bin"
		}
	]
}
