{
	"asset":{
		"generator":"Khronos glTF Blender I/O v5.2.39",
		"version":"2.0"
	},
	"scene":0,
	"scenes":[
		{
			"name":"Scene",
			"nodes":[
				0,
				1
			]
		}
	],
	"nodes":[
		{
			"mesh":0,
			"name":"barrel.002"
		},
		{
			"mesh":1,
			"name":"rotor.hub.002"
		}
	],
	"materials":[
		{
			"name":"Barrel",
			"normalTexture":{
				"index":0
			},
			"pbrMetallicRoughness":{
				"baseColorTexture":{
					"index":1
				},
				"metallicRoughnessTexture":{
					"index":2
				}
			}
		}
	],
	"meshes":[
		{
			"name":"Cylinder.008",
			"primitives":[
				{
					"attributes":{
						"POSITION":0,
						"NORMAL":1,
						"TEXCOORD_0":2,
						"COLOR_0":3,
						"COLOR_1":4
					},
					"indices":5,
					"material":0
				}
			]
		},
		{
			"name":"Cylinder.010",
			"primitives":[
				{
					"attributes":{
						"POSITION":6,
						"NORMAL":7,
						"TEXCOORD_0":8,
						"COLOR_0":9,
						"COLOR_1":10
					},
					"indices":11,
					"material":0
				}
			]
		}
	],
	"textures":[
		{
			"sampler":0,
			"source":0
		},
		{
			"sampler":0,
			"source":1
		},
		{
			"sampler":0,
			"source":2
		}
	],
	"images":[
		{
			"mimeType":"image/png",
			"name":"fuel_v2_Barrel_Normal",
			"uri":"tex/fuel_v2_Barrel_Normal.png"
		},
		{
			"mimeType":"image/png",
			"name":"fuel_v2_Barrel_BaseColor",
			"uri":"tex/fuel_v2_Barrel_BaseColor.png"
		},
		{
			"mimeType":"image/png",
			"name":"fuel_v2_Barrel_Metallic-fuel_v2_Barrel_Roughness",
			"uri":"tex/fuel_v2_Barrel_Metallic-fuel_v2_Barrel_Roughness.png"
		}
	],
	"accessors":[
		{
			"bufferView":0,
			"componentType":5126,
			"count":660,
			"max":[
				0.46894267201423645,
				0.37146028876304626,
				0.46894267201423645
			],
			"min":[
				-0.46894267201423645,
				-0.6472935676574707,
				-0.46894267201423645
			],
			"type":"VEC3"
		},
		{
			"bufferView":1,
			"componentType":5126,
			"count":660,
			"type":"VEC3"
		},
		{
			"bufferView":2,
			"componentType":5126,
			"count":660,
			"type":"VEC2"
		},
		{
			"bufferView":3,
			"componentType":5121,
			"count":660,
			"normalized":true,
			"type":"VEC4"
		},
		{
			"bufferView":4,
			"componentType":5123,
			"count":660,
			"normalized":true,
			"type":"VEC4"
		},
		{
			"bufferView":5,
			"componentType":5123,
			"count":1788,
			"type":"SCALAR"
		},
		{
			"bufferView":6,
			"componentType":5126,
			"count":70,
			"max":[
				0.08659473806619644,
				0.5701729655265808,
				0.0750729888677597
			],
			"min":[
				-0.08674456924200058,
				0.37270015478134155,
				-0.07504325360059738
			],
			"type":"VEC3"
		},
		{
			"bufferView":7,
			"componentType":5126,
			"count":70,
			"type":"VEC3"
		},
		{
			"bufferView":8,
			"componentType":5126,
			"count":70,
			"type":"VEC2"
		},
		{
			"bufferView":9,
			"componentType":5121,
			"count":70,
			"normalized":true,
			"type":"VEC4"
		},
		{
			"bufferView":10,
			"componentType":5123,
			"count":70,
			"normalized":true,
			"type":"VEC4"
		},
		{
			"bufferView":11,
			"componentType":5123,
			"count":240,
			"type":"SCALAR"
		}
	],
	"bufferViews":[
		{
			"buffer":0,
			"byteLength":7920,
			"byteOffset":0,
			"target":34962
		},
		{
			"buffer":0,
			"byteLength":7920,
			"byteOffset":7920,
			"target":34962
		},
		{
			"buffer":0,
			"byteLength":5280,
			"byteOffset":15840,
			"target":34962
		},
		{
			"buffer":0,
			"byteLength":2640,
			"byteOffset":21120,
			"target":34962
		},
		{
			"buffer":0,
			"byteLength":5280,
			"byteOffset":23760,
			"target":34962
		},
		{
			"buffer":0,
			"byteLength":3576,
			"byteOffset":29040,
			"target":34963
		},
		{
			"buffer":0,
			"byteLength":840,
			"byteOffset":32616,
			"target":34962
		},
		{
			"buffer":0,
			"byteLength":840,
			"byteOffset":33456,
			"target":34962
		},
		{
			"buffer":0,
			"byteLength":560,
			"byteOffset":34296,
			"target":34962
		},
		{
			"buffer":0,
			"byteLength":280,
			"byteOffset":34856,
			"target":34962
		},
		{
			"buffer":0,
			"byteLength":560,
			"byteOffset":35136,
			"target":34962
		},
		{
			"buffer":0,
			"byteLength":480,
			"byteOffset":35696,
			"target":34963
		}
	],
	"samplers":[
		{
			"magFilter":9729,
			"minFilter":9987
		}
	],
	"buffers":[
		{
			"byteLength":36176,
			"uri":"fuel_mobile.bin"
		}
	]
}
