{
	"asset":{
		"generator":"Khronos glTF Blender I/O v4.5.51",
		"version":"2.0"
	},
	"scene":0,
	"scenes":[
		{
			"name":"Scene",
			"nodes":[
				0
			]
		}
	],
	"nodes":[
		{
			"mesh":0,
			"name":"rotor.blades.001"
		}
	],
	"materials":[
		{
			"emissiveFactor":[
				1,
				1,
				1
			],
			"emissiveTexture":{
				"index":0
			},
			"name":"Barrel",
			"normalTexture":{
				"index":1
			},
			"pbrMetallicRoughness":{
				"baseColorTexture":{
					"index":2
				},
				"metallicRoughnessTexture":{
					"index":3
				}
			}
		}
	],
	"meshes":[
		{
			"name":"Cube.003",
			"primitives":[
				{
					"attributes":{
						"POSITION":0,
						"NORMAL":1,
						"TEXCOORD_0":2,
						"COLOR_0":3,
						"COLOR_1":4
					},
					"indices":5,
					"material":0
				}
			]
		}
	],
	"textures":[
		{
			"sampler":0,
			"source":0
		},
		{
			"sampler":0,
			"source":1
		},
		{
			"sampler":0,
			"source":2
		},
		{
			"sampler":0,
			"source":3
		}
	],
	"images":[
		{
			"mimeType":"image/png",
			"name":"fuel_v2_Barrel_Emissive",
			"uri":"tex/fuel_v2_Barrel_Emissive.png"
		},
		{
			"mimeType":"image/png",
			"name":"fuel_v2_Barrel_Normal",
			"uri":"tex/fuel_v2_Barrel_Normal.png"
		},
		{
			"mimeType":"image/png",
			"name":"fuel_v2_Barrel_BaseColor",
			"uri":"tex/fuel_v2_Barrel_BaseColor.png"
		},
		{
			"mimeType":"image/png",
			"name":"fuel_v2_Barrel_Metallic-fuel_v2_Barrel_Roughness",
			"uri":"tex/fuel_v2_Barrel_Metallic-fuel_v2_Barrel_Roughness.png"
		}
	],
	"accessors":[
		{
			"bufferView":0,
			"componentType":5126,
			"count":373,
			"max":[
				0.43591442704200745,
				0.5296775698661804,
				0.4908667802810669
			],
			"min":[
				-0.435914546251297,
				0.43369588255882263,
				-0.28528687357902527
			],
			"type":"VEC3"
		},
		{
			"bufferView":1,
			"componentType":5126,
			"count":373,
			"type":"VEC3"
		},
		{
			"bufferView":2,
			"componentType":5126,
			"count":373,
			"type":"VEC2"
		},
		{
			"bufferView":3,
			"componentType":5121,
			"count":373,
			"normalized":true,
			"type":"VEC4"
		},
		{
			"bufferView":4,
			"componentType":5123,
			"count":373,
			"normalized":true,
			"type":"VEC4"
		},
		{
			"bufferView":5,
			"componentType":5123,
			"count":936,
			"type":"SCALAR"
		}
	],
	"bufferViews":[
		{
			"buffer":0,
			"byteLength":4476,
			"byteOffset":0,
			"target":34962
		},
		{
			"buffer":0,
			"byteLength":4476,
			"byteOffset":4476,
			"target":34962
		},
		{
			"buffer":0,
			"byteLength":2984,
			"byteOffset":8952,
			"target":34962
		},
		{
			"buffer":0,
			"byteLength":1492,
			"byteOffset":11936,
			"target":34962
		},
		{
			"buffer":0,
			"byteLength":2984,
			"byteOffset":13428,
			"target":34962
		},
		{
			"buffer":0,
			"byteLength":1872,
			"byteOffset":16412,
			"target":34963
		}
	],
	"samplers":[
		{
			"magFilter":9729,
			"minFilter":9987
		}
	],
	"buffers":[
		{
			"byteLength":18284,
			"uri":"fuelTop.bin"
		}
	]
}
