{
	"asset":{
		"generator":"Khronos glTF Blender I/O v5.2.39",
		"version":"2.0"
	},
	"scene":0,
	"scenes":[
		{
			"name":"Scene",
			"nodes":[
				0
			]
		}
	],
	"nodes":[
		{
			"mesh":0,
			"name":"rotor.blades.001"
		}
	],
	"materials":[
		{
			"name":"Barrel",
			"normalTexture":{
				"index":0
			},
			"pbrMetallicRoughness":{
				"baseColorTexture":{
					"index":1
				},
				"metallicRoughnessTexture":{
					"index":2
				}
			}
		}
	],
	"meshes":[
		{
			"name":"Cube.003",
			"primitives":[
				{
					"attributes":{
						"POSITION":0,
						"NORMAL":1,
						"TEXCOORD_0":2,
						"COLOR_0":3,
						"COLOR_1":4
					},
					"indices":5,
					"material":0
				}
			]
		}
	],
	"textures":[
		{
			"sampler":0,
			"source":0
		},
		{
			"sampler":0,
			"source":1
		},
		{
			"sampler":0,
			"source":2
		}
	],
	"images":[
		{
			"mimeType":"image/png",
			"name":"fuel_v2_Barrel_Normal",
			"uri":"tex/fuel_v2_Barrel_Normal.png"
		},
		{
			"mimeType":"image/png",
			"name":"fuel_v2_Barrel_BaseColor",
			"uri":"tex/fuel_v2_Barrel_BaseColor.png"
		},
		{
			"mimeType":"image/png",
			"name":"fuel_v2_Barrel_Metallic-fuel_v2_Barrel_Roughness",
			"uri":"tex/fuel_v2_Barrel_Metallic-fuel_v2_Barrel_Roughness.png"
		}
	],
	"accessors":[
		{
			"bufferView":0,
			"componentType":5126,
			"count":335,
			"max":[
				0.4349304735660553,
				0.5296775698661804,
				0.4908667802810669
			],
			"min":[
				-0.43493059277534485,
				0.43369588255882263,
				-0.28528687357902527
			],
			"type":"VEC3"
		},
		{
			"bufferView":1,
			"componentType":5126,
			"count":335,
			"type":"VEC3"
		},
		{
			"bufferView":2,
			"componentType":5126,
			"count":335,
			"type":"VEC2"
		},
		{
			"bufferView":3,
			"componentType":5121,
			"count":335,
			"normalized":true,
			"type":"VEC4"
		},
		{
			"bufferView":4,
			"componentType":5123,
			"count":335,
			"normalized":true,
			"type":"VEC4"
		},
		{
			"bufferView":5,
			"componentType":5123,
			"count":864,
			"type":"SCALAR"
		}
	],
	"bufferViews":[
		{
			"buffer":0,
			"byteLength":4020,
			"byteOffset":0,
			"target":34962
		},
		{
			"buffer":0,
			"byteLength":4020,
			"byteOffset":4020,
			"target":34962
		},
		{
			"buffer":0,
			"byteLength":2680,
			"byteOffset":8040,
			"target":34962
		},
		{
			"buffer":0,
			"byteLength":1340,
			"byteOffset":10720,
			"target":34962
		},
		{
			"buffer":0,
			"byteLength":2680,
			"byteOffset":12060,
			"target":34962
		},
		{
			"buffer":0,
			"byteLength":1728,
			"byteOffset":14740,
			"target":34963
		}
	],
	"samplers":[
		{
			"magFilter":9729,
			"minFilter":9987
		}
	],
	"buffers":[
		{
			"byteLength":16468,
			"uri":"fuelTop_desktop.bin"
		}
	]
}
