{
	"asset":{
		"generator":"Khronos glTF Blender I/O v5.2.39",
		"version":"2.0"
	},
	"scene":0,
	"scenes":[
		{
			"name":"Scene",
			"nodes":[
				0
			]
		}
	],
	"nodes":[
		{
			"mesh":0,
			"name":"rotor.blades.004"
		}
	],
	"materials":[
		{
			"name":"Barrel",
			"normalTexture":{
				"index":0
			},
			"pbrMetallicRoughness":{
				"baseColorTexture":{
					"index":1
				},
				"metallicRoughnessTexture":{
					"index":2
				}
			}
		}
	],
	"meshes":[
		{
			"name":"Cube.005",
			"primitives":[
				{
					"attributes":{
						"POSITION":0,
						"NORMAL":1,
						"TEXCOORD_0":2,
						"COLOR_0":3,
						"COLOR_1":4
					},
					"indices":5,
					"material":0
				}
			]
		}
	],
	"textures":[
		{
			"sampler":0,
			"source":0
		},
		{
			"sampler":0,
			"source":1
		},
		{
			"sampler":0,
			"source":2
		}
	],
	"images":[
		{
			"mimeType":"image/png",
			"name":"fuel_v2_Barrel_Normal",
			"uri":"tex/fuel_v2_Barrel_Normal.png"
		},
		{
			"mimeType":"image/png",
			"name":"fuel_v2_Barrel_BaseColor",
			"uri":"tex/fuel_v2_Barrel_BaseColor.png"
		},
		{
			"mimeType":"image/png",
			"name":"fuel_v2_Barrel_Metallic-fuel_v2_Barrel_Roughness",
			"uri":"tex/fuel_v2_Barrel_Metallic-fuel_v2_Barrel_Roughness.png"
		}
	],
	"accessors":[
		{
			"bufferView":0,
			"componentType":5126,
			"count":131,
			"max":[
				0.43923333287239075,
				0.5351687669754028,
				0.4908667802810669
			],
			"min":[
				-0.4392334520816803,
				0.4282046854496002,
				-0.29332008957862854
			],
			"type":"VEC3"
		},
		{
			"bufferView":1,
			"componentType":5126,
			"count":131,
			"type":"VEC3"
		},
		{
			"bufferView":2,
			"componentType":5126,
			"count":131,
			"type":"VEC2"
		},
		{
			"bufferView":3,
			"componentType":5121,
			"count":131,
			"normalized":true,
			"type":"VEC4"
		},
		{
			"bufferView":4,
			"componentType":5123,
			"count":131,
			"normalized":true,
			"type":"VEC4"
		},
		{
			"bufferView":5,
			"componentType":5123,
			"count":270,
			"type":"SCALAR"
		}
	],
	"bufferViews":[
		{
			"buffer":0,
			"byteLength":1572,
			"byteOffset":0,
			"target":34962
		},
		{
			"buffer":0,
			"byteLength":1572,
			"byteOffset":1572,
			"target":34962
		},
		{
			"buffer":0,
			"byteLength":1048,
			"byteOffset":3144,
			"target":34962
		},
		{
			"buffer":0,
			"byteLength":524,
			"byteOffset":4192,
			"target":34962
		},
		{
			"buffer":0,
			"byteLength":1048,
			"byteOffset":4716,
			"target":34962
		},
		{
			"buffer":0,
			"byteLength":540,
			"byteOffset":5764,
			"target":34963
		}
	],
	"samplers":[
		{
			"magFilter":9729,
			"minFilter":9987
		}
	],
	"buffers":[
		{
			"byteLength":6304,
			"uri":"fuelTop_mobile.bin"
		}
	]
}
