{
	"asset":{
		"generator":"Khronos glTF Blender I/O v4.5.51",
		"version":"2.0"
	},
	"scene":0,
	"scenes":[
		{
			"name":"Scene",
			"nodes":[
				0,
				1
			]
		}
	],
	"nodes":[
		{
			"mesh":0,
			"name":"flagTag_collider_box",
			"translation":[
				-1.612200379371643,
				0.9762709140777588,
				0.019234374165534973
			]
		},
		{
			"mesh":1,
			"name":"Plane.013",
			"rotation":[
				0.7061924338340759,
				-0.03594870865345001,
				-0.035948701202869415,
				0.7061923742294312
			],
			"translation":[
				-1.5980626344680786,
				0.992722749710083,
				-0.07097230851650238
			]
		}
	],
	"materials":[
		{
			"doubleSided":true,
			"emissiveTexture":{
				"index":0
			},
			"name":"Material",
			"normalTexture":{
				"index":1
			},
			"pbrMetallicRoughness":{
				"baseColorTexture":{
					"index":2
				},
				"metallicRoughnessTexture":{
					"index":3
				}
			}
		}
	],
	"meshes":[
		{
			"name":"Cube.006",
			"primitives":[
				{
					"attributes":{
						"POSITION":0,
						"NORMAL":1,
						"TEXCOORD_0":2
					},
					"indices":3
				}
			]
		},
		{
			"name":"Plane.002",
			"primitives":[
				{
					"attributes":{
						"POSITION":4,
						"NORMAL":5,
						"TEXCOORD_0":6,
						"COLOR_0":7,
						"COLOR_1":8
					},
					"indices":9,
					"material":0
				}
			]
		}
	],
	"textures":[
		{
			"sampler":0,
			"source":0
		},
		{
			"sampler":0,
			"source":1
		},
		{
			"sampler":0,
			"source":2
		},
		{
			"sampler":0,
			"source":3
		}
	],
	"images":[
		{
			"mimeType":"image/png",
			"name":"notice-board_Material_Emissive",
			"uri":"tex/notice-board_Material_Emissive.png"
		},
		{
			"mimeType":"image/png",
			"name":"notice-board_Material_Normal",
			"uri":"tex/notice-board_Material_Normal.png"
		},
		{
			"mimeType":"image/png",
			"name":"notice-board_Material_BaseColor",
			"uri":"tex/notice-board_Material_BaseColor.png"
		},
		{
			"mimeType":"image/png",
			"name":"notice-board_Material_Metallic-notice-board_Material_Roughness",
			"uri":"tex/notice-board_Material_Metallic-notice-board_Material_Roughness.png"
		}
	],
	"accessors":[
		{
			"bufferView":0,
			"componentType":5126,
			"count":24,
			"max":[
				0.3605135977268219,
				0.3172798156738281,
				0.24047702550888062
			],
			"min":[
				-0.3605135977268219,
				-0.3172798156738281,
				-0.24047702550888062
			],
			"type":"VEC3"
		},
		{
			"bufferView":1,
			"componentType":5126,
			"count":24,
			"type":"VEC3"
		},
		{
			"bufferView":2,
			"componentType":5126,
			"count":24,
			"type":"VEC2"
		},
		{
			"bufferView":3,
			"componentType":5123,
			"count":36,
			"type":"SCALAR"
		},
		{
			"bufferView":4,
			"componentType":5126,
			"count":59,
			"max":[
				0.28943026065826416,
				0.054334115236997604,
				0.22868043184280396
			],
			"min":[
				-0.2897983193397522,
				-0.005294131580740213,
				-0.22984032332897186
			],
			"type":"VEC3"
		},
		{
			"bufferView":5,
			"componentType":5126,
			"count":59,
			"type":"VEC3"
		},
		{
			"bufferView":6,
			"componentType":5126,
			"count":59,
			"type":"VEC2"
		},
		{
			"bufferView":7,
			"componentType":5121,
			"count":59,
			"normalized":true,
			"type":"VEC4"
		},
		{
			"bufferView":8,
			"componentType":5123,
			"count":59,
			"normalized":true,
			"type":"VEC4"
		},
		{
			"bufferView":9,
			"componentType":5123,
			"count":123,
			"type":"SCALAR"
		}
	],
	"bufferViews":[
		{
			"buffer":0,
			"byteLength":288,
			"byteOffset":0,
			"target":34962
		},
		{
			"buffer":0,
			"byteLength":288,
			"byteOffset":288,
			"target":34962
		},
		{
			"buffer":0,
			"byteLength":192,
			"byteOffset":576,
			"target":34962
		},
		{
			"buffer":0,
			"byteLength":72,
			"byteOffset":768,
			"target":34963
		},
		{
			"buffer":0,
			"byteLength":708,
			"byteOffset":840,
			"target":34962
		},
		{
			"buffer":0,
			"byteLength":708,
			"byteOffset":1548,
			"target":34962
		},
		{
			"buffer":0,
			"byteLength":472,
			"byteOffset":2256,
			"target":34962
		},
		{
			"buffer":0,
			"byteLength":236,
			"byteOffset":2728,
			"target":34962
		},
		{
			"buffer":0,
			"byteLength":472,
			"byteOffset":2964,
			"target":34962
		},
		{
			"buffer":0,
			"byteLength":246,
			"byteOffset":3436,
			"target":34963
		}
	],
	"samplers":[
		{
			"magFilter":9729,
			"minFilter":9987
		}
	],
	"buffers":[
		{
			"byteLength":3684,
			"uri":"noticeBoard-flagTag.bin"
		}
	]
}
