{
	"asset":{
		"generator":"Khronos glTF Blender I/O v4.5.51",
		"version":"2.0"
	},
	"scene":0,
	"scenes":[
		{
			"name":"Scene",
			"nodes":[
				34,
				35,
				36,
				37,
				38
			]
		}
	],
	"nodes":[
		{
			"mesh":0,
			"name":"Cube",
			"translation":[
				0,
				1.886678695678711,
				-0.15741917490959167
			]
		},
		{
			"mesh":1,
			"name":"Cube.001",
			"translation":[
				-2.1609044075012207,
				2.6234934329986572,
				0
			]
		},
		{
			"mesh":2,
			"name":"Cube.002",
			"translation":[
				2.160904884338379,
				2.6234934329986572,
				0
			]
		},
		{
			"name":"Cube.002_Curve.001",
			"translation":[
				2.160904884338379,
				2.6234934329986572,
				0
			]
		},
		{
			"mesh":3,
			"name":"Cube.003",
			"translation":[
				0,
				3.4614057540893555,
				-0.13199245929718018
			]
		},
		{
			"mesh":4,
			"name":"Cube.003_Curve.001",
			"translation":[
				1.9998568296432495,
				3.4614057540893555,
				-0.13199245929718018
			]
		},
		{
			"mesh":5,
			"name":"Cube.004",
			"translation":[
				0,
				0.31195157766342163,
				-0.13199245929718018
			]
		},
		{
			"mesh":6,
			"name":"Cylinder.001",
			"rotation":[
				0.664551317691803,
				0,
				0,
				0.7472426295280457
			],
			"translation":[
				1.671053409576416,
				2.5496017932891846,
				-0.0037197470664978027
			]
		},
		{
			"mesh":7,
			"name":"Cylinder.002",
			"rotation":[
				0.6624600291252136,
				0.059235185384750366,
				-0.05268010497093201,
				0.7448911070823669
			],
			"translation":[
				0.5135222673416138,
				2.615429401397705,
				-0.0037197470664978027
			]
		},
		{
			"mesh":8,
			"name":"Cylinder.003",
			"rotation":[
				0.664551317691803,
				0,
				0,
				0.7472426295280457
			],
			"translation":[
				-0.2244856357574463,
				2.9388294219970703,
				-0.0037197470664978027
			]
		},
		{
			"mesh":9,
			"name":"Cylinder.004",
			"rotation":[
				0.5853979587554932,
				0.03539230301976204,
				-0.038499653339385986,
				0.8090577125549316
			],
			"translation":[
				-1.1424345970153809,
				2.9113969802856445,
				-0.0037197470664978027
			]
		},
		{
			"mesh":10,
			"name":"Cylinder.005",
			"rotation":[
				0.7742062211036682,
				0,
				0,
				0.6329334378242493
			],
			"translation":[
				-1.0864877700805664,
				1.0929954051971436,
				-0.0037197470664978027
			]
		},
		{
			"mesh":11,
			"name":"Cylinder.006",
			"rotation":[
				0.764124870300293,
				0.10180889070034027,
				-0.12453296035528183,
				0.6246916651725769
			],
			"translation":[
				-0.09864920377731323,
				1.0929954051971436,
				-0.0037197470664978027
			]
		},
		{
			"mesh":12,
			"name":"Cylinder.007",
			"rotation":[
				0.6610006093978882,
				-0.07714296132326126,
				0.0686061754822731,
				0.7432498931884766
			],
			"translation":[
				1.6514108180999756,
				0.7669283151626587,
				-0.0037197470664978027
			]
		},
		{
			"mesh":13,
			"name":"Cylinder.008",
			"rotation":[
				0.7462992668151855,
				0,
				0,
				0.6656105518341064
			],
			"translation":[
				0.5727097392082214,
				0.8775711059570312,
				-0.0037197470664978027
			]
		},
		{
			"mesh":14,
			"name":"Cylinder.009",
			"rotation":[
				0.6015992164611816,
				0,
				0,
				0.7987980842590332
			],
			"translation":[
				-1.6446102857589722,
				1.8535168170928955,
				-0.0037197470664978027
			]
		},
		{
			"mesh":15,
			"name":"Cylinder.010",
			"rotation":[
				0.6641811728477478,
				-0.024937715381383896,
				0.022178053855895996,
				0.7468263506889343
			],
			"translation":[
				-1.5608224868774414,
				2.503368854522705,
				-0.0037197470664978027
			]
		},
		{
			"mesh":16,
			"name":"Cylinder.011",
			"rotation":[
				0.605644166469574,
				0,
				0,
				0.7957355976104736
			],
			"translation":[
				2.2886810302734375,
				2.296168565750122,
				0.19020746648311615
			]
		},
		{
			"mesh":17,
			"name":"Cylinder.012",
			"rotation":[
				0.6056442260742188,
				0,
				0,
				0.7957355380058289
			],
			"translation":[
				2.0481464862823486,
				0.0039563775062561035,
				0.16764695942401886
			]
		},
		{
			"mesh":18,
			"name":"Cylinder.013",
			"rotation":[
				0.6056442260742188,
				0,
				0,
				0.7957355380058289
			],
			"translation":[
				2.273839235305786,
				0.003933385014533997,
				0.16764695942401886
			]
		},
		{
			"mesh":19,
			"name":"Cylinder.014",
			"rotation":[
				0.5926882028579712,
				-0.16370971500873566,
				0.12460147589445114,
				0.7787132263183594
			],
			"translation":[
				2.023400068283081,
				2.2900567054748535,
				0.1893722414970398
			]
		},
		{
			"mesh":20,
			"name":"Cylinder.015",
			"rotation":[
				0.6015992164611816,
				0,
				0,
				0.7987980842590332
			],
			"translation":[
				-1.5856072902679443,
				1.1767101287841797,
				-0.0037197470664978027
			]
		},
		{
			"mesh":21,
			"name":"Plane",
			"rotation":[
				0.7071030735969543,
				0.0023019732907414436,
				0.0023019730579108,
				0.7071030139923096
			],
			"translation":[
				-0.5413736701011658,
				1.9918746948242188,
				-0.057424262166023254
			]
		},
		{
			"mesh":22,
			"name":"Plane.001",
			"translation":[
				1.0840524435043335,
				1.6902390718460083,
				-0.057424262166023254
			]
		},
		{
			"mesh":23,
			"name":"Plane.002",
			"rotation":[
				0,
				0,
				-0.048830851912498474,
				0.9988070726394653
			],
			"translation":[
				-1.5948634147644043,
				2.3221611976623535,
				-0.06795629858970642
			]
		},
		{
			"mesh":24,
			"name":"Plane.004",
			"translation":[
				-0.02742999792098999,
				3.5439109802246094,
				0.2220698595046997
			]
		},
		{
			"mesh":25,
			"name":"Plane.005",
			"rotation":[
				0,
				0,
				0.03730190917849541,
				0.9993040561676025
			],
			"translation":[
				0.5481371879577637,
				3.566389560699463,
				0.23060671985149384
			]
		},
		{
			"mesh":26,
			"name":"Plane.006",
			"rotation":[
				0,
				0,
				0.052860625088214874,
				0.9986019134521484
			],
			"translation":[
				1.1247763633728027,
				3.6185452938079834,
				0.2325257509946823
			]
		},
		{
			"mesh":27,
			"name":"Plane.007",
			"rotation":[
				0.0003396805841475725,
				0.006416982039809227,
				0.05285954475402832,
				0.9985812902450562
			],
			"translation":[
				1.6392168998718262,
				3.6771416664123535,
				0.23285652697086334
			]
		},
		{
			"mesh":28,
			"name":"Plane.008",
			"rotation":[
				0,
				0,
				-0.05164259299635887,
				0.9986656308174133
			],
			"translation":[
				-1.700165867805481,
				3.675717830657959,
				0.20198991894721985
			]
		},
		{
			"mesh":29,
			"name":"Plane.009",
			"rotation":[
				0,
				0,
				-0.05374868959188461,
				0.9985545873641968
			],
			"translation":[
				-1.1290050745010376,
				3.6110401153564453,
				0.2102760374546051
			]
		},
		{
			"mesh":30,
			"name":"Plane.010",
			"rotation":[
				0,
				0,
				-0.0315256305038929,
				0.999502956867218
			],
			"translation":[
				-0.5518010258674622,
				3.565560817718506,
				0.2189459353685379
			]
		},
		{
			"mesh":31,
			"name":"Plane.011",
			"rotation":[
				0.7069365382194519,
				0.015518682077527046,
				0.015518680214881897,
				0.7069364786148071
			],
			"translation":[
				2.1753194332122803,
				1.9704866409301758,
				0.16764694452285767
			]
		},
		{
			"mesh":32,
			"name":"Plane.012",
			"rotation":[
				0.7069365382194519,
				0.015518682077527046,
				0.015518682077527046,
				0.7069364786148071
			],
			"translation":[
				2.1753194332122803,
				-0.1768578737974167,
				0.16764694452285767
			]
		},
		{
			"children":[
				0,
				1,
				2,
				3,
				4,
				5,
				6,
				7,
				8,
				9,
				10,
				11,
				12,
				13,
				14,
				15,
				16,
				17,
				18,
				19,
				20,
				21,
				22,
				23,
				24,
				25,
				26,
				27,
				28,
				29,
				30,
				31,
				32,
				33
			],
			"name":"origin"
		},
		{
			"mesh":33,
			"name":"board.001._collider_box",
			"translation":[
				0.0074999332427978516,
				1.6931285858154297,
				-0.15826022624969482
			]
		},
		{
			"mesh":34,
			"name":"board.003._collider_box",
			"translation":[
				2.1741909980773926,
				1.6931285858154297,
				-0.03342748433351517
			]
		},
		{
			"mesh":35,
			"name":"board.002._collider_box",
			"translation":[
				-2.163778781890869,
				1.6931285858154297,
				-0.03342749550938606
			]
		},
		{
			"mesh":36,
			"name":"board.003._collider_box.001",
			"rotation":[
				0,
				0,
				-0.7071068286895752,
				0.7071068286895752
			],
			"translation":[
				0,
				3.5024709701538086,
				-0.03342748060822487
			]
		}
	],
	"materials":[
		{
			"doubleSided":true,
			"emissiveTexture":{
				"index":0
			},
			"name":"Material",
			"normalTexture":{
				"index":1
			},
			"pbrMetallicRoughness":{
				"baseColorTexture":{
					"index":2
				},
				"metallicRoughnessTexture":{
					"index":3
				}
			}
		}
	],
	"meshes":[
		{
			"name":"Cube",
			"primitives":[
				{
					"attributes":{
						"POSITION":0,
						"NORMAL":1,
						"TEXCOORD_0":2,
						"COLOR_0":3,
						"COLOR_1":4
					},
					"indices":5,
					"material":0
				}
			]
		},
		{
			"name":"Cube.001",
			"primitives":[
				{
					"attributes":{
						"POSITION":6,
						"NORMAL":7,
						"TEXCOORD_0":8,
						"COLOR_0":9,
						"COLOR_1":10
					},
					"indices":11,
					"material":0
				}
			]
		},
		{
			"name":"Cube.002",
			"primitives":[
				{
					"attributes":{
						"POSITION":12,
						"NORMAL":13,
						"TEXCOORD_0":14,
						"COLOR_0":15,
						"COLOR_1":16
					},
					"indices":17,
					"material":0
				}
			]
		},
		{
			"name":"Cube.003",
			"primitives":[
				{
					"attributes":{
						"POSITION":18,
						"NORMAL":19,
						"TEXCOORD_0":20,
						"COLOR_0":21,
						"COLOR_1":22
					},
					"indices":23,
					"material":0
				}
			]
		},
		{
			"name":"Cube.003_Curve.002",
			"primitives":[
				{
					"attributes":{
						"POSITION":24,
						"NORMAL":25,
						"TEXCOORD_0":26,
						"COLOR_0":27,
						"COLOR_1":28
					},
					"indices":29,
					"material":0
				}
			]
		},
		{
			"name":"Cube.004",
			"primitives":[
				{
					"attributes":{
						"POSITION":30,
						"NORMAL":31,
						"TEXCOORD_0":32,
						"COLOR_0":33,
						"COLOR_1":34
					},
					"indices":35,
					"material":0
				}
			]
		},
		{
			"name":"Cylinder.012",
			"primitives":[
				{
					"attributes":{
						"POSITION":36,
						"NORMAL":37,
						"TEXCOORD_0":38,
						"COLOR_0":39,
						"COLOR_1":40
					},
					"indices":41,
					"material":0
				}
			]
		},
		{
			"name":"Cylinder.013",
			"primitives":[
				{
					"attributes":{
						"POSITION":42,
						"NORMAL":43,
						"TEXCOORD_0":44,
						"COLOR_0":45,
						"COLOR_1":46
					},
					"indices":41,
					"material":0
				}
			]
		},
		{
			"name":"Cylinder.014",
			"primitives":[
				{
					"attributes":{
						"POSITION":47,
						"NORMAL":48,
						"TEXCOORD_0":49,
						"COLOR_0":50,
						"COLOR_1":51
					},
					"indices":52,
					"material":0
				}
			]
		},
		{
			"name":"Cylinder.015",
			"primitives":[
				{
					"attributes":{
						"POSITION":53,
						"NORMAL":54,
						"TEXCOORD_0":55,
						"COLOR_0":56,
						"COLOR_1":57
					},
					"indices":41,
					"material":0
				}
			]
		},
		{
			"name":"Cylinder.016",
			"primitives":[
				{
					"attributes":{
						"POSITION":58,
						"NORMAL":59,
						"TEXCOORD_0":60,
						"COLOR_0":61,
						"COLOR_1":62
					},
					"indices":41,
					"material":0
				}
			]
		},
		{
			"name":"Cylinder.008",
			"primitives":[
				{
					"attributes":{
						"POSITION":63,
						"NORMAL":64,
						"TEXCOORD_0":65,
						"COLOR_0":66,
						"COLOR_1":67
					},
					"indices":41,
					"material":0
				}
			]
		},
		{
			"name":"Cylinder.017",
			"primitives":[
				{
					"attributes":{
						"POSITION":68,
						"NORMAL":69,
						"TEXCOORD_0":70,
						"COLOR_0":71,
						"COLOR_1":72
					},
					"indices":73,
					"material":0
				}
			]
		},
		{
			"name":"Cylinder.018",
			"primitives":[
				{
					"attributes":{
						"POSITION":74,
						"NORMAL":75,
						"TEXCOORD_0":76,
						"COLOR_0":77,
						"COLOR_1":78
					},
					"indices":79,
					"material":0
				}
			]
		},
		{
			"name":"Cylinder.019",
			"primitives":[
				{
					"attributes":{
						"POSITION":80,
						"NORMAL":81,
						"TEXCOORD_0":82,
						"COLOR_0":83,
						"COLOR_1":84
					},
					"indices":41,
					"material":0
				}
			]
		},
		{
			"name":"Cylinder.020",
			"primitives":[
				{
					"attributes":{
						"POSITION":85,
						"NORMAL":86,
						"TEXCOORD_0":87,
						"COLOR_0":88,
						"COLOR_1":89
					},
					"indices":41,
					"material":0
				}
			]
		},
		{
			"name":"Cylinder.021",
			"primitives":[
				{
					"attributes":{
						"POSITION":90,
						"NORMAL":91,
						"TEXCOORD_0":92,
						"COLOR_0":93,
						"COLOR_1":94
					},
					"indices":79,
					"material":0
				}
			]
		},
		{
			"name":"Cylinder.022",
			"primitives":[
				{
					"attributes":{
						"POSITION":95,
						"NORMAL":96,
						"TEXCOORD_0":97,
						"COLOR_0":98,
						"COLOR_1":99
					},
					"indices":41,
					"material":0
				}
			]
		},
		{
			"name":"Cylinder.023",
			"primitives":[
				{
					"attributes":{
						"POSITION":100,
						"NORMAL":101,
						"TEXCOORD_0":102,
						"COLOR_0":103,
						"COLOR_1":104
					},
					"indices":41,
					"material":0
				}
			]
		},
		{
			"name":"Cylinder.024",
			"primitives":[
				{
					"attributes":{
						"POSITION":105,
						"NORMAL":106,
						"TEXCOORD_0":107,
						"COLOR_0":108,
						"COLOR_1":109
					},
					"indices":79,
					"material":0
				}
			]
		},
		{
			"name":"Cylinder.001",
			"primitives":[
				{
					"attributes":{
						"POSITION":110,
						"NORMAL":111,
						"TEXCOORD_0":112,
						"COLOR_0":113,
						"COLOR_1":114
					},
					"indices":41,
					"material":0
				}
			]
		},
		{
			"name":"Plane",
			"primitives":[
				{
					"attributes":{
						"POSITION":115,
						"NORMAL":116,
						"TEXCOORD_0":117,
						"COLOR_0":118,
						"COLOR_1":119
					},
					"indices":120,
					"material":0
				}
			]
		},
		{
			"name":"Plane.001",
			"primitives":[
				{
					"attributes":{
						"POSITION":121,
						"NORMAL":122,
						"TEXCOORD_0":123,
						"COLOR_0":124,
						"COLOR_1":125
					},
					"indices":126,
					"material":0
				}
			]
		},
		{
			"name":"Plane.014",
			"primitives":[
				{
					"attributes":{
						"POSITION":127,
						"NORMAL":128,
						"TEXCOORD_0":129,
						"COLOR_0":130,
						"COLOR_1":131
					},
					"indices":132,
					"material":0
				}
			]
		},
		{
			"name":"Plane.004",
			"primitives":[
				{
					"attributes":{
						"POSITION":133,
						"NORMAL":134,
						"TEXCOORD_0":135,
						"COLOR_0":136,
						"COLOR_1":137
					},
					"indices":138,
					"material":0
				}
			]
		},
		{
			"name":"Plane.005",
			"primitives":[
				{
					"attributes":{
						"POSITION":139,
						"NORMAL":140,
						"TEXCOORD_0":141,
						"COLOR_0":142,
						"COLOR_1":143
					},
					"indices":138,
					"material":0
				}
			]
		},
		{
			"name":"Plane.006",
			"primitives":[
				{
					"attributes":{
						"POSITION":144,
						"NORMAL":145,
						"TEXCOORD_0":146,
						"COLOR_0":147,
						"COLOR_1":148
					},
					"indices":138,
					"material":0
				}
			]
		},
		{
			"name":"Plane.007",
			"primitives":[
				{
					"attributes":{
						"POSITION":149,
						"NORMAL":150,
						"TEXCOORD_0":151,
						"COLOR_0":152,
						"COLOR_1":153
					},
					"indices":138,
					"material":0
				}
			]
		},
		{
			"name":"Plane.008",
			"primitives":[
				{
					"attributes":{
						"POSITION":154,
						"NORMAL":155,
						"TEXCOORD_0":156,
						"COLOR_0":157,
						"COLOR_1":158
					},
					"indices":138,
					"material":0
				}
			]
		},
		{
			"name":"Plane.009",
			"primitives":[
				{
					"attributes":{
						"POSITION":159,
						"NORMAL":160,
						"TEXCOORD_0":161,
						"COLOR_0":162,
						"COLOR_1":163
					},
					"indices":138,
					"material":0
				}
			]
		},
		{
			"name":"Plane.010",
			"primitives":[
				{
					"attributes":{
						"POSITION":164,
						"NORMAL":165,
						"TEXCOORD_0":166,
						"COLOR_0":167,
						"COLOR_1":168
					},
					"indices":138,
					"material":0
				}
			]
		},
		{
			"name":"Plane.015",
			"primitives":[
				{
					"attributes":{
						"POSITION":169,
						"NORMAL":170,
						"TEXCOORD_0":171,
						"COLOR_0":172,
						"COLOR_1":173
					},
					"indices":174,
					"material":0
				}
			]
		},
		{
			"name":"Plane.016",
			"primitives":[
				{
					"attributes":{
						"POSITION":175,
						"NORMAL":176,
						"TEXCOORD_0":177,
						"COLOR_0":178,
						"COLOR_1":179
					},
					"indices":180,
					"material":0
				}
			]
		},
		{
			"name":"Cube.007",
			"primitives":[
				{
					"attributes":{
						"POSITION":181,
						"NORMAL":182,
						"TEXCOORD_0":183
					},
					"indices":184
				}
			]
		},
		{
			"name":"Cube.008",
			"primitives":[
				{
					"attributes":{
						"POSITION":185,
						"NORMAL":186,
						"TEXCOORD_0":187
					},
					"indices":184
				}
			]
		},
		{
			"name":"Cube.009",
			"primitives":[
				{
					"attributes":{
						"POSITION":188,
						"NORMAL":189,
						"TEXCOORD_0":190
					},
					"indices":191
				}
			]
		},
		{
			"name":"Cube.010",
			"primitives":[
				{
					"attributes":{
						"POSITION":192,
						"NORMAL":193,
						"TEXCOORD_0":194
					},
					"indices":184
				}
			]
		}
	],
	"textures":[
		{
			"sampler":0,
			"source":0
		},
		{
			"sampler":0,
			"source":1
		},
		{
			"sampler":0,
			"source":2
		},
		{
			"sampler":0,
			"source":3
		}
	],
	"images":[
		{
			"mimeType":"image/png",
			"name":"notice-board_Material_Emissive",
			"uri":"tex/notice-board_Material_Emissive.png"
		},
		{
			"mimeType":"image/png",
			"name":"notice-board_Material_Normal",
			"uri":"tex/notice-board_Material_Normal.png"
		},
		{
			"mimeType":"image/png",
			"name":"notice-board_Material_BaseColor",
			"uri":"tex/notice-board_Material_BaseColor.png"
		},
		{
			"mimeType":"image/png",
			"name":"notice-board_Material_Metallic-notice-board_Material_Roughness",
			"uri":"tex/notice-board_Material_Metallic-notice-board_Material_Roughness.png"
		}
	],
	"accessors":[
		{
			"bufferView":0,
			"componentType":5126,
			"count":246,
			"max":[
				2.000000238418579,
				1.3866788148880005,
				0.050000011920928955
			],
			"min":[
				-1.9999998807907104,
				-1.386678695678711,
				-0.050000011920928955
			],
			"type":"VEC3"
		},
		{
			"bufferView":1,
			"componentType":5126,
			"count":246,
			"type":"VEC3"
		},
		{
			"bufferView":2,
			"componentType":5126,
			"count":246,
			"type":"VEC2"
		},
		{
			"bufferView":3,
			"componentType":5121,
			"count":246,
			"normalized":true,
			"type":"VEC4"
		},
		{
			"bufferView":4,
			"componentType":5123,
			"count":246,
			"normalized":true,
			"type":"VEC4"
		},
		{
			"bufferView":5,
			"componentType":5123,
			"count":564,
			"type":"SCALAR"
		},
		{
			"bufferView":6,
			"componentType":5126,
			"count":33,
			"max":[
				0.16090476512908936,
				1.2642680406570435,
				0.16090476512908936
			],
			"min":[
				-0.16090476512908936,
				-3.121420383453369,
				-0.16090476512908936
			],
			"type":"VEC3"
		},
		{
			"bufferView":7,
			"componentType":5126,
			"count":33,
			"type":"VEC3"
		},
		{
			"bufferView":8,
			"componentType":5126,
			"count":33,
			"type":"VEC2"
		},
		{
			"bufferView":9,
			"componentType":5121,
			"count":33,
			"normalized":true,
			"type":"VEC4"
		},
		{
			"bufferView":10,
			"componentType":5123,
			"count":33,
			"normalized":true,
			"type":"VEC4"
		},
		{
			"bufferView":11,
			"componentType":5123,
			"count":132,
			"type":"SCALAR"
		},
		{
			"bufferView":12,
			"componentType":5126,
			"count":34,
			"max":[
				0.16090476512908936,
				1.2642680406570435,
				0.16090476512908936
			],
			"min":[
				-0.16090476512908936,
				-3.121420383453369,
				-0.16090476512908936
			],
			"type":"VEC3"
		},
		{
			"bufferView":13,
			"componentType":5126,
			"count":34,
			"type":"VEC3"
		},
		{
			"bufferView":14,
			"componentType":5126,
			"count":34,
			"type":"VEC2"
		},
		{
			"bufferView":15,
			"componentType":5121,
			"count":34,
			"normalized":true,
			"type":"VEC4"
		},
		{
			"bufferView":16,
			"componentType":5123,
			"count":34,
			"normalized":true,
			"type":"VEC4"
		},
		{
			"bufferView":17,
			"componentType":5123,
			"count":132,
			"type":"SCALAR"
		},
		{
			"bufferView":18,
			"componentType":5126,
			"count":58,
			"max":[
				2.5966639518737793,
				0.18804843723773956,
				0.07542672008275986
			],
			"min":[
				-2.5966639518737793,
				-0.18804843723773956,
				-0.07542672008275986
			],
			"type":"VEC3"
		},
		{
			"bufferView":19,
			"componentType":5126,
			"count":58,
			"type":"VEC3"
		},
		{
			"bufferView":20,
			"componentType":5126,
			"count":58,
			"type":"VEC2"
		},
		{
			"bufferView":21,
			"componentType":5121,
			"count":58,
			"normalized":true,
			"type":"VEC4"
		},
		{
			"bufferView":22,
			"componentType":5123,
			"count":58,
			"normalized":true,
			"type":"VEC4"
		},
		{
			"bufferView":23,
			"componentType":5123,
			"count":132,
			"type":"SCALAR"
		},
		{
			"bufferView":24,
			"componentType":5126,
			"count":2702,
			"max":[
				0.4405517876148224,
				0.36719802021980286,
				0.4428812861442566
			],
			"min":[
				-4.464958190917969,
				-3.453672409057617,
				-0.2027507722377777
			],
			"type":"VEC3"
		},
		{
			"bufferView":25,
			"componentType":5126,
			"count":2702,
			"type":"VEC3"
		},
		{
			"bufferView":26,
			"componentType":5126,
			"count":2702,
			"type":"VEC2"
		},
		{
			"bufferView":27,
			"componentType":5121,
			"count":2702,
			"normalized":true,
			"type":"VEC4"
		},
		{
			"bufferView":28,
			"componentType":5123,
			"count":2702,
			"normalized":true,
			"type":"VEC4"
		},
		{
			"bufferView":29,
			"componentType":5123,
			"count":13536,
			"type":"SCALAR"
		},
		{
			"bufferView":30,
			"componentType":5126,
			"count":35,
			"max":[
				2.5966639518737793,
				0.18804843723773956,
				0.07542672008275986
			],
			"min":[
				-2.5966639518737793,
				-0.18804843723773956,
				-0.07542672008275986
			],
			"type":"VEC3"
		},
		{
			"bufferView":31,
			"componentType":5126,
			"count":35,
			"type":"VEC3"
		},
		{
			"bufferView":32,
			"componentType":5126,
			"count":35,
			"type":"VEC2"
		},
		{
			"bufferView":33,
			"componentType":5121,
			"count":35,
			"normalized":true,
			"type":"VEC4"
		},
		{
			"bufferView":34,
			"componentType":5123,
			"count":35,
			"normalized":true,
			"type":"VEC4"
		},
		{
			"bufferView":35,
			"componentType":5123,
			"count":132,
			"type":"SCALAR"
		},
		{
			"bufferView":36,
			"componentType":5126,
			"count":132,
			"max":[
				0.03560556098818779,
				0.04873378947377205,
				0.03560555726289749
			],
			"min":[
				-0.03560556098818779,
				-0.15967778861522675,
				-0.03560555726289749
			],
			"type":"VEC3"
		},
		{
			"bufferView":37,
			"componentType":5126,
			"count":132,
			"type":"VEC3"
		},
		{
			"bufferView":38,
			"componentType":5126,
			"count":132,
			"type":"VEC2"
		},
		{
			"bufferView":39,
			"componentType":5121,
			"count":132,
			"normalized":true,
			"type":"VEC4"
		},
		{
			"bufferView":40,
			"componentType":5123,
			"count":132,
			"normalized":true,
			"type":"VEC4"
		},
		{
			"bufferView":41,
			"componentType":5123,
			"count":426,
			"type":"SCALAR"
		},
		{
			"bufferView":42,
			"componentType":5126,
			"count":132,
			"max":[
				0.03560556098818779,
				0.04873378947377205,
				0.03560555726289749
			],
			"min":[
				-0.03560556098818779,
				-0.15967778861522675,
				-0.03560555726289749
			],
			"type":"VEC3"
		},
		{
			"bufferView":43,
			"componentType":5126,
			"count":132,
			"type":"VEC3"
		},
		{
			"bufferView":44,
			"componentType":5126,
			"count":132,
			"type":"VEC2"
		},
		{
			"bufferView":45,
			"componentType":5121,
			"count":132,
			"normalized":true,
			"type":"VEC4"
		},
		{
			"bufferView":46,
			"componentType":5123,
			"count":132,
			"normalized":true,
			"type":"VEC4"
		},
		{
			"bufferView":47,
			"componentType":5126,
			"count":132,
			"max":[
				0.03560556098818779,
				0.04873378947377205,
				0.03560555726289749
			],
			"min":[
				-0.03560556098818779,
				-0.15967778861522675,
				-0.03560555726289749
			],
			"type":"VEC3"
		},
		{
			"bufferView":48,
			"componentType":5126,
			"count":132,
			"type":"VEC3"
		},
		{
			"bufferView":49,
			"componentType":5126,
			"count":132,
			"type":"VEC2"
		},
		{
			"bufferView":50,
			"componentType":5121,
			"count":132,
			"normalized":true,
			"type":"VEC4"
		},
		{
			"bufferView":51,
			"componentType":5123,
			"count":132,
			"normalized":true,
			"type":"VEC4"
		},
		{
			"bufferView":52,
			"componentType":5123,
			"count":426,
			"type":"SCALAR"
		},
		{
			"bufferView":53,
			"componentType":5126,
			"count":132,
			"max":[
				0.03560556098818779,
				0.04873378947377205,
				0.03560555726289749
			],
			"min":[
				-0.03560556098818779,
				-0.15967778861522675,
				-0.03560555726289749
			],
			"type":"VEC3"
		},
		{
			"bufferView":54,
			"componentType":5126,
			"count":132,
			"type":"VEC3"
		},
		{
			"bufferView":55,
			"componentType":5126,
			"count":132,
			"type":"VEC2"
		},
		{
			"bufferView":56,
			"componentType":5121,
			"count":132,
			"normalized":true,
			"type":"VEC4"
		},
		{
			"bufferView":57,
			"componentType":5123,
			"count":132,
			"normalized":true,
			"type":"VEC4"
		},
		{
			"bufferView":58,
			"componentType":5126,
			"count":132,
			"max":[
				0.03560556098818779,
				0.04873378947377205,
				0.03560555726289749
			],
			"min":[
				-0.03560556098818779,
				-0.15967778861522675,
				-0.03560555726289749
			],
			"type":"VEC3"
		},
		{
			"bufferView":59,
			"componentType":5126,
			"count":132,
			"type":"VEC3"
		},
		{
			"bufferView":60,
			"componentType":5126,
			"count":132,
			"type":"VEC2"
		},
		{
			"bufferView":61,
			"componentType":5121,
			"count":132,
			"normalized":true,
			"type":"VEC4"
		},
		{
			"bufferView":62,
			"componentType":5123,
			"count":132,
			"normalized":true,
			"type":"VEC4"
		},
		{
			"bufferView":63,
			"componentType":5126,
			"count":132,
			"max":[
				0.03560555726289749,
				0.04873378574848175,
				0.03560555726289749
			],
			"min":[
				-0.03560555726289749,
				-0.15967777371406555,
				-0.03560555726289749
			],
			"type":"VEC3"
		},
		{
			"bufferView":64,
			"componentType":5126,
			"count":132,
			"type":"VEC3"
		},
		{
			"bufferView":65,
			"componentType":5126,
			"count":132,
			"type":"VEC2"
		},
		{
			"bufferView":66,
			"componentType":5121,
			"count":132,
			"normalized":true,
			"type":"VEC4"
		},
		{
			"bufferView":67,
			"componentType":5123,
			"count":132,
			"normalized":true,
			"type":"VEC4"
		},
		{
			"bufferView":68,
			"componentType":5126,
			"count":132,
			"max":[
				0.03560556098818779,
				0.04873378947377205,
				0.03560555353760719
			],
			"min":[
				-0.03560556098818779,
				-0.15967778861522675,
				-0.03560555353760719
			],
			"type":"VEC3"
		},
		{
			"bufferView":69,
			"componentType":5126,
			"count":132,
			"type":"VEC3"
		},
		{
			"bufferView":70,
			"componentType":5126,
			"count":132,
			"type":"VEC2"
		},
		{
			"bufferView":71,
			"componentType":5121,
			"count":132,
			"normalized":true,
			"type":"VEC4"
		},
		{
			"bufferView":72,
			"componentType":5123,
			"count":132,
			"normalized":true,
			"type":"VEC4"
		},
		{
			"bufferView":73,
			"componentType":5123,
			"count":426,
			"type":"SCALAR"
		},
		{
			"bufferView":74,
			"componentType":5126,
			"count":132,
			"max":[
				0.03560556098818779,
				0.04873378947377205,
				0.03560555726289749
			],
			"min":[
				-0.03560556098818779,
				-0.15967778861522675,
				-0.03560555726289749
			],
			"type":"VEC3"
		},
		{
			"bufferView":75,
			"componentType":5126,
			"count":132,
			"type":"VEC3"
		},
		{
			"bufferView":76,
			"componentType":5126,
			"count":132,
			"type":"VEC2"
		},
		{
			"bufferView":77,
			"componentType":5121,
			"count":132,
			"normalized":true,
			"type":"VEC4"
		},
		{
			"bufferView":78,
			"componentType":5123,
			"count":132,
			"normalized":true,
			"type":"VEC4"
		},
		{
			"bufferView":79,
			"componentType":5123,
			"count":426,
			"type":"SCALAR"
		},
		{
			"bufferView":80,
			"componentType":5126,
			"count":132,
			"max":[
				0.03560556098818779,
				0.04873378947377205,
				0.03560555726289749
			],
			"min":[
				-0.03560556098818779,
				-0.15967778861522675,
				-0.03560555726289749
			],
			"type":"VEC3"
		},
		{
			"bufferView":81,
			"componentType":5126,
			"count":132,
			"type":"VEC3"
		},
		{
			"bufferView":82,
			"componentType":5126,
			"count":132,
			"type":"VEC2"
		},
		{
			"bufferView":83,
			"componentType":5121,
			"count":132,
			"normalized":true,
			"type":"VEC4"
		},
		{
			"bufferView":84,
			"componentType":5123,
			"count":132,
			"normalized":true,
			"type":"VEC4"
		},
		{
			"bufferView":85,
			"componentType":5126,
			"count":132,
			"max":[
				0.03560556098818779,
				0.04873378947377205,
				0.03560555726289749
			],
			"min":[
				-0.03560556098818779,
				-0.15967778861522675,
				-0.03560555726289749
			],
			"type":"VEC3"
		},
		{
			"bufferView":86,
			"componentType":5126,
			"count":132,
			"type":"VEC3"
		},
		{
			"bufferView":87,
			"componentType":5126,
			"count":132,
			"type":"VEC2"
		},
		{
			"bufferView":88,
			"componentType":5121,
			"count":132,
			"normalized":true,
			"type":"VEC4"
		},
		{
			"bufferView":89,
			"componentType":5123,
			"count":132,
			"normalized":true,
			"type":"VEC4"
		},
		{
			"bufferView":90,
			"componentType":5126,
			"count":132,
			"max":[
				0.018716687336564064,
				0.025617770850658417,
				0.018716685473918915
			],
			"min":[
				-0.018716687336564064,
				-0.08393742889165878,
				-0.018716685473918915
			],
			"type":"VEC3"
		},
		{
			"bufferView":91,
			"componentType":5126,
			"count":132,
			"type":"VEC3"
		},
		{
			"bufferView":92,
			"componentType":5126,
			"count":132,
			"type":"VEC2"
		},
		{
			"bufferView":93,
			"componentType":5121,
			"count":132,
			"normalized":true,
			"type":"VEC4"
		},
		{
			"bufferView":94,
			"componentType":5123,
			"count":132,
			"normalized":true,
			"type":"VEC4"
		},
		{
			"bufferView":95,
			"componentType":5126,
			"count":132,
			"max":[
				0.011378760449588299,
				0.015574256889522076,
				0.011378759518265724
			],
			"min":[
				-0.011378760449588299,
				-0.05102954059839249,
				-0.011378759518265724
			],
			"type":"VEC3"
		},
		{
			"bufferView":96,
			"componentType":5126,
			"count":132,
			"type":"VEC3"
		},
		{
			"bufferView":97,
			"componentType":5126,
			"count":132,
			"type":"VEC2"
		},
		{
			"bufferView":98,
			"componentType":5121,
			"count":132,
			"normalized":true,
			"type":"VEC4"
		},
		{
			"bufferView":99,
			"componentType":5123,
			"count":132,
			"normalized":true,
			"type":"VEC4"
		},
		{
			"bufferView":100,
			"componentType":5126,
			"count":132,
			"max":[
				0.011378760449588299,
				0.015574256889522076,
				0.011378759518265724
			],
			"min":[
				-0.011378760449588299,
				-0.05102954059839249,
				-0.011378759518265724
			],
			"type":"VEC3"
		},
		{
			"bufferView":101,
			"componentType":5126,
			"count":132,
			"type":"VEC3"
		},
		{
			"bufferView":102,
			"componentType":5126,
			"count":132,
			"type":"VEC2"
		},
		{
			"bufferView":103,
			"componentType":5121,
			"count":132,
			"normalized":true,
			"type":"VEC4"
		},
		{
			"bufferView":104,
			"componentType":5123,
			"count":132,
			"normalized":true,
			"type":"VEC4"
		},
		{
			"bufferView":105,
			"componentType":5126,
			"count":132,
			"max":[
				0.018716687336564064,
				0.025617770850658417,
				0.018716685473918915
			],
			"min":[
				-0.018716687336564064,
				-0.08393742889165878,
				-0.018716685473918915
			],
			"type":"VEC3"
		},
		{
			"bufferView":106,
			"componentType":5126,
			"count":132,
			"type":"VEC3"
		},
		{
			"bufferView":107,
			"componentType":5126,
			"count":132,
			"type":"VEC2"
		},
		{
			"bufferView":108,
			"componentType":5121,
			"count":132,
			"normalized":true,
			"type":"VEC4"
		},
		{
			"bufferView":109,
			"componentType":5123,
			"count":132,
			"normalized":true,
			"type":"VEC4"
		},
		{
			"bufferView":110,
			"componentType":5126,
			"count":132,
			"max":[
				0.03560556098818779,
				0.04873378947377205,
				0.03560555726289749
			],
			"min":[
				-0.03560556098818779,
				-0.15967778861522675,
				-0.03560555726289749
			],
			"type":"VEC3"
		},
		{
			"bufferView":111,
			"componentType":5126,
			"count":132,
			"type":"VEC3"
		},
		{
			"bufferView":112,
			"componentType":5126,
			"count":132,
			"type":"VEC2"
		},
		{
			"bufferView":113,
			"componentType":5121,
			"count":132,
			"normalized":true,
			"type":"VEC4"
		},
		{
			"bufferView":114,
			"componentType":5123,
			"count":132,
			"normalized":true,
			"type":"VEC4"
		},
		{
			"bufferView":115,
			"componentType":5126,
			"count":59,
			"max":[
				0.6842441558837891,
				0.12828856706619263,
				0.9999998807907104
			],
			"min":[
				-0.6833751201629639,
				-0.012500002048909664,
				-1.0050718784332275
			],
			"type":"VEC3"
		},
		{
			"bufferView":116,
			"componentType":5126,
			"count":59,
			"type":"VEC3"
		},
		{
			"bufferView":117,
			"componentType":5126,
			"count":59,
			"type":"VEC2"
		},
		{
			"bufferView":118,
			"componentType":5121,
			"count":59,
			"normalized":true,
			"type":"VEC4"
		},
		{
			"bufferView":119,
			"componentType":5123,
			"count":59,
			"normalized":true,
			"type":"VEC4"
		},
		{
			"bufferView":120,
			"componentType":5123,
			"count":123,
			"type":"SCALAR"
		},
		{
			"bufferView":121,
			"componentType":5126,
			"count":59,
			"max":[
				0.6833752393722534,
				1,
				0.12523159384727478
			],
			"min":[
				-0.7049635648727417,
				-1.002211332321167,
				-0.012500043958425522
			],
			"type":"VEC3"
		},
		{
			"bufferView":122,
			"componentType":5126,
			"count":59,
			"type":"VEC3"
		},
		{
			"bufferView":123,
			"componentType":5126,
			"count":59,
			"type":"VEC2"
		},
		{
			"bufferView":124,
			"componentType":5121,
			"count":59,
			"normalized":true,
			"type":"VEC4"
		},
		{
			"bufferView":125,
			"componentType":5123,
			"count":59,
			"normalized":true,
			"type":"VEC4"
		},
		{
			"bufferView":126,
			"componentType":5123,
			"count":123,
			"type":"SCALAR"
		},
		{
			"bufferView":127,
			"componentType":5126,
			"count":59,
			"max":[
				0.2946600914001465,
				0.24269185960292816,
				0.05399777367711067
			],
			"min":[
				-0.303968608379364,
				-0.24322852492332458,
				-0.005389810539782047
			],
			"type":"VEC3"
		},
		{
			"bufferView":128,
			"componentType":5126,
			"count":59,
			"type":"VEC3"
		},
		{
			"bufferView":129,
			"componentType":5126,
			"count":59,
			"type":"VEC2"
		},
		{
			"bufferView":130,
			"componentType":5121,
			"count":59,
			"normalized":true,
			"type":"VEC4"
		},
		{
			"bufferView":131,
			"componentType":5123,
			"count":59,
			"normalized":true,
			"type":"VEC4"
		},
		{
			"bufferView":132,
			"componentType":5123,
			"count":123,
			"type":"SCALAR"
		},
		{
			"bufferView":133,
			"componentType":5126,
			"count":25,
			"max":[
				0.19999997317790985,
				0.08949735015630722,
				0.003037538379430771
			],
			"min":[
				-0.19999997317790985,
				-0.3397171199321747,
				-0.06717975437641144
			],
			"type":"VEC3"
		},
		{
			"bufferView":134,
			"componentType":5126,
			"count":25,
			"type":"VEC3"
		},
		{
			"bufferView":135,
			"componentType":5126,
			"count":25,
			"type":"VEC2"
		},
		{
			"bufferView":136,
			"componentType":5121,
			"count":25,
			"normalized":true,
			"type":"VEC4"
		},
		{
			"bufferView":137,
			"componentType":5123,
			"count":25,
			"normalized":true,
			"type":"VEC4"
		},
		{
			"bufferView":138,
			"componentType":5123,
			"count":90,
			"type":"SCALAR"
		},
		{
			"bufferView":139,
			"componentType":5126,
			"count":25,
			"max":[
				0.19999997317790985,
				0.08949735015630722,
				0.003227401291951537
			],
			"min":[
				-0.19999997317790985,
				-0.3397171199321747,
				-0.07137885689735413
			],
			"type":"VEC3"
		},
		{
			"bufferView":140,
			"componentType":5126,
			"count":25,
			"type":"VEC3"
		},
		{
			"bufferView":141,
			"componentType":5126,
			"count":25,
			"type":"VEC2"
		},
		{
			"bufferView":142,
			"componentType":5121,
			"count":25,
			"normalized":true,
			"type":"VEC4"
		},
		{
			"bufferView":143,
			"componentType":5123,
			"count":25,
			"normalized":true,
			"type":"VEC4"
		},
		{
			"bufferView":144,
			"componentType":5126,
			"count":25,
			"max":[
				0.19999997317790985,
				0.08949735015630722,
				0.003248936031013727
			],
			"min":[
				-0.19999997317790985,
				-0.3397171199321747,
				-0.07185513526201248
			],
			"type":"VEC3"
		},
		{
			"bufferView":145,
			"componentType":5126,
			"count":25,
			"type":"VEC3"
		},
		{
			"bufferView":146,
			"componentType":5126,
			"count":25,
			"type":"VEC2"
		},
		{
			"bufferView":147,
			"componentType":5121,
			"count":25,
			"normalized":true,
			"type":"VEC4"
		},
		{
			"bufferView":148,
			"componentType":5123,
			"count":25,
			"normalized":true,
			"type":"VEC4"
		},
		{
			"bufferView":149,
			"componentType":5126,
			"count":25,
			"max":[
				0.20000335574150085,
				0.08949737250804901,
				0.0030832327902317047
			],
			"min":[
				-0.20000335574150085,
				-0.33971720933914185,
				-0.06819035112857819
			],
			"type":"VEC3"
		},
		{
			"bufferView":150,
			"componentType":5126,
			"count":25,
			"type":"VEC3"
		},
		{
			"bufferView":151,
			"componentType":5126,
			"count":25,
			"type":"VEC2"
		},
		{
			"bufferView":152,
			"componentType":5121,
			"count":25,
			"normalized":true,
			"type":"VEC4"
		},
		{
			"bufferView":153,
			"componentType":5123,
			"count":25,
			"normalized":true,
			"type":"VEC4"
		},
		{
			"bufferView":154,
			"componentType":5126,
			"count":25,
			"max":[
				0.19999997317790985,
				0.08949735015630722,
				0.0035184938460588455
			],
			"min":[
				-0.19999997317790985,
				-0.3397171199321747,
				-0.07781680673360825
			],
			"type":"VEC3"
		},
		{
			"bufferView":155,
			"componentType":5126,
			"count":25,
			"type":"VEC3"
		},
		{
			"bufferView":156,
			"componentType":5126,
			"count":25,
			"type":"VEC2"
		},
		{
			"bufferView":157,
			"componentType":5121,
			"count":25,
			"normalized":true,
			"type":"VEC4"
		},
		{
			"bufferView":158,
			"componentType":5123,
			"count":25,
			"normalized":true,
			"type":"VEC4"
		},
		{
			"bufferView":159,
			"componentType":5126,
			"count":25,
			"max":[
				0.19999997317790985,
				0.08949735015630722,
				0.0032328166998922825
			],
			"min":[
				-0.19999997317790985,
				-0.3397171199321747,
				-0.07149862498044968
			],
			"type":"VEC3"
		},
		{
			"bufferView":160,
			"componentType":5126,
			"count":25,
			"type":"VEC3"
		},
		{
			"bufferView":161,
			"componentType":5126,
			"count":25,
			"type":"VEC2"
		},
		{
			"bufferView":162,
			"componentType":5121,
			"count":25,
			"normalized":true,
			"type":"VEC4"
		},
		{
			"bufferView":163,
			"componentType":5123,
			"count":25,
			"normalized":true,
			"type":"VEC4"
		},
		{
			"bufferView":164,
			"componentType":5126,
			"count":25,
			"max":[
				0.19999994337558746,
				0.08949733525514603,
				0.003461016109213233
			],
			"min":[
				-0.19999994337558746,
				-0.3397170603275299,
				-0.0765456035733223
			],
			"type":"VEC3"
		},
		{
			"bufferView":165,
			"componentType":5126,
			"count":25,
			"type":"VEC3"
		},
		{
			"bufferView":166,
			"componentType":5126,
			"count":25,
			"type":"VEC2"
		},
		{
			"bufferView":167,
			"componentType":5121,
			"count":25,
			"normalized":true,
			"type":"VEC4"
		},
		{
			"bufferView":168,
			"componentType":5123,
			"count":25,
			"normalized":true,
			"type":"VEC4"
		},
		{
			"bufferView":169,
			"componentType":5126,
			"count":59,
			"max":[
				0.23141832649707794,
				0.0433884896337986,
				0.3382101058959961
			],
			"min":[
				-0.2311244159936905,
				-0.004227627068758011,
				-0.3399255573749542
			],
			"type":"VEC3"
		},
		{
			"bufferView":170,
			"componentType":5126,
			"count":59,
			"type":"VEC3"
		},
		{
			"bufferView":171,
			"componentType":5126,
			"count":59,
			"type":"VEC2"
		},
		{
			"bufferView":172,
			"componentType":5121,
			"count":59,
			"normalized":true,
			"type":"VEC4"
		},
		{
			"bufferView":173,
			"componentType":5123,
			"count":59,
			"normalized":true,
			"type":"VEC4"
		},
		{
			"bufferView":174,
			"componentType":5123,
			"count":123,
			"type":"SCALAR"
		},
		{
			"bufferView":175,
			"componentType":5126,
			"count":193,
			"max":[
				0.14878161251544952,
				0.02789497748017311,
				0.21743932366371155
			],
			"min":[
				-0.14859265089035034,
				-0.002718001836910844,
				-0.2185422033071518
			],
			"type":"VEC3"
		},
		{
			"bufferView":176,
			"componentType":5126,
			"count":193,
			"type":"VEC3"
		},
		{
			"bufferView":177,
			"componentType":5126,
			"count":193,
			"type":"VEC2"
		},
		{
			"bufferView":178,
			"componentType":5121,
			"count":193,
			"normalized":true,
			"type":"VEC4"
		},
		{
			"bufferView":179,
			"componentType":5123,
			"count":193,
			"normalized":true,
			"type":"VEC4"
		},
		{
			"bufferView":180,
			"componentType":5123,
			"count":393,
			"type":"SCALAR"
		},
		{
			"bufferView":181,
			"componentType":5126,
			"count":24,
			"max":[
				2.5891640186309814,
				2.0196328163146973,
				0.10360772907733917
			],
			"min":[
				-2.5891640186309814,
				-2.1910555362701416,
				-0.09632641077041626
			],
			"type":"VEC3"
		},
		{
			"bufferView":182,
			"componentType":5126,
			"count":24,
			"type":"VEC3"
		},
		{
			"bufferView":183,
			"componentType":5126,
			"count":24,
			"type":"VEC2"
		},
		{
			"bufferView":184,
			"componentType":5123,
			"count":36,
			"type":"SCALAR"
		},
		{
			"bufferView":185,
			"componentType":5126,
			"count":24,
			"max":[
				0.21029029786586761,
				2.1946635246276855,
				0.22844046354293823
			],
			"min":[
				-0.2102903127670288,
				-2.1910555362701416,
				-0.2211591601371765
			],
			"type":"VEC3"
		},
		{
			"bufferView":186,
			"componentType":5126,
			"count":24,
			"type":"VEC3"
		},
		{
			"bufferView":187,
			"componentType":5126,
			"count":24,
			"type":"VEC2"
		},
		{
			"bufferView":188,
			"componentType":5126,
			"count":24,
			"max":[
				0.17558300495147705,
				2.1946635246276855,
				0.22844047844409943
			],
			"min":[
				-0.17558299005031586,
				-2.1910555362701416,
				-0.22115914523601532
			],
			"type":"VEC3"
		},
		{
			"bufferView":189,
			"componentType":5126,
			"count":24,
			"type":"VEC3"
		},
		{
			"bufferView":190,
			"componentType":5126,
			"count":24,
			"type":"VEC2"
		},
		{
			"bufferView":191,
			"componentType":5123,
			"count":36,
			"type":"SCALAR"
		},
		{
			"bufferView":192,
			"componentType":5126,
			"count":24,
			"max":[
				0.4102799892425537,
				2.576022148132324,
				0.2983855605125427
			],
			"min":[
				-0.2102903127670288,
				-2.5717873573303223,
				-0.2211591601371765
			],
			"type":"VEC3"
		},
		{
			"bufferView":193,
			"componentType":5126,
			"count":24,
			"type":"VEC3"
		},
		{
			"bufferView":194,
			"componentType":5126,
			"count":24,
			"type":"VEC2"
		}
	],
	"bufferViews":[
		{
			"buffer":0,
			"byteLength":2952,
			"byteOffset":0,
			"target":34962
		},
		{
			"buffer":0,
			"byteLength":2952,
			"byteOffset":2952,
			"target":34962
		},
		{
			"buffer":0,
			"byteLength":1968,
			"byteOffset":5904,
			"target":34962
		},
		{
			"buffer":0,
			"byteLength":984,
			"byteOffset":7872,
			"target":34962
		},
		{
			"buffer":0,
			"byteLength":1968,
			"byteOffset":8856,
			"target":34962
		},
		{
			"buffer":0,
			"byteLength":1128,
			"byteOffset":10824,
			"target":34963
		},
		{
			"buffer":0,
			"byteLength":396,
			"byteOffset":11952,
			"target":34962
		},
		{
			"buffer":0,
			"byteLength":396,
			"byteOffset":12348,
			"target":34962
		},
		{
			"buffer":0,
			"byteLength":264,
			"byteOffset":12744,
			"target":34962
		},
		{
			"buffer":0,
			"byteLength":132,
			"byteOffset":13008,
			"target":34962
		},
		{
			"buffer":0,
			"byteLength":264,
			"byteOffset":13140,
			"target":34962
		},
		{
			"buffer":0,
			"byteLength":264,
			"byteOffset":13404,
			"target":34963
		},
		{
			"buffer":0,
			"byteLength":408,
			"byteOffset":13668,
			"target":34962
		},
		{
			"buffer":0,
			"byteLength":408,
			"byteOffset":14076,
			"target":34962
		},
		{
			"buffer":0,
			"byteLength":272,
			"byteOffset":14484,
			"target":34962
		},
		{
			"buffer":0,
			"byteLength":136,
			"byteOffset":14756,
			"target":34962
		},
		{
			"buffer":0,
			"byteLength":272,
			"byteOffset":14892,
			"target":34962
		},
		{
			"buffer":0,
			"byteLength":264,
			"byteOffset":15164,
			"target":34963
		},
		{
			"buffer":0,
			"byteLength":696,
			"byteOffset":15428,
			"target":34962
		},
		{
			"buffer":0,
			"byteLength":696,
			"byteOffset":16124,
			"target":34962
		},
		{
			"buffer":0,
			"byteLength":464,
			"byteOffset":16820,
			"target":34962
		},
		{
			"buffer":0,
			"byteLength":232,
			"byteOffset":17284,
			"target":34962
		},
		{
			"buffer":0,
			"byteLength":464,
			"byteOffset":17516,
			"target":34962
		},
		{
			"buffer":0,
			"byteLength":264,
			"byteOffset":17980,
			"target":34963
		},
		{
			"buffer":0,
			"byteLength":32424,
			"byteOffset":18244,
			"target":34962
		},
		{
			"buffer":0,
			"byteLength":32424,
			"byteOffset":50668,
			"target":34962
		},
		{
			"buffer":0,
			"byteLength":21616,
			"byteOffset":83092,
			"target":34962
		},
		{
			"buffer":0,
			"byteLength":10808,
			"byteOffset":104708,
			"target":34962
		},
		{
			"buffer":0,
			"byteLength":21616,
			"byteOffset":115516,
			"target":34962
		},
		{
			"buffer":0,
			"byteLength":27072,
			"byteOffset":137132,
			"target":34963
		},
		{
			"buffer":0,
			"byteLength":420,
			"byteOffset":164204,
			"target":34962
		},
		{
			"buffer":0,
			"byteLength":420,
			"byteOffset":164624,
			"target":34962
		},
		{
			"buffer":0,
			"byteLength":280,
			"byteOffset":165044,
			"target":34962
		},
		{
			"buffer":0,
			"byteLength":140,
			"byteOffset":165324,
			"target":34962
		},
		{
			"buffer":0,
			"byteLength":280,
			"byteOffset":165464,
			"target":34962
		},
		{
			"buffer":0,
			"byteLength":264,
			"byteOffset":165744,
			"target":34963
		},
		{
			"buffer":0,
			"byteLength":1584,
			"byteOffset":166008,
			"target":34962
		},
		{
			"buffer":0,
			"byteLength":1584,
			"byteOffset":167592,
			"target":34962
		},
		{
			"buffer":0,
			"byteLength":1056,
			"byteOffset":169176,
			"target":34962
		},
		{
			"buffer":0,
			"byteLength":528,
			"byteOffset":170232,
			"target":34962
		},
		{
			"buffer":0,
			"byteLength":1056,
			"byteOffset":170760,
			"target":34962
		},
		{
			"buffer":0,
			"byteLength":852,
			"byteOffset":171816,
			"target":34963
		},
		{
			"buffer":0,
			"byteLength":1584,
			"byteOffset":172668,
			"target":34962
		},
		{
			"buffer":0,
			"byteLength":1584,
			"byteOffset":174252,
			"target":34962
		},
		{
			"buffer":0,
			"byteLength":1056,
			"byteOffset":175836,
			"target":34962
		},
		{
			"buffer":0,
			"byteLength":528,
			"byteOffset":176892,
			"target":34962
		},
		{
			"buffer":0,
			"byteLength":1056,
			"byteOffset":177420,
			"target":34962
		},
		{
			"buffer":0,
			"byteLength":1584,
			"byteOffset":178476,
			"target":34962
		},
		{
			"buffer":0,
			"byteLength":1584,
			"byteOffset":180060,
			"target":34962
		},
		{
			"buffer":0,
			"byteLength":1056,
			"byteOffset":181644,
			"target":34962
		},
		{
			"buffer":0,
			"byteLength":528,
			"byteOffset":182700,
			"target":34962
		},
		{
			"buffer":0,
			"byteLength":1056,
			"byteOffset":183228,
			"target":34962
		},
		{
			"buffer":0,
			"byteLength":852,
			"byteOffset":184284,
			"target":34963
		},
		{
			"buffer":0,
			"byteLength":1584,
			"byteOffset":185136,
			"target":34962
		},
		{
			"buffer":0,
			"byteLength":1584,
			"byteOffset":186720,
			"target":34962
		},
		{
			"buffer":0,
			"byteLength":1056,
			"byteOffset":188304,
			"target":34962
		},
		{
			"buffer":0,
			"byteLength":528,
			"byteOffset":189360,
			"target":34962
		},
		{
			"buffer":0,
			"byteLength":1056,
			"byteOffset":189888,
			"target":34962
		},
		{
			"buffer":0,
			"byteLength":1584,
			"byteOffset":190944,
			"target":34962
		},
		{
			"buffer":0,
			"byteLength":1584,
			"byteOffset":192528,
			"target":34962
		},
		{
			"buffer":0,
			"byteLength":1056,
			"byteOffset":194112,
			"target":34962
		},
		{
			"buffer":0,
			"byteLength":528,
			"byteOffset":195168,
			"target":34962
		},
		{
			"buffer":0,
			"byteLength":1056,
			"byteOffset":195696,
			"target":34962
		},
		{
			"buffer":0,
			"byteLength":1584,
			"byteOffset":196752,
			"target":34962
		},
		{
			"buffer":0,
			"byteLength":1584,
			"byteOffset":198336,
			"target":34962
		},
		{
			"buffer":0,
			"byteLength":1056,
			"byteOffset":199920,
			"target":34962
		},
		{
			"buffer":0,
			"byteLength":528,
			"byteOffset":200976,
			"target":34962
		},
		{
			"buffer":0,
			"byteLength":1056,
			"byteOffset":201504,
			"target":34962
		},
		{
			"buffer":0,
			"byteLength":1584,
			"byteOffset":202560,
			"target":34962
		},
		{
			"buffer":0,
			"byteLength":1584,
			"byteOffset":204144,
			"target":34962
		},
		{
			"buffer":0,
			"byteLength":1056,
			"byteOffset":205728,
			"target":34962
		},
		{
			"buffer":0,
			"byteLength":528,
			"byteOffset":206784,
			"target":34962
		},
		{
			"buffer":0,
			"byteLength":1056,
			"byteOffset":207312,
			"target":34962
		},
		{
			"buffer":0,
			"byteLength":852,
			"byteOffset":208368,
			"target":34963
		},
		{
			"buffer":0,
			"byteLength":1584,
			"byteOffset":209220,
			"target":34962
		},
		{
			"buffer":0,
			"byteLength":1584,
			"byteOffset":210804,
			"target":34962
		},
		{
			"buffer":0,
			"byteLength":1056,
			"byteOffset":212388,
			"target":34962
		},
		{
			"buffer":0,
			"byteLength":528,
			"byteOffset":213444,
			"target":34962
		},
		{
			"buffer":0,
			"byteLength":1056,
			"byteOffset":213972,
			"target":34962
		},
		{
			"buffer":0,
			"byteLength":852,
			"byteOffset":215028,
			"target":34963
		},
		{
			"buffer":0,
			"byteLength":1584,
			"byteOffset":215880,
			"target":34962
		},
		{
			"buffer":0,
			"byteLength":1584,
			"byteOffset":217464,
			"target":34962
		},
		{
			"buffer":0,
			"byteLength":1056,
			"byteOffset":219048,
			"target":34962
		},
		{
			"buffer":0,
			"byteLength":528,
			"byteOffset":220104,
			"target":34962
		},
		{
			"buffer":0,
			"byteLength":1056,
			"byteOffset":220632,
			"target":34962
		},
		{
			"buffer":0,
			"byteLength":1584,
			"byteOffset":221688,
			"target":34962
		},
		{
			"buffer":0,
			"byteLength":1584,
			"byteOffset":223272,
			"target":34962
		},
		{
			"buffer":0,
			"byteLength":1056,
			"byteOffset":224856,
			"target":34962
		},
		{
			"buffer":0,
			"byteLength":528,
			"byteOffset":225912,
			"target":34962
		},
		{
			"buffer":0,
			"byteLength":1056,
			"byteOffset":226440,
			"target":34962
		},
		{
			"buffer":0,
			"byteLength":1584,
			"byteOffset":227496,
			"target":34962
		},
		{
			"buffer":0,
			"byteLength":1584,
			"byteOffset":229080,
			"target":34962
		},
		{
			"buffer":0,
			"byteLength":1056,
			"byteOffset":230664,
			"target":34962
		},
		{
			"buffer":0,
			"byteLength":528,
			"byteOffset":231720,
			"target":34962
		},
		{
			"buffer":0,
			"byteLength":1056,
			"byteOffset":232248,
			"target":34962
		},
		{
			"buffer":0,
			"byteLength":1584,
			"byteOffset":233304,
			"target":34962
		},
		{
			"buffer":0,
			"byteLength":1584,
			"byteOffset":234888,
			"target":34962
		},
		{
			"buffer":0,
			"byteLength":1056,
			"byteOffset":236472,
			"target":34962
		},
		{
			"buffer":0,
			"byteLength":528,
			"byteOffset":237528,
			"target":34962
		},
		{
			"buffer":0,
			"byteLength":1056,
			"byteOffset":238056,
			"target":34962
		},
		{
			"buffer":0,
			"byteLength":1584,
			"byteOffset":239112,
			"target":34962
		},
		{
			"buffer":0,
			"byteLength":1584,
			"byteOffset":240696,
			"target":34962
		},
		{
			"buffer":0,
			"byteLength":1056,
			"byteOffset":242280,
			"target":34962
		},
		{
			"buffer":0,
			"byteLength":528,
			"byteOffset":243336,
			"target":34962
		},
		{
			"buffer":0,
			"byteLength":1056,
			"byteOffset":243864,
			"target":34962
		},
		{
			"buffer":0,
			"byteLength":1584,
			"byteOffset":244920,
			"target":34962
		},
		{
			"buffer":0,
			"byteLength":1584,
			"byteOffset":246504,
			"target":34962
		},
		{
			"buffer":0,
			"byteLength":1056,
			"byteOffset":248088,
			"target":34962
		},
		{
			"buffer":0,
			"byteLength":528,
			"byteOffset":249144,
			"target":34962
		},
		{
			"buffer":0,
			"byteLength":1056,
			"byteOffset":249672,
			"target":34962
		},
		{
			"buffer":0,
			"byteLength":1584,
			"byteOffset":250728,
			"target":34962
		},
		{
			"buffer":0,
			"byteLength":1584,
			"byteOffset":252312,
			"target":34962
		},
		{
			"buffer":0,
			"byteLength":1056,
			"byteOffset":253896,
			"target":34962
		},
		{
			"buffer":0,
			"byteLength":528,
			"byteOffset":254952,
			"target":34962
		},
		{
			"buffer":0,
			"byteLength":1056,
			"byteOffset":255480,
			"target":34962
		},
		{
			"buffer":0,
			"byteLength":708,
			"byteOffset":256536,
			"target":34962
		},
		{
			"buffer":0,
			"byteLength":708,
			"byteOffset":257244,
			"target":34962
		},
		{
			"buffer":0,
			"byteLength":472,
			"byteOffset":257952,
			"target":34962
		},
		{
			"buffer":0,
			"byteLength":236,
			"byteOffset":258424,
			"target":34962
		},
		{
			"buffer":0,
			"byteLength":472,
			"byteOffset":258660,
			"target":34962
		},
		{
			"buffer":0,
			"byteLength":246,
			"byteOffset":259132,
			"target":34963
		},
		{
			"buffer":0,
			"byteLength":708,
			"byteOffset":259380,
			"target":34962
		},
		{
			"buffer":0,
			"byteLength":708,
			"byteOffset":260088,
			"target":34962
		},
		{
			"buffer":0,
			"byteLength":472,
			"byteOffset":260796,
			"target":34962
		},
		{
			"buffer":0,
			"byteLength":236,
			"byteOffset":261268,
			"target":34962
		},
		{
			"buffer":0,
			"byteLength":472,
			"byteOffset":261504,
			"target":34962
		},
		{
			"buffer":0,
			"byteLength":246,
			"byteOffset":261976,
			"target":34963
		},
		{
			"buffer":0,
			"byteLength":708,
			"byteOffset":262224,
			"target":34962
		},
		{
			"buffer":0,
			"byteLength":708,
			"byteOffset":262932,
			"target":34962
		},
		{
			"buffer":0,
			"byteLength":472,
			"byteOffset":263640,
			"target":34962
		},
		{
			"buffer":0,
			"byteLength":236,
			"byteOffset":264112,
			"target":34962
		},
		{
			"buffer":0,
			"byteLength":472,
			"byteOffset":264348,
			"target":34962
		},
		{
			"buffer":0,
			"byteLength":246,
			"byteOffset":264820,
			"target":34963
		},
		{
			"buffer":0,
			"byteLength":300,
			"byteOffset":265068,
			"target":34962
		},
		{
			"buffer":0,
			"byteLength":300,
			"byteOffset":265368,
			"target":34962
		},
		{
			"buffer":0,
			"byteLength":200,
			"byteOffset":265668,
			"target":34962
		},
		{
			"buffer":0,
			"byteLength":100,
			"byteOffset":265868,
			"target":34962
		},
		{
			"buffer":0,
			"byteLength":200,
			"byteOffset":265968,
			"target":34962
		},
		{
			"buffer":0,
			"byteLength":180,
			"byteOffset":266168,
			"target":34963
		},
		{
			"buffer":0,
			"byteLength":300,
			"byteOffset":266348,
			"target":34962
		},
		{
			"buffer":0,
			"byteLength":300,
			"byteOffset":266648,
			"target":34962
		},
		{
			"buffer":0,
			"byteLength":200,
			"byteOffset":266948,
			"target":34962
		},
		{
			"buffer":0,
			"byteLength":100,
			"byteOffset":267148,
			"target":34962
		},
		{
			"buffer":0,
			"byteLength":200,
			"byteOffset":267248,
			"target":34962
		},
		{
			"buffer":0,
			"byteLength":300,
			"byteOffset":267448,
			"target":34962
		},
		{
			"buffer":0,
			"byteLength":300,
			"byteOffset":267748,
			"target":34962
		},
		{
			"buffer":0,
			"byteLength":200,
			"byteOffset":268048,
			"target":34962
		},
		{
			"buffer":0,
			"byteLength":100,
			"byteOffset":268248,
			"target":34962
		},
		{
			"buffer":0,
			"byteLength":200,
			"byteOffset":268348,
			"target":34962
		},
		{
			"buffer":0,
			"byteLength":300,
			"byteOffset":268548,
			"target":34962
		},
		{
			"buffer":0,
			"byteLength":300,
			"byteOffset":268848,
			"target":34962
		},
		{
			"buffer":0,
			"byteLength":200,
			"byteOffset":269148,
			"target":34962
		},
		{
			"buffer":0,
			"byteLength":100,
			"byteOffset":269348,
			"target":34962
		},
		{
			"buffer":0,
			"byteLength":200,
			"byteOffset":269448,
			"target":34962
		},
		{
			"buffer":0,
			"byteLength":300,
			"byteOffset":269648,
			"target":34962
		},
		{
			"buffer":0,
			"byteLength":300,
			"byteOffset":269948,
			"target":34962
		},
		{
			"buffer":0,
			"byteLength":200,
			"byteOffset":270248,
			"target":34962
		},
		{
			"buffer":0,
			"byteLength":100,
			"byteOffset":270448,
			"target":34962
		},
		{
			"buffer":0,
			"byteLength":200,
			"byteOffset":270548,
			"target":34962
		},
		{
			"buffer":0,
			"byteLength":300,
			"byteOffset":270748,
			"target":34962
		},
		{
			"buffer":0,
			"byteLength":300,
			"byteOffset":271048,
			"target":34962
		},
		{
			"buffer":0,
			"byteLength":200,
			"byteOffset":271348,
			"target":34962
		},
		{
			"buffer":0,
			"byteLength":100,
			"byteOffset":271548,
			"target":34962
		},
		{
			"buffer":0,
			"byteLength":200,
			"byteOffset":271648,
			"target":34962
		},
		{
			"buffer":0,
			"byteLength":300,
			"byteOffset":271848,
			"target":34962
		},
		{
			"buffer":0,
			"byteLength":300,
			"byteOffset":272148,
			"target":34962
		},
		{
			"buffer":0,
			"byteLength":200,
			"byteOffset":272448,
			"target":34962
		},
		{
			"buffer":0,
			"byteLength":100,
			"byteOffset":272648,
			"target":34962
		},
		{
			"buffer":0,
			"byteLength":200,
			"byteOffset":272748,
			"target":34962
		},
		{
			"buffer":0,
			"byteLength":708,
			"byteOffset":272948,
			"target":34962
		},
		{
			"buffer":0,
			"byteLength":708,
			"byteOffset":273656,
			"target":34962
		},
		{
			"buffer":0,
			"byteLength":472,
			"byteOffset":274364,
			"target":34962
		},
		{
			"buffer":0,
			"byteLength":236,
			"byteOffset":274836,
			"target":34962
		},
		{
			"buffer":0,
			"byteLength":472,
			"byteOffset":275072,
			"target":34962
		},
		{
			"buffer":0,
			"byteLength":246,
			"byteOffset":275544,
			"target":34963
		},
		{
			"buffer":0,
			"byteLength":2316,
			"byteOffset":275792,
			"target":34962
		},
		{
			"buffer":0,
			"byteLength":2316,
			"byteOffset":278108,
			"target":34962
		},
		{
			"buffer":0,
			"byteLength":1544,
			"byteOffset":280424,
			"target":34962
		},
		{
			"buffer":0,
			"byteLength":772,
			"byteOffset":281968,
			"target":34962
		},
		{
			"buffer":0,
			"byteLength":1544,
			"byteOffset":282740,
			"target":34962
		},
		{
			"buffer":0,
			"byteLength":786,
			"byteOffset":284284,
			"target":34963
		},
		{
			"buffer":0,
			"byteLength":288,
			"byteOffset":285072,
			"target":34962
		},
		{
			"buffer":0,
			"byteLength":288,
			"byteOffset":285360,
			"target":34962
		},
		{
			"buffer":0,
			"byteLength":192,
			"byteOffset":285648,
			"target":34962
		},
		{
			"buffer":0,
			"byteLength":72,
			"byteOffset":285840,
			"target":34963
		},
		{
			"buffer":0,
			"byteLength":288,
			"byteOffset":285912,
			"target":34962
		},
		{
			"buffer":0,
			"byteLength":288,
			"byteOffset":286200,
			"target":34962
		},
		{
			"buffer":0,
			"byteLength":192,
			"byteOffset":286488,
			"target":34962
		},
		{
			"buffer":0,
			"byteLength":288,
			"byteOffset":286680,
			"target":34962
		},
		{
			"buffer":0,
			"byteLength":288,
			"byteOffset":286968,
			"target":34962
		},
		{
			"buffer":0,
			"byteLength":192,
			"byteOffset":287256,
			"target":34962
		},
		{
			"buffer":0,
			"byteLength":72,
			"byteOffset":287448,
			"target":34963
		},
		{
			"buffer":0,
			"byteLength":288,
			"byteOffset":287520,
			"target":34962
		},
		{
			"buffer":0,
			"byteLength":288,
			"byteOffset":287808,
			"target":34962
		},
		{
			"buffer":0,
			"byteLength":192,
			"byteOffset":288096,
			"target":34962
		}
	],
	"samplers":[
		{
			"magFilter":9729,
			"minFilter":9987
		}
	],
	"buffers":[
		{
			"byteLength":288288,
			"uri":"notice-board.bin"
		}
	]
}
