{
	"asset":{
		"generator":"Khronos glTF Blender I/O v4.5.51",
		"version":"2.0"
	},
	"scene":0,
	"scenes":[
		{
			"name":"Scene",
			"nodes":[
				1
			]
		}
	],
	"nodes":[
		{
			"mesh":0,
			"name":"Pigeon_E",
			"scale":[
				2,
				2,
				2
			]
		},
		{
			"children":[
				0
			],
			"name":"Pidgeon_01.root"
		}
	],
	"animations":[
		{
			"channels":[
				{
					"sampler":0,
					"target":{
						"node":1,
						"path":"translation"
					}
				},
				{
					"sampler":1,
					"target":{
						"node":1,
						"path":"rotation"
					}
				},
				{
					"sampler":2,
					"target":{
						"node":1,
						"path":"scale"
					}
				}
			],
			"name":"Pidgeon_01.root",
			"samplers":[
				{
					"input":4,
					"interpolation":"STEP",
					"output":5
				},
				{
					"input":4,
					"interpolation":"STEP",
					"output":6
				},
				{
					"input":4,
					"interpolation":"STEP",
					"output":7
				}
			]
		},
		{
			"channels":[
				{
					"sampler":0,
					"target":{
						"node":0,
						"path":"translation"
					}
				},
				{
					"sampler":1,
					"target":{
						"node":0,
						"path":"rotation"
					}
				},
				{
					"sampler":2,
					"target":{
						"node":0,
						"path":"scale"
					}
				}
			],
			"name":"Pigeon_E",
			"samplers":[
				{
					"input":4,
					"interpolation":"STEP",
					"output":5
				},
				{
					"input":4,
					"interpolation":"STEP",
					"output":6
				},
				{
					"input":4,
					"interpolation":"STEP",
					"output":8
				}
			]
		}
	],
	"materials":[
		{
			"doubleSided":true,
			"emissiveFactor":[
				0.02500000037252903,
				0.02500000037252903,
				0.02500000037252903
			],
			"emissiveTexture":{
				"index":0
			},
			"name":"PigeonBaked",
			"pbrMetallicRoughness":{
				"baseColorTexture":{
					"index":1
				},
				"metallicFactor":0
			}
		}
	],
	"meshes":[
		{
			"name":"Pigeon_E",
			"primitives":[
				{
					"attributes":{
						"POSITION":0,
						"NORMAL":1,
						"TEXCOORD_0":2
					},
					"indices":3,
					"material":0
				}
			]
		}
	],
	"textures":[
		{
			"sampler":0,
			"source":0
		},
		{
			"sampler":0,
			"source":0
		}
	],
	"images":[
		{
			"mimeType":"image/png",
			"name":"pigeonBaked",
			"uri":"tex/pigeonBaked.png"
		}
	],
	"accessors":[
		{
			"bufferView":0,
			"componentType":5126,
			"count":622,
			"max":[
				0.25054365396499634,
				0.2216883897781372,
				0.4760638475418091
			],
			"min":[
				-0.2505618929862976,
				-0.06258943676948547,
				-0.005447410047054291
			],
			"type":"VEC3"
		},
		{
			"bufferView":1,
			"componentType":5126,
			"count":622,
			"type":"VEC3"
		},
		{
			"bufferView":2,
			"componentType":5126,
			"count":622,
			"type":"VEC2"
		},
		{
			"bufferView":3,
			"componentType":5123,
			"count":2622,
			"type":"SCALAR"
		},
		{
			"bufferView":4,
			"componentType":5126,
			"count":2,
			"max":[
				5
			],
			"min":[
				0.016666666666666666
			],
			"type":"SCALAR"
		},
		{
			"bufferView":5,
			"componentType":5126,
			"count":2,
			"type":"VEC3"
		},
		{
			"bufferView":6,
			"componentType":5126,
			"count":2,
			"type":"VEC4"
		},
		{
			"bufferView":7,
			"componentType":5126,
			"count":2,
			"type":"VEC3"
		},
		{
			"bufferView":8,
			"componentType":5126,
			"count":2,
			"type":"VEC3"
		}
	],
	"bufferViews":[
		{
			"buffer":0,
			"byteLength":7464,
			"byteOffset":0,
			"target":34962
		},
		{
			"buffer":0,
			"byteLength":7464,
			"byteOffset":7464,
			"target":34962
		},
		{
			"buffer":0,
			"byteLength":4976,
			"byteOffset":14928,
			"target":34962
		},
		{
			"buffer":0,
			"byteLength":5244,
			"byteOffset":19904,
			"target":34963
		},
		{
			"buffer":0,
			"byteLength":8,
			"byteOffset":25148
		},
		{
			"buffer":0,
			"byteLength":24,
			"byteOffset":25156
		},
		{
			"buffer":0,
			"byteLength":32,
			"byteOffset":25180
		},
		{
			"buffer":0,
			"byteLength":24,
			"byteOffset":25212
		},
		{
			"buffer":0,
			"byteLength":24,
			"byteOffset":25236
		}
	],
	"samplers":[
		{
			"magFilter":9729,
			"minFilter":9987
		}
	],
	"buffers":[
		{
			"byteLength":25260,
			"uri":"projectile01.bin"
		}
	]
}
