{
	"asset":{
		"generator":"Khronos glTF Blender I/O v4.5.51",
		"version":"2.0"
	},
	"scene":0,
	"scenes":[
		{
			"name":"Scene",
			"nodes":[
				7,
				10,
				13
			]
		}
	],
	"nodes":[
		{
			"mesh":0,
			"name":"lever.arm",
			"rotation":[
				-0.7071065902709961,
				3.4139091553697654e-07,
				0.70710688829422,
				3.413908018501388e-07
			],
			"scale":[
				0.6675254702568054,
				0.6675254702568054,
				0.6675254702568054
			],
			"translation":[
				-1.0875356615258625e-08,
				-0.4953528046607971,
				-0.03337623551487923
			]
		},
		{
			"children":[
				0
			],
			"name":"Bone.001",
			"rotation":[
				0.7071067690849304,
				-1.1520231879558196e-07,
				-1.1520231879558196e-07,
				0.7071067690849304
			]
		},
		{
			"children":[
				1
			],
			"name":"Bone"
		},
		{
			"children":[
				2
			],
			"name":"Armature",
			"translation":[
				0,
				0,
				0.04999999701976776
			]
		},
		{
			"mesh":1,
			"name":"lever._collider_box",
			"translation":[
				0,
				0,
				0.5695666074752808
			]
		},
		{
			"mesh":2,
			"name":"lever.body",
			"translation":[
				0,
				0,
				-0.01249999925494194
			]
		},
		{
			"mesh":3,
			"name":"lever.wheel",
			"rotation":[
				0,
				0,
				-0.7071068286895752,
				0.7071068286895752
			],
			"scale":[
				1.8528157472610474,
				2.324925422668457,
				1.8528157472610474
			],
			"translation":[
				0,
				0,
				0.04999999701976776
			]
		},
		{
			"children":[
				3,
				4,
				5,
				6
			],
			"name":"lever.pivot"
		},
		{
			"mesh":4,
			"name":"Cylinder.9587"
		},
		{
			"children":[
				8
			],
			"name":"Empty.004"
		},
		{
			"children":[
				9
			],
			"name":"nail.005",
			"rotation":[
				0.08865629136562347,
				-0.0939452201128006,
				-0.6253538727760315,
				0.769575834274292
			],
			"translation":[
				0.5439403653144836,
				0.047704555094242096,
				-0.05629409849643707
			]
		},
		{
			"mesh":5,
			"name":"Plane",
			"rotation":[
				-0.4266076385974884,
				-0.5529714822769165,
				0.5806982517242432,
				0.41835153102874756
			],
			"scale":[
				1.8559273481369019,
				2.640488862991333,
				1.0264697074890137
			],
			"translation":[
				-0.1089562475681305,
				0.37779295444488525,
				-0.3839845061302185
			]
		},
		{
			"children":[
				11
			],
			"mesh":6,
			"name":"Cube.052",
			"rotation":[
				-0.6359980702400208,
				0.5273083448410034,
				0.3360823094844818,
				0.45221787691116333
			],
			"scale":[
				0.29538533091545105,
				0.33318892121315,
				0.2316627949476242
			],
			"translation":[
				-0.39134910702705383,
				0.10528448224067688,
				0.24294905364513397
			]
		},
		{
			"children":[
				12
			],
			"mesh":7,
			"name":"B\u00e9zierCurve",
			"rotation":[
				0.5908145308494568,
				-0.38850775361061096,
				0.5908145904541016,
				0.3885076940059662
			],
			"scale":[
				1.5765923261642456,
				1.5765923261642456,
				1.5765923261642456
			],
			"translation":[
				0.7604058384895325,
				-0.6017382740974426,
				0.5710238814353943
			]
		}
	],
	"animations":[
		{
			"channels":[
				{
					"sampler":0,
					"target":{
						"node":2,
						"path":"translation"
					}
				},
				{
					"sampler":1,
					"target":{
						"node":2,
						"path":"rotation"
					}
				},
				{
					"sampler":2,
					"target":{
						"node":2,
						"path":"scale"
					}
				},
				{
					"sampler":3,
					"target":{
						"node":1,
						"path":"translation"
					}
				},
				{
					"sampler":4,
					"target":{
						"node":1,
						"path":"rotation"
					}
				},
				{
					"sampler":5,
					"target":{
						"node":1,
						"path":"scale"
					}
				}
			],
			"name":"LeverUp",
			"samplers":[
				{
					"input":32,
					"interpolation":"STEP",
					"output":33
				},
				{
					"input":32,
					"interpolation":"STEP",
					"output":34
				},
				{
					"input":32,
					"interpolation":"STEP",
					"output":35
				},
				{
					"input":32,
					"interpolation":"STEP",
					"output":33
				},
				{
					"input":36,
					"interpolation":"LINEAR",
					"output":37
				},
				{
					"input":32,
					"interpolation":"STEP",
					"output":38
				}
			]
		},
		{
			"channels":[
				{
					"sampler":0,
					"target":{
						"node":2,
						"path":"translation"
					}
				},
				{
					"sampler":1,
					"target":{
						"node":2,
						"path":"rotation"
					}
				},
				{
					"sampler":2,
					"target":{
						"node":2,
						"path":"scale"
					}
				},
				{
					"sampler":3,
					"target":{
						"node":1,
						"path":"translation"
					}
				},
				{
					"sampler":4,
					"target":{
						"node":1,
						"path":"rotation"
					}
				},
				{
					"sampler":5,
					"target":{
						"node":1,
						"path":"scale"
					}
				}
			],
			"name":"LeverDown",
			"samplers":[
				{
					"input":32,
					"interpolation":"STEP",
					"output":33
				},
				{
					"input":32,
					"interpolation":"STEP",
					"output":34
				},
				{
					"input":32,
					"interpolation":"STEP",
					"output":35
				},
				{
					"input":32,
					"interpolation":"STEP",
					"output":33
				},
				{
					"input":36,
					"interpolation":"LINEAR",
					"output":39
				},
				{
					"input":32,
					"interpolation":"STEP",
					"output":40
				}
			]
		}
	],
	"materials":[
		{
			"name":"Wood.Wavy.Brown",
			"normalTexture":{
				"index":0
			},
			"pbrMetallicRoughness":{
				"baseColorTexture":{
					"index":1
				},
				"metallicFactor":0,
				"roughnessFactor":0.5
			}
		},
		{
			"name":"Wood_InteriorFloor_v02_Mat",
			"normalTexture":{
				"index":2
			},
			"pbrMetallicRoughness":{
				"baseColorTexture":{
					"index":3
				},
				"metallicFactor":0,
				"roughnessFactor":0.5
			}
		},
		{
			"name":"ClockTower_Metal_v01_Mat",
			"normalTexture":{
				"index":4
			},
			"pbrMetallicRoughness":{
				"baseColorTexture":{
					"index":5
				},
				"metallicRoughnessTexture":{
					"index":6
				}
			}
		},
		{
			"name":"Metal.Black.Rough",
			"pbrMetallicRoughness":{
				"baseColorFactor":[
					0.027477208524942398,
					0.027477208524942398,
					0.027477208524942398,
					1
				],
				"roughnessFactor":0.800000011920929
			}
		},
		{
			"alphaMode":"BLEND",
			"doubleSided":true,
			"name":"toggleLeaderboard",
			"pbrMetallicRoughness":{
				"baseColorTexture":{
					"index":7
				},
				"metallicFactor":0,
				"roughnessFactor":0.5
			}
		},
		{
			"name":"Wood.Wavy.Brown.001",
			"normalTexture":{
				"index":8
			},
			"pbrMetallicRoughness":{
				"baseColorTexture":{
					"index":9
				},
				"metallicFactor":0,
				"roughnessFactor":0.5
			}
		},
		{
			"doubleSided":true,
			"name":"Rope001",
			"normalTexture":{
				"index":10
			},
			"occlusionTexture":{
				"index":11
			},
			"pbrMetallicRoughness":{
				"baseColorTexture":{
					"index":12
				},
				"metallicFactor":0,
				"metallicRoughnessTexture":{
					"index":11
				}
			}
		}
	],
	"meshes":[
		{
			"name":"Cube.327",
			"primitives":[
				{
					"attributes":{
						"POSITION":0,
						"NORMAL":1,
						"TEXCOORD_0":2
					},
					"indices":3,
					"material":0
				}
			]
		},
		{
			"name":"Cube.001",
			"primitives":[
				{
					"attributes":{
						"POSITION":4,
						"NORMAL":5,
						"TEXCOORD_0":6
					},
					"indices":7
				}
			]
		},
		{
			"name":"Cube",
			"primitives":[
				{
					"attributes":{
						"POSITION":8,
						"NORMAL":9,
						"TEXCOORD_0":10
					},
					"indices":11,
					"material":1
				}
			]
		},
		{
			"name":"Cylinder",
			"primitives":[
				{
					"attributes":{
						"POSITION":12,
						"NORMAL":13,
						"TEXCOORD_0":14
					},
					"indices":15,
					"material":2
				}
			]
		},
		{
			"name":"Cylinder.10763",
			"primitives":[
				{
					"attributes":{
						"POSITION":16,
						"NORMAL":17,
						"TEXCOORD_0":18
					},
					"indices":19,
					"material":3
				}
			]
		},
		{
			"name":"Plane",
			"primitives":[
				{
					"attributes":{
						"POSITION":20,
						"NORMAL":21,
						"TEXCOORD_0":22
					},
					"indices":23,
					"material":4
				}
			]
		},
		{
			"name":"Cube.067",
			"primitives":[
				{
					"attributes":{
						"POSITION":24,
						"NORMAL":25,
						"TEXCOORD_0":26
					},
					"indices":27,
					"material":5
				}
			]
		},
		{
			"name":"B\u00e9zierCurve",
			"primitives":[
				{
					"attributes":{
						"POSITION":28,
						"NORMAL":29,
						"TEXCOORD_0":30
					},
					"indices":31,
					"material":6
				}
			]
		}
	],
	"textures":[
		{
			"sampler":0,
			"source":0
		},
		{
			"sampler":0,
			"source":1
		},
		{
			"sampler":0,
			"source":0
		},
		{
			"sampler":0,
			"source":2
		},
		{
			"sampler":0,
			"source":3
		},
		{
			"sampler":0,
			"source":4
		},
		{
			"sampler":0,
			"source":3
		},
		{
			"sampler":0,
			"source":5
		},
		{
			"sampler":0,
			"source":0
		},
		{
			"sampler":0,
			"source":1
		},
		{
			"sampler":0,
			"source":6
		},
		{
			"sampler":0,
			"source":7
		},
		{
			"sampler":0,
			"source":8
		}
	],
	"images":[
		{
			"mimeType":"image/png",
			"name":"stylizedWood_v01_normal",
			"uri":"stylizedWood_v01_normal.png"
		},
		{
			"mimeType":"image/png",
			"name":"stylizedWood_v01_basecolor_brown",
			"uri":"stylizedWood_v01_basecolor_brown.png"
		},
		{
			"mimeType":"image/png",
			"name":"stylizedWood_v01_basecolor",
			"uri":"stylizedWood_v01_basecolor.png"
		},
		{
			"mimeType":"image/png",
			"name":"clockTower_metal01_hrm",
			"uri":"clockTower_metal01_hrm.png"
		},
		{
			"mimeType":"image/png",
			"name":"clockTower_metal01_basecolor_1",
			"uri":"clockTower_metal01_basecolor_1.png"
		},
		{
			"mimeType":"image/png",
			"name":"toggle-leaderboard",
			"uri":"toggle-leaderboard.png"
		},
		{
			"mimeType":"image/jpeg",
			"name":"Rope_001_normal",
			"uri":"Rope_001_normal.jpg"
		},
		{
			"mimeType":"image/png",
			"name":"Rope_001_ambientOcclusion-Rope_001_roughness",
			"uri":"Rope_001_ambientOcclusion-Rope_001_roughness.png"
		},
		{
			"mimeType":"image/jpeg",
			"name":"Rope_001_basecolor",
			"uri":"Rope_001_basecolor.jpg"
		}
	],
	"accessors":[
		{
			"bufferView":0,
			"componentType":5126,
			"count":89,
			"max":[
				0.41638654470443726,
				-0.4961932897567749,
				0.39028191566467285
			],
			"min":[
				-0.40533900260925293,
				-3.596221446990967,
				-0.3912266492843628
			],
			"type":"VEC3"
		},
		{
			"bufferView":1,
			"componentType":5126,
			"count":89,
			"type":"VEC3"
		},
		{
			"bufferView":2,
			"componentType":5126,
			"count":89,
			"type":"VEC2"
		},
		{
			"bufferView":3,
			"componentType":5123,
			"count":306,
			"type":"SCALAR"
		},
		{
			"bufferView":4,
			"componentType":5126,
			"count":24,
			"max":[
				0.9866792559623718,
				1,
				1
			],
			"min":[
				-0.9866792559623718,
				-1.6168715953826904,
				-1.851858139038086
			],
			"type":"VEC3"
		},
		{
			"bufferView":5,
			"componentType":5126,
			"count":24,
			"type":"VEC3"
		},
		{
			"bufferView":6,
			"componentType":5126,
			"count":24,
			"type":"VEC2"
		},
		{
			"bufferView":7,
			"componentType":5123,
			"count":36,
			"type":"SCALAR"
		},
		{
			"bufferView":8,
			"componentType":5126,
			"count":144,
			"max":[
				0.3125,
				0.625,
				0.3125
			],
			"min":[
				-0.3125,
				-0.625,
				-0.3125
			],
			"type":"VEC3"
		},
		{
			"bufferView":9,
			"componentType":5126,
			"count":144,
			"type":"VEC3"
		},
		{
			"bufferView":10,
			"componentType":5126,
			"count":144,
			"type":"VEC2"
		},
		{
			"bufferView":11,
			"componentType":5123,
			"count":270,
			"type":"SCALAR"
		},
		{
			"bufferView":12,
			"componentType":5126,
			"count":98,
			"max":[
				0.20000000298023224,
				0.05000000074505806,
				0.20000000298023224
			],
			"min":[
				-0.20000000298023224,
				-0.05000000074505806,
				-0.20000000298023224
			],
			"type":"VEC3"
		},
		{
			"bufferView":13,
			"componentType":5126,
			"count":98,
			"type":"VEC3"
		},
		{
			"bufferView":14,
			"componentType":5126,
			"count":98,
			"type":"VEC2"
		},
		{
			"bufferView":15,
			"componentType":5123,
			"count":276,
			"type":"SCALAR"
		},
		{
			"bufferView":16,
			"componentType":5126,
			"count":98,
			"max":[
				0.04800001159310341,
				0.1302059441804886,
				0.047999992966651917
			],
			"min":[
				-0.04800000041723251,
				-0.8638167381286621,
				-0.047999992966651917
			],
			"type":"VEC3"
		},
		{
			"bufferView":17,
			"componentType":5126,
			"count":98,
			"type":"VEC3"
		},
		{
			"bufferView":18,
			"componentType":5126,
			"count":98,
			"type":"VEC2"
		},
		{
			"bufferView":19,
			"componentType":5123,
			"count":162,
			"type":"SCALAR"
		},
		{
			"bufferView":20,
			"componentType":5126,
			"count":4,
			"max":[
				1,
				0.00160825380589813,
				1
			],
			"min":[
				-1,
				0.0016080590430647135,
				-1
			],
			"type":"VEC3"
		},
		{
			"bufferView":21,
			"componentType":5126,
			"count":4,
			"type":"VEC3"
		},
		{
			"bufferView":22,
			"componentType":5126,
			"count":4,
			"type":"VEC2"
		},
		{
			"bufferView":23,
			"componentType":5123,
			"count":6,
			"type":"SCALAR"
		},
		{
			"bufferView":24,
			"componentType":5126,
			"count":60,
			"max":[
				1.11013662815094,
				2.389847993850708,
				0.298162579536438
			],
			"min":[
				-1.2551746368408203,
				-1.4822090864181519,
				-0.27607178688049316
			],
			"type":"VEC3"
		},
		{
			"bufferView":25,
			"componentType":5126,
			"count":60,
			"type":"VEC3"
		},
		{
			"bufferView":26,
			"componentType":5126,
			"count":60,
			"type":"VEC2"
		},
		{
			"bufferView":27,
			"componentType":5123,
			"count":120,
			"type":"SCALAR"
		},
		{
			"bufferView":28,
			"componentType":5126,
			"count":99,
			"max":[
				-0.030439265072345734,
				0.027549028396606445,
				0.057836417108774185
			],
			"min":[
				-0.9030844569206238,
				-0.06239425018429756,
				-0.5024591088294983
			],
			"type":"VEC3"
		},
		{
			"bufferView":29,
			"componentType":5126,
			"count":99,
			"type":"VEC3"
		},
		{
			"bufferView":30,
			"componentType":5126,
			"count":99,
			"type":"VEC2"
		},
		{
			"bufferView":31,
			"componentType":5123,
			"count":480,
			"type":"SCALAR"
		},
		{
			"bufferView":32,
			"componentType":5126,
			"count":2,
			"max":[
				0.3333333333333333
			],
			"min":[
				0.016666666666666666
			],
			"type":"SCALAR"
		},
		{
			"bufferView":33,
			"componentType":5126,
			"count":2,
			"type":"VEC3"
		},
		{
			"bufferView":34,
			"componentType":5126,
			"count":2,
			"type":"VEC4"
		},
		{
			"bufferView":35,
			"componentType":5126,
			"count":2,
			"type":"VEC3"
		},
		{
			"bufferView":36,
			"componentType":5126,
			"count":20,
			"max":[
				0.3333333333333333
			],
			"min":[
				0.016666666666666666
			],
			"type":"SCALAR"
		},
		{
			"bufferView":37,
			"componentType":5126,
			"count":20,
			"type":"VEC4"
		},
		{
			"bufferView":38,
			"componentType":5126,
			"count":2,
			"type":"VEC3"
		},
		{
			"bufferView":39,
			"componentType":5126,
			"count":20,
			"type":"VEC4"
		},
		{
			"bufferView":40,
			"componentType":5126,
			"count":2,
			"type":"VEC3"
		}
	],
	"bufferViews":[
		{
			"buffer":0,
			"byteLength":1068,
			"byteOffset":0,
			"target":34962
		},
		{
			"buffer":0,
			"byteLength":1068,
			"byteOffset":1068,
			"target":34962
		},
		{
			"buffer":0,
			"byteLength":712,
			"byteOffset":2136,
			"target":34962
		},
		{
			"buffer":0,
			"byteLength":612,
			"byteOffset":2848,
			"target":34963
		},
		{
			"buffer":0,
			"byteLength":288,
			"byteOffset":3460,
			"target":34962
		},
		{
			"buffer":0,
			"byteLength":288,
			"byteOffset":3748,
			"target":34962
		},
		{
			"buffer":0,
			"byteLength":192,
			"byteOffset":4036,
			"target":34962
		},
		{
			"buffer":0,
			"byteLength":72,
			"byteOffset":4228,
			"target":34963
		},
		{
			"buffer":0,
			"byteLength":1728,
			"byteOffset":4300,
			"target":34962
		},
		{
			"buffer":0,
			"byteLength":1728,
			"byteOffset":6028,
			"target":34962
		},
		{
			"buffer":0,
			"byteLength":1152,
			"byteOffset":7756,
			"target":34962
		},
		{
			"buffer":0,
			"byteLength":540,
			"byteOffset":8908,
			"target":34963
		},
		{
			"buffer":0,
			"byteLength":1176,
			"byteOffset":9448,
			"target":34962
		},
		{
			"buffer":0,
			"byteLength":1176,
			"byteOffset":10624,
			"target":34962
		},
		{
			"buffer":0,
			"byteLength":784,
			"byteOffset":11800,
			"target":34962
		},
		{
			"buffer":0,
			"byteLength":552,
			"byteOffset":12584,
			"target":34963
		},
		{
			"buffer":0,
			"byteLength":1176,
			"byteOffset":13136,
			"target":34962
		},
		{
			"buffer":0,
			"byteLength":1176,
			"byteOffset":14312,
			"target":34962
		},
		{
			"buffer":0,
			"byteLength":784,
			"byteOffset":15488,
			"target":34962
		},
		{
			"buffer":0,
			"byteLength":324,
			"byteOffset":16272,
			"target":34963
		},
		{
			"buffer":0,
			"byteLength":48,
			"byteOffset":16596,
			"target":34962
		},
		{
			"buffer":0,
			"byteLength":48,
			"byteOffset":16644,
			"target":34962
		},
		{
			"buffer":0,
			"byteLength":32,
			"byteOffset":16692,
			"target":34962
		},
		{
			"buffer":0,
			"byteLength":12,
			"byteOffset":16724,
			"target":34963
		},
		{
			"buffer":0,
			"byteLength":720,
			"byteOffset":16736,
			"target":34962
		},
		{
			"buffer":0,
			"byteLength":720,
			"byteOffset":17456,
			"target":34962
		},
		{
			"buffer":0,
			"byteLength":480,
			"byteOffset":18176,
			"target":34962
		},
		{
			"buffer":0,
			"byteLength":240,
			"byteOffset":18656,
			"target":34963
		},
		{
			"buffer":0,
			"byteLength":1188,
			"byteOffset":18896,
			"target":34962
		},
		{
			"buffer":0,
			"byteLength":1188,
			"byteOffset":20084,
			"target":34962
		},
		{
			"buffer":0,
			"byteLength":792,
			"byteOffset":21272,
			"target":34962
		},
		{
			"buffer":0,
			"byteLength":960,
			"byteOffset":22064,
			"target":34963
		},
		{
			"buffer":0,
			"byteLength":8,
			"byteOffset":23024
		},
		{
			"buffer":0,
			"byteLength":24,
			"byteOffset":23032
		},
		{
			"buffer":0,
			"byteLength":32,
			"byteOffset":23056
		},
		{
			"buffer":0,
			"byteLength":24,
			"byteOffset":23088
		},
		{
			"buffer":0,
			"byteLength":80,
			"byteOffset":23112
		},
		{
			"buffer":0,
			"byteLength":320,
			"byteOffset":23192
		},
		{
			"buffer":0,
			"byteLength":24,
			"byteOffset":23512
		},
		{
			"buffer":0,
			"byteLength":320,
			"byteOffset":23536
		},
		{
			"buffer":0,
			"byteLength":24,
			"byteOffset":23856
		}
	],
	"samplers":[
		{
			"magFilter":9729,
			"minFilter":9987
		}
	],
	"buffers":[
		{
			"byteLength":23880,
			"uri":"toggleLever.bin"
		}
	]
}
