{
	"asset":{
		"generator":"Khronos glTF Blender I/O v5.2.39",
		"version":"2.0"
	},
	"scene":0,
	"scenes":[
		{
			"name":"_trampoline",
			"nodes":[
				0,
				1,
				6
			]
		}
	],
	"nodes":[
		{
			"mesh":0,
			"name":"legs"
		},
		{
			"mesh":1,
			"name":"outer_collider",
			"scale":[
				1.0909775495529175,
				1,
				1.0909775495529175
			]
		},
		{
			"mesh":2,
			"name":"canvas",
			"translation":[
				-1.9762837886810303,
				-0.07408236712217331,
				0
			]
		},
		{
			"mesh":3,
			"name":"chunks",
			"translation":[
				-1.9762839078903198,
				-0.11226600408554077,
				0.00014908798038959503
			]
		},
		{
			"mesh":4,
			"name":"ring.001",
			"translation":[
				-1.9762839078903198,
				-0.11226600408554077,
				0.00014908798038959503
			]
		},
		{
			"mesh":5,
			"name":"ropes.001",
			"translation":[
				-1.9762839078903198,
				-0.11226600408554077,
				0.00014908798038959503
			]
		},
		{
			"children":[
				2,
				3,
				4,
				5
			],
			"name":"pivot.pitch",
			"rotation":[
				0.08715573698282242,
				0,
				0,
				0.9961947798728943
			],
			"translation":[
				1.9762837886810303,
				0.6109887957572937,
				0
			]
		}
	],
	"animations":[
		{
			"channels":[
				{
					"sampler":0,
					"target":{
						"node":2,
						"path":"weights"
					}
				}
			],
			"name":"wobble",
			"samplers":[
				{
					"input":42,
					"interpolation":"LINEAR",
					"output":43
				}
			]
		}
	],
	"materials":[
		{
			"name":"Trampoline.001",
			"normalTexture":{
				"index":0
			},
			"pbrMetallicRoughness":{
				"baseColorTexture":{
					"index":1
				},
				"metallicRoughnessTexture":{
					"index":2
				}
			}
		}
	],
	"meshes":[
		{
			"name":"Cylinder.003",
			"primitives":[
				{
					"attributes":{
						"POSITION":0,
						"NORMAL":1,
						"TEXCOORD_0":2,
						"TANGENT":3,
						"COLOR_0":4,
						"COLOR_1":5
					},
					"indices":6,
					"material":0
				}
			]
		},
		{
			"name":"BezierCircle.007",
			"primitives":[
				{
					"attributes":{
						"POSITION":7,
						"NORMAL":8,
						"TEXCOORD_0":9,
						"TANGENT":10
					},
					"indices":11
				}
			]
		},
		{
			"extras":{
				"targetNames":[
					"Down",
					"Up"
				]
			},
			"name":"BezierCircle.001",
			"primitives":[
				{
					"attributes":{
						"POSITION":12,
						"NORMAL":13,
						"TEXCOORD_0":14,
						"COLOR_0":15,
						"COLOR_1":16
					},
					"indices":17,
					"material":0,
					"targets":[
						{
							"POSITION":18,
							"NORMAL":19
						},
						{
							"POSITION":20,
							"NORMAL":21
						}
					]
				}
			],
			"weights":[
				0,
				0
			]
		},
		{
			"name":"Cylinder.006",
			"primitives":[
				{
					"attributes":{
						"POSITION":22,
						"NORMAL":23,
						"TEXCOORD_0":24,
						"COLOR_0":25,
						"COLOR_1":26
					},
					"indices":27,
					"material":0
				}
			]
		},
		{
			"name":"Cylinder.001",
			"primitives":[
				{
					"attributes":{
						"POSITION":28,
						"NORMAL":29,
						"TEXCOORD_0":30,
						"TANGENT":31,
						"COLOR_0":32,
						"COLOR_1":33
					},
					"indices":34,
					"material":0
				}
			]
		},
		{
			"name":"Cylinder.006_Curve.003",
			"primitives":[
				{
					"attributes":{
						"POSITION":35,
						"NORMAL":36,
						"TEXCOORD_0":37,
						"TANGENT":38,
						"COLOR_0":39,
						"COLOR_1":40
					},
					"indices":41,
					"material":0
				}
			]
		}
	],
	"textures":[
		{
			"sampler":0,
			"source":0
		},
		{
			"sampler":0,
			"source":1
		},
		{
			"sampler":0,
			"source":2
		}
	],
	"images":[
		{
			"mimeType":"image/png",
			"name":"trampoline_Trampoline_Normal",
			"uri":"tex/trampoline_Trampoline_Normal.png"
		},
		{
			"mimeType":"image/png",
			"name":"trampoline_Trampoline_BaseColor",
			"uri":"tex/trampoline_Trampoline_BaseColor.png"
		},
		{
			"mimeType":"image/png",
			"name":"trampoline_Trampoline_Metallic-trampoline_Trampoline_Roughness",
			"uri":"tex/trampoline_Trampoline_Metallic-trampoline_Trampoline_Roughness.png"
		}
	],
	"accessors":[
		{
			"bufferView":0,
			"componentType":5126,
			"count":72,
			"max":[
				1.468087077140808,
				0.5676717758178711,
				0.8080205917358398
			],
			"min":[
				-1.4652776718139648,
				-5.960464477539063e-08,
				-1.126560091972351
			],
			"type":"VEC3"
		},
		{
			"bufferView":1,
			"componentType":5126,
			"count":72,
			"type":"VEC3"
		},
		{
			"bufferView":2,
			"componentType":5126,
			"count":72,
			"type":"VEC2"
		},
		{
			"bufferView":3,
			"componentType":5126,
			"count":72,
			"type":"VEC4"
		},
		{
			"bufferView":4,
			"componentType":5121,
			"count":72,
			"normalized":true,
			"type":"VEC4"
		},
		{
			"bufferView":5,
			"componentType":5123,
			"count":72,
			"normalized":true,
			"type":"VEC4"
		},
		{
			"bufferView":6,
			"componentType":5123,
			"count":192,
			"type":"SCALAR"
		},
		{
			"bufferView":7,
			"componentType":5126,
			"count":192,
			"max":[
				1.5265164375305176,
				0.974786639213562,
				1.5002565383911133
			],
			"min":[
				-1.5265164375305176,
				0,
				-1.5063937902450562
			],
			"type":"VEC3"
		},
		{
			"bufferView":8,
			"componentType":5126,
			"count":192,
			"type":"VEC3"
		},
		{
			"bufferView":9,
			"componentType":5126,
			"count":192,
			"type":"VEC2"
		},
		{
			"bufferView":10,
			"componentType":5126,
			"count":192,
			"type":"VEC4"
		},
		{
			"bufferView":11,
			"componentType":5123,
			"count":372,
			"type":"SCALAR"
		},
		{
			"bufferView":12,
			"componentType":5126,
			"count":628,
			"max":[
				1.2595614194869995,
				0.02715931087732315,
				1.259561538696289
			],
			"min":[
				-1.2595614194869995,
				-0.07360724359750748,
				-1.259561538696289
			],
			"type":"VEC3"
		},
		{
			"bufferView":13,
			"componentType":5126,
			"count":628,
			"type":"VEC3"
		},
		{
			"bufferView":14,
			"componentType":5126,
			"count":628,
			"type":"VEC2"
		},
		{
			"bufferView":15,
			"componentType":5121,
			"count":628,
			"normalized":true,
			"type":"VEC4"
		},
		{
			"bufferView":16,
			"componentType":5123,
			"count":628,
			"normalized":true,
			"type":"VEC4"
		},
		{
			"bufferView":17,
			"componentType":5123,
			"count":3252,
			"type":"SCALAR"
		},
		{
			"bufferView":18,
			"componentType":5126,
			"count":628,
			"max":[
				0.02324843406677246,
				0.0023557115346193314,
				0.02324831485748291
			],
			"min":[
				-0.02324843406677246,
				-0.30000004172325134,
				-0.02324831485748291
			],
			"type":"VEC3"
		},
		{
			"bufferView":19,
			"componentType":5126,
			"count":628,
			"type":"VEC3"
		},
		{
			"bufferView":20,
			"componentType":5126,
			"count":628,
			"max":[
				0.01497340202331543,
				0.25,
				0.01497340202331543
			],
			"min":[
				-0.01497340202331543,
				-0.01658271998167038,
				-0.01497340202331543
			],
			"type":"VEC3"
		},
		{
			"bufferView":21,
			"componentType":5126,
			"count":628,
			"type":"VEC3"
		},
		{
			"bufferView":22,
			"componentType":5126,
			"count":320,
			"max":[
				1.6985270977020264,
				0.22039522230625153,
				1.698527216911316
			],
			"min":[
				-1.6985270977020264,
				-0.21912738680839539,
				-1.698527216911316
			],
			"type":"VEC3"
		},
		{
			"bufferView":23,
			"componentType":5126,
			"count":320,
			"type":"VEC3"
		},
		{
			"bufferView":24,
			"componentType":5126,
			"count":320,
			"type":"VEC2"
		},
		{
			"bufferView":25,
			"componentType":5121,
			"count":320,
			"normalized":true,
			"type":"VEC4"
		},
		{
			"bufferView":26,
			"componentType":5123,
			"count":320,
			"normalized":true,
			"type":"VEC4"
		},
		{
			"bufferView":27,
			"componentType":5123,
			"count":720,
			"type":"SCALAR"
		},
		{
			"bufferView":28,
			"componentType":5126,
			"count":252,
			"max":[
				1.6215134859085083,
				0.1499999761581421,
				1.6215121746063232
			],
			"min":[
				-1.6215126514434814,
				-0.1499999612569809,
				-1.6215131282806396
			],
			"type":"VEC3"
		},
		{
			"bufferView":29,
			"componentType":5126,
			"count":252,
			"type":"VEC3"
		},
		{
			"bufferView":30,
			"componentType":5126,
			"count":252,
			"type":"VEC2"
		},
		{
			"bufferView":31,
			"componentType":5126,
			"count":252,
			"type":"VEC4"
		},
		{
			"bufferView":32,
			"componentType":5121,
			"count":252,
			"normalized":true,
			"type":"VEC4"
		},
		{
			"bufferView":33,
			"componentType":5123,
			"count":252,
			"normalized":true,
			"type":"VEC4"
		},
		{
			"bufferView":34,
			"componentType":5123,
			"count":1152,
			"type":"SCALAR"
		},
		{
			"bufferView":35,
			"componentType":5126,
			"count":720,
			"max":[
				1.6534216403961182,
				0.23476053774356842,
				1.6589221954345703
			],
			"min":[
				-1.6534216403961182,
				-0.23457813262939453,
				-1.6589221954345703
			],
			"type":"VEC3"
		},
		{
			"bufferView":36,
			"componentType":5126,
			"count":720,
			"type":"VEC3"
		},
		{
			"bufferView":37,
			"componentType":5126,
			"count":720,
			"type":"VEC2"
		},
		{
			"bufferView":38,
			"componentType":5126,
			"count":720,
			"type":"VEC4"
		},
		{
			"bufferView":39,
			"componentType":5121,
			"count":720,
			"normalized":true,
			"type":"VEC4"
		},
		{
			"bufferView":40,
			"componentType":5123,
			"count":720,
			"normalized":true,
			"type":"VEC4"
		},
		{
			"bufferView":41,
			"componentType":5123,
			"count":3168,
			"type":"SCALAR"
		},
		{
			"bufferView":42,
			"componentType":5126,
			"count":80,
			"max":[
				1.3166666666666667
			],
			"min":[
				0
			],
			"type":"SCALAR"
		},
		{
			"bufferView":43,
			"componentType":5126,
			"count":160,
			"type":"SCALAR"
		}
	],
	"bufferViews":[
		{
			"buffer":0,
			"byteLength":864,
			"byteOffset":0,
			"target":34962
		},
		{
			"buffer":0,
			"byteLength":864,
			"byteOffset":864,
			"target":34962
		},
		{
			"buffer":0,
			"byteLength":576,
			"byteOffset":1728,
			"target":34962
		},
		{
			"buffer":0,
			"byteLength":1152,
			"byteOffset":2304,
			"target":34962
		},
		{
			"buffer":0,
			"byteLength":288,
			"byteOffset":3456,
			"target":34962
		},
		{
			"buffer":0,
			"byteLength":576,
			"byteOffset":3744,
			"target":34962
		},
		{
			"buffer":0,
			"byteLength":384,
			"byteOffset":4320,
			"target":34963
		},
		{
			"buffer":0,
			"byteLength":2304,
			"byteOffset":4704,
			"target":34962
		},
		{
			"buffer":0,
			"byteLength":2304,
			"byteOffset":7008,
			"target":34962
		},
		{
			"buffer":0,
			"byteLength":1536,
			"byteOffset":9312,
			"target":34962
		},
		{
			"buffer":0,
			"byteLength":3072,
			"byteOffset":10848,
			"target":34962
		},
		{
			"buffer":0,
			"byteLength":744,
			"byteOffset":13920,
			"target":34963
		},
		{
			"buffer":0,
			"byteLength":7536,
			"byteOffset":14664,
			"target":34962
		},
		{
			"buffer":0,
			"byteLength":7536,
			"byteOffset":22200,
			"target":34962
		},
		{
			"buffer":0,
			"byteLength":5024,
			"byteOffset":29736,
			"target":34962
		},
		{
			"buffer":0,
			"byteLength":2512,
			"byteOffset":34760,
			"target":34962
		},
		{
			"buffer":0,
			"byteLength":5024,
			"byteOffset":37272,
			"target":34962
		},
		{
			"buffer":0,
			"byteLength":6504,
			"byteOffset":42296,
			"target":34963
		},
		{
			"buffer":0,
			"byteLength":7536,
			"byteOffset":48800,
			"target":34962
		},
		{
			"buffer":0,
			"byteLength":7536,
			"byteOffset":56336,
			"target":34962
		},
		{
			"buffer":0,
			"byteLength":7536,
			"byteOffset":63872,
			"target":34962
		},
		{
			"buffer":0,
			"byteLength":7536,
			"byteOffset":71408,
			"target":34962
		},
		{
			"buffer":0,
			"byteLength":3840,
			"byteOffset":78944,
			"target":34962
		},
		{
			"buffer":0,
			"byteLength":3840,
			"byteOffset":82784,
			"target":34962
		},
		{
			"buffer":0,
			"byteLength":2560,
			"byteOffset":86624,
			"target":34962
		},
		{
			"buffer":0,
			"byteLength":1280,
			"byteOffset":89184,
			"target":34962
		},
		{
			"buffer":0,
			"byteLength":2560,
			"byteOffset":90464,
			"target":34962
		},
		{
			"buffer":0,
			"byteLength":1440,
			"byteOffset":93024,
			"target":34963
		},
		{
			"buffer":0,
			"byteLength":3024,
			"byteOffset":94464,
			"target":34962
		},
		{
			"buffer":0,
			"byteLength":3024,
			"byteOffset":97488,
			"target":34962
		},
		{
			"buffer":0,
			"byteLength":2016,
			"byteOffset":100512,
			"target":34962
		},
		{
			"buffer":0,
			"byteLength":4032,
			"byteOffset":102528,
			"target":34962
		},
		{
			"buffer":0,
			"byteLength":1008,
			"byteOffset":106560,
			"target":34962
		},
		{
			"buffer":0,
			"byteLength":2016,
			"byteOffset":107568,
			"target":34962
		},
		{
			"buffer":0,
			"byteLength":2304,
			"byteOffset":109584,
			"target":34963
		},
		{
			"buffer":0,
			"byteLength":8640,
			"byteOffset":111888,
			"target":34962
		},
		{
			"buffer":0,
			"byteLength":8640,
			"byteOffset":120528,
			"target":34962
		},
		{
			"buffer":0,
			"byteLength":5760,
			"byteOffset":129168,
			"target":34962
		},
		{
			"buffer":0,
			"byteLength":11520,
			"byteOffset":134928,
			"target":34962
		},
		{
			"buffer":0,
			"byteLength":2880,
			"byteOffset":146448,
			"target":34962
		},
		{
			"buffer":0,
			"byteLength":5760,
			"byteOffset":149328,
			"target":34962
		},
		{
			"buffer":0,
			"byteLength":6336,
			"byteOffset":155088,
			"target":34963
		},
		{
			"buffer":0,
			"byteLength":320,
			"byteOffset":161424
		},
		{
			"buffer":0,
			"byteLength":640,
			"byteOffset":161744
		}
	],
	"samplers":[
		{
			"magFilter":9729,
			"minFilter":9987
		}
	],
	"buffers":[
		{
			"byteLength":162384,
			"uri":"trampoline.bin"
		}
	]
}
