{
	"asset":{
		"generator":"Khronos glTF Blender I/O v5.2.39",
		"version":"2.0"
	},
	"scene":0,
	"scenes":[
		{
			"name":"_windVane",
			"nodes":[
				13,
				14,
				17,
				19,
				24,
				25,
				26,
				27,
				28,
				29,
				30,
				34,
				35,
				36,
				37,
				38,
				39,
				40
			]
		}
	],
	"nodes":[
		{
			"mesh":0,
			"name":"Circle",
			"rotation":[
				-0.00931375939399004,
				-0.9906046390533447,
				-0.10265243053436279,
				0.08987857401371002
			],
			"scale":[
				0.9999998211860657,
				1,
				1
			],
			"translation":[
				-0.16900634765625,
				5.7565460205078125,
				-0.97216796875
			]
		},
		{
			"mesh":1,
			"name":"Cube.002",
			"rotation":[
				0.9951051473617554,
				0.0036302097141742706,
				-0.09028680622577667,
				0.0400107242166996
			],
			"scale":[
				1,
				1,
				0.9999998211860657
			],
			"translation":[
				-0.321197509765625,
				3.20758056640625,
				-1.638427734375
			]
		},
		{
			"mesh":2,
			"name":"Cube.003",
			"rotation":[
				0.9955747127532959,
				0.002341754036024213,
				-0.09032940864562988,
				0.02580987848341465
			],
			"translation":[
				0.199859619140625,
				3.1926116943359375,
				1.2093505859375
			]
		},
		{
			"mesh":3,
			"name":"Cylinder.001",
			"rotation":[
				-0.9959092140197754,
				6.821973652648694e-09,
				0.09035976231098175,
				7.518904965309048e-08
			],
			"translation":[
				-0.085968017578125,
				1.9356689453125,
				-0.352783203125
			]
		},
		{
			"mesh":4,
			"name":"Cylinder.002",
			"rotation":[
				-0.6403201818466187,
				1.9789892746757687e-07,
				0.7681081295013428,
				6.668432916967504e-08
			],
			"translation":[
				-0.032989501953125,
				2.1790771484375,
				-0.063201904296875
			]
		},
		{
			"mesh":5,
			"name":"Pigeon_E",
			"rotation":[
				0,
				-0.9959092140197754,
				0,
				0.09035985171794891
			],
			"scale":[
				6.0755414962768555,
				6.07554292678833,
				6.0755414962768555
			],
			"translation":[
				-0.003692626953125,
				3.387725830078125,
				0.096954345703125
			]
		},
		{
			"mesh":6,
			"name":"windvane.crossYTop._collider_box.001",
			"rotation":[
				0,
				0.09035975486040115,
				0,
				0.9959092140197754
			],
			"scale":[
				1,
				1,
				0.7169754505157471
			],
			"translation":[
				-0.01904296875,
				3.2275848388671875,
				0.01300048828125
			]
		},
		{
			"mesh":7,
			"name":"windvane.crossYTop._collider_box.002",
			"rotation":[
				0.40935149788856506,
				0.08237381279468536,
				-0.03714083880186081,
				0.9078912138938904
			],
			"scale":[
				1,
				1,
				0.9999998807907104
			],
			"translation":[
				-0.1131591796875,
				4.556121826171875,
				-0.50140380859375
			]
		},
		{
			"mesh":8,
			"name":"windvane.crossYTop._collider_box.003",
			"rotation":[
				0.058237217366695404,
				0.0902051329612732,
				-0.005283917300403118,
				0.9942049980163574
			],
			"scale":[
				1,
				1,
				0.9999998211860657
			],
			"translation":[
				0.0718994140625,
				3.8988723754882812,
				0.510162353515625
			]
		},
		{
			"mesh":9,
			"name":"windvane.crossYTop._collider_box.004",
			"rotation":[
				0.29174166917800903,
				0.0863957479596138,
				-0.026470007374882698,
				0.9522194862365723
			],
			"scale":[
				1,
				0.9999999403953552,
				1
			],
			"translation":[
				-0.05419921875,
				4.2847747802734375,
				-0.179046630859375
			]
		},
		{
			"mesh":10,
			"name":"windvane.crossYTop._collider_box.005",
			"rotation":[
				0.1243557557463646,
				0.08965257555246353,
				-0.011282912455499172,
				0.9881147742271423
			],
			"scale":[
				1,
				0.9999999403953552,
				0.9999999403953552
			],
			"translation":[
				-0.20660400390625,
				5.34869384765625,
				-1.012115478515625
			]
		},
		{
			"children":[
				0,
				1,
				2,
				3,
				4,
				5,
				6,
				7,
				8,
				9,
				10
			],
			"name":"Bone.001",
			"translation":[
				0,
				15.289234161376953,
				0
			]
		},
		{
			"children":[
				11
			],
			"name":"Bone"
		},
		{
			"children":[
				12
			],
			"name":"Armature.WindVane",
			"translation":[
				264.98565673828125,
				61.933284759521484,
				-241.81224060058594
			]
		},
		{
			"name":"Empty",
			"translation":[
				264.98565673828125,
				61.933284759521484,
				-241.81224060058594
			]
		},
		{
			"name":"BushPot.001"
		},
		{
			"name":"Parasol"
		},
		{
			"children":[
				15,
				16
			],
			"name":"starting_area_wood_colliders"
		},
		{
			"name":"DCLNews_InteriorPlant"
		},
		{
			"children":[
				18
			],
			"name":"cabin"
		},
		{
			"name":"BeanBagChair.001"
		},
		{
			"name":"MilkBox"
		},
		{
			"name":"SolarPanel"
		},
		{
			"name":"TrashBag.001"
		},
		{
			"children":[
				20,
				21,
				22,
				23
			],
			"name":"props"
		},
		{
			"mesh":11,
			"name":"_winfaven.main._collider_box",
			"rotation":[
				0,
				0.09035976976156235,
				0,
				0.9959092140197754
			],
			"translation":[
				264.9526672363281,
				71.22647857666016,
				-241.8754425048828
			]
		},
		{
			"mesh":12,
			"name":"Cube",
			"rotation":[
				-0.9959092140197754,
				0,
				0.09035976976156235,
				7.518904965309048e-08
			],
			"translation":[
				264.9526672363281,
				69.69845581054688,
				-241.8754119873047
			]
		},
		{
			"mesh":13,
			"name":"Cube.001",
			"rotation":[
				-0.9959092140197754,
				0,
				0.09035976976156235,
				7.518904965309048e-08
			],
			"translation":[
				264.9526672363281,
				69.69845581054688,
				-241.8754119873047
			]
		},
		{
			"mesh":14,
			"name":"Cylinder",
			"rotation":[
				-0.9959092140197754,
				0,
				0.09035976976156235,
				7.518904965309048e-08
			],
			"translation":[
				264.9526672363281,
				78.9535903930664,
				-241.8754119873047
			]
		},
		{
			"mesh":15,
			"name":"Cylinder.003",
			"rotation":[
				-0.6403201818466187,
				0,
				0.7681081295013428,
				1.246749405936498e-07
			],
			"translation":[
				264.9523620605469,
				78.6091079711914,
				-241.87538146972656
			]
		},
		{
			"mesh":16,
			"name":"Cylinder.004",
			"rotation":[
				-0.09035993367433548,
				0,
				-0.9959092140197754,
				6.902581617396208e-08
			],
			"translation":[
				264.9527282714844,
				78.6091079711914,
				-241.8751678466797
			]
		},
		{
			"mesh":17,
			"name":"rope.001",
			"rotation":[
				1,
				0,
				0,
				7.549790126404332e-08
			],
			"translation":[
				0,
				-6.255982953007333e-06,
				3.0988039725343697e-06
			]
		},
		{
			"mesh":18,
			"name":"rope.001._collider_box",
			"translation":[
				-2.288818359375e-05,
				0.34553664922714233,
				-0.01213531568646431
			]
		},
		{
			"children":[
				31,
				32
			],
			"name":"rope.001.pivot",
			"translation":[
				0,
				-6.255982953007333e-06,
				3.0988039725343697e-06
			]
		},
		{
			"children":[
				33
			],
			"name":"rope",
			"rotation":[
				-0.9959092140197754,
				0,
				0.09035976976156235,
				4.353257310185654e-08
			],
			"scale":[
				1,
				1,
				0.6356295943260193
			],
			"translation":[
				264.9004211425781,
				78.00211334228516,
				-241.87684631347656
			]
		},
		{
			"mesh":19,
			"name":"Text.004",
			"rotation":[
				0.4809079170227051,
				0.5663546919822693,
				-0.5183894634246826,
				0.4233703315258026
			],
			"translation":[
				264.477294921875,
				78.6744613647461,
				-244.4735870361328
			]
		},
		{
			"mesh":20,
			"name":"Text.005",
			"rotation":[
				-0.14516445994377136,
				0.7068714499473572,
				-0.6920458674430847,
				0.018239015713334084
			],
			"translation":[
				262.25201416015625,
				78.55050659179688,
				-241.3813018798828
			]
		},
		{
			"mesh":21,
			"name":"Text.006",
			"rotation":[
				0.7042140960693359,
				0.06389425694942474,
				-0.06389421969652176,
				0.7042141556739807
			],
			"translation":[
				267.5419921875,
				78.68110656738281,
				-242.3491973876953
			]
		},
		{
			"mesh":22,
			"name":"Text.007",
			"rotation":[
				0.5431346893310547,
				-0.45277440547943115,
				0.4527744650840759,
				0.5431346893310547
			],
			"translation":[
				265.41973876953125,
				78.49476623535156,
				-239.32261657714844
			]
		},
		{
			"mesh":23,
			"name":"windvane.crossX._collider_box.001",
			"rotation":[
				0,
				0.09035976976156235,
				0,
				0.9959092140197754
			],
			"scale":[
				1,
				1,
				0.6630146503448486
			],
			"translation":[
				264.7463684082031,
				78.61420440673828,
				-241.8361053466797
			]
		},
		{
			"mesh":24,
			"name":"windvane.crossY._collider_box",
			"rotation":[
				0.015050160698592663,
				0.09034945070743561,
				-0.0013655151706188917,
				0.995795488357544
			],
			"scale":[
				0.6036292314529419,
				1,
				0.9743462800979614
			],
			"translation":[
				264.9421081542969,
				78.5876235961914,
				-241.93309020996094
			]
		}
	],
	"animations":[
		{
			"channels":[
				{
					"sampler":0,
					"target":{
						"node":12,
						"path":"translation"
					}
				},
				{
					"sampler":1,
					"target":{
						"node":12,
						"path":"rotation"
					}
				},
				{
					"sampler":2,
					"target":{
						"node":12,
						"path":"scale"
					}
				},
				{
					"sampler":3,
					"target":{
						"node":11,
						"path":"translation"
					}
				},
				{
					"sampler":4,
					"target":{
						"node":11,
						"path":"rotation"
					}
				},
				{
					"sampler":5,
					"target":{
						"node":11,
						"path":"scale"
					}
				}
			],
			"name":"windVane",
			"samplers":[
				{
					"input":140,
					"interpolation":"STEP",
					"output":141
				},
				{
					"input":140,
					"interpolation":"STEP",
					"output":142
				},
				{
					"input":140,
					"interpolation":"STEP",
					"output":143
				},
				{
					"input":140,
					"interpolation":"STEP",
					"output":144
				},
				{
					"input":145,
					"interpolation":"LINEAR",
					"output":146
				},
				{
					"input":140,
					"interpolation":"STEP",
					"output":143
				}
			]
		}
	],
	"materials":[
		{
			"doubleSided":true,
			"name":"WindVane",
			"normalTexture":{
				"index":0
			},
			"pbrMetallicRoughness":{
				"baseColorTexture":{
					"index":1
				},
				"metallicRoughnessTexture":{
					"index":2
				}
			}
		},
		{
			"doubleSided":true,
			"emissiveFactor":[
				0.02500000037252903,
				0.02500000037252903,
				0.02500000037252903
			],
			"emissiveTexture":{
				"index":3
			},
			"name":"PigeonBaked",
			"pbrMetallicRoughness":{
				"baseColorTexture":{
					"index":4
				},
				"metallicFactor":0
			}
		},
		{
			"doubleSided":true,
			"name":"Rope001",
			"normalTexture":{
				"index":5
			},
			"occlusionTexture":{
				"index":6
			},
			"pbrMetallicRoughness":{
				"baseColorTexture":{
					"index":7
				},
				"metallicFactor":0,
				"metallicRoughnessTexture":{
					"index":6
				}
			}
		}
	],
	"meshes":[
		{
			"name":"Circle",
			"primitives":[
				{
					"attributes":{
						"POSITION":0,
						"NORMAL":1,
						"TEXCOORD_0":2,
						"TANGENT":3,
						"COLOR_0":4,
						"COLOR_1":5
					},
					"indices":6,
					"material":0
				}
			]
		},
		{
			"name":"Cube.003",
			"primitives":[
				{
					"attributes":{
						"POSITION":7,
						"NORMAL":8,
						"TEXCOORD_0":9,
						"TANGENT":10,
						"COLOR_0":11,
						"COLOR_1":12
					},
					"indices":13,
					"material":0
				}
			]
		},
		{
			"name":"Cube.004",
			"primitives":[
				{
					"attributes":{
						"POSITION":14,
						"NORMAL":15,
						"TEXCOORD_0":16,
						"TANGENT":17,
						"COLOR_0":18,
						"COLOR_1":19
					},
					"indices":20,
					"material":0
				}
			]
		},
		{
			"name":"Cylinder.001",
			"primitives":[
				{
					"attributes":{
						"POSITION":21,
						"NORMAL":22,
						"TEXCOORD_0":23,
						"COLOR_0":24,
						"COLOR_1":25
					},
					"indices":26,
					"material":0
				}
			]
		},
		{
			"name":"Cylinder.002",
			"primitives":[
				{
					"attributes":{
						"POSITION":27,
						"NORMAL":28,
						"TEXCOORD_0":29,
						"COLOR_0":30,
						"COLOR_1":31
					},
					"indices":32,
					"material":0
				}
			]
		},
		{
			"name":"Pigeon_E",
			"primitives":[
				{
					"attributes":{
						"POSITION":33,
						"NORMAL":34,
						"TEXCOORD_0":35
					},
					"indices":36,
					"material":1
				}
			]
		},
		{
			"name":"Cube.010",
			"primitives":[
				{
					"attributes":{
						"POSITION":37,
						"NORMAL":38,
						"TEXCOORD_0":39,
						"TANGENT":40
					},
					"indices":41
				}
			]
		},
		{
			"name":"Cube.011",
			"primitives":[
				{
					"attributes":{
						"POSITION":42,
						"NORMAL":43,
						"TEXCOORD_0":44,
						"TANGENT":45
					},
					"indices":41
				}
			]
		},
		{
			"name":"Cube.012",
			"primitives":[
				{
					"attributes":{
						"POSITION":46,
						"NORMAL":47,
						"TEXCOORD_0":48,
						"TANGENT":49
					},
					"indices":41
				}
			]
		},
		{
			"name":"Cube.013",
			"primitives":[
				{
					"attributes":{
						"POSITION":50,
						"NORMAL":51,
						"TEXCOORD_0":52,
						"TANGENT":53
					},
					"indices":41
				}
			]
		},
		{
			"name":"Cube.014",
			"primitives":[
				{
					"attributes":{
						"POSITION":54,
						"NORMAL":55,
						"TEXCOORD_0":56,
						"TANGENT":57
					},
					"indices":41
				}
			]
		},
		{
			"name":"Cube.007",
			"primitives":[
				{
					"attributes":{
						"POSITION":58,
						"NORMAL":59,
						"TEXCOORD_0":60,
						"TANGENT":61
					},
					"indices":41
				}
			]
		},
		{
			"name":"Cube",
			"primitives":[
				{
					"attributes":{
						"POSITION":62,
						"NORMAL":63,
						"TEXCOORD_0":64,
						"COLOR_0":65,
						"COLOR_1":66
					},
					"indices":67,
					"material":0
				}
			]
		},
		{
			"name":"Cube.002",
			"primitives":[
				{
					"attributes":{
						"POSITION":68,
						"NORMAL":69,
						"TEXCOORD_0":70,
						"COLOR_0":71,
						"COLOR_1":72
					},
					"indices":73,
					"material":0
				}
			]
		},
		{
			"name":"Cylinder",
			"primitives":[
				{
					"attributes":{
						"POSITION":74,
						"NORMAL":75,
						"TEXCOORD_0":76,
						"COLOR_0":77,
						"COLOR_1":78
					},
					"indices":79,
					"material":0
				}
			]
		},
		{
			"name":"Cylinder.003",
			"primitives":[
				{
					"attributes":{
						"POSITION":80,
						"NORMAL":81,
						"TEXCOORD_0":82,
						"TANGENT":83,
						"COLOR_0":84,
						"COLOR_1":85
					},
					"indices":86,
					"material":0
				}
			]
		},
		{
			"name":"Cylinder.004",
			"primitives":[
				{
					"attributes":{
						"POSITION":87,
						"NORMAL":88,
						"TEXCOORD_0":89,
						"TANGENT":90,
						"COLOR_0":91,
						"COLOR_1":92
					},
					"indices":93,
					"material":0
				}
			]
		},
		{
			"name":"Spiral.002",
			"primitives":[
				{
					"attributes":{
						"POSITION":94,
						"NORMAL":95,
						"TEXCOORD_0":96,
						"TANGENT":97
					},
					"indices":98,
					"material":2
				}
			]
		},
		{
			"name":"Cube.376",
			"primitives":[
				{
					"attributes":{
						"POSITION":99,
						"NORMAL":100,
						"TEXCOORD_0":101,
						"TANGENT":102
					},
					"indices":41
				}
			]
		},
		{
			"name":"Text.004",
			"primitives":[
				{
					"attributes":{
						"POSITION":103,
						"NORMAL":104,
						"TEXCOORD_0":105,
						"TANGENT":106,
						"COLOR_0":107,
						"COLOR_1":108
					},
					"indices":109,
					"material":0
				}
			]
		},
		{
			"name":"Text.005",
			"primitives":[
				{
					"attributes":{
						"POSITION":110,
						"NORMAL":111,
						"TEXCOORD_0":112,
						"TANGENT":113,
						"COLOR_0":114,
						"COLOR_1":115
					},
					"indices":116,
					"material":0
				}
			]
		},
		{
			"name":"Text.006",
			"primitives":[
				{
					"attributes":{
						"POSITION":117,
						"NORMAL":118,
						"TEXCOORD_0":119,
						"TANGENT":120,
						"COLOR_0":121,
						"COLOR_1":122
					},
					"indices":123,
					"material":0
				}
			]
		},
		{
			"name":"Text.007",
			"primitives":[
				{
					"attributes":{
						"POSITION":124,
						"NORMAL":125,
						"TEXCOORD_0":126,
						"TANGENT":127,
						"COLOR_0":128,
						"COLOR_1":129
					},
					"indices":130,
					"material":0
				}
			]
		},
		{
			"name":"Cube.009",
			"primitives":[
				{
					"attributes":{
						"POSITION":131,
						"NORMAL":132,
						"TEXCOORD_0":133,
						"TANGENT":134
					},
					"indices":135
				}
			]
		},
		{
			"name":"Cube.008",
			"primitives":[
				{
					"attributes":{
						"POSITION":136,
						"NORMAL":137,
						"TEXCOORD_0":138,
						"TANGENT":139
					},
					"indices":41
				}
			]
		}
	],
	"textures":[
		{
			"sampler":0,
			"source":0
		},
		{
			"sampler":0,
			"source":1
		},
		{
			"sampler":0,
			"source":2
		},
		{
			"sampler":0,
			"source":3
		},
		{
			"sampler":0,
			"source":3
		},
		{
			"sampler":0,
			"source":4
		},
		{
			"sampler":0,
			"source":5
		},
		{
			"sampler":0,
			"source":6
		}
	],
	"images":[
		{
			"mimeType":"image/png",
			"name":"windVane_WindVane_Height",
			"uri":"tex/windVane_WindVane_Height.png"
		},
		{
			"mimeType":"image/png",
			"name":"windVane_WindVane_BaseColor",
			"uri":"tex/windVane_WindVane_BaseColor.png"
		},
		{
			"mimeType":"image/png",
			"name":"windVane_WindVane_Metallic-windVane_WindVane_Roughness",
			"uri":"tex/windVane_WindVane_Metallic-windVane_WindVane_Roughness.png"
		},
		{
			"mimeType":"image/png",
			"name":"pigeonBaked_512x512",
			"uri":"tex/pigeonBaked_512x512.png"
		},
		{
			"mimeType":"image/jpeg",
			"name":"Rope_001_normal",
			"uri":"tex/Rope_001_normal.jpg"
		},
		{
			"mimeType":"image/png",
			"name":"Rope_001_ambientOcclusion-Rope_001_roughness",
			"uri":"tex/Rope_001_ambientOcclusion-Rope_001_roughness.png"
		},
		{
			"mimeType":"image/jpeg",
			"name":"Rope_001_basecolor",
			"uri":"tex/Rope_001_basecolor.jpg"
		}
	],
	"accessors":[
		{
			"bufferView":0,
			"componentType":5126,
			"count":480,
			"max":[
				0.5230295062065125,
				0.39747878909111023,
				0.5524254441261292
			],
			"min":[
				-0.4476655423641205,
				-0.01797952502965927,
				-0.561974287033081
			],
			"type":"VEC3"
		},
		{
			"bufferView":1,
			"componentType":5126,
			"count":480,
			"type":"VEC3"
		},
		{
			"bufferView":2,
			"componentType":5126,
			"count":480,
			"type":"VEC2"
		},
		{
			"bufferView":3,
			"componentType":5126,
			"count":480,
			"type":"VEC4"
		},
		{
			"bufferView":4,
			"componentType":5121,
			"count":480,
			"normalized":true,
			"type":"VEC4"
		},
		{
			"bufferView":5,
			"componentType":5123,
			"count":480,
			"normalized":true,
			"type":"VEC4"
		},
		{
			"bufferView":6,
			"componentType":5123,
			"count":1860,
			"type":"SCALAR"
		},
		{
			"bufferView":7,
			"componentType":5126,
			"count":66,
			"max":[
				0.14609646797180176,
				0.32106396555900574,
				0.42577213048934937
			],
			"min":[
				-0.14614887535572052,
				-0.32106396555900574,
				-0.09245968610048294
			],
			"type":"VEC3"
		},
		{
			"bufferView":8,
			"componentType":5126,
			"count":66,
			"type":"VEC3"
		},
		{
			"bufferView":9,
			"componentType":5126,
			"count":66,
			"type":"VEC2"
		},
		{
			"bufferView":10,
			"componentType":5126,
			"count":66,
			"type":"VEC4"
		},
		{
			"bufferView":11,
			"componentType":5121,
			"count":66,
			"normalized":true,
			"type":"VEC4"
		},
		{
			"bufferView":12,
			"componentType":5123,
			"count":66,
			"normalized":true,
			"type":"VEC4"
		},
		{
			"bufferView":13,
			"componentType":5123,
			"count":132,
			"type":"SCALAR"
		},
		{
			"bufferView":14,
			"componentType":5126,
			"count":189,
			"max":[
				0.08909834176301956,
				0.41507744789123535,
				0.25937119126319885
			],
			"min":[
				-0.08922082930803299,
				-0.3948567509651184,
				-0.9409046769142151
			],
			"type":"VEC3"
		},
		{
			"bufferView":15,
			"componentType":5126,
			"count":189,
			"type":"VEC3"
		},
		{
			"bufferView":16,
			"componentType":5126,
			"count":189,
			"type":"VEC2"
		},
		{
			"bufferView":17,
			"componentType":5126,
			"count":189,
			"type":"VEC4"
		},
		{
			"bufferView":18,
			"componentType":5121,
			"count":189,
			"normalized":true,
			"type":"VEC4"
		},
		{
			"bufferView":19,
			"componentType":5123,
			"count":189,
			"normalized":true,
			"type":"VEC4"
		},
		{
			"bufferView":20,
			"componentType":5123,
			"count":228,
			"type":"SCALAR"
		},
		{
			"bufferView":21,
			"componentType":5126,
			"count":79,
			"max":[
				0.09809136390686035,
				-1.1565216779708862,
				1.3294243812561035
			],
			"min":[
				-0.09798239916563034,
				-1.3923301696777344,
				-2.166918992996216
			],
			"type":"VEC3"
		},
		{
			"bufferView":22,
			"componentType":5126,
			"count":79,
			"type":"VEC3"
		},
		{
			"bufferView":23,
			"componentType":5126,
			"count":79,
			"type":"VEC2"
		},
		{
			"bufferView":24,
			"componentType":5121,
			"count":79,
			"normalized":true,
			"type":"VEC4"
		},
		{
			"bufferView":25,
			"componentType":5123,
			"count":79,
			"normalized":true,
			"type":"VEC4"
		},
		{
			"bufferView":26,
			"componentType":5123,
			"count":276,
			"type":"SCALAR"
		},
		{
			"bufferView":27,
			"componentType":5126,
			"count":34,
			"max":[
				0.05435085669159889,
				-0.956922709941864,
				0.36424344778060913
			],
			"min":[
				-0.05435073375701904,
				-1.0701377391815186,
				-0.3641482889652252
			],
			"type":"VEC3"
		},
		{
			"bufferView":28,
			"componentType":5126,
			"count":34,
			"type":"VEC3"
		},
		{
			"bufferView":29,
			"componentType":5126,
			"count":34,
			"type":"VEC2"
		},
		{
			"bufferView":30,
			"componentType":5121,
			"count":34,
			"normalized":true,
			"type":"VEC4"
		},
		{
			"bufferView":31,
			"componentType":5123,
			"count":34,
			"normalized":true,
			"type":"VEC4"
		},
		{
			"bufferView":32,
			"componentType":5123,
			"count":84,
			"type":"SCALAR"
		},
		{
			"bufferView":33,
			"componentType":5126,
			"count":526,
			"max":[
				0.20554861426353455,
				0.41728585958480835,
				0.2718470096588135
			],
			"min":[
				-0.1990194022655487,
				-0.024103917181491852,
				-0.17279188334941864
			],
			"type":"VEC3"
		},
		{
			"bufferView":34,
			"componentType":5126,
			"count":526,
			"type":"VEC3"
		},
		{
			"bufferView":35,
			"componentType":5126,
			"count":526,
			"type":"VEC2"
		},
		{
			"bufferView":36,
			"componentType":5123,
			"count":2478,
			"type":"SCALAR"
		},
		{
			"bufferView":37,
			"componentType":5126,
			"count":24,
			"max":[
				0.26973652839660645,
				0.30757737159729004,
				2.878185272216797
			],
			"min":[
				-0.26973652839660645,
				-0.3213252127170563,
				-2.878185272216797
			],
			"type":"VEC3"
		},
		{
			"bufferView":38,
			"componentType":5126,
			"count":24,
			"type":"VEC3"
		},
		{
			"bufferView":39,
			"componentType":5126,
			"count":24,
			"type":"VEC2"
		},
		{
			"bufferView":40,
			"componentType":5126,
			"count":24,
			"type":"VEC4"
		},
		{
			"bufferView":41,
			"componentType":5123,
			"count":36,
			"type":"SCALAR"
		},
		{
			"bufferView":42,
			"componentType":5126,
			"count":24,
			"max":[
				0.26973652839660645,
				0.5389803051948547,
				1.354368805885315
			],
			"min":[
				-0.26973652839660645,
				-0.5389803051948547,
				-1.354368805885315
			],
			"type":"VEC3"
		},
		{
			"bufferView":43,
			"componentType":5126,
			"count":24,
			"type":"VEC3"
		},
		{
			"bufferView":44,
			"componentType":5126,
			"count":24,
			"type":"VEC2"
		},
		{
			"bufferView":45,
			"componentType":5126,
			"count":24,
			"type":"VEC4"
		},
		{
			"bufferView":46,
			"componentType":5126,
			"count":24,
			"max":[
				0.26973652839660645,
				0.5389803051948547,
				0.5076864361763
			],
			"min":[
				-0.26973652839660645,
				-0.5389803051948547,
				-0.5076864361763
			],
			"type":"VEC3"
		},
		{
			"bufferView":47,
			"componentType":5126,
			"count":24,
			"type":"VEC3"
		},
		{
			"bufferView":48,
			"componentType":5126,
			"count":24,
			"type":"VEC2"
		},
		{
			"bufferView":49,
			"componentType":5126,
			"count":24,
			"type":"VEC4"
		},
		{
			"bufferView":50,
			"componentType":5126,
			"count":24,
			"max":[
				0.4944629371166229,
				0.5389803051948547,
				0.6824012398719788
			],
			"min":[
				-0.4944629371166229,
				-0.5389803051948547,
				-0.6824012398719788
			],
			"type":"VEC3"
		},
		{
			"bufferView":51,
			"componentType":5126,
			"count":24,
			"type":"VEC3"
		},
		{
			"bufferView":52,
			"componentType":5126,
			"count":24,
			"type":"VEC2"
		},
		{
			"bufferView":53,
			"componentType":5126,
			"count":24,
			"type":"VEC4"
		},
		{
			"bufferView":54,
			"componentType":5126,
			"count":24,
			"max":[
				0.42562782764434814,
				0.5389803051948547,
				0.4914921522140503
			],
			"min":[
				-0.42562782764434814,
				-0.5389803051948547,
				-0.4914921522140503
			],
			"type":"VEC3"
		},
		{
			"bufferView":55,
			"componentType":5126,
			"count":24,
			"type":"VEC3"
		},
		{
			"bufferView":56,
			"componentType":5126,
			"count":24,
			"type":"VEC2"
		},
		{
			"bufferView":57,
			"componentType":5126,
			"count":24,
			"type":"VEC4"
		},
		{
			"bufferView":58,
			"componentType":5126,
			"count":24,
			"max":[
				0.5351030826568604,
				9.293192863464355,
				0.5351030826568604
			],
			"min":[
				-0.5351030826568604,
				-9.293192863464355,
				-0.5351030826568604
			],
			"type":"VEC3"
		},
		{
			"bufferView":59,
			"componentType":5126,
			"count":24,
			"type":"VEC3"
		},
		{
			"bufferView":60,
			"componentType":5126,
			"count":24,
			"type":"VEC2"
		},
		{
			"bufferView":61,
			"componentType":5126,
			"count":24,
			"type":"VEC4"
		},
		{
			"bufferView":62,
			"componentType":5126,
			"count":136,
			"max":[
				0.34316033124923706,
				10.09933090209961,
				0.34316033124923706
			],
			"min":[
				-0.3762396275997162,
				-8.167927742004395,
				-0.3431606888771057
			],
			"type":"VEC3"
		},
		{
			"bufferView":63,
			"componentType":5126,
			"count":136,
			"type":"VEC3"
		},
		{
			"bufferView":64,
			"componentType":5126,
			"count":136,
			"type":"VEC2"
		},
		{
			"bufferView":65,
			"componentType":5121,
			"count":136,
			"normalized":true,
			"type":"VEC4"
		},
		{
			"bufferView":66,
			"componentType":5123,
			"count":136,
			"normalized":true,
			"type":"VEC4"
		},
		{
			"bufferView":67,
			"componentType":5123,
			"count":456,
			"type":"SCALAR"
		},
		{
			"bufferView":68,
			"componentType":5126,
			"count":119,
			"max":[
				0.5607820153236389,
				-8.285375595092773,
				0.5608154535293579
			],
			"min":[
				-0.5607956051826477,
				-9.314910888671875,
				-0.5606710314750671
			],
			"type":"VEC3"
		},
		{
			"bufferView":69,
			"componentType":5126,
			"count":119,
			"type":"VEC3"
		},
		{
			"bufferView":70,
			"componentType":5126,
			"count":119,
			"type":"VEC2"
		},
		{
			"bufferView":71,
			"componentType":5121,
			"count":119,
			"normalized":true,
			"type":"VEC4"
		},
		{
			"bufferView":72,
			"componentType":5123,
			"count":119,
			"normalized":true,
			"type":"VEC4"
		},
		{
			"bufferView":73,
			"componentType":5123,
			"count":360,
			"type":"SCALAR"
		},
		{
			"bufferView":74,
			"componentType":5126,
			"count":110,
			"max":[
				0.37120217084884644,
				6.836148713773582e-06,
				0.37121835350990295
			],
			"min":[
				-0.3712022006511688,
				-1.5181424617767334,
				-0.3711860477924347
			],
			"type":"VEC3"
		},
		{
			"bufferView":75,
			"componentType":5126,
			"count":110,
			"type":"VEC3"
		},
		{
			"bufferView":76,
			"componentType":5126,
			"count":110,
			"type":"VEC2"
		},
		{
			"bufferView":77,
			"componentType":5121,
			"count":110,
			"normalized":true,
			"type":"VEC4"
		},
		{
			"bufferView":78,
			"componentType":5123,
			"count":110,
			"normalized":true,
			"type":"VEC4"
		},
		{
			"bufferView":79,
			"componentType":5123,
			"count":294,
			"type":"SCALAR"
		},
		{
			"bufferView":80,
			"componentType":5126,
			"count":27,
			"max":[
				0.1160152480006218,
				0.11782695353031158,
				2.383253335952759
			],
			"min":[
				-0.11601526290178299,
				-0.11782706528902054,
				-2.383253335952759
			],
			"type":"VEC3"
		},
		{
			"bufferView":81,
			"componentType":5126,
			"count":27,
			"type":"VEC3"
		},
		{
			"bufferView":82,
			"componentType":5126,
			"count":27,
			"type":"VEC2"
		},
		{
			"bufferView":83,
			"componentType":5126,
			"count":27,
			"type":"VEC4"
		},
		{
			"bufferView":84,
			"componentType":5121,
			"count":27,
			"normalized":true,
			"type":"VEC4"
		},
		{
			"bufferView":85,
			"componentType":5123,
			"count":27,
			"normalized":true,
			"type":"VEC4"
		},
		{
			"bufferView":86,
			"componentType":5123,
			"count":96,
			"type":"SCALAR"
		},
		{
			"bufferView":87,
			"componentType":5126,
			"count":27,
			"max":[
				0.11821406334638596,
				0.12094232439994812,
				2.383253335952759
			],
			"min":[
				-0.11821406334638596,
				-0.12094222754240036,
				-2.383253335952759
			],
			"type":"VEC3"
		},
		{
			"bufferView":88,
			"componentType":5126,
			"count":27,
			"type":"VEC3"
		},
		{
			"bufferView":89,
			"componentType":5126,
			"count":27,
			"type":"VEC2"
		},
		{
			"bufferView":90,
			"componentType":5126,
			"count":27,
			"type":"VEC4"
		},
		{
			"bufferView":91,
			"componentType":5121,
			"count":27,
			"normalized":true,
			"type":"VEC4"
		},
		{
			"bufferView":92,
			"componentType":5123,
			"count":27,
			"normalized":true,
			"type":"VEC4"
		},
		{
			"bufferView":93,
			"componentType":5123,
			"count":96,
			"type":"SCALAR"
		},
		{
			"bufferView":94,
			"componentType":5126,
			"count":240,
			"max":[
				0.7653159499168396,
				0.03904478996992111,
				0.9664787650108337
			],
			"min":[
				-0.6210327744483948,
				-0.701982855796814,
				-0.930578351020813
			],
			"type":"VEC3"
		},
		{
			"bufferView":95,
			"componentType":5126,
			"count":240,
			"type":"VEC3"
		},
		{
			"bufferView":96,
			"componentType":5126,
			"count":240,
			"type":"VEC2"
		},
		{
			"bufferView":97,
			"componentType":5126,
			"count":240,
			"type":"VEC4"
		},
		{
			"bufferView":98,
			"componentType":5123,
			"count":1128,
			"type":"SCALAR"
		},
		{
			"bufferView":99,
			"componentType":5126,
			"count":24,
			"max":[
				0.5793671011924744,
				0.3145540952682495,
				0.8989742994308472
			],
			"min":[
				-0.5793671011924744,
				-0.31455403566360474,
				-0.8989742994308472
			],
			"type":"VEC3"
		},
		{
			"bufferView":100,
			"componentType":5126,
			"count":24,
			"type":"VEC3"
		},
		{
			"bufferView":101,
			"componentType":5126,
			"count":24,
			"type":"VEC2"
		},
		{
			"bufferView":102,
			"componentType":5126,
			"count":24,
			"type":"VEC4"
		},
		{
			"bufferView":103,
			"componentType":5126,
			"count":60,
			"max":[
				0.35804620385169983,
				0.0979761853814125,
				0.37121185660362244
			],
			"min":[
				-0.3465261161327362,
				-0.0979761853814125,
				-0.37038904428482056
			],
			"type":"VEC3"
		},
		{
			"bufferView":104,
			"componentType":5126,
			"count":60,
			"type":"VEC3"
		},
		{
			"bufferView":105,
			"componentType":5126,
			"count":60,
			"type":"VEC2"
		},
		{
			"bufferView":106,
			"componentType":5126,
			"count":60,
			"type":"VEC4"
		},
		{
			"bufferView":107,
			"componentType":5121,
			"count":60,
			"normalized":true,
			"type":"VEC4"
		},
		{
			"bufferView":108,
			"componentType":5123,
			"count":60,
			"normalized":true,
			"type":"VEC4"
		},
		{
			"bufferView":109,
			"componentType":5123,
			"count":108,
			"type":"SCALAR"
		},
		{
			"bufferView":110,
			"componentType":5126,
			"count":78,
			"max":[
				0.47456762194633484,
				0.0979761853814125,
				0.419024795293808
			],
			"min":[
				-0.47686222195625305,
				-0.0979761853814125,
				-0.3225761651992798
			],
			"type":"VEC3"
		},
		{
			"bufferView":111,
			"componentType":5126,
			"count":78,
			"type":"VEC3"
		},
		{
			"bufferView":112,
			"componentType":5126,
			"count":78,
			"type":"VEC2"
		},
		{
			"bufferView":113,
			"componentType":5126,
			"count":78,
			"type":"VEC4"
		},
		{
			"bufferView":114,
			"componentType":5121,
			"count":78,
			"normalized":true,
			"type":"VEC4"
		},
		{
			"bufferView":115,
			"componentType":5123,
			"count":78,
			"normalized":true,
			"type":"VEC4"
		},
		{
			"bufferView":116,
			"componentType":5123,
			"count":144,
			"type":"SCALAR"
		},
		{
			"bufferView":117,
			"componentType":5126,
			"count":72,
			"max":[
				0.18351447582244873,
				0.0979761853814125,
				0.38537195324897766
			],
			"min":[
				-0.30711472034454346,
				-0.0979761853814125,
				-0.3562289774417877
			],
			"type":"VEC3"
		},
		{
			"bufferView":118,
			"componentType":5126,
			"count":72,
			"type":"VEC3"
		},
		{
			"bufferView":119,
			"componentType":5126,
			"count":72,
			"type":"VEC2"
		},
		{
			"bufferView":120,
			"componentType":5126,
			"count":72,
			"type":"VEC4"
		},
		{
			"bufferView":121,
			"componentType":5121,
			"count":72,
			"normalized":true,
			"type":"VEC4"
		},
		{
			"bufferView":122,
			"componentType":5123,
			"count":72,
			"normalized":true,
			"type":"VEC4"
		},
		{
			"bufferView":123,
			"componentType":5123,
			"count":132,
			"type":"SCALAR"
		},
		{
			"bufferView":124,
			"componentType":5126,
			"count":152,
			"max":[
				0.2734932005405426,
				0.0979761853814125,
				0.3892790675163269
			],
			"min":[
				-0.2654789090156555,
				-0.0979761853814125,
				-0.3800933361053467
			],
			"type":"VEC3"
		},
		{
			"bufferView":125,
			"componentType":5126,
			"count":152,
			"type":"VEC3"
		},
		{
			"bufferView":126,
			"componentType":5126,
			"count":152,
			"type":"VEC2"
		},
		{
			"bufferView":127,
			"componentType":5126,
			"count":152,
			"type":"VEC4"
		},
		{
			"bufferView":128,
			"componentType":5121,
			"count":152,
			"normalized":true,
			"type":"VEC4"
		},
		{
			"bufferView":129,
			"componentType":5123,
			"count":152,
			"normalized":true,
			"type":"VEC4"
		},
		{
			"bufferView":130,
			"componentType":5123,
			"count":420,
			"type":"SCALAR"
		},
		{
			"bufferView":131,
			"componentType":5126,
			"count":24,
			"max":[
				3.0394744873046875,
				0.38398197293281555,
				0.269736647605896
			],
			"min":[
				-3.0394744873046875,
				-0.3794724941253662,
				-0.269736647605896
			],
			"type":"VEC3"
		},
		{
			"bufferView":132,
			"componentType":5126,
			"count":24,
			"type":"VEC3"
		},
		{
			"bufferView":133,
			"componentType":5126,
			"count":24,
			"type":"VEC2"
		},
		{
			"bufferView":134,
			"componentType":5126,
			"count":24,
			"type":"VEC4"
		},
		{
			"bufferView":135,
			"componentType":5123,
			"count":36,
			"type":"SCALAR"
		},
		{
			"bufferView":136,
			"componentType":5126,
			"count":24,
			"max":[
				0.26973652839660645,
				0.3668244183063507,
				3.0394744873046875
			],
			"min":[
				-0.26973652839660645,
				-0.3668244183063507,
				-3.0394744873046875
			],
			"type":"VEC3"
		},
		{
			"bufferView":137,
			"componentType":5126,
			"count":24,
			"type":"VEC3"
		},
		{
			"bufferView":138,
			"componentType":5126,
			"count":24,
			"type":"VEC2"
		},
		{
			"bufferView":139,
			"componentType":5126,
			"count":24,
			"type":"VEC4"
		},
		{
			"bufferView":140,
			"componentType":5126,
			"count":2,
			"max":[
				40
			],
			"min":[
				0.016666666666666666
			],
			"type":"SCALAR"
		},
		{
			"bufferView":141,
			"componentType":5126,
			"count":2,
			"type":"VEC3"
		},
		{
			"bufferView":142,
			"componentType":5126,
			"count":2,
			"type":"VEC4"
		},
		{
			"bufferView":143,
			"componentType":5126,
			"count":2,
			"type":"VEC3"
		},
		{
			"bufferView":144,
			"componentType":5126,
			"count":2,
			"type":"VEC3"
		},
		{
			"bufferView":145,
			"componentType":5126,
			"count":2400,
			"max":[
				40
			],
			"min":[
				0.016666666666666666
			],
			"type":"SCALAR"
		},
		{
			"bufferView":146,
			"componentType":5126,
			"count":2400,
			"type":"VEC4"
		}
	],
	"bufferViews":[
		{
			"buffer":0,
			"byteLength":5760,
			"byteOffset":0,
			"target":34962
		},
		{
			"buffer":0,
			"byteLength":5760,
			"byteOffset":5760,
			"target":34962
		},
		{
			"buffer":0,
			"byteLength":3840,
			"byteOffset":11520,
			"target":34962
		},
		{
			"buffer":0,
			"byteLength":7680,
			"byteOffset":15360,
			"target":34962
		},
		{
			"buffer":0,
			"byteLength":1920,
			"byteOffset":23040,
			"target":34962
		},
		{
			"buffer":0,
			"byteLength":3840,
			"byteOffset":24960,
			"target":34962
		},
		{
			"buffer":0,
			"byteLength":3720,
			"byteOffset":28800,
			"target":34963
		},
		{
			"buffer":0,
			"byteLength":792,
			"byteOffset":32520,
			"target":34962
		},
		{
			"buffer":0,
			"byteLength":792,
			"byteOffset":33312,
			"target":34962
		},
		{
			"buffer":0,
			"byteLength":528,
			"byteOffset":34104,
			"target":34962
		},
		{
			"buffer":0,
			"byteLength":1056,
			"byteOffset":34632,
			"target":34962
		},
		{
			"buffer":0,
			"byteLength":264,
			"byteOffset":35688,
			"target":34962
		},
		{
			"buffer":0,
			"byteLength":528,
			"byteOffset":35952,
			"target":34962
		},
		{
			"buffer":0,
			"byteLength":264,
			"byteOffset":36480,
			"target":34963
		},
		{
			"buffer":0,
			"byteLength":2268,
			"byteOffset":36744,
			"target":34962
		},
		{
			"buffer":0,
			"byteLength":2268,
			"byteOffset":39012,
			"target":34962
		},
		{
			"buffer":0,
			"byteLength":1512,
			"byteOffset":41280,
			"target":34962
		},
		{
			"buffer":0,
			"byteLength":3024,
			"byteOffset":42792,
			"target":34962
		},
		{
			"buffer":0,
			"byteLength":756,
			"byteOffset":45816,
			"target":34962
		},
		{
			"buffer":0,
			"byteLength":1512,
			"byteOffset":46572,
			"target":34962
		},
		{
			"buffer":0,
			"byteLength":456,
			"byteOffset":48084,
			"target":34963
		},
		{
			"buffer":0,
			"byteLength":948,
			"byteOffset":48540,
			"target":34962
		},
		{
			"buffer":0,
			"byteLength":948,
			"byteOffset":49488,
			"target":34962
		},
		{
			"buffer":0,
			"byteLength":632,
			"byteOffset":50436,
			"target":34962
		},
		{
			"buffer":0,
			"byteLength":316,
			"byteOffset":51068,
			"target":34962
		},
		{
			"buffer":0,
			"byteLength":632,
			"byteOffset":51384,
			"target":34962
		},
		{
			"buffer":0,
			"byteLength":552,
			"byteOffset":52016,
			"target":34963
		},
		{
			"buffer":0,
			"byteLength":408,
			"byteOffset":52568,
			"target":34962
		},
		{
			"buffer":0,
			"byteLength":408,
			"byteOffset":52976,
			"target":34962
		},
		{
			"buffer":0,
			"byteLength":272,
			"byteOffset":53384,
			"target":34962
		},
		{
			"buffer":0,
			"byteLength":136,
			"byteOffset":53656,
			"target":34962
		},
		{
			"buffer":0,
			"byteLength":272,
			"byteOffset":53792,
			"target":34962
		},
		{
			"buffer":0,
			"byteLength":168,
			"byteOffset":54064,
			"target":34963
		},
		{
			"buffer":0,
			"byteLength":6312,
			"byteOffset":54232,
			"target":34962
		},
		{
			"buffer":0,
			"byteLength":6312,
			"byteOffset":60544,
			"target":34962
		},
		{
			"buffer":0,
			"byteLength":4208,
			"byteOffset":66856,
			"target":34962
		},
		{
			"buffer":0,
			"byteLength":4956,
			"byteOffset":71064,
			"target":34963
		},
		{
			"buffer":0,
			"byteLength":288,
			"byteOffset":76020,
			"target":34962
		},
		{
			"buffer":0,
			"byteLength":288,
			"byteOffset":76308,
			"target":34962
		},
		{
			"buffer":0,
			"byteLength":192,
			"byteOffset":76596,
			"target":34962
		},
		{
			"buffer":0,
			"byteLength":384,
			"byteOffset":76788,
			"target":34962
		},
		{
			"buffer":0,
			"byteLength":72,
			"byteOffset":77172,
			"target":34963
		},
		{
			"buffer":0,
			"byteLength":288,
			"byteOffset":77244,
			"target":34962
		},
		{
			"buffer":0,
			"byteLength":288,
			"byteOffset":77532,
			"target":34962
		},
		{
			"buffer":0,
			"byteLength":192,
			"byteOffset":77820,
			"target":34962
		},
		{
			"buffer":0,
			"byteLength":384,
			"byteOffset":78012,
			"target":34962
		},
		{
			"buffer":0,
			"byteLength":288,
			"byteOffset":78396,
			"target":34962
		},
		{
			"buffer":0,
			"byteLength":288,
			"byteOffset":78684,
			"target":34962
		},
		{
			"buffer":0,
			"byteLength":192,
			"byteOffset":78972,
			"target":34962
		},
		{
			"buffer":0,
			"byteLength":384,
			"byteOffset":79164,
			"target":34962
		},
		{
			"buffer":0,
			"byteLength":288,
			"byteOffset":79548,
			"target":34962
		},
		{
			"buffer":0,
			"byteLength":288,
			"byteOffset":79836,
			"target":34962
		},
		{
			"buffer":0,
			"byteLength":192,
			"byteOffset":80124,
			"target":34962
		},
		{
			"buffer":0,
			"byteLength":384,
			"byteOffset":80316,
			"target":34962
		},
		{
			"buffer":0,
			"byteLength":288,
			"byteOffset":80700,
			"target":34962
		},
		{
			"buffer":0,
			"byteLength":288,
			"byteOffset":80988,
			"target":34962
		},
		{
			"buffer":0,
			"byteLength":192,
			"byteOffset":81276,
			"target":34962
		},
		{
			"buffer":0,
			"byteLength":384,
			"byteOffset":81468,
			"target":34962
		},
		{
			"buffer":0,
			"byteLength":288,
			"byteOffset":81852,
			"target":34962
		},
		{
			"buffer":0,
			"byteLength":288,
			"byteOffset":82140,
			"target":34962
		},
		{
			"buffer":0,
			"byteLength":192,
			"byteOffset":82428,
			"target":34962
		},
		{
			"buffer":0,
			"byteLength":384,
			"byteOffset":82620,
			"target":34962
		},
		{
			"buffer":0,
			"byteLength":1632,
			"byteOffset":83004,
			"target":34962
		},
		{
			"buffer":0,
			"byteLength":1632,
			"byteOffset":84636,
			"target":34962
		},
		{
			"buffer":0,
			"byteLength":1088,
			"byteOffset":86268,
			"target":34962
		},
		{
			"buffer":0,
			"byteLength":544,
			"byteOffset":87356,
			"target":34962
		},
		{
			"buffer":0,
			"byteLength":1088,
			"byteOffset":87900,
			"target":34962
		},
		{
			"buffer":0,
			"byteLength":912,
			"byteOffset":88988,
			"target":34963
		},
		{
			"buffer":0,
			"byteLength":1428,
			"byteOffset":89900,
			"target":34962
		},
		{
			"buffer":0,
			"byteLength":1428,
			"byteOffset":91328,
			"target":34962
		},
		{
			"buffer":0,
			"byteLength":952,
			"byteOffset":92756,
			"target":34962
		},
		{
			"buffer":0,
			"byteLength":476,
			"byteOffset":93708,
			"target":34962
		},
		{
			"buffer":0,
			"byteLength":952,
			"byteOffset":94184,
			"target":34962
		},
		{
			"buffer":0,
			"byteLength":720,
			"byteOffset":95136,
			"target":34963
		},
		{
			"buffer":0,
			"byteLength":1320,
			"byteOffset":95856,
			"target":34962
		},
		{
			"buffer":0,
			"byteLength":1320,
			"byteOffset":97176,
			"target":34962
		},
		{
			"buffer":0,
			"byteLength":880,
			"byteOffset":98496,
			"target":34962
		},
		{
			"buffer":0,
			"byteLength":440,
			"byteOffset":99376,
			"target":34962
		},
		{
			"buffer":0,
			"byteLength":880,
			"byteOffset":99816,
			"target":34962
		},
		{
			"buffer":0,
			"byteLength":588,
			"byteOffset":100696,
			"target":34963
		},
		{
			"buffer":0,
			"byteLength":324,
			"byteOffset":101284,
			"target":34962
		},
		{
			"buffer":0,
			"byteLength":324,
			"byteOffset":101608,
			"target":34962
		},
		{
			"buffer":0,
			"byteLength":216,
			"byteOffset":101932,
			"target":34962
		},
		{
			"buffer":0,
			"byteLength":432,
			"byteOffset":102148,
			"target":34962
		},
		{
			"buffer":0,
			"byteLength":108,
			"byteOffset":102580,
			"target":34962
		},
		{
			"buffer":0,
			"byteLength":216,
			"byteOffset":102688,
			"target":34962
		},
		{
			"buffer":0,
			"byteLength":192,
			"byteOffset":102904,
			"target":34963
		},
		{
			"buffer":0,
			"byteLength":324,
			"byteOffset":103096,
			"target":34962
		},
		{
			"buffer":0,
			"byteLength":324,
			"byteOffset":103420,
			"target":34962
		},
		{
			"buffer":0,
			"byteLength":216,
			"byteOffset":103744,
			"target":34962
		},
		{
			"buffer":0,
			"byteLength":432,
			"byteOffset":103960,
			"target":34962
		},
		{
			"buffer":0,
			"byteLength":108,
			"byteOffset":104392,
			"target":34962
		},
		{
			"buffer":0,
			"byteLength":216,
			"byteOffset":104500,
			"target":34962
		},
		{
			"buffer":0,
			"byteLength":192,
			"byteOffset":104716,
			"target":34963
		},
		{
			"buffer":0,
			"byteLength":2880,
			"byteOffset":104908,
			"target":34962
		},
		{
			"buffer":0,
			"byteLength":2880,
			"byteOffset":107788,
			"target":34962
		},
		{
			"buffer":0,
			"byteLength":1920,
			"byteOffset":110668,
			"target":34962
		},
		{
			"buffer":0,
			"byteLength":3840,
			"byteOffset":112588,
			"target":34962
		},
		{
			"buffer":0,
			"byteLength":2256,
			"byteOffset":116428,
			"target":34963
		},
		{
			"buffer":0,
			"byteLength":288,
			"byteOffset":118684,
			"target":34962
		},
		{
			"buffer":0,
			"byteLength":288,
			"byteOffset":118972,
			"target":34962
		},
		{
			"buffer":0,
			"byteLength":192,
			"byteOffset":119260,
			"target":34962
		},
		{
			"buffer":0,
			"byteLength":384,
			"byteOffset":119452,
			"target":34962
		},
		{
			"buffer":0,
			"byteLength":720,
			"byteOffset":119836,
			"target":34962
		},
		{
			"buffer":0,
			"byteLength":720,
			"byteOffset":120556,
			"target":34962
		},
		{
			"buffer":0,
			"byteLength":480,
			"byteOffset":121276,
			"target":34962
		},
		{
			"buffer":0,
			"byteLength":960,
			"byteOffset":121756,
			"target":34962
		},
		{
			"buffer":0,
			"byteLength":240,
			"byteOffset":122716,
			"target":34962
		},
		{
			"buffer":0,
			"byteLength":480,
			"byteOffset":122956,
			"target":34962
		},
		{
			"buffer":0,
			"byteLength":216,
			"byteOffset":123436,
			"target":34963
		},
		{
			"buffer":0,
			"byteLength":936,
			"byteOffset":123652,
			"target":34962
		},
		{
			"buffer":0,
			"byteLength":936,
			"byteOffset":124588,
			"target":34962
		},
		{
			"buffer":0,
			"byteLength":624,
			"byteOffset":125524,
			"target":34962
		},
		{
			"buffer":0,
			"byteLength":1248,
			"byteOffset":126148,
			"target":34962
		},
		{
			"buffer":0,
			"byteLength":312,
			"byteOffset":127396,
			"target":34962
		},
		{
			"buffer":0,
			"byteLength":624,
			"byteOffset":127708,
			"target":34962
		},
		{
			"buffer":0,
			"byteLength":288,
			"byteOffset":128332,
			"target":34963
		},
		{
			"buffer":0,
			"byteLength":864,
			"byteOffset":128620,
			"target":34962
		},
		{
			"buffer":0,
			"byteLength":864,
			"byteOffset":129484,
			"target":34962
		},
		{
			"buffer":0,
			"byteLength":576,
			"byteOffset":130348,
			"target":34962
		},
		{
			"buffer":0,
			"byteLength":1152,
			"byteOffset":130924,
			"target":34962
		},
		{
			"buffer":0,
			"byteLength":288,
			"byteOffset":132076,
			"target":34962
		},
		{
			"buffer":0,
			"byteLength":576,
			"byteOffset":132364,
			"target":34962
		},
		{
			"buffer":0,
			"byteLength":264,
			"byteOffset":132940,
			"target":34963
		},
		{
			"buffer":0,
			"byteLength":1824,
			"byteOffset":133204,
			"target":34962
		},
		{
			"buffer":0,
			"byteLength":1824,
			"byteOffset":135028,
			"target":34962
		},
		{
			"buffer":0,
			"byteLength":1216,
			"byteOffset":136852,
			"target":34962
		},
		{
			"buffer":0,
			"byteLength":2432,
			"byteOffset":138068,
			"target":34962
		},
		{
			"buffer":0,
			"byteLength":608,
			"byteOffset":140500,
			"target":34962
		},
		{
			"buffer":0,
			"byteLength":1216,
			"byteOffset":141108,
			"target":34962
		},
		{
			"buffer":0,
			"byteLength":840,
			"byteOffset":142324,
			"target":34963
		},
		{
			"buffer":0,
			"byteLength":288,
			"byteOffset":143164,
			"target":34962
		},
		{
			"buffer":0,
			"byteLength":288,
			"byteOffset":143452,
			"target":34962
		},
		{
			"buffer":0,
			"byteLength":192,
			"byteOffset":143740,
			"target":34962
		},
		{
			"buffer":0,
			"byteLength":384,
			"byteOffset":143932,
			"target":34962
		},
		{
			"buffer":0,
			"byteLength":72,
			"byteOffset":144316,
			"target":34963
		},
		{
			"buffer":0,
			"byteLength":288,
			"byteOffset":144388,
			"target":34962
		},
		{
			"buffer":0,
			"byteLength":288,
			"byteOffset":144676,
			"target":34962
		},
		{
			"buffer":0,
			"byteLength":192,
			"byteOffset":144964,
			"target":34962
		},
		{
			"buffer":0,
			"byteLength":384,
			"byteOffset":145156,
			"target":34962
		},
		{
			"buffer":0,
			"byteLength":8,
			"byteOffset":145540
		},
		{
			"buffer":0,
			"byteLength":24,
			"byteOffset":145548
		},
		{
			"buffer":0,
			"byteLength":32,
			"byteOffset":145572
		},
		{
			"buffer":0,
			"byteLength":24,
			"byteOffset":145604
		},
		{
			"buffer":0,
			"byteLength":24,
			"byteOffset":145628
		},
		{
			"buffer":0,
			"byteLength":9600,
			"byteOffset":145652
		},
		{
			"buffer":0,
			"byteLength":38400,
			"byteOffset":155252
		}
	],
	"samplers":[
		{
			"magFilter":9729,
			"minFilter":9987
		}
	],
	"buffers":[
		{
			"byteLength":193652,
			"uri":"windVane.bin"
		}
	]
}
