{
	"asset":{
		"generator":"Khronos glTF Blender I/O v4.5.51",
		"version":"2.0"
	},
	"scene":0,
	"scenes":[
		{
			"name":"Scene",
			"nodes":[
				2,
				13,
				14,
				15
			]
		}
	],
	"nodes":[
		{
			"mesh":0,
			"name":"Cube.098",
			"scale":[
				2.571017026901245,
				0.1189437210559845,
				2.0241286754608154
			],
			"translation":[
				-0.047821044921875,
				31.657440185546875,
				0.00365447998046875
			]
		},
		{
			"mesh":1,
			"name":"Cube.099",
			"scale":[
				1.9102070331573486,
				0.03535909950733185,
				1.5038814544677734
			],
			"translation":[
				-0.047821044921875,
				27.032745361328125,
				0.00365447998046875
			]
		},
		{
			"children":[
				0,
				1
			],
			"mesh":2,
			"name":"windSock.pole",
			"rotation":[
				0,
				0.730686366558075,
				0,
				0.6827133297920227
			],
			"scale":[
				0.15816181898117065,
				0.2234191596508026,
				0.15816181898117065
			],
			"translation":[
				244.2484130859375,
				65.11516571044922,
				-244.6608428955078
			]
		},
		{
			"name":"Bone"
		},
		{
			"name":"Bone.001",
			"rotation":[
				-0.7545394897460938,
				0,
				0,
				0.6562546491622925
			],
			"translation":[
				-0.3365936279296875,
				-0.6270599365234375,
				0.247894287109375
			]
		},
		{
			"name":"Bone.006",
			"rotation":[
				-0.01149556040763855,
				1.1920140252641431e-07,
				-1.3703774781603784e-09,
				0.9999339580535889
			],
			"scale":[
				1,
				0.9999998807907104,
				0.9999999403953552
			],
			"translation":[
				1.52587890625e-05,
				0.8922348022460938,
				0
			]
		},
		{
			"children":[
				5
			],
			"name":"Bone.005",
			"rotation":[
				-0.05194578319787979,
				0,
				0,
				0.9986499547958374
			],
			"scale":[
				1,
				1,
				0.9999999403953552
			],
			"translation":[
				1.52587890625e-05,
				0.8751182556152344,
				0
			]
		},
		{
			"children":[
				6
			],
			"name":"Bone.004",
			"rotation":[
				-0.056588709354400635,
				0,
				0,
				0.9983975887298584
			],
			"scale":[
				1,
				0.9999999403953552,
				0.9999999403953552
			],
			"translation":[
				1.52587890625e-05,
				0.886683464050293,
				-2.86102294921875e-06
			]
		},
		{
			"children":[
				7
			],
			"name":"Bone.003",
			"rotation":[
				-0.019628487527370453,
				0,
				0,
				0.9998073577880859
			],
			"scale":[
				1,
				1.0000001192092896,
				1
			],
			"translation":[
				0,
				0.8711698055267334,
				2.384185791015625e-06
			]
		},
		{
			"children":[
				8
			],
			"name":"Bone.002",
			"rotation":[
				0.0610118992626667,
				0,
				0,
				0.9981370568275452
			],
			"translation":[
				-1.52587890625e-05,
				1.1516666412353516,
				0
			]
		},
		{
			"children":[
				9
			],
			"name":"Bone.007",
			"rotation":[
				-0.7545394897460938,
				0,
				0,
				0.6562546491622925
			],
			"translation":[
				-0.3365936279296875,
				-0.6270599365234375,
				0.247894287109375
			]
		},
		{
			"mesh":3,
			"name":"B\u00e9zierCircle",
			"skin":0
		},
		{
			"mesh":4,
			"name":"Cylinder.9529",
			"skin":0
		},
		{
			"children":[
				11,
				12,
				3,
				4,
				10
			],
			"name":"Armature.001",
			"translation":[
				244.6002655029297,
				73.15620422363281,
				-244.64598083496094
			]
		},
		{
			"mesh":5,
			"name":"windSock.pole._collider_box",
			"translation":[
				244.2484130859375,
				65.11516571044922,
				-244.6608428955078
			]
		},
		{
			"mesh":6,
			"name":"windSock.pole._collider_box.001",
			"translation":[
				244.2484130859375,
				72.14276123046875,
				-244.6608428955078
			]
		}
	],
	"animations":[
		{
			"channels":[
				{
					"sampler":0,
					"target":{
						"node":3,
						"path":"translation"
					}
				},
				{
					"sampler":1,
					"target":{
						"node":3,
						"path":"rotation"
					}
				},
				{
					"sampler":2,
					"target":{
						"node":3,
						"path":"scale"
					}
				},
				{
					"sampler":3,
					"target":{
						"node":4,
						"path":"translation"
					}
				},
				{
					"sampler":4,
					"target":{
						"node":4,
						"path":"rotation"
					}
				},
				{
					"sampler":5,
					"target":{
						"node":4,
						"path":"scale"
					}
				},
				{
					"sampler":6,
					"target":{
						"node":10,
						"path":"translation"
					}
				},
				{
					"sampler":7,
					"target":{
						"node":10,
						"path":"rotation"
					}
				},
				{
					"sampler":8,
					"target":{
						"node":10,
						"path":"scale"
					}
				},
				{
					"sampler":9,
					"target":{
						"node":9,
						"path":"translation"
					}
				},
				{
					"sampler":10,
					"target":{
						"node":9,
						"path":"rotation"
					}
				},
				{
					"sampler":11,
					"target":{
						"node":9,
						"path":"scale"
					}
				},
				{
					"sampler":12,
					"target":{
						"node":8,
						"path":"translation"
					}
				},
				{
					"sampler":13,
					"target":{
						"node":8,
						"path":"rotation"
					}
				},
				{
					"sampler":14,
					"target":{
						"node":8,
						"path":"scale"
					}
				},
				{
					"sampler":15,
					"target":{
						"node":7,
						"path":"translation"
					}
				},
				{
					"sampler":16,
					"target":{
						"node":7,
						"path":"rotation"
					}
				},
				{
					"sampler":17,
					"target":{
						"node":7,
						"path":"scale"
					}
				},
				{
					"sampler":18,
					"target":{
						"node":6,
						"path":"translation"
					}
				},
				{
					"sampler":19,
					"target":{
						"node":6,
						"path":"rotation"
					}
				},
				{
					"sampler":20,
					"target":{
						"node":6,
						"path":"scale"
					}
				},
				{
					"sampler":21,
					"target":{
						"node":5,
						"path":"translation"
					}
				},
				{
					"sampler":22,
					"target":{
						"node":5,
						"path":"rotation"
					}
				},
				{
					"sampler":23,
					"target":{
						"node":5,
						"path":"scale"
					}
				}
			],
			"name":"Armature.001Action",
			"samplers":[
				{
					"input":32,
					"interpolation":"STEP",
					"output":33
				},
				{
					"input":32,
					"interpolation":"STEP",
					"output":34
				},
				{
					"input":32,
					"interpolation":"STEP",
					"output":35
				},
				{
					"input":32,
					"interpolation":"STEP",
					"output":36
				},
				{
					"input":37,
					"interpolation":"LINEAR",
					"output":38
				},
				{
					"input":32,
					"interpolation":"STEP",
					"output":39
				},
				{
					"input":32,
					"interpolation":"STEP",
					"output":36
				},
				{
					"input":37,
					"interpolation":"LINEAR",
					"output":40
				},
				{
					"input":32,
					"interpolation":"STEP",
					"output":41
				},
				{
					"input":32,
					"interpolation":"LINEAR",
					"output":42
				},
				{
					"input":37,
					"interpolation":"LINEAR",
					"output":43
				},
				{
					"input":32,
					"interpolation":"STEP",
					"output":44
				},
				{
					"input":32,
					"interpolation":"LINEAR",
					"output":45
				},
				{
					"input":37,
					"interpolation":"LINEAR",
					"output":46
				},
				{
					"input":32,
					"interpolation":"STEP",
					"output":47
				},
				{
					"input":32,
					"interpolation":"LINEAR",
					"output":48
				},
				{
					"input":37,
					"interpolation":"LINEAR",
					"output":49
				},
				{
					"input":32,
					"interpolation":"STEP",
					"output":50
				},
				{
					"input":32,
					"interpolation":"LINEAR",
					"output":51
				},
				{
					"input":37,
					"interpolation":"LINEAR",
					"output":52
				},
				{
					"input":32,
					"interpolation":"STEP",
					"output":53
				},
				{
					"input":32,
					"interpolation":"LINEAR",
					"output":54
				},
				{
					"input":32,
					"interpolation":"LINEAR",
					"output":55
				},
				{
					"input":32,
					"interpolation":"STEP",
					"output":56
				}
			]
		},
		{
			"channels":[
				{
					"sampler":0,
					"target":{
						"node":3,
						"path":"translation"
					}
				},
				{
					"sampler":1,
					"target":{
						"node":3,
						"path":"rotation"
					}
				},
				{
					"sampler":2,
					"target":{
						"node":3,
						"path":"scale"
					}
				},
				{
					"sampler":3,
					"target":{
						"node":4,
						"path":"translation"
					}
				},
				{
					"sampler":4,
					"target":{
						"node":4,
						"path":"rotation"
					}
				},
				{
					"sampler":5,
					"target":{
						"node":4,
						"path":"scale"
					}
				},
				{
					"sampler":6,
					"target":{
						"node":10,
						"path":"translation"
					}
				},
				{
					"sampler":7,
					"target":{
						"node":10,
						"path":"rotation"
					}
				},
				{
					"sampler":8,
					"target":{
						"node":10,
						"path":"scale"
					}
				},
				{
					"sampler":9,
					"target":{
						"node":9,
						"path":"translation"
					}
				},
				{
					"sampler":10,
					"target":{
						"node":9,
						"path":"rotation"
					}
				},
				{
					"sampler":11,
					"target":{
						"node":9,
						"path":"scale"
					}
				},
				{
					"sampler":12,
					"target":{
						"node":8,
						"path":"translation"
					}
				},
				{
					"sampler":13,
					"target":{
						"node":8,
						"path":"rotation"
					}
				},
				{
					"sampler":14,
					"target":{
						"node":8,
						"path":"scale"
					}
				},
				{
					"sampler":15,
					"target":{
						"node":7,
						"path":"translation"
					}
				},
				{
					"sampler":16,
					"target":{
						"node":7,
						"path":"rotation"
					}
				},
				{
					"sampler":17,
					"target":{
						"node":7,
						"path":"scale"
					}
				},
				{
					"sampler":18,
					"target":{
						"node":6,
						"path":"translation"
					}
				},
				{
					"sampler":19,
					"target":{
						"node":6,
						"path":"rotation"
					}
				},
				{
					"sampler":20,
					"target":{
						"node":6,
						"path":"scale"
					}
				},
				{
					"sampler":21,
					"target":{
						"node":5,
						"path":"translation"
					}
				},
				{
					"sampler":22,
					"target":{
						"node":5,
						"path":"rotation"
					}
				},
				{
					"sampler":23,
					"target":{
						"node":5,
						"path":"scale"
					}
				}
			],
			"name":"ArmatureAction",
			"samplers":[
				{
					"input":57,
					"interpolation":"STEP",
					"output":33
				},
				{
					"input":57,
					"interpolation":"STEP",
					"output":34
				},
				{
					"input":57,
					"interpolation":"STEP",
					"output":35
				},
				{
					"input":57,
					"interpolation":"STEP",
					"output":36
				},
				{
					"input":58,
					"interpolation":"LINEAR",
					"output":59
				},
				{
					"input":57,
					"interpolation":"STEP",
					"output":60
				},
				{
					"input":57,
					"interpolation":"STEP",
					"output":36
				},
				{
					"input":58,
					"interpolation":"LINEAR",
					"output":61
				},
				{
					"input":57,
					"interpolation":"STEP",
					"output":62
				},
				{
					"input":57,
					"interpolation":"STEP",
					"output":63
				},
				{
					"input":58,
					"interpolation":"LINEAR",
					"output":64
				},
				{
					"input":57,
					"interpolation":"STEP",
					"output":65
				},
				{
					"input":57,
					"interpolation":"STEP",
					"output":66
				},
				{
					"input":58,
					"interpolation":"LINEAR",
					"output":67
				},
				{
					"input":57,
					"interpolation":"STEP",
					"output":68
				},
				{
					"input":57,
					"interpolation":"STEP",
					"output":69
				},
				{
					"input":58,
					"interpolation":"LINEAR",
					"output":70
				},
				{
					"input":57,
					"interpolation":"STEP",
					"output":71
				},
				{
					"input":57,
					"interpolation":"STEP",
					"output":72
				},
				{
					"input":58,
					"interpolation":"LINEAR",
					"output":73
				},
				{
					"input":57,
					"interpolation":"STEP",
					"output":74
				},
				{
					"input":57,
					"interpolation":"STEP",
					"output":75
				},
				{
					"input":57,
					"interpolation":"STEP",
					"output":76
				},
				{
					"input":57,
					"interpolation":"STEP",
					"output":77
				}
			]
		},
		{
			"channels":[
				{
					"sampler":0,
					"target":{
						"node":3,
						"path":"translation"
					}
				},
				{
					"sampler":1,
					"target":{
						"node":3,
						"path":"rotation"
					}
				},
				{
					"sampler":2,
					"target":{
						"node":3,
						"path":"scale"
					}
				},
				{
					"sampler":3,
					"target":{
						"node":4,
						"path":"translation"
					}
				},
				{
					"sampler":4,
					"target":{
						"node":4,
						"path":"rotation"
					}
				},
				{
					"sampler":5,
					"target":{
						"node":4,
						"path":"scale"
					}
				},
				{
					"sampler":6,
					"target":{
						"node":10,
						"path":"translation"
					}
				},
				{
					"sampler":7,
					"target":{
						"node":10,
						"path":"rotation"
					}
				},
				{
					"sampler":8,
					"target":{
						"node":10,
						"path":"scale"
					}
				},
				{
					"sampler":9,
					"target":{
						"node":9,
						"path":"translation"
					}
				},
				{
					"sampler":10,
					"target":{
						"node":9,
						"path":"rotation"
					}
				},
				{
					"sampler":11,
					"target":{
						"node":9,
						"path":"scale"
					}
				},
				{
					"sampler":12,
					"target":{
						"node":8,
						"path":"translation"
					}
				},
				{
					"sampler":13,
					"target":{
						"node":8,
						"path":"rotation"
					}
				},
				{
					"sampler":14,
					"target":{
						"node":8,
						"path":"scale"
					}
				},
				{
					"sampler":15,
					"target":{
						"node":7,
						"path":"translation"
					}
				},
				{
					"sampler":16,
					"target":{
						"node":7,
						"path":"rotation"
					}
				},
				{
					"sampler":17,
					"target":{
						"node":7,
						"path":"scale"
					}
				},
				{
					"sampler":18,
					"target":{
						"node":6,
						"path":"translation"
					}
				},
				{
					"sampler":19,
					"target":{
						"node":6,
						"path":"rotation"
					}
				},
				{
					"sampler":20,
					"target":{
						"node":6,
						"path":"scale"
					}
				},
				{
					"sampler":21,
					"target":{
						"node":5,
						"path":"translation"
					}
				},
				{
					"sampler":22,
					"target":{
						"node":5,
						"path":"rotation"
					}
				},
				{
					"sampler":23,
					"target":{
						"node":5,
						"path":"scale"
					}
				}
			],
			"name":"Pigeon1",
			"samplers":[
				{
					"input":78,
					"interpolation":"STEP",
					"output":33
				},
				{
					"input":78,
					"interpolation":"STEP",
					"output":34
				},
				{
					"input":78,
					"interpolation":"STEP",
					"output":35
				},
				{
					"input":78,
					"interpolation":"STEP",
					"output":36
				},
				{
					"input":78,
					"interpolation":"STEP",
					"output":79
				},
				{
					"input":78,
					"interpolation":"STEP",
					"output":60
				},
				{
					"input":78,
					"interpolation":"STEP",
					"output":36
				},
				{
					"input":78,
					"interpolation":"STEP",
					"output":80
				},
				{
					"input":78,
					"interpolation":"STEP",
					"output":81
				},
				{
					"input":78,
					"interpolation":"STEP",
					"output":82
				},
				{
					"input":78,
					"interpolation":"STEP",
					"output":83
				},
				{
					"input":78,
					"interpolation":"STEP",
					"output":84
				},
				{
					"input":78,
					"interpolation":"STEP",
					"output":85
				},
				{
					"input":78,
					"interpolation":"STEP",
					"output":86
				},
				{
					"input":78,
					"interpolation":"STEP",
					"output":87
				},
				{
					"input":78,
					"interpolation":"STEP",
					"output":88
				},
				{
					"input":78,
					"interpolation":"STEP",
					"output":89
				},
				{
					"input":78,
					"interpolation":"STEP",
					"output":90
				},
				{
					"input":78,
					"interpolation":"STEP",
					"output":91
				},
				{
					"input":78,
					"interpolation":"STEP",
					"output":92
				},
				{
					"input":78,
					"interpolation":"STEP",
					"output":93
				},
				{
					"input":78,
					"interpolation":"STEP",
					"output":94
				},
				{
					"input":78,
					"interpolation":"STEP",
					"output":95
				},
				{
					"input":78,
					"interpolation":"STEP",
					"output":77
				}
			]
		},
		{
			"channels":[
				{
					"sampler":0,
					"target":{
						"node":3,
						"path":"translation"
					}
				},
				{
					"sampler":1,
					"target":{
						"node":3,
						"path":"rotation"
					}
				},
				{
					"sampler":2,
					"target":{
						"node":3,
						"path":"scale"
					}
				},
				{
					"sampler":3,
					"target":{
						"node":4,
						"path":"translation"
					}
				},
				{
					"sampler":4,
					"target":{
						"node":4,
						"path":"rotation"
					}
				},
				{
					"sampler":5,
					"target":{
						"node":4,
						"path":"scale"
					}
				},
				{
					"sampler":6,
					"target":{
						"node":10,
						"path":"translation"
					}
				},
				{
					"sampler":7,
					"target":{
						"node":10,
						"path":"rotation"
					}
				},
				{
					"sampler":8,
					"target":{
						"node":10,
						"path":"scale"
					}
				},
				{
					"sampler":9,
					"target":{
						"node":9,
						"path":"translation"
					}
				},
				{
					"sampler":10,
					"target":{
						"node":9,
						"path":"rotation"
					}
				},
				{
					"sampler":11,
					"target":{
						"node":9,
						"path":"scale"
					}
				},
				{
					"sampler":12,
					"target":{
						"node":8,
						"path":"translation"
					}
				},
				{
					"sampler":13,
					"target":{
						"node":8,
						"path":"rotation"
					}
				},
				{
					"sampler":14,
					"target":{
						"node":8,
						"path":"scale"
					}
				},
				{
					"sampler":15,
					"target":{
						"node":7,
						"path":"translation"
					}
				},
				{
					"sampler":16,
					"target":{
						"node":7,
						"path":"rotation"
					}
				},
				{
					"sampler":17,
					"target":{
						"node":7,
						"path":"scale"
					}
				},
				{
					"sampler":18,
					"target":{
						"node":6,
						"path":"translation"
					}
				},
				{
					"sampler":19,
					"target":{
						"node":6,
						"path":"rotation"
					}
				},
				{
					"sampler":20,
					"target":{
						"node":6,
						"path":"scale"
					}
				},
				{
					"sampler":21,
					"target":{
						"node":5,
						"path":"translation"
					}
				},
				{
					"sampler":22,
					"target":{
						"node":5,
						"path":"rotation"
					}
				},
				{
					"sampler":23,
					"target":{
						"node":5,
						"path":"scale"
					}
				}
			],
			"name":"Pigeon1.001",
			"samplers":[
				{
					"input":96,
					"interpolation":"STEP",
					"output":33
				},
				{
					"input":96,
					"interpolation":"STEP",
					"output":34
				},
				{
					"input":96,
					"interpolation":"STEP",
					"output":35
				},
				{
					"input":96,
					"interpolation":"STEP",
					"output":36
				},
				{
					"input":96,
					"interpolation":"STEP",
					"output":79
				},
				{
					"input":96,
					"interpolation":"STEP",
					"output":60
				},
				{
					"input":96,
					"interpolation":"STEP",
					"output":36
				},
				{
					"input":96,
					"interpolation":"STEP",
					"output":80
				},
				{
					"input":96,
					"interpolation":"STEP",
					"output":81
				},
				{
					"input":96,
					"interpolation":"STEP",
					"output":82
				},
				{
					"input":96,
					"interpolation":"STEP",
					"output":83
				},
				{
					"input":96,
					"interpolation":"STEP",
					"output":84
				},
				{
					"input":96,
					"interpolation":"STEP",
					"output":85
				},
				{
					"input":96,
					"interpolation":"STEP",
					"output":86
				},
				{
					"input":96,
					"interpolation":"STEP",
					"output":87
				},
				{
					"input":96,
					"interpolation":"STEP",
					"output":88
				},
				{
					"input":96,
					"interpolation":"STEP",
					"output":89
				},
				{
					"input":96,
					"interpolation":"STEP",
					"output":90
				},
				{
					"input":96,
					"interpolation":"STEP",
					"output":91
				},
				{
					"input":96,
					"interpolation":"STEP",
					"output":92
				},
				{
					"input":96,
					"interpolation":"STEP",
					"output":93
				},
				{
					"input":96,
					"interpolation":"STEP",
					"output":94
				},
				{
					"input":96,
					"interpolation":"STEP",
					"output":95
				},
				{
					"input":96,
					"interpolation":"STEP",
					"output":77
				}
			]
		},
		{
			"channels":[
				{
					"sampler":0,
					"target":{
						"node":3,
						"path":"translation"
					}
				},
				{
					"sampler":1,
					"target":{
						"node":3,
						"path":"rotation"
					}
				},
				{
					"sampler":2,
					"target":{
						"node":3,
						"path":"scale"
					}
				},
				{
					"sampler":3,
					"target":{
						"node":4,
						"path":"translation"
					}
				},
				{
					"sampler":4,
					"target":{
						"node":4,
						"path":"rotation"
					}
				},
				{
					"sampler":5,
					"target":{
						"node":4,
						"path":"scale"
					}
				},
				{
					"sampler":6,
					"target":{
						"node":10,
						"path":"translation"
					}
				},
				{
					"sampler":7,
					"target":{
						"node":10,
						"path":"rotation"
					}
				},
				{
					"sampler":8,
					"target":{
						"node":10,
						"path":"scale"
					}
				},
				{
					"sampler":9,
					"target":{
						"node":9,
						"path":"translation"
					}
				},
				{
					"sampler":10,
					"target":{
						"node":9,
						"path":"rotation"
					}
				},
				{
					"sampler":11,
					"target":{
						"node":9,
						"path":"scale"
					}
				},
				{
					"sampler":12,
					"target":{
						"node":8,
						"path":"translation"
					}
				},
				{
					"sampler":13,
					"target":{
						"node":8,
						"path":"rotation"
					}
				},
				{
					"sampler":14,
					"target":{
						"node":8,
						"path":"scale"
					}
				},
				{
					"sampler":15,
					"target":{
						"node":7,
						"path":"translation"
					}
				},
				{
					"sampler":16,
					"target":{
						"node":7,
						"path":"rotation"
					}
				},
				{
					"sampler":17,
					"target":{
						"node":7,
						"path":"scale"
					}
				},
				{
					"sampler":18,
					"target":{
						"node":6,
						"path":"translation"
					}
				},
				{
					"sampler":19,
					"target":{
						"node":6,
						"path":"rotation"
					}
				},
				{
					"sampler":20,
					"target":{
						"node":6,
						"path":"scale"
					}
				},
				{
					"sampler":21,
					"target":{
						"node":5,
						"path":"translation"
					}
				},
				{
					"sampler":22,
					"target":{
						"node":5,
						"path":"rotation"
					}
				},
				{
					"sampler":23,
					"target":{
						"node":5,
						"path":"scale"
					}
				}
			],
			"name":"Pigeon1.001-Armature_Prop2",
			"samplers":[
				{
					"input":96,
					"interpolation":"STEP",
					"output":33
				},
				{
					"input":96,
					"interpolation":"STEP",
					"output":34
				},
				{
					"input":96,
					"interpolation":"STEP",
					"output":35
				},
				{
					"input":96,
					"interpolation":"STEP",
					"output":36
				},
				{
					"input":96,
					"interpolation":"STEP",
					"output":79
				},
				{
					"input":96,
					"interpolation":"STEP",
					"output":60
				},
				{
					"input":96,
					"interpolation":"STEP",
					"output":36
				},
				{
					"input":96,
					"interpolation":"STEP",
					"output":80
				},
				{
					"input":96,
					"interpolation":"STEP",
					"output":81
				},
				{
					"input":96,
					"interpolation":"STEP",
					"output":82
				},
				{
					"input":96,
					"interpolation":"STEP",
					"output":83
				},
				{
					"input":96,
					"interpolation":"STEP",
					"output":84
				},
				{
					"input":96,
					"interpolation":"STEP",
					"output":85
				},
				{
					"input":96,
					"interpolation":"STEP",
					"output":86
				},
				{
					"input":96,
					"interpolation":"STEP",
					"output":87
				},
				{
					"input":96,
					"interpolation":"STEP",
					"output":88
				},
				{
					"input":96,
					"interpolation":"STEP",
					"output":89
				},
				{
					"input":96,
					"interpolation":"STEP",
					"output":90
				},
				{
					"input":96,
					"interpolation":"STEP",
					"output":91
				},
				{
					"input":96,
					"interpolation":"STEP",
					"output":92
				},
				{
					"input":96,
					"interpolation":"STEP",
					"output":93
				},
				{
					"input":96,
					"interpolation":"STEP",
					"output":94
				},
				{
					"input":96,
					"interpolation":"STEP",
					"output":95
				},
				{
					"input":96,
					"interpolation":"STEP",
					"output":77
				}
			]
		},
		{
			"channels":[
				{
					"sampler":0,
					"target":{
						"node":3,
						"path":"translation"
					}
				},
				{
					"sampler":1,
					"target":{
						"node":3,
						"path":"rotation"
					}
				},
				{
					"sampler":2,
					"target":{
						"node":3,
						"path":"scale"
					}
				},
				{
					"sampler":3,
					"target":{
						"node":4,
						"path":"translation"
					}
				},
				{
					"sampler":4,
					"target":{
						"node":4,
						"path":"rotation"
					}
				},
				{
					"sampler":5,
					"target":{
						"node":4,
						"path":"scale"
					}
				},
				{
					"sampler":6,
					"target":{
						"node":10,
						"path":"translation"
					}
				},
				{
					"sampler":7,
					"target":{
						"node":10,
						"path":"rotation"
					}
				},
				{
					"sampler":8,
					"target":{
						"node":10,
						"path":"scale"
					}
				},
				{
					"sampler":9,
					"target":{
						"node":9,
						"path":"translation"
					}
				},
				{
					"sampler":10,
					"target":{
						"node":9,
						"path":"rotation"
					}
				},
				{
					"sampler":11,
					"target":{
						"node":9,
						"path":"scale"
					}
				},
				{
					"sampler":12,
					"target":{
						"node":8,
						"path":"translation"
					}
				},
				{
					"sampler":13,
					"target":{
						"node":8,
						"path":"rotation"
					}
				},
				{
					"sampler":14,
					"target":{
						"node":8,
						"path":"scale"
					}
				},
				{
					"sampler":15,
					"target":{
						"node":7,
						"path":"translation"
					}
				},
				{
					"sampler":16,
					"target":{
						"node":7,
						"path":"rotation"
					}
				},
				{
					"sampler":17,
					"target":{
						"node":7,
						"path":"scale"
					}
				},
				{
					"sampler":18,
					"target":{
						"node":6,
						"path":"translation"
					}
				},
				{
					"sampler":19,
					"target":{
						"node":6,
						"path":"rotation"
					}
				},
				{
					"sampler":20,
					"target":{
						"node":6,
						"path":"scale"
					}
				},
				{
					"sampler":21,
					"target":{
						"node":5,
						"path":"translation"
					}
				},
				{
					"sampler":22,
					"target":{
						"node":5,
						"path":"rotation"
					}
				},
				{
					"sampler":23,
					"target":{
						"node":5,
						"path":"scale"
					}
				}
			],
			"name":"Pigeon1.002",
			"samplers":[
				{
					"input":97,
					"interpolation":"STEP",
					"output":33
				},
				{
					"input":97,
					"interpolation":"STEP",
					"output":34
				},
				{
					"input":97,
					"interpolation":"STEP",
					"output":35
				},
				{
					"input":97,
					"interpolation":"STEP",
					"output":36
				},
				{
					"input":97,
					"interpolation":"STEP",
					"output":79
				},
				{
					"input":97,
					"interpolation":"STEP",
					"output":60
				},
				{
					"input":97,
					"interpolation":"STEP",
					"output":36
				},
				{
					"input":97,
					"interpolation":"STEP",
					"output":80
				},
				{
					"input":97,
					"interpolation":"STEP",
					"output":81
				},
				{
					"input":97,
					"interpolation":"STEP",
					"output":82
				},
				{
					"input":97,
					"interpolation":"STEP",
					"output":83
				},
				{
					"input":97,
					"interpolation":"STEP",
					"output":84
				},
				{
					"input":97,
					"interpolation":"STEP",
					"output":85
				},
				{
					"input":97,
					"interpolation":"STEP",
					"output":86
				},
				{
					"input":97,
					"interpolation":"STEP",
					"output":87
				},
				{
					"input":97,
					"interpolation":"STEP",
					"output":88
				},
				{
					"input":97,
					"interpolation":"STEP",
					"output":89
				},
				{
					"input":97,
					"interpolation":"STEP",
					"output":90
				},
				{
					"input":97,
					"interpolation":"STEP",
					"output":91
				},
				{
					"input":97,
					"interpolation":"STEP",
					"output":92
				},
				{
					"input":97,
					"interpolation":"STEP",
					"output":93
				},
				{
					"input":97,
					"interpolation":"STEP",
					"output":94
				},
				{
					"input":97,
					"interpolation":"STEP",
					"output":95
				},
				{
					"input":97,
					"interpolation":"STEP",
					"output":77
				}
			]
		},
		{
			"channels":[
				{
					"sampler":0,
					"target":{
						"node":3,
						"path":"translation"
					}
				},
				{
					"sampler":1,
					"target":{
						"node":3,
						"path":"rotation"
					}
				},
				{
					"sampler":2,
					"target":{
						"node":3,
						"path":"scale"
					}
				},
				{
					"sampler":3,
					"target":{
						"node":4,
						"path":"translation"
					}
				},
				{
					"sampler":4,
					"target":{
						"node":4,
						"path":"rotation"
					}
				},
				{
					"sampler":5,
					"target":{
						"node":4,
						"path":"scale"
					}
				},
				{
					"sampler":6,
					"target":{
						"node":10,
						"path":"translation"
					}
				},
				{
					"sampler":7,
					"target":{
						"node":10,
						"path":"rotation"
					}
				},
				{
					"sampler":8,
					"target":{
						"node":10,
						"path":"scale"
					}
				},
				{
					"sampler":9,
					"target":{
						"node":9,
						"path":"translation"
					}
				},
				{
					"sampler":10,
					"target":{
						"node":9,
						"path":"rotation"
					}
				},
				{
					"sampler":11,
					"target":{
						"node":9,
						"path":"scale"
					}
				},
				{
					"sampler":12,
					"target":{
						"node":8,
						"path":"translation"
					}
				},
				{
					"sampler":13,
					"target":{
						"node":8,
						"path":"rotation"
					}
				},
				{
					"sampler":14,
					"target":{
						"node":8,
						"path":"scale"
					}
				},
				{
					"sampler":15,
					"target":{
						"node":7,
						"path":"translation"
					}
				},
				{
					"sampler":16,
					"target":{
						"node":7,
						"path":"rotation"
					}
				},
				{
					"sampler":17,
					"target":{
						"node":7,
						"path":"scale"
					}
				},
				{
					"sampler":18,
					"target":{
						"node":6,
						"path":"translation"
					}
				},
				{
					"sampler":19,
					"target":{
						"node":6,
						"path":"rotation"
					}
				},
				{
					"sampler":20,
					"target":{
						"node":6,
						"path":"scale"
					}
				},
				{
					"sampler":21,
					"target":{
						"node":5,
						"path":"translation"
					}
				},
				{
					"sampler":22,
					"target":{
						"node":5,
						"path":"rotation"
					}
				},
				{
					"sampler":23,
					"target":{
						"node":5,
						"path":"scale"
					}
				}
			],
			"name":"Pigeon1.002-Armature_Prop2",
			"samplers":[
				{
					"input":97,
					"interpolation":"STEP",
					"output":33
				},
				{
					"input":97,
					"interpolation":"STEP",
					"output":34
				},
				{
					"input":97,
					"interpolation":"STEP",
					"output":35
				},
				{
					"input":97,
					"interpolation":"STEP",
					"output":36
				},
				{
					"input":97,
					"interpolation":"STEP",
					"output":79
				},
				{
					"input":97,
					"interpolation":"STEP",
					"output":60
				},
				{
					"input":97,
					"interpolation":"STEP",
					"output":36
				},
				{
					"input":97,
					"interpolation":"STEP",
					"output":80
				},
				{
					"input":97,
					"interpolation":"STEP",
					"output":81
				},
				{
					"input":97,
					"interpolation":"STEP",
					"output":82
				},
				{
					"input":97,
					"interpolation":"STEP",
					"output":83
				},
				{
					"input":97,
					"interpolation":"STEP",
					"output":84
				},
				{
					"input":97,
					"interpolation":"STEP",
					"output":85
				},
				{
					"input":97,
					"interpolation":"STEP",
					"output":86
				},
				{
					"input":97,
					"interpolation":"STEP",
					"output":87
				},
				{
					"input":97,
					"interpolation":"STEP",
					"output":88
				},
				{
					"input":97,
					"interpolation":"STEP",
					"output":89
				},
				{
					"input":97,
					"interpolation":"STEP",
					"output":90
				},
				{
					"input":97,
					"interpolation":"STEP",
					"output":91
				},
				{
					"input":97,
					"interpolation":"STEP",
					"output":92
				},
				{
					"input":97,
					"interpolation":"STEP",
					"output":93
				},
				{
					"input":97,
					"interpolation":"STEP",
					"output":94
				},
				{
					"input":97,
					"interpolation":"STEP",
					"output":95
				},
				{
					"input":97,
					"interpolation":"STEP",
					"output":77
				}
			]
		}
	],
	"materials":[
		{
			"name":"Wood_InteriorFloor_v02_Mat",
			"normalTexture":{
				"index":0
			},
			"pbrMetallicRoughness":{
				"baseColorTexture":{
					"index":1
				},
				"metallicFactor":0,
				"roughnessFactor":0.5
			}
		},
		{
			"name":"AtlasGradient_Mat",
			"pbrMetallicRoughness":{
				"baseColorTexture":{
					"index":2
				},
				"metallicFactor":0,
				"roughnessFactor":0.8451327085494995
			}
		}
	],
	"meshes":[
		{
			"name":"Cube.112",
			"primitives":[
				{
					"attributes":{
						"POSITION":0,
						"NORMAL":1,
						"TEXCOORD_0":2
					},
					"indices":3,
					"material":0
				}
			]
		},
		{
			"name":"Cube.113",
			"primitives":[
				{
					"attributes":{
						"POSITION":4,
						"NORMAL":5,
						"TEXCOORD_0":6
					},
					"indices":7,
					"material":0
				}
			]
		},
		{
			"name":"Cube.111",
			"primitives":[
				{
					"attributes":{
						"POSITION":8,
						"NORMAL":9,
						"TEXCOORD_0":10
					},
					"indices":11,
					"material":0
				}
			]
		},
		{
			"name":"B\u00e9zierCircle",
			"primitives":[
				{
					"attributes":{
						"POSITION":12,
						"NORMAL":13,
						"TEXCOORD_0":14,
						"JOINTS_0":15,
						"WEIGHTS_0":16
					},
					"indices":17,
					"material":1
				}
			]
		},
		{
			"name":"Cylinder.10700",
			"primitives":[
				{
					"attributes":{
						"POSITION":19,
						"NORMAL":20,
						"TEXCOORD_0":21,
						"JOINTS_0":22,
						"WEIGHTS_0":23
					},
					"indices":24,
					"material":1
				}
			]
		},
		{
			"name":"Cube.199",
			"primitives":[
				{
					"attributes":{
						"POSITION":25,
						"NORMAL":26,
						"TEXCOORD_0":27
					},
					"indices":28
				}
			]
		},
		{
			"name":"Cube.200",
			"primitives":[
				{
					"attributes":{
						"POSITION":29,
						"NORMAL":30,
						"TEXCOORD_0":31
					},
					"indices":28
				}
			]
		}
	],
	"textures":[
		{
			"sampler":0,
			"source":0
		},
		{
			"sampler":0,
			"source":1
		},
		{
			"sampler":0,
			"source":2
		}
	],
	"images":[
		{
			"mimeType":"image/png",
			"name":"stylizedWood_v01_normal",
			"uri":"stylizedWood_v01_normal.png"
		},
		{
			"mimeType":"image/png",
			"name":"stylizedWood_v01_basecolor",
			"uri":"stylizedWood_v01_basecolor.png"
		},
		{
			"mimeType":"image/png",
			"name":"AtlasGradient_mat_baseColor_512x512_512x512",
			"uri":"AtlasGradient_mat_baseColor_512x512_512x512.png"
		}
	],
	"skins":[
		{
			"inverseBindMatrices":18,
			"joints":[
				3,
				4,
				10,
				9,
				8,
				7,
				6,
				5
			],
			"name":"Armature.001"
		}
	],
	"accessors":[
		{
			"bufferView":0,
			"componentType":5126,
			"count":32,
			"max":[
				1.1798442602157593,
				10.625688552856445,
				1.5420756340026855
			],
			"min":[
				-1.1798436641693115,
				-10.625697135925293,
				-1.542072057723999
			],
			"type":"VEC3"
		},
		{
			"bufferView":1,
			"componentType":5126,
			"count":32,
			"type":"VEC3"
		},
		{
			"bufferView":2,
			"componentType":5126,
			"count":32,
			"type":"VEC2"
		},
		{
			"bufferView":3,
			"componentType":5123,
			"count":60,
			"type":"SCALAR"
		},
		{
			"bufferView":4,
			"componentType":5126,
			"count":24,
			"max":[
				1.1329973936080933,
				10.625688552856445,
				1.4897332191467285
			],
			"min":[
				-1.132996678352356,
				-10.625697135925293,
				-1.4897297620773315
			],
			"type":"VEC3"
		},
		{
			"bufferView":5,
			"componentType":5126,
			"count":24,
			"type":"VEC3"
		},
		{
			"bufferView":6,
			"componentType":5126,
			"count":24,
			"type":"VEC2"
		},
		{
			"bufferView":7,
			"componentType":5123,
			"count":36,
			"type":"SCALAR"
		},
		{
			"bufferView":8,
			"componentType":5126,
			"count":51,
			"max":[
				1.824073076248169,
				37.591365814208984,
				2.4895083904266357
			],
			"min":[
				-1.9382336139678955,
				-13.166956901550293,
				-2.4812498092651367
			],
			"type":"VEC3"
		},
		{
			"bufferView":9,
			"componentType":5126,
			"count":51,
			"type":"VEC3"
		},
		{
			"bufferView":10,
			"componentType":5126,
			"count":51,
			"type":"VEC2"
		},
		{
			"bufferView":11,
			"componentType":5123,
			"count":132,
			"type":"SCALAR"
		},
		{
			"bufferView":12,
			"componentType":5126,
			"count":495,
			"max":[
				244.79222106933594,
				72.55433654785156,
				-244.3389129638672
			],
			"min":[
				243.657958984375,
				72.36163330078125,
				-245.79592895507812
			],
			"type":"VEC3"
		},
		{
			"bufferView":13,
			"componentType":5126,
			"count":495,
			"type":"VEC3"
		},
		{
			"bufferView":14,
			"componentType":5126,
			"count":495,
			"type":"VEC2"
		},
		{
			"bufferView":15,
			"componentType":5121,
			"count":495,
			"type":"VEC4"
		},
		{
			"bufferView":16,
			"componentType":5126,
			"count":495,
			"type":"VEC4"
		},
		{
			"bufferView":17,
			"componentType":5123,
			"count":828,
			"type":"SCALAR"
		},
		{
			"bufferView":18,
			"componentType":5126,
			"count":8,
			"type":"MAT4"
		},
		{
			"bufferView":19,
			"componentType":5126,
			"count":480,
			"max":[
				244.9255828857422,
				72.78813934326172,
				-245.37290954589844
			],
			"min":[
				243.57337951660156,
				70.95248413085938,
				-249.9268798828125
			],
			"type":"VEC3"
		},
		{
			"bufferView":20,
			"componentType":5126,
			"count":480,
			"type":"VEC3"
		},
		{
			"bufferView":21,
			"componentType":5126,
			"count":480,
			"type":"VEC2"
		},
		{
			"bufferView":22,
			"componentType":5121,
			"count":480,
			"type":"VEC4"
		},
		{
			"bufferView":23,
			"componentType":5126,
			"count":480,
			"type":"VEC4"
		},
		{
			"bufferView":24,
			"componentType":5123,
			"count":2112,
			"type":"SCALAR"
		},
		{
			"bufferView":25,
			"componentType":5126,
			"count":24,
			"max":[
				0.2743372917175293,
				8.397895812988281,
				0.2743372917175293
			],
			"min":[
				-0.2743372917175293,
				-2.3572044372558594,
				-0.2743372917175293
			],
			"type":"VEC3"
		},
		{
			"bufferView":26,
			"componentType":5126,
			"count":24,
			"type":"VEC3"
		},
		{
			"bufferView":27,
			"componentType":5126,
			"count":24,
			"type":"VEC2"
		},
		{
			"bufferView":28,
			"componentType":5123,
			"count":36,
			"type":"SCALAR"
		},
		{
			"bufferView":29,
			"componentType":5126,
			"count":24,
			"max":[
				0.5203538537025452,
				1.3987462520599365,
				0.5203538537025452
			],
			"min":[
				-0.5203538537025452,
				-0.33399930596351624,
				-0.5203538537025452
			],
			"type":"VEC3"
		},
		{
			"bufferView":30,
			"componentType":5126,
			"count":24,
			"type":"VEC3"
		},
		{
			"bufferView":31,
			"componentType":5126,
			"count":24,
			"type":"VEC2"
		},
		{
			"bufferView":32,
			"componentType":5126,
			"count":2,
			"max":[
				40
			],
			"min":[
				0.016666666666666666
			],
			"type":"SCALAR"
		},
		{
			"bufferView":33,
			"componentType":5126,
			"count":2,
			"type":"VEC3"
		},
		{
			"bufferView":34,
			"componentType":5126,
			"count":2,
			"type":"VEC4"
		},
		{
			"bufferView":35,
			"componentType":5126,
			"count":2,
			"type":"VEC3"
		},
		{
			"bufferView":36,
			"componentType":5126,
			"count":2,
			"type":"VEC3"
		},
		{
			"bufferView":37,
			"componentType":5126,
			"count":2400,
			"max":[
				40
			],
			"min":[
				0.016666666666666666
			],
			"type":"SCALAR"
		},
		{
			"bufferView":38,
			"componentType":5126,
			"count":2400,
			"type":"VEC4"
		},
		{
			"bufferView":39,
			"componentType":5126,
			"count":2,
			"type":"VEC3"
		},
		{
			"bufferView":40,
			"componentType":5126,
			"count":2400,
			"type":"VEC4"
		},
		{
			"bufferView":41,
			"componentType":5126,
			"count":2,
			"type":"VEC3"
		},
		{
			"bufferView":42,
			"componentType":5126,
			"count":2,
			"type":"VEC3"
		},
		{
			"bufferView":43,
			"componentType":5126,
			"count":2400,
			"type":"VEC4"
		},
		{
			"bufferView":44,
			"componentType":5126,
			"count":2,
			"type":"VEC3"
		},
		{
			"bufferView":45,
			"componentType":5126,
			"count":2,
			"type":"VEC3"
		},
		{
			"bufferView":46,
			"componentType":5126,
			"count":2400,
			"type":"VEC4"
		},
		{
			"bufferView":47,
			"componentType":5126,
			"count":2,
			"type":"VEC3"
		},
		{
			"bufferView":48,
			"componentType":5126,
			"count":2,
			"type":"VEC3"
		},
		{
			"bufferView":49,
			"componentType":5126,
			"count":2400,
			"type":"VEC4"
		},
		{
			"bufferView":50,
			"componentType":5126,
			"count":2,
			"type":"VEC3"
		},
		{
			"bufferView":51,
			"componentType":5126,
			"count":2,
			"type":"VEC3"
		},
		{
			"bufferView":52,
			"componentType":5126,
			"count":2400,
			"type":"VEC4"
		},
		{
			"bufferView":53,
			"componentType":5126,
			"count":2,
			"type":"VEC3"
		},
		{
			"bufferView":54,
			"componentType":5126,
			"count":2,
			"type":"VEC3"
		},
		{
			"bufferView":55,
			"componentType":5126,
			"count":2,
			"type":"VEC4"
		},
		{
			"bufferView":56,
			"componentType":5126,
			"count":2,
			"type":"VEC3"
		},
		{
			"bufferView":57,
			"componentType":5126,
			"count":2,
			"max":[
				50
			],
			"min":[
				0.016666666666666666
			],
			"type":"SCALAR"
		},
		{
			"bufferView":58,
			"componentType":5126,
			"count":3000,
			"max":[
				50
			],
			"min":[
				0.016666666666666666
			],
			"type":"SCALAR"
		},
		{
			"bufferView":59,
			"componentType":5126,
			"count":3000,
			"type":"VEC4"
		},
		{
			"bufferView":60,
			"componentType":5126,
			"count":2,
			"type":"VEC3"
		},
		{
			"bufferView":61,
			"componentType":5126,
			"count":3000,
			"type":"VEC4"
		},
		{
			"bufferView":62,
			"componentType":5126,
			"count":2,
			"type":"VEC3"
		},
		{
			"bufferView":63,
			"componentType":5126,
			"count":2,
			"type":"VEC3"
		},
		{
			"bufferView":64,
			"componentType":5126,
			"count":3000,
			"type":"VEC4"
		},
		{
			"bufferView":65,
			"componentType":5126,
			"count":2,
			"type":"VEC3"
		},
		{
			"bufferView":66,
			"componentType":5126,
			"count":2,
			"type":"VEC3"
		},
		{
			"bufferView":67,
			"componentType":5126,
			"count":3000,
			"type":"VEC4"
		},
		{
			"bufferView":68,
			"componentType":5126,
			"count":2,
			"type":"VEC3"
		},
		{
			"bufferView":69,
			"componentType":5126,
			"count":2,
			"type":"VEC3"
		},
		{
			"bufferView":70,
			"componentType":5126,
			"count":3000,
			"type":"VEC4"
		},
		{
			"bufferView":71,
			"componentType":5126,
			"count":2,
			"type":"VEC3"
		},
		{
			"bufferView":72,
			"componentType":5126,
			"count":2,
			"type":"VEC3"
		},
		{
			"bufferView":73,
			"componentType":5126,
			"count":3000,
			"type":"VEC4"
		},
		{
			"bufferView":74,
			"componentType":5126,
			"count":2,
			"type":"VEC3"
		},
		{
			"bufferView":75,
			"componentType":5126,
			"count":2,
			"type":"VEC3"
		},
		{
			"bufferView":76,
			"componentType":5126,
			"count":2,
			"type":"VEC4"
		},
		{
			"bufferView":77,
			"componentType":5126,
			"count":2,
			"type":"VEC3"
		},
		{
			"bufferView":78,
			"componentType":5126,
			"count":2,
			"max":[
				2.4166666666666665
			],
			"min":[
				0
			],
			"type":"SCALAR"
		},
		{
			"bufferView":79,
			"componentType":5126,
			"count":2,
			"type":"VEC4"
		},
		{
			"bufferView":80,
			"componentType":5126,
			"count":2,
			"type":"VEC4"
		},
		{
			"bufferView":81,
			"componentType":5126,
			"count":2,
			"type":"VEC3"
		},
		{
			"bufferView":82,
			"componentType":5126,
			"count":2,
			"type":"VEC3"
		},
		{
			"bufferView":83,
			"componentType":5126,
			"count":2,
			"type":"VEC4"
		},
		{
			"bufferView":84,
			"componentType":5126,
			"count":2,
			"type":"VEC3"
		},
		{
			"bufferView":85,
			"componentType":5126,
			"count":2,
			"type":"VEC3"
		},
		{
			"bufferView":86,
			"componentType":5126,
			"count":2,
			"type":"VEC4"
		},
		{
			"bufferView":87,
			"componentType":5126,
			"count":2,
			"type":"VEC3"
		},
		{
			"bufferView":88,
			"componentType":5126,
			"count":2,
			"type":"VEC3"
		},
		{
			"bufferView":89,
			"componentType":5126,
			"count":2,
			"type":"VEC4"
		},
		{
			"bufferView":90,
			"componentType":5126,
			"count":2,
			"type":"VEC3"
		},
		{
			"bufferView":91,
			"componentType":5126,
			"count":2,
			"type":"VEC3"
		},
		{
			"bufferView":92,
			"componentType":5126,
			"count":2,
			"type":"VEC4"
		},
		{
			"bufferView":93,
			"componentType":5126,
			"count":2,
			"type":"VEC3"
		},
		{
			"bufferView":94,
			"componentType":5126,
			"count":2,
			"type":"VEC3"
		},
		{
			"bufferView":95,
			"componentType":5126,
			"count":2,
			"type":"VEC4"
		},
		{
			"bufferView":96,
			"componentType":5126,
			"count":2,
			"max":[
				2.6666666666666665
			],
			"min":[
				0
			],
			"type":"SCALAR"
		},
		{
			"bufferView":97,
			"componentType":5126,
			"count":2,
			"max":[
				3.6666666666666665
			],
			"min":[
				0
			],
			"type":"SCALAR"
		}
	],
	"bufferViews":[
		{
			"buffer":0,
			"byteLength":384,
			"byteOffset":0,
			"target":34962
		},
		{
			"buffer":0,
			"byteLength":384,
			"byteOffset":384,
			"target":34962
		},
		{
			"buffer":0,
			"byteLength":256,
			"byteOffset":768,
			"target":34962
		},
		{
			"buffer":0,
			"byteLength":120,
			"byteOffset":1024,
			"target":34963
		},
		{
			"buffer":0,
			"byteLength":288,
			"byteOffset":1144,
			"target":34962
		},
		{
			"buffer":0,
			"byteLength":288,
			"byteOffset":1432,
			"target":34962
		},
		{
			"buffer":0,
			"byteLength":192,
			"byteOffset":1720,
			"target":34962
		},
		{
			"buffer":0,
			"byteLength":72,
			"byteOffset":1912,
			"target":34963
		},
		{
			"buffer":0,
			"byteLength":612,
			"byteOffset":1984,
			"target":34962
		},
		{
			"buffer":0,
			"byteLength":612,
			"byteOffset":2596,
			"target":34962
		},
		{
			"buffer":0,
			"byteLength":408,
			"byteOffset":3208,
			"target":34962
		},
		{
			"buffer":0,
			"byteLength":264,
			"byteOffset":3616,
			"target":34963
		},
		{
			"buffer":0,
			"byteLength":5940,
			"byteOffset":3880,
			"target":34962
		},
		{
			"buffer":0,
			"byteLength":5940,
			"byteOffset":9820,
			"target":34962
		},
		{
			"buffer":0,
			"byteLength":3960,
			"byteOffset":15760,
			"target":34962
		},
		{
			"buffer":0,
			"byteLength":1980,
			"byteOffset":19720,
			"target":34962
		},
		{
			"buffer":0,
			"byteLength":7920,
			"byteOffset":21700,
			"target":34962
		},
		{
			"buffer":0,
			"byteLength":1656,
			"byteOffset":29620,
			"target":34963
		},
		{
			"buffer":0,
			"byteLength":512,
			"byteOffset":31276
		},
		{
			"buffer":0,
			"byteLength":5760,
			"byteOffset":31788,
			"target":34962
		},
		{
			"buffer":0,
			"byteLength":5760,
			"byteOffset":37548,
			"target":34962
		},
		{
			"buffer":0,
			"byteLength":3840,
			"byteOffset":43308,
			"target":34962
		},
		{
			"buffer":0,
			"byteLength":1920,
			"byteOffset":47148,
			"target":34962
		},
		{
			"buffer":0,
			"byteLength":7680,
			"byteOffset":49068,
			"target":34962
		},
		{
			"buffer":0,
			"byteLength":4224,
			"byteOffset":56748,
			"target":34963
		},
		{
			"buffer":0,
			"byteLength":288,
			"byteOffset":60972,
			"target":34962
		},
		{
			"buffer":0,
			"byteLength":288,
			"byteOffset":61260,
			"target":34962
		},
		{
			"buffer":0,
			"byteLength":192,
			"byteOffset":61548,
			"target":34962
		},
		{
			"buffer":0,
			"byteLength":72,
			"byteOffset":61740,
			"target":34963
		},
		{
			"buffer":0,
			"byteLength":288,
			"byteOffset":61812,
			"target":34962
		},
		{
			"buffer":0,
			"byteLength":288,
			"byteOffset":62100,
			"target":34962
		},
		{
			"buffer":0,
			"byteLength":192,
			"byteOffset":62388,
			"target":34962
		},
		{
			"buffer":0,
			"byteLength":8,
			"byteOffset":62580
		},
		{
			"buffer":0,
			"byteLength":24,
			"byteOffset":62588
		},
		{
			"buffer":0,
			"byteLength":32,
			"byteOffset":62612
		},
		{
			"buffer":0,
			"byteLength":24,
			"byteOffset":62644
		},
		{
			"buffer":0,
			"byteLength":24,
			"byteOffset":62668
		},
		{
			"buffer":0,
			"byteLength":9600,
			"byteOffset":62692
		},
		{
			"buffer":0,
			"byteLength":38400,
			"byteOffset":72292
		},
		{
			"buffer":0,
			"byteLength":24,
			"byteOffset":110692
		},
		{
			"buffer":0,
			"byteLength":38400,
			"byteOffset":110716
		},
		{
			"buffer":0,
			"byteLength":24,
			"byteOffset":149116
		},
		{
			"buffer":0,
			"byteLength":24,
			"byteOffset":149140
		},
		{
			"buffer":0,
			"byteLength":38400,
			"byteOffset":149164
		},
		{
			"buffer":0,
			"byteLength":24,
			"byteOffset":187564
		},
		{
			"buffer":0,
			"byteLength":24,
			"byteOffset":187588
		},
		{
			"buffer":0,
			"byteLength":38400,
			"byteOffset":187612
		},
		{
			"buffer":0,
			"byteLength":24,
			"byteOffset":226012
		},
		{
			"buffer":0,
			"byteLength":24,
			"byteOffset":226036
		},
		{
			"buffer":0,
			"byteLength":38400,
			"byteOffset":226060
		},
		{
			"buffer":0,
			"byteLength":24,
			"byteOffset":264460
		},
		{
			"buffer":0,
			"byteLength":24,
			"byteOffset":264484
		},
		{
			"buffer":0,
			"byteLength":38400,
			"byteOffset":264508
		},
		{
			"buffer":0,
			"byteLength":24,
			"byteOffset":302908
		},
		{
			"buffer":0,
			"byteLength":24,
			"byteOffset":302932
		},
		{
			"buffer":0,
			"byteLength":32,
			"byteOffset":302956
		},
		{
			"buffer":0,
			"byteLength":24,
			"byteOffset":302988
		},
		{
			"buffer":0,
			"byteLength":8,
			"byteOffset":303012
		},
		{
			"buffer":0,
			"byteLength":12000,
			"byteOffset":303020
		},
		{
			"buffer":0,
			"byteLength":48000,
			"byteOffset":315020
		},
		{
			"buffer":0,
			"byteLength":24,
			"byteOffset":363020
		},
		{
			"buffer":0,
			"byteLength":48000,
			"byteOffset":363044
		},
		{
			"buffer":0,
			"byteLength":24,
			"byteOffset":411044
		},
		{
			"buffer":0,
			"byteLength":24,
			"byteOffset":411068
		},
		{
			"buffer":0,
			"byteLength":48000,
			"byteOffset":411092
		},
		{
			"buffer":0,
			"byteLength":24,
			"byteOffset":459092
		},
		{
			"buffer":0,
			"byteLength":24,
			"byteOffset":459116
		},
		{
			"buffer":0,
			"byteLength":48000,
			"byteOffset":459140
		},
		{
			"buffer":0,
			"byteLength":24,
			"byteOffset":507140
		},
		{
			"buffer":0,
			"byteLength":24,
			"byteOffset":507164
		},
		{
			"buffer":0,
			"byteLength":48000,
			"byteOffset":507188
		},
		{
			"buffer":0,
			"byteLength":24,
			"byteOffset":555188
		},
		{
			"buffer":0,
			"byteLength":24,
			"byteOffset":555212
		},
		{
			"buffer":0,
			"byteLength":48000,
			"byteOffset":555236
		},
		{
			"buffer":0,
			"byteLength":24,
			"byteOffset":603236
		},
		{
			"buffer":0,
			"byteLength":24,
			"byteOffset":603260
		},
		{
			"buffer":0,
			"byteLength":32,
			"byteOffset":603284
		},
		{
			"buffer":0,
			"byteLength":24,
			"byteOffset":603316
		},
		{
			"buffer":0,
			"byteLength":8,
			"byteOffset":603340
		},
		{
			"buffer":0,
			"byteLength":32,
			"byteOffset":603348
		},
		{
			"buffer":0,
			"byteLength":32,
			"byteOffset":603380
		},
		{
			"buffer":0,
			"byteLength":24,
			"byteOffset":603412
		},
		{
			"buffer":0,
			"byteLength":24,
			"byteOffset":603436
		},
		{
			"buffer":0,
			"byteLength":32,
			"byteOffset":603460
		},
		{
			"buffer":0,
			"byteLength":24,
			"byteOffset":603492
		},
		{
			"buffer":0,
			"byteLength":24,
			"byteOffset":603516
		},
		{
			"buffer":0,
			"byteLength":32,
			"byteOffset":603540
		},
		{
			"buffer":0,
			"byteLength":24,
			"byteOffset":603572
		},
		{
			"buffer":0,
			"byteLength":24,
			"byteOffset":603596
		},
		{
			"buffer":0,
			"byteLength":32,
			"byteOffset":603620
		},
		{
			"buffer":0,
			"byteLength":24,
			"byteOffset":603652
		},
		{
			"buffer":0,
			"byteLength":24,
			"byteOffset":603676
		},
		{
			"buffer":0,
			"byteLength":32,
			"byteOffset":603700
		},
		{
			"buffer":0,
			"byteLength":24,
			"byteOffset":603732
		},
		{
			"buffer":0,
			"byteLength":24,
			"byteOffset":603756
		},
		{
			"buffer":0,
			"byteLength":32,
			"byteOffset":603780
		},
		{
			"buffer":0,
			"byteLength":8,
			"byteOffset":603812
		},
		{
			"buffer":0,
			"byteLength":8,
			"byteOffset":603820
		}
	],
	"samplers":[
		{
			"magFilter":9729,
			"minFilter":9987
		}
	],
	"buffers":[
		{
			"byteLength":603828,
			"uri":"windSock.bin"
		}
	]
}
